%TF.GenerationSoftware,KiCad,Pcbnew,(5.1.6)-1*%
%TF.CreationDate,2020-11-07T21:14:23+00:00*%
%TF.ProjectId,ninja_iron,6e696e6a-615f-4697-926f-6e2e6b696361,rev?*%
%TF.SameCoordinates,Original*%
%TF.FileFunction,Profile,NP*%
%FSLAX46Y46*%
G04 Gerber Fmt 4.6, Leading zero omitted, Abs format (unit mm)*
G04 Created by KiCad (PCBNEW (5.1.6)-1) date 2020-11-07 21:14:23*
%MOMM*%
%LPD*%
G01*
G04 APERTURE LIST*
%TA.AperFunction,Profile*%
%ADD10C,0.150000*%
%TD*%
%TA.AperFunction,Profile*%
%ADD11C,0.200000*%
%TD*%
G04 APERTURE END LIST*
D10*
X48260000Y-145542000D02*
X54102000Y-139954000D01*
X54102000Y-123444000D02*
X48768000Y-123444000D01*
X121896000Y-146812000D02*
G75*
G03*
X121896000Y-146812000I-1500000J0D01*
G01*
X111506000Y-147320000D02*
X82296000Y-147320000D01*
X54102000Y-121412000D02*
X54102000Y-120904000D01*
X118872000Y-125222000D02*
X124206000Y-125222000D01*
X54102000Y-133604000D02*
X54102000Y-131572000D01*
X48768000Y-133604000D02*
X54102000Y-133604000D01*
X54102000Y-125476000D02*
X54102000Y-123444000D01*
X124460000Y-145288000D02*
X124460000Y-146812000D01*
X54102000Y-129540000D02*
X54102000Y-127508000D01*
X124206000Y-131318000D02*
X118872000Y-131318000D01*
X120904000Y-150368000D02*
X115316000Y-150368000D01*
X54102000Y-131572000D02*
X48768000Y-131572000D01*
X111506000Y-147574000D02*
X111506000Y-147320000D01*
X60706000Y-148844000D02*
X58928000Y-148844000D01*
X124206000Y-139446000D02*
X118872000Y-139446000D01*
X118872000Y-137414000D02*
X124206000Y-137414000D01*
X48768000Y-121412000D02*
X54102000Y-121412000D01*
X48768000Y-125476000D02*
X54102000Y-125476000D01*
X57404000Y-150368000D02*
X51816000Y-150368000D01*
X54102000Y-139954000D02*
X54102000Y-139700000D01*
X58928000Y-148844000D02*
X57404000Y-150368000D01*
X118872000Y-139446000D02*
X118872000Y-139700000D01*
X115316000Y-150368000D02*
X113792000Y-148844000D01*
X124206000Y-127254000D02*
X118872000Y-127254000D01*
X48768000Y-129540000D02*
X54102000Y-129540000D01*
D11*
X101600000Y-122428000D02*
G75*
G02*
X102616000Y-121412000I1016000J0D01*
G01*
D10*
X54102000Y-139700000D02*
X48768000Y-139700000D01*
X118872000Y-127254000D02*
X118872000Y-129286000D01*
D11*
X58928000Y-125222000D02*
X59182000Y-125222000D01*
D10*
X118872000Y-139700000D02*
X124460000Y-145288000D01*
X54102000Y-137668000D02*
X54102000Y-135636000D01*
X51816000Y-150368000D02*
G75*
G02*
X48260000Y-146812000I0J3556000D01*
G01*
X118872000Y-133350000D02*
X124206000Y-133350000D01*
D11*
X68326000Y-125222000D02*
X68326000Y-136652000D01*
X102616000Y-124460000D02*
G75*
G02*
X101600000Y-123444000I0J1016000D01*
G01*
D10*
X54102000Y-127508000D02*
X48768000Y-127508000D01*
X118872000Y-129286000D02*
X124206000Y-129286000D01*
X53824000Y-146812000D02*
G75*
G03*
X53824000Y-146812000I-1500000J0D01*
G01*
D11*
X58928000Y-136652000D02*
X58928000Y-125222000D01*
X108712000Y-121412000D02*
G75*
G02*
X109728000Y-122428000I0J-1016000D01*
G01*
D10*
X118872000Y-131318000D02*
X118872000Y-133350000D01*
X61214000Y-147320000D02*
X61214000Y-148336000D01*
X82296000Y-147320000D02*
X61214000Y-147320000D01*
X118872000Y-123190000D02*
X118872000Y-125222000D01*
X124460000Y-146812000D02*
G75*
G02*
X120904000Y-150368000I-3556000J0D01*
G01*
X48768000Y-137668000D02*
X54102000Y-137668000D01*
X111506000Y-147574000D02*
X111506000Y-148336000D01*
X54102000Y-135636000D02*
X48768000Y-135636000D01*
X124206000Y-123190000D02*
X118872000Y-123190000D01*
D11*
X109728000Y-123444000D02*
G75*
G02*
X108712000Y-124460000I-1016000J0D01*
G01*
X105664000Y-124460000D02*
X102616000Y-124460000D01*
D10*
X124206000Y-125222000D02*
G75*
G02*
X124206000Y-127254000I0J-1016000D01*
G01*
X48768000Y-131572000D02*
G75*
G02*
X48768000Y-129540000I0J1016000D01*
G01*
X61214000Y-148336000D02*
G75*
G02*
X60706000Y-148844000I-508000J0D01*
G01*
X124206000Y-129286000D02*
G75*
G02*
X124206000Y-131318000I0J-1016000D01*
G01*
D11*
X109728000Y-123444000D02*
X109728000Y-122428000D01*
X108712000Y-124460000D02*
X105664000Y-124460000D01*
D10*
X124206000Y-121158000D02*
G75*
G02*
X124206000Y-123190000I0J-1016000D01*
G01*
D11*
X101600000Y-122428000D02*
X101600000Y-123444000D01*
X105664000Y-121412000D02*
X108712000Y-121412000D01*
D10*
X48768000Y-139700000D02*
G75*
G02*
X48768000Y-137668000I0J1016000D01*
G01*
X124206000Y-133350000D02*
G75*
G02*
X124206000Y-135382000I0J-1016000D01*
G01*
X112014000Y-148844000D02*
G75*
G02*
X111506000Y-148336000I0J508000D01*
G01*
X118872000Y-135382000D02*
X118872000Y-137414000D01*
X124206000Y-137414000D02*
G75*
G02*
X124206000Y-139446000I0J-1016000D01*
G01*
X61468000Y-113284000D02*
X111506000Y-113284000D01*
D11*
X59182000Y-125222000D02*
X68326000Y-125222000D01*
D10*
X48768000Y-127508000D02*
G75*
G02*
X48768000Y-125476000I0J1016000D01*
G01*
D11*
X92868000Y-128016000D02*
G75*
G03*
X92868000Y-128016000I-6000000J0D01*
G01*
D10*
X48768000Y-123444000D02*
G75*
G02*
X48768000Y-121412000I0J1016000D01*
G01*
X48260000Y-146812000D02*
X48260000Y-145542000D01*
X48768000Y-135636000D02*
G75*
G02*
X48768000Y-133604000I0J1016000D01*
G01*
D11*
X59436000Y-136652000D02*
X58928000Y-136652000D01*
D10*
X124206000Y-135382000D02*
X118872000Y-135382000D01*
D11*
X102616000Y-121412000D02*
X105664000Y-121412000D01*
X78660000Y-133604000D02*
G75*
G03*
X78660000Y-133604000I-2500000J0D01*
G01*
X68326000Y-136652000D02*
X59436000Y-136652000D01*
D10*
X112014000Y-148844000D02*
X113792000Y-148844000D01*
X115316000Y-110236000D02*
X120904000Y-110236000D01*
X118872000Y-120904000D02*
X118872000Y-121158000D01*
X48514000Y-115316000D02*
X48514000Y-113792000D01*
X52070000Y-110236000D02*
X57658000Y-110236000D01*
X124460000Y-113792000D02*
X124460000Y-115316000D01*
X118872000Y-120904000D02*
X118872000Y-120900000D01*
X111506000Y-112268000D02*
G75*
G02*
X112014000Y-111760000I508000J0D01*
G01*
X118872000Y-121158000D02*
X124206000Y-121158000D01*
X48514000Y-113792000D02*
G75*
G02*
X52070000Y-110236000I3556000J0D01*
G01*
X124460000Y-115316000D02*
X118872000Y-120904000D01*
X111506000Y-113284000D02*
X111506000Y-112268000D01*
X120904000Y-110236000D02*
G75*
G02*
X124460000Y-113792000I0J-3556000D01*
G01*
X54102000Y-120904000D02*
X48514000Y-115316000D01*
X59182000Y-111760000D02*
X60960000Y-111760000D01*
X121944000Y-113744000D02*
G75*
G03*
X121944000Y-113744000I-1500000J0D01*
G01*
X60960000Y-111760000D02*
G75*
G02*
X61468000Y-112268000I0J-508000D01*
G01*
X112014000Y-111760000D02*
X113538000Y-111760000D01*
X113538000Y-111760000D02*
X113792000Y-111760000D01*
X53872000Y-113792000D02*
G75*
G03*
X53872000Y-113792000I-1500000J0D01*
G01*
X61468000Y-112268000D02*
X61468000Y-113284000D01*
X57658000Y-110236000D02*
X59182000Y-111760000D01*
X113792000Y-111760000D02*
X115316000Y-110236000D01*
M02*
