%TF.GenerationSoftware,KiCad,Pcbnew,(5.1.6)-1*%
%TF.CreationDate,2020-11-07T21:14:23+00:00*%
%TF.ProjectId,ninja_iron,6e696e6a-615f-4697-926f-6e2e6b696361,rev?*%
%TF.SameCoordinates,Original*%
%TF.FileFunction,Soldermask,Bot*%
%TF.FilePolarity,Negative*%
%FSLAX46Y46*%
G04 Gerber Fmt 4.6, Leading zero omitted, Abs format (unit mm)*
G04 Created by KiCad (PCBNEW (5.1.6)-1) date 2020-11-07 21:14:23*
%MOMM*%
%LPD*%
G01*
G04 APERTURE LIST*
%ADD10C,0.254000*%
G04 APERTURE END LIST*
%TO.C,-*%
G36*
G01*
X76290000Y-119734000D02*
X76290000Y-119534000D01*
G75*
G02*
X76390000Y-119434000I100000J0D01*
G01*
X76650000Y-119434000D01*
G75*
G02*
X76750000Y-119534000I0J-100000D01*
G01*
X76750000Y-119734000D01*
G75*
G02*
X76650000Y-119834000I-100000J0D01*
G01*
X76390000Y-119834000D01*
G75*
G02*
X76290000Y-119734000I0J100000D01*
G01*
G37*
G36*
G01*
X75650000Y-119734000D02*
X75650000Y-119534000D01*
G75*
G02*
X75750000Y-119434000I100000J0D01*
G01*
X76010000Y-119434000D01*
G75*
G02*
X76110000Y-119534000I0J-100000D01*
G01*
X76110000Y-119734000D01*
G75*
G02*
X76010000Y-119834000I-100000J0D01*
G01*
X75750000Y-119834000D01*
G75*
G02*
X75650000Y-119734000I0J100000D01*
G01*
G37*
%TD*%
D10*
G36*
X59092197Y-111849803D02*
G01*
X59111443Y-111865597D01*
X59133399Y-111877333D01*
X59157224Y-111884560D01*
X59182000Y-111887000D01*
X61135510Y-111887000D01*
X61348173Y-112312326D01*
X61468000Y-112791634D01*
X61468000Y-113284000D01*
X61591091Y-113284000D01*
X61595000Y-113299634D01*
X61595000Y-115189000D01*
X60960000Y-115189000D01*
X60935224Y-115191440D01*
X60911399Y-115198667D01*
X60889443Y-115210403D01*
X60870197Y-115226197D01*
X54811394Y-121285000D01*
X54229000Y-121285000D01*
X54229000Y-120904000D01*
X54226560Y-120879224D01*
X54219333Y-120855399D01*
X54207597Y-120833443D01*
X54191803Y-120814197D01*
X48641000Y-115263394D01*
X48641000Y-113844606D01*
X48693606Y-113792000D01*
X50872000Y-113792000D01*
X50892458Y-114038892D01*
X50953274Y-114279049D01*
X51052789Y-114505921D01*
X51188289Y-114713319D01*
X51356078Y-114895586D01*
X51551578Y-115047750D01*
X51769457Y-115165660D01*
X52003772Y-115246100D01*
X52248131Y-115286877D01*
X52495869Y-115286877D01*
X52740228Y-115246100D01*
X52974543Y-115165660D01*
X53192422Y-115047750D01*
X53387922Y-114895586D01*
X53555711Y-114713319D01*
X53691211Y-114505921D01*
X53790726Y-114279049D01*
X53851542Y-114038892D01*
X53872000Y-113792000D01*
X53851542Y-113545108D01*
X53790726Y-113304951D01*
X53691211Y-113078079D01*
X53555711Y-112870681D01*
X53387922Y-112688414D01*
X53192422Y-112536250D01*
X52974543Y-112418340D01*
X52740228Y-112337900D01*
X52495869Y-112297123D01*
X52248131Y-112297123D01*
X52003772Y-112337900D01*
X51769457Y-112418340D01*
X51551578Y-112536250D01*
X51356078Y-112688414D01*
X51188289Y-112870681D01*
X51052789Y-113078079D01*
X50953274Y-113304951D01*
X50892458Y-113545108D01*
X50872000Y-113792000D01*
X48693606Y-113792000D01*
X52122606Y-110363000D01*
X57605394Y-110363000D01*
X59092197Y-111849803D01*
G37*
X59092197Y-111849803D02*
X59111443Y-111865597D01*
X59133399Y-111877333D01*
X59157224Y-111884560D01*
X59182000Y-111887000D01*
X61135510Y-111887000D01*
X61348173Y-112312326D01*
X61468000Y-112791634D01*
X61468000Y-113284000D01*
X61591091Y-113284000D01*
X61595000Y-113299634D01*
X61595000Y-115189000D01*
X60960000Y-115189000D01*
X60935224Y-115191440D01*
X60911399Y-115198667D01*
X60889443Y-115210403D01*
X60870197Y-115226197D01*
X54811394Y-121285000D01*
X54229000Y-121285000D01*
X54229000Y-120904000D01*
X54226560Y-120879224D01*
X54219333Y-120855399D01*
X54207597Y-120833443D01*
X54191803Y-120814197D01*
X48641000Y-115263394D01*
X48641000Y-113844606D01*
X48693606Y-113792000D01*
X50872000Y-113792000D01*
X50892458Y-114038892D01*
X50953274Y-114279049D01*
X51052789Y-114505921D01*
X51188289Y-114713319D01*
X51356078Y-114895586D01*
X51551578Y-115047750D01*
X51769457Y-115165660D01*
X52003772Y-115246100D01*
X52248131Y-115286877D01*
X52495869Y-115286877D01*
X52740228Y-115246100D01*
X52974543Y-115165660D01*
X53192422Y-115047750D01*
X53387922Y-114895586D01*
X53555711Y-114713319D01*
X53691211Y-114505921D01*
X53790726Y-114279049D01*
X53851542Y-114038892D01*
X53872000Y-113792000D01*
X53851542Y-113545108D01*
X53790726Y-113304951D01*
X53691211Y-113078079D01*
X53555711Y-112870681D01*
X53387922Y-112688414D01*
X53192422Y-112536250D01*
X52974543Y-112418340D01*
X52740228Y-112337900D01*
X52495869Y-112297123D01*
X52248131Y-112297123D01*
X52003772Y-112337900D01*
X51769457Y-112418340D01*
X51551578Y-112536250D01*
X51356078Y-112688414D01*
X51188289Y-112870681D01*
X51052789Y-113078079D01*
X50953274Y-113304951D01*
X50892458Y-113545108D01*
X50872000Y-113792000D01*
X48693606Y-113792000D01*
X52122606Y-110363000D01*
X57605394Y-110363000D01*
X59092197Y-111849803D01*
G36*
X124333000Y-113844606D02*
G01*
X124333000Y-115263394D01*
X118782197Y-120814197D01*
X118766403Y-120833443D01*
X118754667Y-120855399D01*
X118747440Y-120879224D01*
X118745000Y-120904000D01*
X118745000Y-121285000D01*
X118162606Y-121285000D01*
X112103803Y-115226197D01*
X112084557Y-115210403D01*
X112062601Y-115198667D01*
X112038776Y-115191440D01*
X112014000Y-115189000D01*
X111379000Y-115189000D01*
X111379000Y-113744000D01*
X118944000Y-113744000D01*
X118964458Y-113990892D01*
X119025274Y-114231049D01*
X119124789Y-114457921D01*
X119260289Y-114665319D01*
X119428078Y-114847586D01*
X119623578Y-114999750D01*
X119841457Y-115117660D01*
X120075772Y-115198100D01*
X120320131Y-115238877D01*
X120567869Y-115238877D01*
X120812228Y-115198100D01*
X121046543Y-115117660D01*
X121264422Y-114999750D01*
X121459922Y-114847586D01*
X121627711Y-114665319D01*
X121763211Y-114457921D01*
X121862726Y-114231049D01*
X121923542Y-113990892D01*
X121944000Y-113744000D01*
X121923542Y-113497108D01*
X121862726Y-113256951D01*
X121763211Y-113030079D01*
X121627711Y-112822681D01*
X121459922Y-112640414D01*
X121264422Y-112488250D01*
X121046543Y-112370340D01*
X120812228Y-112289900D01*
X120567869Y-112249123D01*
X120320131Y-112249123D01*
X120075772Y-112289900D01*
X119841457Y-112370340D01*
X119623578Y-112488250D01*
X119428078Y-112640414D01*
X119260289Y-112822681D01*
X119124789Y-113030079D01*
X119025274Y-113256951D01*
X118964458Y-113497108D01*
X118944000Y-113744000D01*
X111379000Y-113744000D01*
X111379000Y-113299634D01*
X111382909Y-113284000D01*
X111506000Y-113284000D01*
X111506000Y-112791634D01*
X111625827Y-112312326D01*
X111838490Y-111887000D01*
X113792000Y-111887000D01*
X113816776Y-111884560D01*
X113840601Y-111877333D01*
X113862557Y-111865597D01*
X113881803Y-111849803D01*
X115368606Y-110363000D01*
X120851394Y-110363000D01*
X124333000Y-113844606D01*
G37*
X124333000Y-113844606D02*
X124333000Y-115263394D01*
X118782197Y-120814197D01*
X118766403Y-120833443D01*
X118754667Y-120855399D01*
X118747440Y-120879224D01*
X118745000Y-120904000D01*
X118745000Y-121285000D01*
X118162606Y-121285000D01*
X112103803Y-115226197D01*
X112084557Y-115210403D01*
X112062601Y-115198667D01*
X112038776Y-115191440D01*
X112014000Y-115189000D01*
X111379000Y-115189000D01*
X111379000Y-113744000D01*
X118944000Y-113744000D01*
X118964458Y-113990892D01*
X119025274Y-114231049D01*
X119124789Y-114457921D01*
X119260289Y-114665319D01*
X119428078Y-114847586D01*
X119623578Y-114999750D01*
X119841457Y-115117660D01*
X120075772Y-115198100D01*
X120320131Y-115238877D01*
X120567869Y-115238877D01*
X120812228Y-115198100D01*
X121046543Y-115117660D01*
X121264422Y-114999750D01*
X121459922Y-114847586D01*
X121627711Y-114665319D01*
X121763211Y-114457921D01*
X121862726Y-114231049D01*
X121923542Y-113990892D01*
X121944000Y-113744000D01*
X121923542Y-113497108D01*
X121862726Y-113256951D01*
X121763211Y-113030079D01*
X121627711Y-112822681D01*
X121459922Y-112640414D01*
X121264422Y-112488250D01*
X121046543Y-112370340D01*
X120812228Y-112289900D01*
X120567869Y-112249123D01*
X120320131Y-112249123D01*
X120075772Y-112289900D01*
X119841457Y-112370340D01*
X119623578Y-112488250D01*
X119428078Y-112640414D01*
X119260289Y-112822681D01*
X119124789Y-113030079D01*
X119025274Y-113256951D01*
X118964458Y-113497108D01*
X118944000Y-113744000D01*
X111379000Y-113744000D01*
X111379000Y-113299634D01*
X111382909Y-113284000D01*
X111506000Y-113284000D01*
X111506000Y-112791634D01*
X111625827Y-112312326D01*
X111838490Y-111887000D01*
X113792000Y-111887000D01*
X113816776Y-111884560D01*
X113840601Y-111877333D01*
X113862557Y-111865597D01*
X113881803Y-111849803D01*
X115368606Y-110363000D01*
X120851394Y-110363000D01*
X124333000Y-113844606D01*
G36*
X111017617Y-147193000D02*
G01*
X61341000Y-147193000D01*
X61341000Y-145415000D01*
X111017617Y-145415000D01*
X111017617Y-147193000D01*
G37*
X111017617Y-147193000D02*
X61341000Y-147193000D01*
X61341000Y-145415000D01*
X111017617Y-145415000D01*
X111017617Y-147193000D01*
G36*
X56261000Y-142144994D02*
G01*
X51811415Y-142144994D01*
X54102000Y-139954000D01*
X54102000Y-139700000D01*
X48768000Y-139700000D01*
X48569788Y-139680478D01*
X48379194Y-139622662D01*
X48203541Y-139528773D01*
X48049580Y-139402420D01*
X47923227Y-139248459D01*
X47829338Y-139072806D01*
X47771522Y-138882212D01*
X47752000Y-138684000D01*
X47771522Y-138485788D01*
X47829338Y-138295194D01*
X47923227Y-138119541D01*
X48049580Y-137965580D01*
X48203541Y-137839227D01*
X48379194Y-137745338D01*
X48569788Y-137687522D01*
X48768000Y-137668000D01*
X54102000Y-137668000D01*
X54102000Y-135636000D01*
X48768000Y-135636000D01*
X48569788Y-135616478D01*
X48379194Y-135558662D01*
X48203541Y-135464773D01*
X48049580Y-135338420D01*
X47923227Y-135184459D01*
X47829338Y-135008806D01*
X47771522Y-134818212D01*
X47752000Y-134620000D01*
X47771522Y-134421788D01*
X47829338Y-134231194D01*
X47923227Y-134055541D01*
X48049580Y-133901580D01*
X48203541Y-133775227D01*
X48379194Y-133681338D01*
X48569788Y-133623522D01*
X48768000Y-133604000D01*
X54102000Y-133604000D01*
X54102000Y-131572000D01*
X48768000Y-131572000D01*
X48569788Y-131552478D01*
X48379194Y-131494662D01*
X48203541Y-131400773D01*
X48049580Y-131274420D01*
X47923227Y-131120459D01*
X47829338Y-130944806D01*
X47771522Y-130754212D01*
X47752000Y-130556000D01*
X47771522Y-130357788D01*
X47829338Y-130167194D01*
X47923227Y-129991541D01*
X48049580Y-129837580D01*
X48203541Y-129711227D01*
X48379194Y-129617338D01*
X48569788Y-129559522D01*
X48768000Y-129540000D01*
X54102000Y-129540000D01*
X54102000Y-127508000D01*
X48768000Y-127508000D01*
X48569788Y-127488478D01*
X48379194Y-127430662D01*
X48203541Y-127336773D01*
X48049580Y-127210420D01*
X47923227Y-127056459D01*
X47829338Y-126880806D01*
X47771522Y-126690212D01*
X47752000Y-126492000D01*
X47771522Y-126293788D01*
X47829338Y-126103194D01*
X47923227Y-125927541D01*
X48049580Y-125773580D01*
X48203541Y-125647227D01*
X48379194Y-125553338D01*
X48569788Y-125495522D01*
X48768000Y-125476000D01*
X54102000Y-125476000D01*
X54102000Y-123444000D01*
X48768000Y-123444000D01*
X48569788Y-123424478D01*
X48379194Y-123366662D01*
X48203541Y-123272773D01*
X48049580Y-123146420D01*
X47923227Y-122992459D01*
X47829338Y-122816806D01*
X47771522Y-122626212D01*
X47752000Y-122428000D01*
X47771522Y-122229788D01*
X47829338Y-122039194D01*
X47923227Y-121863541D01*
X48049580Y-121709580D01*
X48203541Y-121583227D01*
X48379194Y-121489338D01*
X48569788Y-121431522D01*
X48768000Y-121412000D01*
X54102000Y-121412000D01*
X54102000Y-120904000D01*
X53752994Y-120554994D01*
X56261000Y-120554994D01*
X56261000Y-142144994D01*
G37*
X56261000Y-142144994D02*
X51811415Y-142144994D01*
X54102000Y-139954000D01*
X54102000Y-139700000D01*
X48768000Y-139700000D01*
X48569788Y-139680478D01*
X48379194Y-139622662D01*
X48203541Y-139528773D01*
X48049580Y-139402420D01*
X47923227Y-139248459D01*
X47829338Y-139072806D01*
X47771522Y-138882212D01*
X47752000Y-138684000D01*
X47771522Y-138485788D01*
X47829338Y-138295194D01*
X47923227Y-138119541D01*
X48049580Y-137965580D01*
X48203541Y-137839227D01*
X48379194Y-137745338D01*
X48569788Y-137687522D01*
X48768000Y-137668000D01*
X54102000Y-137668000D01*
X54102000Y-135636000D01*
X48768000Y-135636000D01*
X48569788Y-135616478D01*
X48379194Y-135558662D01*
X48203541Y-135464773D01*
X48049580Y-135338420D01*
X47923227Y-135184459D01*
X47829338Y-135008806D01*
X47771522Y-134818212D01*
X47752000Y-134620000D01*
X47771522Y-134421788D01*
X47829338Y-134231194D01*
X47923227Y-134055541D01*
X48049580Y-133901580D01*
X48203541Y-133775227D01*
X48379194Y-133681338D01*
X48569788Y-133623522D01*
X48768000Y-133604000D01*
X54102000Y-133604000D01*
X54102000Y-131572000D01*
X48768000Y-131572000D01*
X48569788Y-131552478D01*
X48379194Y-131494662D01*
X48203541Y-131400773D01*
X48049580Y-131274420D01*
X47923227Y-131120459D01*
X47829338Y-130944806D01*
X47771522Y-130754212D01*
X47752000Y-130556000D01*
X47771522Y-130357788D01*
X47829338Y-130167194D01*
X47923227Y-129991541D01*
X48049580Y-129837580D01*
X48203541Y-129711227D01*
X48379194Y-129617338D01*
X48569788Y-129559522D01*
X48768000Y-129540000D01*
X54102000Y-129540000D01*
X54102000Y-127508000D01*
X48768000Y-127508000D01*
X48569788Y-127488478D01*
X48379194Y-127430662D01*
X48203541Y-127336773D01*
X48049580Y-127210420D01*
X47923227Y-127056459D01*
X47829338Y-126880806D01*
X47771522Y-126690212D01*
X47752000Y-126492000D01*
X47771522Y-126293788D01*
X47829338Y-126103194D01*
X47923227Y-125927541D01*
X48049580Y-125773580D01*
X48203541Y-125647227D01*
X48379194Y-125553338D01*
X48569788Y-125495522D01*
X48768000Y-125476000D01*
X54102000Y-125476000D01*
X54102000Y-123444000D01*
X48768000Y-123444000D01*
X48569788Y-123424478D01*
X48379194Y-123366662D01*
X48203541Y-123272773D01*
X48049580Y-123146420D01*
X47923227Y-122992459D01*
X47829338Y-122816806D01*
X47771522Y-122626212D01*
X47752000Y-122428000D01*
X47771522Y-122229788D01*
X47829338Y-122039194D01*
X47923227Y-121863541D01*
X48049580Y-121709580D01*
X48203541Y-121583227D01*
X48379194Y-121489338D01*
X48569788Y-121431522D01*
X48768000Y-121412000D01*
X54102000Y-121412000D01*
X54102000Y-120904000D01*
X53752994Y-120554994D01*
X56261000Y-120554994D01*
X56261000Y-142144994D01*
G36*
X60613851Y-145377803D02*
G01*
X60633097Y-145393597D01*
X60655053Y-145405333D01*
X60678878Y-145412560D01*
X60703654Y-145415000D01*
X61338654Y-145415000D01*
X61338654Y-147304366D01*
X61334746Y-147320000D01*
X61214000Y-147320000D01*
X61214000Y-147802982D01*
X61091827Y-148291674D01*
X60879164Y-148717000D01*
X58925654Y-148717000D01*
X58900878Y-148719440D01*
X58877053Y-148726667D01*
X58855097Y-148738403D01*
X58835851Y-148754197D01*
X57349048Y-150241000D01*
X51866260Y-150241000D01*
X48437260Y-146812000D01*
X50824000Y-146812000D01*
X50844458Y-147058892D01*
X50905274Y-147299049D01*
X51004789Y-147525921D01*
X51140289Y-147733319D01*
X51308078Y-147915586D01*
X51503578Y-148067750D01*
X51721457Y-148185660D01*
X51955772Y-148266100D01*
X52200131Y-148306877D01*
X52447869Y-148306877D01*
X52692228Y-148266100D01*
X52926543Y-148185660D01*
X53144422Y-148067750D01*
X53339922Y-147915586D01*
X53507711Y-147733319D01*
X53643211Y-147525921D01*
X53742726Y-147299049D01*
X53803542Y-147058892D01*
X53824000Y-146812000D01*
X53803542Y-146565108D01*
X53742726Y-146324951D01*
X53643211Y-146098079D01*
X53507711Y-145890681D01*
X53339922Y-145708414D01*
X53144422Y-145556250D01*
X52926543Y-145438340D01*
X52692228Y-145357900D01*
X52447869Y-145317123D01*
X52200131Y-145317123D01*
X51955772Y-145357900D01*
X51721457Y-145438340D01*
X51503578Y-145556250D01*
X51308078Y-145708414D01*
X51140289Y-145890681D01*
X51004789Y-146098079D01*
X50905274Y-146324951D01*
X50844458Y-146565108D01*
X50824000Y-146812000D01*
X48437260Y-146812000D01*
X48384654Y-146759394D01*
X48384654Y-145422766D01*
X54102000Y-139954000D01*
X54102000Y-139700000D01*
X53972654Y-139700000D01*
X53972654Y-139319000D01*
X54555048Y-139319000D01*
X60613851Y-145377803D01*
G37*
X60613851Y-145377803D02*
X60633097Y-145393597D01*
X60655053Y-145405333D01*
X60678878Y-145412560D01*
X60703654Y-145415000D01*
X61338654Y-145415000D01*
X61338654Y-147304366D01*
X61334746Y-147320000D01*
X61214000Y-147320000D01*
X61214000Y-147802982D01*
X61091827Y-148291674D01*
X60879164Y-148717000D01*
X58925654Y-148717000D01*
X58900878Y-148719440D01*
X58877053Y-148726667D01*
X58855097Y-148738403D01*
X58835851Y-148754197D01*
X57349048Y-150241000D01*
X51866260Y-150241000D01*
X48437260Y-146812000D01*
X50824000Y-146812000D01*
X50844458Y-147058892D01*
X50905274Y-147299049D01*
X51004789Y-147525921D01*
X51140289Y-147733319D01*
X51308078Y-147915586D01*
X51503578Y-148067750D01*
X51721457Y-148185660D01*
X51955772Y-148266100D01*
X52200131Y-148306877D01*
X52447869Y-148306877D01*
X52692228Y-148266100D01*
X52926543Y-148185660D01*
X53144422Y-148067750D01*
X53339922Y-147915586D01*
X53507711Y-147733319D01*
X53643211Y-147525921D01*
X53742726Y-147299049D01*
X53803542Y-147058892D01*
X53824000Y-146812000D01*
X53803542Y-146565108D01*
X53742726Y-146324951D01*
X53643211Y-146098079D01*
X53507711Y-145890681D01*
X53339922Y-145708414D01*
X53144422Y-145556250D01*
X52926543Y-145438340D01*
X52692228Y-145357900D01*
X52447869Y-145317123D01*
X52200131Y-145317123D01*
X51955772Y-145357900D01*
X51721457Y-145438340D01*
X51503578Y-145556250D01*
X51308078Y-145708414D01*
X51140289Y-145890681D01*
X51004789Y-146098079D01*
X50905274Y-146324951D01*
X50844458Y-146565108D01*
X50824000Y-146812000D01*
X48437260Y-146812000D01*
X48384654Y-146759394D01*
X48384654Y-145422766D01*
X54102000Y-139954000D01*
X54102000Y-139700000D01*
X53972654Y-139700000D01*
X53972654Y-139319000D01*
X54555048Y-139319000D01*
X60613851Y-145377803D01*
G36*
X118872000Y-120900000D02*
G01*
X118872000Y-121158000D01*
X124206000Y-121158000D01*
X124404212Y-121177522D01*
X124594806Y-121235338D01*
X124770459Y-121329227D01*
X124924420Y-121455580D01*
X125050773Y-121609541D01*
X125144662Y-121785194D01*
X125202478Y-121975788D01*
X125222000Y-122174000D01*
X125202478Y-122372212D01*
X125144662Y-122562806D01*
X125050773Y-122738459D01*
X124924420Y-122892420D01*
X124770459Y-123018773D01*
X124594806Y-123112662D01*
X124404212Y-123170478D01*
X124206000Y-123190000D01*
X118872000Y-123190000D01*
X118872000Y-125222000D01*
X124206000Y-125222000D01*
X124404212Y-125241522D01*
X124594806Y-125299338D01*
X124770459Y-125393227D01*
X124924420Y-125519580D01*
X125050773Y-125673541D01*
X125144662Y-125849194D01*
X125202478Y-126039788D01*
X125222000Y-126238000D01*
X125202478Y-126436212D01*
X125144662Y-126626806D01*
X125050773Y-126802459D01*
X124924420Y-126956420D01*
X124770459Y-127082773D01*
X124594806Y-127176662D01*
X124404212Y-127234478D01*
X124206000Y-127254000D01*
X118872000Y-127254000D01*
X118872000Y-129286000D01*
X124206000Y-129286000D01*
X124404212Y-129305522D01*
X124594806Y-129363338D01*
X124770459Y-129457227D01*
X124924420Y-129583580D01*
X125050773Y-129737541D01*
X125144662Y-129913194D01*
X125202478Y-130103788D01*
X125222000Y-130302000D01*
X125202478Y-130500212D01*
X125144662Y-130690806D01*
X125050773Y-130866459D01*
X124924420Y-131020420D01*
X124770459Y-131146773D01*
X124594806Y-131240662D01*
X124404212Y-131298478D01*
X124206000Y-131318000D01*
X118872000Y-131318000D01*
X118872000Y-133350000D01*
X124206000Y-133350000D01*
X124404212Y-133369522D01*
X124594806Y-133427338D01*
X124770459Y-133521227D01*
X124924420Y-133647580D01*
X125050773Y-133801541D01*
X125144662Y-133977194D01*
X125202478Y-134167788D01*
X125222000Y-134366000D01*
X125202478Y-134564212D01*
X125144662Y-134754806D01*
X125050773Y-134930459D01*
X124924420Y-135084420D01*
X124770459Y-135210773D01*
X124594806Y-135304662D01*
X124404212Y-135362478D01*
X124206000Y-135382000D01*
X118872000Y-135382000D01*
X118872000Y-137414000D01*
X124206000Y-137414000D01*
X124404212Y-137433522D01*
X124594806Y-137491338D01*
X124770459Y-137585227D01*
X124924420Y-137711580D01*
X125050773Y-137865541D01*
X125144662Y-138041194D01*
X125202478Y-138231788D01*
X125222000Y-138430000D01*
X125202478Y-138628212D01*
X125144662Y-138818806D01*
X125050773Y-138994459D01*
X124924420Y-139148420D01*
X124770459Y-139274773D01*
X124594806Y-139368662D01*
X124404212Y-139426478D01*
X124206000Y-139446000D01*
X118872000Y-139446000D01*
X118872000Y-139700000D01*
X121180362Y-142008362D01*
X116713000Y-142008362D01*
X116713000Y-120418362D01*
X119353983Y-120418362D01*
X118872000Y-120900000D01*
G37*
X118872000Y-120900000D02*
X118872000Y-121158000D01*
X124206000Y-121158000D01*
X124404212Y-121177522D01*
X124594806Y-121235338D01*
X124770459Y-121329227D01*
X124924420Y-121455580D01*
X125050773Y-121609541D01*
X125144662Y-121785194D01*
X125202478Y-121975788D01*
X125222000Y-122174000D01*
X125202478Y-122372212D01*
X125144662Y-122562806D01*
X125050773Y-122738459D01*
X124924420Y-122892420D01*
X124770459Y-123018773D01*
X124594806Y-123112662D01*
X124404212Y-123170478D01*
X124206000Y-123190000D01*
X118872000Y-123190000D01*
X118872000Y-125222000D01*
X124206000Y-125222000D01*
X124404212Y-125241522D01*
X124594806Y-125299338D01*
X124770459Y-125393227D01*
X124924420Y-125519580D01*
X125050773Y-125673541D01*
X125144662Y-125849194D01*
X125202478Y-126039788D01*
X125222000Y-126238000D01*
X125202478Y-126436212D01*
X125144662Y-126626806D01*
X125050773Y-126802459D01*
X124924420Y-126956420D01*
X124770459Y-127082773D01*
X124594806Y-127176662D01*
X124404212Y-127234478D01*
X124206000Y-127254000D01*
X118872000Y-127254000D01*
X118872000Y-129286000D01*
X124206000Y-129286000D01*
X124404212Y-129305522D01*
X124594806Y-129363338D01*
X124770459Y-129457227D01*
X124924420Y-129583580D01*
X125050773Y-129737541D01*
X125144662Y-129913194D01*
X125202478Y-130103788D01*
X125222000Y-130302000D01*
X125202478Y-130500212D01*
X125144662Y-130690806D01*
X125050773Y-130866459D01*
X124924420Y-131020420D01*
X124770459Y-131146773D01*
X124594806Y-131240662D01*
X124404212Y-131298478D01*
X124206000Y-131318000D01*
X118872000Y-131318000D01*
X118872000Y-133350000D01*
X124206000Y-133350000D01*
X124404212Y-133369522D01*
X124594806Y-133427338D01*
X124770459Y-133521227D01*
X124924420Y-133647580D01*
X125050773Y-133801541D01*
X125144662Y-133977194D01*
X125202478Y-134167788D01*
X125222000Y-134366000D01*
X125202478Y-134564212D01*
X125144662Y-134754806D01*
X125050773Y-134930459D01*
X124924420Y-135084420D01*
X124770459Y-135210773D01*
X124594806Y-135304662D01*
X124404212Y-135362478D01*
X124206000Y-135382000D01*
X118872000Y-135382000D01*
X118872000Y-137414000D01*
X124206000Y-137414000D01*
X124404212Y-137433522D01*
X124594806Y-137491338D01*
X124770459Y-137585227D01*
X124924420Y-137711580D01*
X125050773Y-137865541D01*
X125144662Y-138041194D01*
X125202478Y-138231788D01*
X125222000Y-138430000D01*
X125202478Y-138628212D01*
X125144662Y-138818806D01*
X125050773Y-138994459D01*
X124924420Y-139148420D01*
X124770459Y-139274773D01*
X124594806Y-139368662D01*
X124404212Y-139426478D01*
X124206000Y-139446000D01*
X118872000Y-139446000D01*
X118872000Y-139700000D01*
X121180362Y-142008362D01*
X116713000Y-142008362D01*
X116713000Y-120418362D01*
X119353983Y-120418362D01*
X118872000Y-120900000D01*
G36*
X118745000Y-139700000D02*
G01*
X118747440Y-139724776D01*
X118754667Y-139748601D01*
X118766403Y-139770557D01*
X118782197Y-139789803D01*
X124333000Y-145340606D01*
X124333000Y-146759394D01*
X120851394Y-150241000D01*
X115368606Y-150241000D01*
X113881803Y-148754197D01*
X113862557Y-148738403D01*
X113840601Y-148726667D01*
X113816776Y-148719440D01*
X113792000Y-148717000D01*
X111838490Y-148717000D01*
X111625827Y-148291674D01*
X111506000Y-147812366D01*
X111506000Y-147320000D01*
X111382908Y-147320000D01*
X111379000Y-147304366D01*
X111379000Y-146812000D01*
X118896000Y-146812000D01*
X118916458Y-147058892D01*
X118977274Y-147299049D01*
X119076789Y-147525921D01*
X119212289Y-147733319D01*
X119380078Y-147915586D01*
X119575578Y-148067750D01*
X119793457Y-148185660D01*
X120027772Y-148266100D01*
X120272131Y-148306877D01*
X120519869Y-148306877D01*
X120764228Y-148266100D01*
X120998543Y-148185660D01*
X121216422Y-148067750D01*
X121411922Y-147915586D01*
X121579711Y-147733319D01*
X121715211Y-147525921D01*
X121814726Y-147299049D01*
X121875542Y-147058892D01*
X121896000Y-146812000D01*
X121875542Y-146565108D01*
X121814726Y-146324951D01*
X121715211Y-146098079D01*
X121579711Y-145890681D01*
X121411922Y-145708414D01*
X121216422Y-145556250D01*
X120998543Y-145438340D01*
X120764228Y-145357900D01*
X120519869Y-145317123D01*
X120272131Y-145317123D01*
X120027772Y-145357900D01*
X119793457Y-145438340D01*
X119575578Y-145556250D01*
X119380078Y-145708414D01*
X119212289Y-145890681D01*
X119076789Y-146098079D01*
X118977274Y-146324951D01*
X118916458Y-146565108D01*
X118896000Y-146812000D01*
X111379000Y-146812000D01*
X111379000Y-145415000D01*
X112014000Y-145415000D01*
X112038776Y-145412560D01*
X112062601Y-145405333D01*
X112084557Y-145393597D01*
X112103803Y-145377803D01*
X118162606Y-139319000D01*
X118745000Y-139319000D01*
X118745000Y-139700000D01*
G37*
X118745000Y-139700000D02*
X118747440Y-139724776D01*
X118754667Y-139748601D01*
X118766403Y-139770557D01*
X118782197Y-139789803D01*
X124333000Y-145340606D01*
X124333000Y-146759394D01*
X120851394Y-150241000D01*
X115368606Y-150241000D01*
X113881803Y-148754197D01*
X113862557Y-148738403D01*
X113840601Y-148726667D01*
X113816776Y-148719440D01*
X113792000Y-148717000D01*
X111838490Y-148717000D01*
X111625827Y-148291674D01*
X111506000Y-147812366D01*
X111506000Y-147320000D01*
X111382908Y-147320000D01*
X111379000Y-147304366D01*
X111379000Y-146812000D01*
X118896000Y-146812000D01*
X118916458Y-147058892D01*
X118977274Y-147299049D01*
X119076789Y-147525921D01*
X119212289Y-147733319D01*
X119380078Y-147915586D01*
X119575578Y-148067750D01*
X119793457Y-148185660D01*
X120027772Y-148266100D01*
X120272131Y-148306877D01*
X120519869Y-148306877D01*
X120764228Y-148266100D01*
X120998543Y-148185660D01*
X121216422Y-148067750D01*
X121411922Y-147915586D01*
X121579711Y-147733319D01*
X121715211Y-147525921D01*
X121814726Y-147299049D01*
X121875542Y-147058892D01*
X121896000Y-146812000D01*
X121875542Y-146565108D01*
X121814726Y-146324951D01*
X121715211Y-146098079D01*
X121579711Y-145890681D01*
X121411922Y-145708414D01*
X121216422Y-145556250D01*
X120998543Y-145438340D01*
X120764228Y-145357900D01*
X120519869Y-145317123D01*
X120272131Y-145317123D01*
X120027772Y-145357900D01*
X119793457Y-145438340D01*
X119575578Y-145556250D01*
X119380078Y-145708414D01*
X119212289Y-145890681D01*
X119076789Y-146098079D01*
X118977274Y-146324951D01*
X118916458Y-146565108D01*
X118896000Y-146812000D01*
X111379000Y-146812000D01*
X111379000Y-145415000D01*
X112014000Y-145415000D01*
X112038776Y-145412560D01*
X112062601Y-145405333D01*
X112084557Y-145393597D01*
X112103803Y-145377803D01*
X118162606Y-139319000D01*
X118745000Y-139319000D01*
X118745000Y-139700000D01*
G36*
X111244568Y-115189000D02*
G01*
X61968568Y-115189000D01*
X61968568Y-113411000D01*
X111244568Y-113411000D01*
X111244568Y-115189000D01*
G37*
X111244568Y-115189000D02*
X61968568Y-115189000D01*
X61968568Y-113411000D01*
X111244568Y-113411000D01*
X111244568Y-115189000D01*
M02*
