%TF.GenerationSoftware,KiCad,Pcbnew,(5.1.6)-1*%
%TF.CreationDate,2020-11-07T21:14:23+00:00*%
%TF.ProjectId,ninja_iron,6e696e6a-615f-4697-926f-6e2e6b696361,rev?*%
%TF.SameCoordinates,Original*%
%TF.FileFunction,Copper,L2,Bot*%
%TF.FilePolarity,Positive*%
%FSLAX46Y46*%
G04 Gerber Fmt 4.6, Leading zero omitted, Abs format (unit mm)*
G04 Created by KiCad (PCBNEW (5.1.6)-1) date 2020-11-07 21:14:23*
%MOMM*%
%LPD*%
G01*
G04 APERTURE LIST*
%TA.AperFunction,ViaPad*%
%ADD10C,0.800000*%
%TD*%
%TA.AperFunction,Conductor*%
%ADD11C,0.250000*%
%TD*%
%TA.AperFunction,Conductor*%
%ADD12C,2.000000*%
%TD*%
%TA.AperFunction,Conductor*%
%ADD13C,1.500000*%
%TD*%
%TA.AperFunction,Conductor*%
%ADD14C,1.750000*%
%TD*%
%TA.AperFunction,Conductor*%
%ADD15C,0.254000*%
%TD*%
G04 APERTURE END LIST*
%TO.P,-,2*%
%TO.N,GND*%
%TA.AperFunction,SMDPad,CuDef*%
G36*
G01*
X76290000Y-119734000D02*
X76290000Y-119534000D01*
G75*
G02*
X76390000Y-119434000I100000J0D01*
G01*
X76650000Y-119434000D01*
G75*
G02*
X76750000Y-119534000I0J-100000D01*
G01*
X76750000Y-119734000D01*
G75*
G02*
X76650000Y-119834000I-100000J0D01*
G01*
X76390000Y-119834000D01*
G75*
G02*
X76290000Y-119734000I0J100000D01*
G01*
G37*
%TD.AperFunction*%
%TO.P,-,1*%
%TA.AperFunction,SMDPad,CuDef*%
G36*
G01*
X75650000Y-119734000D02*
X75650000Y-119534000D01*
G75*
G02*
X75750000Y-119434000I100000J0D01*
G01*
X76010000Y-119434000D01*
G75*
G02*
X76110000Y-119534000I0J-100000D01*
G01*
X76110000Y-119734000D01*
G75*
G02*
X76010000Y-119834000I-100000J0D01*
G01*
X75750000Y-119834000D01*
G75*
G02*
X75650000Y-119734000I0J100000D01*
G01*
G37*
%TD.AperFunction*%
%TD*%
D10*
%TO.N,GND*%
X76520000Y-117282000D03*
X76520000Y-118044000D03*
%TD*%
D11*
%TO.N,*%
X115316000Y-110490000D02*
X120904000Y-110490000D01*
X124206000Y-115316000D02*
X118618000Y-120904000D01*
X124206000Y-113792000D02*
X124206000Y-115316000D01*
X111760000Y-113284000D02*
X111760000Y-112014000D01*
X111760000Y-112014000D02*
X113792000Y-112014000D01*
X120904000Y-110490000D02*
X124206000Y-113792000D01*
X113792000Y-112014000D02*
X115316000Y-110490000D01*
%TO.N,GND*%
X51816000Y-150114000D02*
X57404000Y-150114000D01*
X60960000Y-148590000D02*
X60960000Y-147320000D01*
X57404000Y-150114000D02*
X58928000Y-148590000D01*
X120904000Y-150114000D02*
X124206000Y-146812000D01*
X113792000Y-148590000D02*
X115316000Y-150114000D01*
D12*
X55372000Y-138176000D02*
X55372000Y-140208000D01*
D11*
X111252000Y-114300000D02*
X110490000Y-114300000D01*
X112268000Y-145542000D02*
X112776000Y-145034000D01*
X112014000Y-145796000D02*
X112776000Y-145034000D01*
X111760000Y-148590000D02*
X111906010Y-147681990D01*
X112014000Y-146304000D02*
X112014000Y-145796000D01*
X54502010Y-139553990D02*
X48514000Y-145542000D01*
X112776000Y-145034000D02*
X116332000Y-141478000D01*
D12*
X55372000Y-129540000D02*
X55372000Y-134112000D01*
D11*
X118364000Y-126238000D02*
X117602000Y-126238000D01*
X48514000Y-146754010D02*
X48514000Y-146304000D01*
X118364000Y-121412000D02*
X118364000Y-120142000D01*
D13*
X117602000Y-133858000D02*
X117602000Y-135128000D01*
D12*
X112014000Y-146304000D02*
X96774000Y-146304000D01*
D13*
X117602000Y-133858000D02*
X117602000Y-135890000D01*
D11*
X54356000Y-140716000D02*
X54502010Y-140569990D01*
X112014000Y-146304000D02*
X112014000Y-147574000D01*
D13*
X117846990Y-141233010D02*
X117602000Y-141478000D01*
D11*
X118618000Y-139700000D02*
X118471990Y-139553990D01*
X118364000Y-139446000D02*
X118471990Y-139553990D01*
D12*
X117602000Y-129286000D02*
X117602000Y-126238000D01*
D13*
X117602000Y-142240000D02*
X117602000Y-137668000D01*
D11*
X54864000Y-140208000D02*
X54502010Y-140569990D01*
D12*
X117602000Y-126238000D02*
X117602000Y-120396000D01*
D11*
X112014000Y-147574000D02*
X111906010Y-147681990D01*
X111906010Y-147681990D02*
X111760000Y-147320000D01*
X55377010Y-140208000D02*
X54864000Y-140208000D01*
D13*
X116840000Y-135890000D02*
X116078000Y-135890000D01*
D11*
X116332000Y-141478000D02*
X118364000Y-139446000D01*
D13*
X117846990Y-137912990D02*
X118364000Y-138430000D01*
D11*
X118471990Y-139553990D02*
X124206000Y-145288000D01*
D13*
X118364000Y-134366000D02*
X117846990Y-134883010D01*
X117602000Y-137668000D02*
X118364000Y-138430000D01*
D11*
X60960000Y-115062000D02*
X60706000Y-115316000D01*
X51308000Y-111252000D02*
X51816000Y-110744000D01*
D13*
X117602000Y-135890000D02*
X116840000Y-135890000D01*
D11*
X52070000Y-110490000D02*
X57658000Y-110490000D01*
X60706000Y-114332000D02*
X60674000Y-114300000D01*
D12*
X55372000Y-116983980D02*
X55372000Y-115658970D01*
D11*
X51816000Y-110744000D02*
X52070000Y-110490000D01*
D13*
X117602000Y-134366000D02*
X116078000Y-135890000D01*
X117846990Y-134883010D02*
X117846990Y-137912990D01*
X117602000Y-135890000D02*
X117602000Y-137668000D01*
D12*
X62230000Y-114300000D02*
X60904990Y-114300000D01*
D11*
X59182000Y-112014000D02*
X57658000Y-110490000D01*
X60706000Y-115316000D02*
X60706000Y-114332000D01*
X48768000Y-113792000D02*
X51308000Y-111252000D01*
X54356000Y-120904000D02*
X48768000Y-115316000D01*
D12*
X55372000Y-119634000D02*
X55372000Y-118308990D01*
D13*
X117846990Y-137912990D02*
X117846990Y-141995010D01*
X116078000Y-135890000D02*
X115570000Y-135890000D01*
X117602000Y-135128000D02*
X116840000Y-135890000D01*
X117602000Y-133858000D02*
X117602000Y-134366000D01*
D11*
X60452000Y-145542000D02*
X56388000Y-141478000D01*
D14*
X118364000Y-122174000D02*
X124206000Y-122174000D01*
D11*
X61468000Y-113684010D02*
X61214000Y-112014000D01*
D12*
X97028000Y-114300000D02*
X96774000Y-114300000D01*
D11*
X61214000Y-113284000D02*
X61468000Y-113684010D01*
X48768000Y-113792000D02*
X48768000Y-115316000D01*
D12*
X97536000Y-114300000D02*
X97028000Y-114300000D01*
D11*
X75946000Y-119601000D02*
X75946000Y-114963000D01*
D12*
X96774000Y-114300000D02*
X62484000Y-114300000D01*
D11*
X117348000Y-119634000D02*
X117602000Y-119888000D01*
X61468000Y-114332000D02*
X61468000Y-113684010D01*
X60706000Y-114332000D02*
X61468000Y-114332000D01*
X51562000Y-110998000D02*
X51308000Y-111252000D01*
X61436000Y-114332000D02*
X61468000Y-114300000D01*
X116586000Y-119634000D02*
X117348000Y-119634000D01*
X56388000Y-120650000D02*
X55372000Y-120650000D01*
X58545590Y-112014000D02*
X61214000Y-112014000D01*
D12*
X55372000Y-118308990D02*
X55372000Y-116983980D01*
D11*
X98110000Y-114874000D02*
X97536000Y-114300000D01*
X76520000Y-119634000D02*
X76520000Y-117282000D01*
X97470000Y-114742000D02*
X97028000Y-114300000D01*
X112014000Y-115062000D02*
X116586000Y-119634000D01*
X112014000Y-114300000D02*
X112014000Y-115062000D01*
D12*
X112014000Y-114300000D02*
X97536000Y-114300000D01*
D11*
X60706000Y-114332000D02*
X61436000Y-114332000D01*
X60706000Y-115316000D02*
X56388000Y-119634000D01*
D12*
X55372000Y-138176000D02*
X55377010Y-138181010D01*
X55372000Y-142748000D02*
X55372000Y-140970000D01*
X55377010Y-138181010D02*
X55377010Y-140208000D01*
D14*
X48768000Y-130556000D02*
X54610000Y-130556000D01*
X118364000Y-138430000D02*
X124206000Y-138430000D01*
D11*
X111760000Y-148590000D02*
X113792000Y-148590000D01*
D14*
X118364000Y-130302000D02*
X124206000Y-130302000D01*
D12*
X55377010Y-142742990D02*
X55372000Y-142748000D01*
X117602000Y-129286000D02*
X117602000Y-133858000D01*
D11*
X55626000Y-142494000D02*
X55372000Y-142748000D01*
X48514000Y-145542000D02*
X48514000Y-146625600D01*
X51816000Y-150114000D02*
X48514000Y-146812000D01*
D14*
X118364000Y-126238000D02*
X124206000Y-126238000D01*
X48768000Y-126492000D02*
X54610000Y-126492000D01*
D11*
X115316000Y-150114000D02*
X120904000Y-150114000D01*
D12*
X55372000Y-118872000D02*
X55372000Y-128270000D01*
D11*
X56388000Y-142494000D02*
X55626000Y-142494000D01*
D12*
X55377010Y-140208000D02*
X55377010Y-142742990D01*
D14*
X118364000Y-134366000D02*
X124206000Y-134366000D01*
D12*
X55377010Y-140208000D02*
X55377010Y-141244126D01*
D11*
X58928000Y-148590000D02*
X60960000Y-148590000D01*
D14*
X48768000Y-134620000D02*
X54610000Y-134620000D01*
X48768000Y-122428000D02*
X54610000Y-122428000D01*
D11*
X124206000Y-145288000D02*
X124206000Y-146812000D01*
D12*
X96774000Y-146304000D02*
X60674000Y-146304000D01*
X55372000Y-134112000D02*
X55372000Y-138176000D01*
D14*
X48768000Y-138684000D02*
X54610000Y-138684000D01*
D11*
X76520000Y-117282000D02*
X76520000Y-115128000D01*
%TD*%
D15*
%TO.N,GND*%
G36*
X120913935Y-111574736D02*
G01*
X120662578Y-111524738D01*
X120225422Y-111524738D01*
X119796665Y-111610023D01*
X119392785Y-111777316D01*
X119029303Y-112020187D01*
X118720187Y-112329303D01*
X118477316Y-112692785D01*
X118310023Y-113096665D01*
X118224738Y-113525422D01*
X118224738Y-113962578D01*
X118310023Y-114391335D01*
X118477316Y-114795215D01*
X118720187Y-115158697D01*
X119029303Y-115467813D01*
X119392785Y-115710684D01*
X119796665Y-115877977D01*
X120225422Y-115963262D01*
X120662578Y-115963262D01*
X121091335Y-115877977D01*
X121495215Y-115710684D01*
X121858697Y-115467813D01*
X122167813Y-115158697D01*
X122410684Y-114795215D01*
X122577977Y-114391335D01*
X122663262Y-113962578D01*
X122663262Y-113525422D01*
X122613264Y-113274066D01*
X123446000Y-114106802D01*
X123446001Y-115001196D01*
X118054201Y-120392998D01*
X117983026Y-120479724D01*
X117934506Y-120570498D01*
X112355872Y-115224307D01*
X112336295Y-115208926D01*
X112314094Y-115197660D01*
X112290121Y-115190941D01*
X112268000Y-115189000D01*
X111887000Y-115189000D01*
X111887000Y-114035168D01*
X111908985Y-114033003D01*
X112052246Y-113989546D01*
X112184275Y-113918974D01*
X112300001Y-113824001D01*
X112394974Y-113708276D01*
X112465546Y-113576247D01*
X112509003Y-113432986D01*
X112520000Y-113321333D01*
X112520000Y-112774000D01*
X113754678Y-112774000D01*
X113792000Y-112777676D01*
X113829322Y-112774000D01*
X113829333Y-112774000D01*
X113940986Y-112763003D01*
X114084247Y-112719546D01*
X114216276Y-112648974D01*
X114332001Y-112554001D01*
X114355803Y-112524998D01*
X115630803Y-111250000D01*
X120589199Y-111250000D01*
X120913935Y-111574736D01*
G37*
X120913935Y-111574736D02*
X120662578Y-111524738D01*
X120225422Y-111524738D01*
X119796665Y-111610023D01*
X119392785Y-111777316D01*
X119029303Y-112020187D01*
X118720187Y-112329303D01*
X118477316Y-112692785D01*
X118310023Y-113096665D01*
X118224738Y-113525422D01*
X118224738Y-113962578D01*
X118310023Y-114391335D01*
X118477316Y-114795215D01*
X118720187Y-115158697D01*
X119029303Y-115467813D01*
X119392785Y-115710684D01*
X119796665Y-115877977D01*
X120225422Y-115963262D01*
X120662578Y-115963262D01*
X121091335Y-115877977D01*
X121495215Y-115710684D01*
X121858697Y-115467813D01*
X122167813Y-115158697D01*
X122410684Y-114795215D01*
X122577977Y-114391335D01*
X122663262Y-113962578D01*
X122663262Y-113525422D01*
X122613264Y-113274066D01*
X123446000Y-114106802D01*
X123446001Y-115001196D01*
X118054201Y-120392998D01*
X117983026Y-120479724D01*
X117934506Y-120570498D01*
X112355872Y-115224307D01*
X112336295Y-115208926D01*
X112314094Y-115197660D01*
X112290121Y-115190941D01*
X112268000Y-115189000D01*
X111887000Y-115189000D01*
X111887000Y-114035168D01*
X111908985Y-114033003D01*
X112052246Y-113989546D01*
X112184275Y-113918974D01*
X112300001Y-113824001D01*
X112394974Y-113708276D01*
X112465546Y-113576247D01*
X112509003Y-113432986D01*
X112520000Y-113321333D01*
X112520000Y-112774000D01*
X113754678Y-112774000D01*
X113792000Y-112777676D01*
X113829322Y-112774000D01*
X113829333Y-112774000D01*
X113940986Y-112763003D01*
X114084247Y-112719546D01*
X114216276Y-112648974D01*
X114332001Y-112554001D01*
X114355803Y-112524998D01*
X115630803Y-111250000D01*
X120589199Y-111250000D01*
X120913935Y-111574736D01*
G36*
X58655292Y-112237384D02*
G01*
X58677525Y-112264475D01*
X58704615Y-112286707D01*
X58785635Y-112353199D01*
X58785637Y-112353200D01*
X58908980Y-112419128D01*
X59042816Y-112459727D01*
X59147123Y-112470000D01*
X59147124Y-112470000D01*
X59181999Y-112473435D01*
X59216874Y-112470000D01*
X60758000Y-112470000D01*
X60758001Y-113249113D01*
X60754565Y-113284000D01*
X60768273Y-113423184D01*
X60808872Y-113557020D01*
X60874800Y-113680363D01*
X60963525Y-113788475D01*
X61071637Y-113877200D01*
X61087000Y-113885412D01*
X61087000Y-114935000D01*
X60960000Y-114935000D01*
X60935224Y-114937440D01*
X60911399Y-114944667D01*
X60889443Y-114956403D01*
X60870197Y-114972197D01*
X54812000Y-121030394D01*
X54812000Y-120938874D01*
X54815435Y-120903999D01*
X54811287Y-120861888D01*
X54801727Y-120764816D01*
X54761128Y-120630980D01*
X54695200Y-120507637D01*
X54695199Y-120507635D01*
X54628707Y-120426615D01*
X54606475Y-120399525D01*
X54579384Y-120377292D01*
X49224000Y-115021909D01*
X49224000Y-113826719D01*
X49248835Y-113573422D01*
X50152738Y-113573422D01*
X50152738Y-114010578D01*
X50238023Y-114439335D01*
X50405316Y-114843215D01*
X50648187Y-115206697D01*
X50957303Y-115515813D01*
X51320785Y-115758684D01*
X51724665Y-115925977D01*
X52153422Y-116011262D01*
X52590578Y-116011262D01*
X53019335Y-115925977D01*
X53423215Y-115758684D01*
X53786697Y-115515813D01*
X54095813Y-115206697D01*
X54338684Y-114843215D01*
X54505977Y-114439335D01*
X54591262Y-114010578D01*
X54591262Y-113573422D01*
X54505977Y-113144665D01*
X54338684Y-112740785D01*
X54095813Y-112377303D01*
X53786697Y-112068187D01*
X53423215Y-111825316D01*
X53019335Y-111658023D01*
X52590578Y-111572738D01*
X52153422Y-111572738D01*
X51724665Y-111658023D01*
X51320785Y-111825316D01*
X50957303Y-112068187D01*
X50648187Y-112377303D01*
X50405316Y-112740785D01*
X50238023Y-113144665D01*
X50152738Y-113573422D01*
X49248835Y-113573422D01*
X49280168Y-113253868D01*
X51725021Y-110983647D01*
X52083216Y-110946000D01*
X57363909Y-110946000D01*
X58655292Y-112237384D01*
G37*
X58655292Y-112237384D02*
X58677525Y-112264475D01*
X58704615Y-112286707D01*
X58785635Y-112353199D01*
X58785637Y-112353200D01*
X58908980Y-112419128D01*
X59042816Y-112459727D01*
X59147123Y-112470000D01*
X59147124Y-112470000D01*
X59181999Y-112473435D01*
X59216874Y-112470000D01*
X60758000Y-112470000D01*
X60758001Y-113249113D01*
X60754565Y-113284000D01*
X60768273Y-113423184D01*
X60808872Y-113557020D01*
X60874800Y-113680363D01*
X60963525Y-113788475D01*
X61071637Y-113877200D01*
X61087000Y-113885412D01*
X61087000Y-114935000D01*
X60960000Y-114935000D01*
X60935224Y-114937440D01*
X60911399Y-114944667D01*
X60889443Y-114956403D01*
X60870197Y-114972197D01*
X54812000Y-121030394D01*
X54812000Y-120938874D01*
X54815435Y-120903999D01*
X54811287Y-120861888D01*
X54801727Y-120764816D01*
X54761128Y-120630980D01*
X54695200Y-120507637D01*
X54695199Y-120507635D01*
X54628707Y-120426615D01*
X54606475Y-120399525D01*
X54579384Y-120377292D01*
X49224000Y-115021909D01*
X49224000Y-113826719D01*
X49248835Y-113573422D01*
X50152738Y-113573422D01*
X50152738Y-114010578D01*
X50238023Y-114439335D01*
X50405316Y-114843215D01*
X50648187Y-115206697D01*
X50957303Y-115515813D01*
X51320785Y-115758684D01*
X51724665Y-115925977D01*
X52153422Y-116011262D01*
X52590578Y-116011262D01*
X53019335Y-115925977D01*
X53423215Y-115758684D01*
X53786697Y-115515813D01*
X54095813Y-115206697D01*
X54338684Y-114843215D01*
X54505977Y-114439335D01*
X54591262Y-114010578D01*
X54591262Y-113573422D01*
X54505977Y-113144665D01*
X54338684Y-112740785D01*
X54095813Y-112377303D01*
X53786697Y-112068187D01*
X53423215Y-111825316D01*
X53019335Y-111658023D01*
X52590578Y-111572738D01*
X52153422Y-111572738D01*
X51724665Y-111658023D01*
X51320785Y-111825316D01*
X50957303Y-112068187D01*
X50648187Y-112377303D01*
X50405316Y-112740785D01*
X50238023Y-113144665D01*
X50152738Y-113573422D01*
X49248835Y-113573422D01*
X49280168Y-113253868D01*
X51725021Y-110983647D01*
X52083216Y-110946000D01*
X57363909Y-110946000D01*
X58655292Y-112237384D01*
G36*
X60420229Y-145496956D02*
G01*
X60439806Y-145512337D01*
X60462007Y-145523603D01*
X60485980Y-145530322D01*
X60508101Y-145532263D01*
X60889101Y-145532263D01*
X60889101Y-146688602D01*
X60817637Y-146726800D01*
X60709525Y-146815525D01*
X60620800Y-146923637D01*
X60554872Y-147046980D01*
X60514273Y-147180816D01*
X60500565Y-147320000D01*
X60504000Y-147354878D01*
X60504001Y-148134000D01*
X58962874Y-148134000D01*
X58927999Y-148130565D01*
X58893124Y-148134000D01*
X58893123Y-148134000D01*
X58788816Y-148144273D01*
X58654980Y-148184872D01*
X58563734Y-148233644D01*
X58531635Y-148250801D01*
X58491427Y-148283799D01*
X58423525Y-148339525D01*
X58401292Y-148366616D01*
X57109909Y-149658000D01*
X51850729Y-149658000D01*
X51437974Y-149617530D01*
X49011197Y-147190753D01*
X48970000Y-146798785D01*
X48970000Y-146593422D01*
X50104738Y-146593422D01*
X50104738Y-147030578D01*
X50190023Y-147459335D01*
X50357316Y-147863215D01*
X50600187Y-148226697D01*
X50909303Y-148535813D01*
X51272785Y-148778684D01*
X51676665Y-148945977D01*
X52105422Y-149031262D01*
X52542578Y-149031262D01*
X52971335Y-148945977D01*
X53375215Y-148778684D01*
X53738697Y-148535813D01*
X54047813Y-148226697D01*
X54290684Y-147863215D01*
X54457977Y-147459335D01*
X54543262Y-147030578D01*
X54543262Y-146593422D01*
X54457977Y-146164665D01*
X54290684Y-145760785D01*
X54047813Y-145397303D01*
X53738697Y-145088187D01*
X53375215Y-144845316D01*
X52971335Y-144678023D01*
X52542578Y-144592738D01*
X52105422Y-144592738D01*
X51676665Y-144678023D01*
X51272785Y-144845316D01*
X50909303Y-145088187D01*
X50600187Y-145397303D01*
X50357316Y-145760785D01*
X50190023Y-146164665D01*
X50104738Y-146593422D01*
X48970000Y-146593422D01*
X48970000Y-145845375D01*
X54573275Y-140485720D01*
X54606474Y-140458475D01*
X54645833Y-140410516D01*
X54686247Y-140363445D01*
X54690152Y-140356514D01*
X54695200Y-140350363D01*
X54724457Y-140295628D01*
X54754899Y-140241596D01*
X54757376Y-140234040D01*
X54761128Y-140227020D01*
X54779148Y-140167618D01*
X54798279Y-140109253D01*
X60420229Y-145496956D01*
G37*
X60420229Y-145496956D02*
X60439806Y-145512337D01*
X60462007Y-145523603D01*
X60485980Y-145530322D01*
X60508101Y-145532263D01*
X60889101Y-145532263D01*
X60889101Y-146688602D01*
X60817637Y-146726800D01*
X60709525Y-146815525D01*
X60620800Y-146923637D01*
X60554872Y-147046980D01*
X60514273Y-147180816D01*
X60500565Y-147320000D01*
X60504000Y-147354878D01*
X60504001Y-148134000D01*
X58962874Y-148134000D01*
X58927999Y-148130565D01*
X58893124Y-148134000D01*
X58893123Y-148134000D01*
X58788816Y-148144273D01*
X58654980Y-148184872D01*
X58563734Y-148233644D01*
X58531635Y-148250801D01*
X58491427Y-148283799D01*
X58423525Y-148339525D01*
X58401292Y-148366616D01*
X57109909Y-149658000D01*
X51850729Y-149658000D01*
X51437974Y-149617530D01*
X49011197Y-147190753D01*
X48970000Y-146798785D01*
X48970000Y-146593422D01*
X50104738Y-146593422D01*
X50104738Y-147030578D01*
X50190023Y-147459335D01*
X50357316Y-147863215D01*
X50600187Y-148226697D01*
X50909303Y-148535813D01*
X51272785Y-148778684D01*
X51676665Y-148945977D01*
X52105422Y-149031262D01*
X52542578Y-149031262D01*
X52971335Y-148945977D01*
X53375215Y-148778684D01*
X53738697Y-148535813D01*
X54047813Y-148226697D01*
X54290684Y-147863215D01*
X54457977Y-147459335D01*
X54543262Y-147030578D01*
X54543262Y-146593422D01*
X54457977Y-146164665D01*
X54290684Y-145760785D01*
X54047813Y-145397303D01*
X53738697Y-145088187D01*
X53375215Y-144845316D01*
X52971335Y-144678023D01*
X52542578Y-144592738D01*
X52105422Y-144592738D01*
X51676665Y-144678023D01*
X51272785Y-144845316D01*
X50909303Y-145088187D01*
X50600187Y-145397303D01*
X50357316Y-145760785D01*
X50190023Y-146164665D01*
X50104738Y-146593422D01*
X48970000Y-146593422D01*
X48970000Y-145845375D01*
X54573275Y-140485720D01*
X54606474Y-140458475D01*
X54645833Y-140410516D01*
X54686247Y-140363445D01*
X54690152Y-140356514D01*
X54695200Y-140350363D01*
X54724457Y-140295628D01*
X54754899Y-140241596D01*
X54757376Y-140234040D01*
X54761128Y-140227020D01*
X54779148Y-140167618D01*
X54798279Y-140109253D01*
X60420229Y-145496956D01*
G36*
X118212872Y-139973020D02*
G01*
X118278800Y-140096363D01*
X118367526Y-140204475D01*
X118394617Y-140226708D01*
X123750000Y-145582092D01*
X123750001Y-146777261D01*
X123694289Y-147345470D01*
X121439422Y-149600337D01*
X120890785Y-149658000D01*
X115610092Y-149658000D01*
X114318712Y-148366621D01*
X114296475Y-148339525D01*
X114188363Y-148250800D01*
X114065020Y-148184872D01*
X113931184Y-148144273D01*
X113826877Y-148134000D01*
X113826875Y-148134000D01*
X113792000Y-148130565D01*
X113757125Y-148134000D01*
X112216000Y-148134000D01*
X112216000Y-147354877D01*
X112219435Y-147320000D01*
X112205727Y-147180816D01*
X112165128Y-147046980D01*
X112099200Y-146923637D01*
X112010475Y-146815525D01*
X111971102Y-146783212D01*
X111971102Y-146593422D01*
X118176738Y-146593422D01*
X118176738Y-147030578D01*
X118262023Y-147459335D01*
X118429316Y-147863215D01*
X118672187Y-148226697D01*
X118981303Y-148535813D01*
X119344785Y-148778684D01*
X119748665Y-148945977D01*
X120177422Y-149031262D01*
X120614578Y-149031262D01*
X121043335Y-148945977D01*
X121447215Y-148778684D01*
X121810697Y-148535813D01*
X122119813Y-148226697D01*
X122362684Y-147863215D01*
X122529977Y-147459335D01*
X122615262Y-147030578D01*
X122615262Y-146593422D01*
X122529977Y-146164665D01*
X122362684Y-145760785D01*
X122119813Y-145397303D01*
X121810697Y-145088187D01*
X121447215Y-144845316D01*
X121043335Y-144678023D01*
X120614578Y-144592738D01*
X120177422Y-144592738D01*
X119748665Y-144678023D01*
X119344785Y-144845316D01*
X118981303Y-145088187D01*
X118672187Y-145397303D01*
X118429316Y-145760785D01*
X118262023Y-146164665D01*
X118176738Y-146593422D01*
X111971102Y-146593422D01*
X111971102Y-145532263D01*
X112352102Y-145532263D01*
X112376878Y-145529823D01*
X112400703Y-145522596D01*
X112422659Y-145510860D01*
X112439974Y-145496956D01*
X118210892Y-139966492D01*
X118212872Y-139973020D01*
G37*
X118212872Y-139973020D02*
X118278800Y-140096363D01*
X118367526Y-140204475D01*
X118394617Y-140226708D01*
X123750000Y-145582092D01*
X123750001Y-146777261D01*
X123694289Y-147345470D01*
X121439422Y-149600337D01*
X120890785Y-149658000D01*
X115610092Y-149658000D01*
X114318712Y-148366621D01*
X114296475Y-148339525D01*
X114188363Y-148250800D01*
X114065020Y-148184872D01*
X113931184Y-148144273D01*
X113826877Y-148134000D01*
X113826875Y-148134000D01*
X113792000Y-148130565D01*
X113757125Y-148134000D01*
X112216000Y-148134000D01*
X112216000Y-147354877D01*
X112219435Y-147320000D01*
X112205727Y-147180816D01*
X112165128Y-147046980D01*
X112099200Y-146923637D01*
X112010475Y-146815525D01*
X111971102Y-146783212D01*
X111971102Y-146593422D01*
X118176738Y-146593422D01*
X118176738Y-147030578D01*
X118262023Y-147459335D01*
X118429316Y-147863215D01*
X118672187Y-148226697D01*
X118981303Y-148535813D01*
X119344785Y-148778684D01*
X119748665Y-148945977D01*
X120177422Y-149031262D01*
X120614578Y-149031262D01*
X121043335Y-148945977D01*
X121447215Y-148778684D01*
X121810697Y-148535813D01*
X122119813Y-148226697D01*
X122362684Y-147863215D01*
X122529977Y-147459335D01*
X122615262Y-147030578D01*
X122615262Y-146593422D01*
X122529977Y-146164665D01*
X122362684Y-145760785D01*
X122119813Y-145397303D01*
X121810697Y-145088187D01*
X121447215Y-144845316D01*
X121043335Y-144678023D01*
X120614578Y-144592738D01*
X120177422Y-144592738D01*
X119748665Y-144678023D01*
X119344785Y-144845316D01*
X118981303Y-145088187D01*
X118672187Y-145397303D01*
X118429316Y-145760785D01*
X118262023Y-146164665D01*
X118176738Y-146593422D01*
X111971102Y-146593422D01*
X111971102Y-145532263D01*
X112352102Y-145532263D01*
X112376878Y-145529823D01*
X112400703Y-145522596D01*
X112422659Y-145510860D01*
X112439974Y-145496956D01*
X118210892Y-139966492D01*
X118212872Y-139973020D01*
%TD*%
M02*
