%TF.GenerationSoftware,KiCad,Pcbnew,(5.1.6)-1*%
%TF.CreationDate,2020-11-07T21:03:06+00:00*%
%TF.ProjectId,ninja_iron,6e696e6a-615f-4697-926f-6e2e6b696361,rev?*%
%TF.SameCoordinates,Original*%
%TF.FileFunction,Paste,Bot*%
%TF.FilePolarity,Positive*%
%FSLAX46Y46*%
G04 Gerber Fmt 4.6, Leading zero omitted, Abs format (unit mm)*
G04 Created by KiCad (PCBNEW (5.1.6)-1) date 2020-11-07 21:03:06*
%MOMM*%
%LPD*%
G01*
G04 APERTURE LIST*
%ADD10R,2.510000X1.000000*%
G04 APERTURE END LIST*
%TO.C,R22*%
G36*
G01*
X99372000Y-46793999D02*
X99372000Y-47694001D01*
G75*
G02*
X99122001Y-47944000I-249999J0D01*
G01*
X98471999Y-47944000D01*
G75*
G02*
X98222000Y-47694001I0J249999D01*
G01*
X98222000Y-46793999D01*
G75*
G02*
X98471999Y-46544000I249999J0D01*
G01*
X99122001Y-46544000D01*
G75*
G02*
X99372000Y-46793999I0J-249999D01*
G01*
G37*
G36*
G01*
X101422000Y-46793999D02*
X101422000Y-47694001D01*
G75*
G02*
X101172001Y-47944000I-249999J0D01*
G01*
X100521999Y-47944000D01*
G75*
G02*
X100272000Y-47694001I0J249999D01*
G01*
X100272000Y-46793999D01*
G75*
G02*
X100521999Y-46544000I249999J0D01*
G01*
X101172001Y-46544000D01*
G75*
G02*
X101422000Y-46793999I0J-249999D01*
G01*
G37*
%TD*%
%TO.C,C15*%
G36*
G01*
X99371999Y-66726000D02*
X100272001Y-66726000D01*
G75*
G02*
X100522000Y-66975999I0J-249999D01*
G01*
X100522000Y-67626001D01*
G75*
G02*
X100272001Y-67876000I-249999J0D01*
G01*
X99371999Y-67876000D01*
G75*
G02*
X99122000Y-67626001I0J249999D01*
G01*
X99122000Y-66975999D01*
G75*
G02*
X99371999Y-66726000I249999J0D01*
G01*
G37*
G36*
G01*
X99371999Y-68776000D02*
X100272001Y-68776000D01*
G75*
G02*
X100522000Y-69025999I0J-249999D01*
G01*
X100522000Y-69676001D01*
G75*
G02*
X100272001Y-69926000I-249999J0D01*
G01*
X99371999Y-69926000D01*
G75*
G02*
X99122000Y-69676001I0J249999D01*
G01*
X99122000Y-69025999D01*
G75*
G02*
X99371999Y-68776000I249999J0D01*
G01*
G37*
%TD*%
%TO.C,C16*%
G36*
G01*
X103435999Y-66726000D02*
X104336001Y-66726000D01*
G75*
G02*
X104586000Y-66975999I0J-249999D01*
G01*
X104586000Y-67626001D01*
G75*
G02*
X104336001Y-67876000I-249999J0D01*
G01*
X103435999Y-67876000D01*
G75*
G02*
X103186000Y-67626001I0J249999D01*
G01*
X103186000Y-66975999D01*
G75*
G02*
X103435999Y-66726000I249999J0D01*
G01*
G37*
G36*
G01*
X103435999Y-68776000D02*
X104336001Y-68776000D01*
G75*
G02*
X104586000Y-69025999I0J-249999D01*
G01*
X104586000Y-69676001D01*
G75*
G02*
X104336001Y-69926000I-249999J0D01*
G01*
X103435999Y-69926000D01*
G75*
G02*
X103186000Y-69676001I0J249999D01*
G01*
X103186000Y-69025999D01*
G75*
G02*
X103435999Y-68776000I249999J0D01*
G01*
G37*
%TD*%
D10*
%TO.C,J5*%
X93095000Y-55372000D03*
X89785000Y-57912000D03*
%TD*%
%TO.C,led data*%
X109851000Y-61337000D03*
X113161000Y-58797000D03*
%TD*%
M02*
