%TF.GenerationSoftware,KiCad,Pcbnew,(5.1.6)-1*%
%TF.CreationDate,2020-11-07T21:03:07+00:00*%
%TF.ProjectId,ninja_iron,6e696e6a-615f-4697-926f-6e2e6b696361,rev?*%
%TF.SameCoordinates,Original*%
%TF.FileFunction,Profile,NP*%
%FSLAX46Y46*%
G04 Gerber Fmt 4.6, Leading zero omitted, Abs format (unit mm)*
G04 Created by KiCad (PCBNEW (5.1.6)-1) date 2020-11-07 21:03:07*
%MOMM*%
%LPD*%
G01*
G04 APERTURE LIST*
%TA.AperFunction,Profile*%
%ADD10C,0.150000*%
%TD*%
%TA.AperFunction,Profile*%
%ADD11C,0.200000*%
%TD*%
G04 APERTURE END LIST*
D10*
X53618000Y-74216000D02*
G75*
G03*
X53618000Y-74216000I-1500000J0D01*
G01*
D11*
X88392000Y-67818000D02*
X60452000Y-67818000D01*
X60452000Y-67818000D02*
X60452000Y-48006000D01*
D10*
X123952000Y-64770000D02*
G75*
G02*
X123952000Y-66802000I0J-1016000D01*
G01*
X123952000Y-56642000D02*
G75*
G02*
X123952000Y-58674000I0J-1016000D01*
G01*
D11*
X105600000Y-57722000D02*
G75*
G03*
X105600000Y-57722000I-4000000J0D01*
G01*
D10*
X48514000Y-50546000D02*
G75*
G02*
X48514000Y-48514000I0J1016000D01*
G01*
X111760000Y-39116000D02*
X113284000Y-39116000D01*
X118618000Y-66802000D02*
X118618000Y-67056000D01*
X51816000Y-37592000D02*
X57404000Y-37592000D01*
X118618000Y-62738000D02*
X118618000Y-64770000D01*
X118618000Y-48260000D02*
X118618000Y-48256000D01*
X113538000Y-39116000D02*
X115062000Y-37592000D01*
X82042000Y-74676000D02*
X60960000Y-74676000D01*
X123952000Y-50546000D02*
X118618000Y-50546000D01*
X60960000Y-75692000D02*
G75*
G02*
X60452000Y-76200000I-508000J0D01*
G01*
X123952000Y-54610000D02*
X118618000Y-54610000D01*
X57150000Y-77724000D02*
X51562000Y-77724000D01*
X124206000Y-72644000D02*
X124206000Y-74168000D01*
X111252000Y-40640000D02*
X111252000Y-39624000D01*
X118618000Y-58674000D02*
X118618000Y-60706000D01*
X120650000Y-77724000D02*
X115062000Y-77724000D01*
X118618000Y-60706000D02*
X123952000Y-60706000D01*
X61214000Y-39624000D02*
X61214000Y-40640000D01*
X115062000Y-37592000D02*
X120650000Y-37592000D01*
X57404000Y-37592000D02*
X58928000Y-39116000D01*
X118618000Y-67056000D02*
X124206000Y-72644000D01*
X111252000Y-74930000D02*
X111252000Y-74676000D01*
X58928000Y-39116000D02*
X60706000Y-39116000D01*
X115062000Y-77724000D02*
X113538000Y-76200000D01*
X60706000Y-39116000D02*
G75*
G02*
X61214000Y-39624000I0J-508000D01*
G01*
X118618000Y-56642000D02*
X123952000Y-56642000D01*
X123952000Y-58674000D02*
X118618000Y-58674000D01*
X60452000Y-76200000D02*
X58674000Y-76200000D01*
X61214000Y-40640000D02*
X111252000Y-40640000D01*
X48260000Y-42672000D02*
X48260000Y-41148000D01*
X53848000Y-56642000D02*
X53848000Y-54610000D01*
X124206000Y-41148000D02*
X124206000Y-42672000D01*
X48006000Y-74168000D02*
X48006000Y-72898000D01*
X53848000Y-52578000D02*
X53848000Y-50546000D01*
X53848000Y-60706000D02*
X53848000Y-58674000D01*
X53848000Y-50546000D02*
X48514000Y-50546000D01*
X123952000Y-48514000D02*
G75*
G02*
X123952000Y-50546000I0J-1016000D01*
G01*
X48260000Y-41148000D02*
G75*
G02*
X51816000Y-37592000I3556000J0D01*
G01*
X53848000Y-64770000D02*
X53848000Y-62738000D01*
X48514000Y-52578000D02*
X53848000Y-52578000D01*
X60960000Y-74676000D02*
X60960000Y-75692000D01*
X118618000Y-50546000D02*
X118618000Y-52578000D01*
X48514000Y-48514000D02*
X53848000Y-48514000D01*
X124206000Y-74168000D02*
G75*
G02*
X120650000Y-77724000I-3556000J0D01*
G01*
X123952000Y-66802000D02*
X118618000Y-66802000D01*
X53848000Y-66802000D02*
X48514000Y-66802000D01*
X123952000Y-52578000D02*
G75*
G02*
X123952000Y-54610000I0J-1016000D01*
G01*
X48514000Y-54610000D02*
G75*
G02*
X48514000Y-52578000I0J1016000D01*
G01*
X48514000Y-62738000D02*
G75*
G02*
X48514000Y-60706000I0J1016000D01*
G01*
X120650000Y-37592000D02*
G75*
G02*
X124206000Y-41148000I0J-3556000D01*
G01*
X53848000Y-48260000D02*
X48260000Y-42672000D01*
X51562000Y-77724000D02*
G75*
G02*
X48006000Y-74168000I0J3556000D01*
G01*
X53618000Y-41148000D02*
G75*
G03*
X53618000Y-41148000I-1500000J0D01*
G01*
X111760000Y-76200000D02*
X113538000Y-76200000D01*
X121690000Y-41100000D02*
G75*
G03*
X121690000Y-41100000I-1500000J0D01*
G01*
X58674000Y-76200000D02*
X57150000Y-77724000D01*
X118618000Y-52578000D02*
X123952000Y-52578000D01*
X113284000Y-39116000D02*
X113538000Y-39116000D01*
X111252000Y-39624000D02*
G75*
G02*
X111760000Y-39116000I508000J0D01*
G01*
X123952000Y-62738000D02*
X118618000Y-62738000D01*
X48514000Y-56642000D02*
X53848000Y-56642000D01*
X118618000Y-48260000D02*
X118618000Y-48514000D01*
X53848000Y-58674000D02*
X48514000Y-58674000D01*
X53848000Y-67056000D02*
X53848000Y-66802000D01*
X118618000Y-64770000D02*
X123952000Y-64770000D01*
D11*
X88392000Y-48006000D02*
X88392000Y-67818000D01*
D10*
X121690000Y-74168000D02*
G75*
G03*
X121690000Y-74168000I-1500000J0D01*
G01*
X48514000Y-58674000D02*
G75*
G02*
X48514000Y-56642000I0J1016000D01*
G01*
X118618000Y-48514000D02*
X123952000Y-48514000D01*
X48514000Y-64770000D02*
X53848000Y-64770000D01*
X53848000Y-62738000D02*
X48514000Y-62738000D01*
D11*
X60452000Y-48006000D02*
X88392000Y-48006000D01*
D10*
X124206000Y-42672000D02*
X118618000Y-48260000D01*
X111252000Y-74930000D02*
X111252000Y-75692000D01*
X111252000Y-74676000D02*
X82042000Y-74676000D01*
X111760000Y-76200000D02*
G75*
G02*
X111252000Y-75692000I0J508000D01*
G01*
X123952000Y-60706000D02*
G75*
G02*
X123952000Y-62738000I0J-1016000D01*
G01*
X48514000Y-60706000D02*
X53848000Y-60706000D01*
X118618000Y-54610000D02*
X118618000Y-56642000D01*
X48006000Y-72898000D02*
X53848000Y-67056000D01*
X53848000Y-54610000D02*
X48514000Y-54610000D01*
X53848000Y-48514000D02*
X53848000Y-48260000D01*
X48514000Y-66802000D02*
G75*
G02*
X48514000Y-64770000I0J1016000D01*
G01*
M02*
