%TF.GenerationSoftware,KiCad,Pcbnew,(5.1.6)-1*%
%TF.CreationDate,2020-11-07T21:03:06+00:00*%
%TF.ProjectId,ninja_iron,6e696e6a-615f-4697-926f-6e2e6b696361,rev?*%
%TF.SameCoordinates,Original*%
%TF.FileFunction,Copper,L2,Bot*%
%TF.FilePolarity,Positive*%
%FSLAX46Y46*%
G04 Gerber Fmt 4.6, Leading zero omitted, Abs format (unit mm)*
G04 Created by KiCad (PCBNEW (5.1.6)-1) date 2020-11-07 21:03:06*
%MOMM*%
%LPD*%
G01*
G04 APERTURE LIST*
%TA.AperFunction,ComponentPad*%
%ADD10C,1.524000*%
%TD*%
%TA.AperFunction,SMDPad,CuDef*%
%ADD11R,2.510000X1.000000*%
%TD*%
%TA.AperFunction,ViaPad*%
%ADD12C,0.800000*%
%TD*%
%TA.AperFunction,Conductor*%
%ADD13C,0.250000*%
%TD*%
%TA.AperFunction,Conductor*%
%ADD14C,1.750000*%
%TD*%
%TA.AperFunction,Conductor*%
%ADD15C,2.000000*%
%TD*%
%TA.AperFunction,Conductor*%
%ADD16C,1.500000*%
%TD*%
%TA.AperFunction,Conductor*%
%ADD17C,0.254000*%
%TD*%
G04 APERTURE END LIST*
%TO.P,R22,2*%
%TO.N,Net-(D5-Pad2)*%
%TA.AperFunction,SMDPad,CuDef*%
G36*
G01*
X99372000Y-46793999D02*
X99372000Y-47694001D01*
G75*
G02*
X99122001Y-47944000I-249999J0D01*
G01*
X98471999Y-47944000D01*
G75*
G02*
X98222000Y-47694001I0J249999D01*
G01*
X98222000Y-46793999D01*
G75*
G02*
X98471999Y-46544000I249999J0D01*
G01*
X99122001Y-46544000D01*
G75*
G02*
X99372000Y-46793999I0J-249999D01*
G01*
G37*
%TD.AperFunction*%
%TO.P,R22,1*%
%TO.N,+5VD*%
%TA.AperFunction,SMDPad,CuDef*%
G36*
G01*
X101422000Y-46793999D02*
X101422000Y-47694001D01*
G75*
G02*
X101172001Y-47944000I-249999J0D01*
G01*
X100521999Y-47944000D01*
G75*
G02*
X100272000Y-47694001I0J249999D01*
G01*
X100272000Y-46793999D01*
G75*
G02*
X100521999Y-46544000I249999J0D01*
G01*
X101172001Y-46544000D01*
G75*
G02*
X101422000Y-46793999I0J-249999D01*
G01*
G37*
%TD.AperFunction*%
%TD*%
D10*
%TO.P,OLED,4*%
%TO.N,Net-(U1-Pad4)*%
X78232000Y-45466000D03*
%TO.P,OLED,3*%
%TO.N,Net-(U1-Pad3)*%
X75692000Y-45466000D03*
%TO.P,OLED,2*%
%TO.N,GND*%
X73152000Y-45466000D03*
%TO.P,OLED,1*%
%TO.N,+5VD*%
X70612000Y-45466000D03*
%TD*%
%TO.P,C15,1*%
%TO.N,+5VD*%
%TA.AperFunction,SMDPad,CuDef*%
G36*
G01*
X99371999Y-66726000D02*
X100272001Y-66726000D01*
G75*
G02*
X100522000Y-66975999I0J-249999D01*
G01*
X100522000Y-67626001D01*
G75*
G02*
X100272001Y-67876000I-249999J0D01*
G01*
X99371999Y-67876000D01*
G75*
G02*
X99122000Y-67626001I0J249999D01*
G01*
X99122000Y-66975999D01*
G75*
G02*
X99371999Y-66726000I249999J0D01*
G01*
G37*
%TD.AperFunction*%
%TO.P,C15,2*%
%TO.N,GND*%
%TA.AperFunction,SMDPad,CuDef*%
G36*
G01*
X99371999Y-68776000D02*
X100272001Y-68776000D01*
G75*
G02*
X100522000Y-69025999I0J-249999D01*
G01*
X100522000Y-69676001D01*
G75*
G02*
X100272001Y-69926000I-249999J0D01*
G01*
X99371999Y-69926000D01*
G75*
G02*
X99122000Y-69676001I0J249999D01*
G01*
X99122000Y-69025999D01*
G75*
G02*
X99371999Y-68776000I249999J0D01*
G01*
G37*
%TD.AperFunction*%
%TD*%
%TO.P,C16,1*%
%TO.N,+5VD*%
%TA.AperFunction,SMDPad,CuDef*%
G36*
G01*
X103435999Y-66726000D02*
X104336001Y-66726000D01*
G75*
G02*
X104586000Y-66975999I0J-249999D01*
G01*
X104586000Y-67626001D01*
G75*
G02*
X104336001Y-67876000I-249999J0D01*
G01*
X103435999Y-67876000D01*
G75*
G02*
X103186000Y-67626001I0J249999D01*
G01*
X103186000Y-66975999D01*
G75*
G02*
X103435999Y-66726000I249999J0D01*
G01*
G37*
%TD.AperFunction*%
%TO.P,C16,2*%
%TO.N,GND*%
%TA.AperFunction,SMDPad,CuDef*%
G36*
G01*
X103435999Y-68776000D02*
X104336001Y-68776000D01*
G75*
G02*
X104586000Y-69025999I0J-249999D01*
G01*
X104586000Y-69676001D01*
G75*
G02*
X104336001Y-69926000I-249999J0D01*
G01*
X103435999Y-69926000D01*
G75*
G02*
X103186000Y-69676001I0J249999D01*
G01*
X103186000Y-69025999D01*
G75*
G02*
X103435999Y-68776000I249999J0D01*
G01*
G37*
%TD.AperFunction*%
%TD*%
D11*
%TO.P,J5,1*%
%TO.N,Net-(D4-Pad2)*%
X93095000Y-55372000D03*
%TO.P,J5,2*%
X89785000Y-57912000D03*
%TD*%
%TO.P,led data,1*%
%TO.N,/led_data*%
X109851000Y-61337000D03*
%TO.P,led data,2*%
X113161000Y-58797000D03*
%TD*%
D12*
%TO.N,GND*%
X90678000Y-47244000D03*
X98044000Y-69088000D03*
X113792000Y-69088000D03*
%TO.N,+5VD*%
X93218000Y-65024000D03*
X103886000Y-66040000D03*
%TO.N,/led_data*%
X110744000Y-62992000D03*
%TO.N,Net-(D4-Pad2)*%
X89662000Y-69088000D03*
%TO.N,Net-(D5-Pad2)*%
X97282000Y-47244000D03*
%TD*%
D13*
%TO.N,*%
X112014000Y-63500000D02*
X112014000Y-63500000D01*
%TO.N,GND*%
X118618000Y-49530000D02*
X118618000Y-49022000D01*
D14*
X118110000Y-61722000D02*
X123952000Y-61722000D01*
D13*
X51562000Y-77470000D02*
X57150000Y-77470000D01*
X57150000Y-77470000D02*
X58674000Y-75946000D01*
X58674000Y-75946000D02*
X60706000Y-75946000D01*
X115062000Y-77470000D02*
X120650000Y-77470000D01*
X60706000Y-75946000D02*
X60706000Y-74676000D01*
D14*
X48514000Y-53594000D02*
X54356000Y-53594000D01*
X48514000Y-49530000D02*
X54356000Y-49530000D01*
D13*
X113538000Y-75946000D02*
X115062000Y-77470000D01*
D14*
X118110000Y-53594000D02*
X123952000Y-53594000D01*
X118110000Y-49530000D02*
X123952000Y-49530000D01*
D15*
X117348000Y-47244000D02*
X117348000Y-56642000D01*
D13*
X58928000Y-39370000D02*
X57404000Y-37846000D01*
X60706000Y-42418000D02*
X60452000Y-42672000D01*
D14*
X48514000Y-57658000D02*
X54356000Y-57658000D01*
D13*
X123952000Y-72644000D02*
X123952000Y-74168000D01*
X51562000Y-77470000D02*
X48260000Y-74168000D01*
X60452000Y-41688000D02*
X60420000Y-41656000D01*
X113538000Y-39370000D02*
X115062000Y-37846000D01*
X111506000Y-39370000D02*
X113538000Y-39370000D01*
D15*
X55118000Y-56642000D02*
X55118000Y-61214000D01*
X55118000Y-61214000D02*
X55118000Y-65278000D01*
D13*
X111760000Y-42418000D02*
X116332000Y-46990000D01*
D14*
X48514000Y-61722000D02*
X54356000Y-61722000D01*
D13*
X117094000Y-46990000D02*
X117348000Y-47244000D01*
X48260000Y-74168000D02*
X48260000Y-73981600D01*
D15*
X117348000Y-61214000D02*
X117348000Y-65278000D01*
D13*
X48260000Y-73981600D02*
X48260000Y-73531590D01*
X60452000Y-42672000D02*
X60452000Y-41688000D01*
X48260000Y-72898000D02*
X48260000Y-73981600D01*
X116078000Y-68834000D02*
X117094000Y-67818000D01*
D16*
X116840000Y-66802000D02*
X115062000Y-66802000D01*
X117094000Y-63246000D02*
X115062000Y-63246000D01*
D13*
X48514000Y-41148000D02*
X48514000Y-42672000D01*
D14*
X48514000Y-65786000D02*
X54356000Y-65786000D01*
D15*
X55118000Y-46990000D02*
X55118000Y-45664990D01*
D13*
X123952000Y-41148000D02*
X123952000Y-42672000D01*
D15*
X55118000Y-43014970D02*
X55118000Y-56388000D01*
D13*
X111760000Y-41656000D02*
X111760000Y-42418000D01*
X118618000Y-49022000D02*
X118364000Y-48768000D01*
X117348000Y-65278000D02*
X117348000Y-66294000D01*
X51816000Y-37846000D02*
X57404000Y-37846000D01*
X123952000Y-42672000D02*
X118364000Y-48260000D01*
D15*
X117348000Y-69088000D02*
X117348000Y-67310000D01*
D13*
X51308000Y-38354000D02*
X51054000Y-38608000D01*
D15*
X96520000Y-73660000D02*
X60420000Y-73660000D01*
D13*
X48514000Y-41148000D02*
X51054000Y-38608000D01*
X111506000Y-75946000D02*
X113538000Y-75946000D01*
D15*
X117348000Y-56642000D02*
X117348000Y-61214000D01*
D14*
X118110000Y-65786000D02*
X123952000Y-65786000D01*
D13*
X116332000Y-46990000D02*
X117094000Y-46990000D01*
D15*
X55118000Y-44339980D02*
X55118000Y-43014970D01*
D13*
X111506000Y-75946000D02*
X111506000Y-74676000D01*
D15*
X55118000Y-45664990D02*
X55118000Y-44339980D01*
D13*
X118364000Y-48260000D02*
X118364000Y-48768000D01*
X62452000Y-41688000D02*
X62484000Y-41656000D01*
D14*
X118110000Y-57658000D02*
X123952000Y-57658000D01*
D13*
X115062000Y-37846000D02*
X120650000Y-37846000D01*
X111506000Y-40640000D02*
X111506000Y-39370000D01*
X51054000Y-38608000D02*
X51562000Y-38100000D01*
D15*
X111760000Y-41656000D02*
X96520000Y-41656000D01*
X117348000Y-65278000D02*
X117348000Y-67310000D01*
D13*
X58291590Y-39370000D02*
X60960000Y-39370000D01*
X51562000Y-38100000D02*
X51816000Y-37846000D01*
X120650000Y-77470000D02*
X123952000Y-74168000D01*
X120650000Y-37846000D02*
X123952000Y-41148000D01*
X54102000Y-48260000D02*
X48514000Y-42672000D01*
X56896000Y-69596000D02*
X56134000Y-68834000D01*
X60198000Y-72898000D02*
X56896000Y-69596000D01*
D15*
X111760000Y-73660000D02*
X104140000Y-73660000D01*
X96520000Y-41656000D02*
X92202000Y-41656000D01*
D13*
X60452000Y-41688000D02*
X61214000Y-41688000D01*
D15*
X62484000Y-41656000D02*
X61214000Y-41656000D01*
X61214000Y-41656000D02*
X60420000Y-41656000D01*
X99822000Y-73660000D02*
X96520000Y-73660000D01*
D13*
X56134000Y-46990000D02*
X55118000Y-46990000D01*
X118217990Y-66909990D02*
X123952000Y-72644000D01*
D15*
X55118000Y-69088000D02*
X55118000Y-67310000D01*
D13*
X54102000Y-67056000D02*
X54003849Y-67465849D01*
X103886000Y-73406000D02*
X104140000Y-73660000D01*
X61214000Y-41040010D02*
X60960000Y-39370000D01*
X61214000Y-41688000D02*
X62452000Y-41688000D01*
X61182000Y-41688000D02*
X61214000Y-41656000D01*
X56388000Y-69088000D02*
X56896000Y-69596000D01*
D15*
X55118000Y-65278000D02*
X55118000Y-67310000D01*
X70612000Y-41656000D02*
X62484000Y-41656000D01*
D13*
X54003849Y-67465849D02*
X48260000Y-72898000D01*
X118110000Y-66802000D02*
X118217990Y-66909990D01*
X116840000Y-66802000D02*
X118110000Y-66802000D01*
X55118000Y-68580000D02*
X54003849Y-67465849D01*
X115570000Y-69342000D02*
X116078000Y-68834000D01*
X60960000Y-40640000D02*
X61214000Y-41040010D01*
X112014000Y-72898000D02*
X115570000Y-69342000D01*
D15*
X92202000Y-41656000D02*
X70612000Y-41656000D01*
D13*
X60452000Y-42672000D02*
X56134000Y-46990000D01*
X60452000Y-41688000D02*
X61182000Y-41688000D01*
X118364000Y-67056000D02*
X118217990Y-66909990D01*
X61214000Y-41688000D02*
X61214000Y-41040010D01*
D15*
X104140000Y-73660000D02*
X99822000Y-73660000D01*
D13*
X55118000Y-69088000D02*
X56388000Y-69088000D01*
X55118000Y-69088000D02*
X55118000Y-68580000D01*
D16*
X73152000Y-45466000D02*
X73152000Y-41665010D01*
D13*
%TO.N,+5VD*%
X70866000Y-47244000D02*
X89154000Y-47244000D01*
X70612000Y-45466000D02*
X70612000Y-46990000D01*
X91440000Y-49530000D02*
X99314000Y-49530000D01*
X89154000Y-47244000D02*
X91440000Y-49530000D01*
X99314000Y-49530000D02*
X100847000Y-47997000D01*
X70612000Y-46990000D02*
X70866000Y-47244000D01*
X100847000Y-47997000D02*
X100847000Y-47244000D01*
X97536000Y-65024000D02*
X99813000Y-67301000D01*
X99822000Y-67301000D02*
X103886000Y-67301000D01*
X99813000Y-67301000D02*
X99822000Y-67301000D01*
X93218000Y-65024000D02*
X97536000Y-65024000D01*
X103886000Y-67301000D02*
X103886000Y-66040000D01*
%TO.N,/led_data*%
X109851000Y-61591000D02*
X109982000Y-61722000D01*
X113161000Y-58797000D02*
X112391000Y-58797000D01*
X109851000Y-62099000D02*
X109851000Y-61337000D01*
X109851000Y-61337000D02*
X109851000Y-61591000D01*
X112391000Y-58797000D02*
X109851000Y-61337000D01*
X110744000Y-62992000D02*
X109851000Y-62099000D01*
%TO.N,Net-(D4-Pad2)*%
X91948000Y-57912000D02*
X93095000Y-56765000D01*
X89785000Y-57912000D02*
X91948000Y-57912000D01*
X93095000Y-56765000D02*
X93095000Y-55372000D01*
X89785000Y-68965000D02*
X89662000Y-69088000D01*
X89785000Y-57912000D02*
X89785000Y-68965000D01*
%TO.N,Net-(D5-Pad2)*%
X98797000Y-47244000D02*
X97282000Y-47244000D01*
%TD*%
D17*
%TO.N,GND*%
G36*
X120960215Y-38335821D02*
G01*
X123461986Y-40837592D01*
X123496000Y-41161216D01*
X123496001Y-42377907D01*
X118162923Y-47710986D01*
X118113526Y-47751525D01*
X118024800Y-47859637D01*
X117958872Y-47982980D01*
X117918273Y-48116816D01*
X117914894Y-48151121D01*
X112101872Y-42580307D01*
X112082295Y-42564926D01*
X112060094Y-42553660D01*
X112036121Y-42546941D01*
X112014000Y-42545000D01*
X111633000Y-42545000D01*
X111633000Y-41241412D01*
X111648363Y-41233200D01*
X111756475Y-41144475D01*
X111845200Y-41036363D01*
X111911128Y-40913020D01*
X111920713Y-40881422D01*
X117970738Y-40881422D01*
X117970738Y-41318578D01*
X118056023Y-41747335D01*
X118223316Y-42151215D01*
X118466187Y-42514697D01*
X118775303Y-42823813D01*
X119138785Y-43066684D01*
X119542665Y-43233977D01*
X119971422Y-43319262D01*
X120408578Y-43319262D01*
X120837335Y-43233977D01*
X121241215Y-43066684D01*
X121604697Y-42823813D01*
X121913813Y-42514697D01*
X122156684Y-42151215D01*
X122323977Y-41747335D01*
X122409262Y-41318578D01*
X122409262Y-40881422D01*
X122323977Y-40452665D01*
X122156684Y-40048785D01*
X121913813Y-39685303D01*
X121604697Y-39376187D01*
X121241215Y-39133316D01*
X120837335Y-38966023D01*
X120408578Y-38880738D01*
X119971422Y-38880738D01*
X119542665Y-38966023D01*
X119138785Y-39133316D01*
X118775303Y-39376187D01*
X118466187Y-39685303D01*
X118223316Y-40048785D01*
X118056023Y-40452665D01*
X117970738Y-40881422D01*
X111920713Y-40881422D01*
X111951727Y-40779184D01*
X111965435Y-40640000D01*
X111962000Y-40605123D01*
X111962000Y-39826000D01*
X113503125Y-39826000D01*
X113538000Y-39829435D01*
X113572875Y-39826000D01*
X113572877Y-39826000D01*
X113677184Y-39815727D01*
X113811020Y-39775128D01*
X113934363Y-39709200D01*
X114042475Y-39620475D01*
X114064712Y-39593379D01*
X115356092Y-38302000D01*
X120615281Y-38302000D01*
X120960215Y-38335821D01*
G37*
X120960215Y-38335821D02*
X123461986Y-40837592D01*
X123496000Y-41161216D01*
X123496001Y-42377907D01*
X118162923Y-47710986D01*
X118113526Y-47751525D01*
X118024800Y-47859637D01*
X117958872Y-47982980D01*
X117918273Y-48116816D01*
X117914894Y-48151121D01*
X112101872Y-42580307D01*
X112082295Y-42564926D01*
X112060094Y-42553660D01*
X112036121Y-42546941D01*
X112014000Y-42545000D01*
X111633000Y-42545000D01*
X111633000Y-41241412D01*
X111648363Y-41233200D01*
X111756475Y-41144475D01*
X111845200Y-41036363D01*
X111911128Y-40913020D01*
X111920713Y-40881422D01*
X117970738Y-40881422D01*
X117970738Y-41318578D01*
X118056023Y-41747335D01*
X118223316Y-42151215D01*
X118466187Y-42514697D01*
X118775303Y-42823813D01*
X119138785Y-43066684D01*
X119542665Y-43233977D01*
X119971422Y-43319262D01*
X120408578Y-43319262D01*
X120837335Y-43233977D01*
X121241215Y-43066684D01*
X121604697Y-42823813D01*
X121913813Y-42514697D01*
X122156684Y-42151215D01*
X122323977Y-41747335D01*
X122409262Y-41318578D01*
X122409262Y-40881422D01*
X122323977Y-40452665D01*
X122156684Y-40048785D01*
X121913813Y-39685303D01*
X121604697Y-39376187D01*
X121241215Y-39133316D01*
X120837335Y-38966023D01*
X120408578Y-38880738D01*
X119971422Y-38880738D01*
X119542665Y-38966023D01*
X119138785Y-39133316D01*
X118775303Y-39376187D01*
X118466187Y-39685303D01*
X118223316Y-40048785D01*
X118056023Y-40452665D01*
X117970738Y-40881422D01*
X111920713Y-40881422D01*
X111951727Y-40779184D01*
X111965435Y-40640000D01*
X111962000Y-40605123D01*
X111962000Y-39826000D01*
X113503125Y-39826000D01*
X113538000Y-39829435D01*
X113572875Y-39826000D01*
X113572877Y-39826000D01*
X113677184Y-39815727D01*
X113811020Y-39775128D01*
X113934363Y-39709200D01*
X114042475Y-39620475D01*
X114064712Y-39593379D01*
X115356092Y-38302000D01*
X120615281Y-38302000D01*
X120960215Y-38335821D01*
G36*
X60166229Y-72852956D02*
G01*
X60185806Y-72868337D01*
X60208007Y-72879603D01*
X60231980Y-72886322D01*
X60254101Y-72888263D01*
X60635101Y-72888263D01*
X60635101Y-74044602D01*
X60563637Y-74082800D01*
X60455525Y-74171525D01*
X60366800Y-74279637D01*
X60300872Y-74402980D01*
X60260273Y-74536816D01*
X60246565Y-74676000D01*
X60250000Y-74710878D01*
X60250001Y-75490000D01*
X58708874Y-75490000D01*
X58673999Y-75486565D01*
X58639124Y-75490000D01*
X58639123Y-75490000D01*
X58534816Y-75500273D01*
X58400980Y-75540872D01*
X58309734Y-75589644D01*
X58277635Y-75606801D01*
X58248518Y-75630697D01*
X58169525Y-75695525D01*
X58147292Y-75722616D01*
X56855909Y-77014000D01*
X51596729Y-77014000D01*
X51183974Y-76973530D01*
X48757197Y-74546753D01*
X48716000Y-74154785D01*
X48716000Y-73997422D01*
X49898738Y-73997422D01*
X49898738Y-74434578D01*
X49984023Y-74863335D01*
X50151316Y-75267215D01*
X50394187Y-75630697D01*
X50703303Y-75939813D01*
X51066785Y-76182684D01*
X51470665Y-76349977D01*
X51899422Y-76435262D01*
X52336578Y-76435262D01*
X52765335Y-76349977D01*
X53169215Y-76182684D01*
X53532697Y-75939813D01*
X53841813Y-75630697D01*
X54084684Y-75267215D01*
X54251977Y-74863335D01*
X54337262Y-74434578D01*
X54337262Y-73997422D01*
X54251977Y-73568665D01*
X54084684Y-73164785D01*
X53841813Y-72801303D01*
X53532697Y-72492187D01*
X53169215Y-72249316D01*
X52765335Y-72082023D01*
X52336578Y-71996738D01*
X51899422Y-71996738D01*
X51470665Y-72082023D01*
X51066785Y-72249316D01*
X50703303Y-72492187D01*
X50394187Y-72801303D01*
X50151316Y-73164785D01*
X49984023Y-73568665D01*
X49898738Y-73997422D01*
X48716000Y-73997422D01*
X48716000Y-73192091D01*
X54325383Y-67582708D01*
X54352474Y-67560475D01*
X54441200Y-67452363D01*
X54471560Y-67395564D01*
X60166229Y-72852956D01*
G37*
X60166229Y-72852956D02*
X60185806Y-72868337D01*
X60208007Y-72879603D01*
X60231980Y-72886322D01*
X60254101Y-72888263D01*
X60635101Y-72888263D01*
X60635101Y-74044602D01*
X60563637Y-74082800D01*
X60455525Y-74171525D01*
X60366800Y-74279637D01*
X60300872Y-74402980D01*
X60260273Y-74536816D01*
X60246565Y-74676000D01*
X60250000Y-74710878D01*
X60250001Y-75490000D01*
X58708874Y-75490000D01*
X58673999Y-75486565D01*
X58639124Y-75490000D01*
X58639123Y-75490000D01*
X58534816Y-75500273D01*
X58400980Y-75540872D01*
X58309734Y-75589644D01*
X58277635Y-75606801D01*
X58248518Y-75630697D01*
X58169525Y-75695525D01*
X58147292Y-75722616D01*
X56855909Y-77014000D01*
X51596729Y-77014000D01*
X51183974Y-76973530D01*
X48757197Y-74546753D01*
X48716000Y-74154785D01*
X48716000Y-73997422D01*
X49898738Y-73997422D01*
X49898738Y-74434578D01*
X49984023Y-74863335D01*
X50151316Y-75267215D01*
X50394187Y-75630697D01*
X50703303Y-75939813D01*
X51066785Y-76182684D01*
X51470665Y-76349977D01*
X51899422Y-76435262D01*
X52336578Y-76435262D01*
X52765335Y-76349977D01*
X53169215Y-76182684D01*
X53532697Y-75939813D01*
X53841813Y-75630697D01*
X54084684Y-75267215D01*
X54251977Y-74863335D01*
X54337262Y-74434578D01*
X54337262Y-73997422D01*
X54251977Y-73568665D01*
X54084684Y-73164785D01*
X53841813Y-72801303D01*
X53532697Y-72492187D01*
X53169215Y-72249316D01*
X52765335Y-72082023D01*
X52336578Y-71996738D01*
X51899422Y-71996738D01*
X51470665Y-72082023D01*
X51066785Y-72249316D01*
X50703303Y-72492187D01*
X50394187Y-72801303D01*
X50151316Y-73164785D01*
X49984023Y-73568665D01*
X49898738Y-73997422D01*
X48716000Y-73997422D01*
X48716000Y-73192091D01*
X54325383Y-67582708D01*
X54352474Y-67560475D01*
X54441200Y-67452363D01*
X54471560Y-67395564D01*
X60166229Y-72852956D01*
G36*
X117958872Y-67329020D02*
G01*
X118024800Y-67452363D01*
X118113526Y-67560475D01*
X118140617Y-67582708D01*
X123496000Y-72938092D01*
X123496001Y-74133261D01*
X123440289Y-74701470D01*
X121185422Y-76956337D01*
X120636785Y-77014000D01*
X115356092Y-77014000D01*
X114064712Y-75722621D01*
X114042475Y-75695525D01*
X113934363Y-75606800D01*
X113811020Y-75540872D01*
X113677184Y-75500273D01*
X113572877Y-75490000D01*
X113572875Y-75490000D01*
X113538000Y-75486565D01*
X113503125Y-75490000D01*
X111962000Y-75490000D01*
X111962000Y-74710877D01*
X111965435Y-74676000D01*
X111951727Y-74536816D01*
X111911128Y-74402980D01*
X111845200Y-74279637D01*
X111756475Y-74171525D01*
X111717102Y-74139212D01*
X111717102Y-73949422D01*
X117970738Y-73949422D01*
X117970738Y-74386578D01*
X118056023Y-74815335D01*
X118223316Y-75219215D01*
X118466187Y-75582697D01*
X118775303Y-75891813D01*
X119138785Y-76134684D01*
X119542665Y-76301977D01*
X119971422Y-76387262D01*
X120408578Y-76387262D01*
X120837335Y-76301977D01*
X121241215Y-76134684D01*
X121604697Y-75891813D01*
X121913813Y-75582697D01*
X122156684Y-75219215D01*
X122323977Y-74815335D01*
X122409262Y-74386578D01*
X122409262Y-73949422D01*
X122323977Y-73520665D01*
X122156684Y-73116785D01*
X121913813Y-72753303D01*
X121604697Y-72444187D01*
X121241215Y-72201316D01*
X120837335Y-72034023D01*
X120408578Y-71948738D01*
X119971422Y-71948738D01*
X119542665Y-72034023D01*
X119138785Y-72201316D01*
X118775303Y-72444187D01*
X118466187Y-72753303D01*
X118223316Y-73116785D01*
X118056023Y-73520665D01*
X117970738Y-73949422D01*
X111717102Y-73949422D01*
X111717102Y-72888263D01*
X112098102Y-72888263D01*
X112122878Y-72885823D01*
X112146703Y-72878596D01*
X112168659Y-72866860D01*
X112185974Y-72852956D01*
X117956892Y-67322492D01*
X117958872Y-67329020D01*
G37*
X117958872Y-67329020D02*
X118024800Y-67452363D01*
X118113526Y-67560475D01*
X118140617Y-67582708D01*
X123496000Y-72938092D01*
X123496001Y-74133261D01*
X123440289Y-74701470D01*
X121185422Y-76956337D01*
X120636785Y-77014000D01*
X115356092Y-77014000D01*
X114064712Y-75722621D01*
X114042475Y-75695525D01*
X113934363Y-75606800D01*
X113811020Y-75540872D01*
X113677184Y-75500273D01*
X113572877Y-75490000D01*
X113572875Y-75490000D01*
X113538000Y-75486565D01*
X113503125Y-75490000D01*
X111962000Y-75490000D01*
X111962000Y-74710877D01*
X111965435Y-74676000D01*
X111951727Y-74536816D01*
X111911128Y-74402980D01*
X111845200Y-74279637D01*
X111756475Y-74171525D01*
X111717102Y-74139212D01*
X111717102Y-73949422D01*
X117970738Y-73949422D01*
X117970738Y-74386578D01*
X118056023Y-74815335D01*
X118223316Y-75219215D01*
X118466187Y-75582697D01*
X118775303Y-75891813D01*
X119138785Y-76134684D01*
X119542665Y-76301977D01*
X119971422Y-76387262D01*
X120408578Y-76387262D01*
X120837335Y-76301977D01*
X121241215Y-76134684D01*
X121604697Y-75891813D01*
X121913813Y-75582697D01*
X122156684Y-75219215D01*
X122323977Y-74815335D01*
X122409262Y-74386578D01*
X122409262Y-73949422D01*
X122323977Y-73520665D01*
X122156684Y-73116785D01*
X121913813Y-72753303D01*
X121604697Y-72444187D01*
X121241215Y-72201316D01*
X120837335Y-72034023D01*
X120408578Y-71948738D01*
X119971422Y-71948738D01*
X119542665Y-72034023D01*
X119138785Y-72201316D01*
X118775303Y-72444187D01*
X118466187Y-72753303D01*
X118223316Y-73116785D01*
X118056023Y-73520665D01*
X117970738Y-73949422D01*
X111717102Y-73949422D01*
X111717102Y-72888263D01*
X112098102Y-72888263D01*
X112122878Y-72885823D01*
X112146703Y-72878596D01*
X112168659Y-72866860D01*
X112185974Y-72852956D01*
X117956892Y-67322492D01*
X117958872Y-67329020D01*
G36*
X116205000Y-72771000D02*
G01*
X56007000Y-72771000D01*
X56007000Y-48006000D01*
X59713444Y-48006000D01*
X59717001Y-48042115D01*
X59717000Y-67781895D01*
X59713444Y-67818000D01*
X59727635Y-67962085D01*
X59769663Y-68100633D01*
X59837913Y-68228320D01*
X59929762Y-68340238D01*
X60036975Y-68428226D01*
X60041680Y-68432087D01*
X60169367Y-68500337D01*
X60307915Y-68542365D01*
X60452000Y-68556556D01*
X60488105Y-68553000D01*
X88355895Y-68553000D01*
X88392000Y-68556556D01*
X88428105Y-68553000D01*
X88536085Y-68542365D01*
X88674633Y-68500337D01*
X88802320Y-68432087D01*
X88914238Y-68340238D01*
X89006087Y-68228320D01*
X89025001Y-68192934D01*
X89025001Y-68268845D01*
X89002226Y-68284063D01*
X88858063Y-68428226D01*
X88744795Y-68597744D01*
X88666774Y-68786102D01*
X88627000Y-68986061D01*
X88627000Y-69189939D01*
X88666774Y-69389898D01*
X88744795Y-69578256D01*
X88858063Y-69747774D01*
X89002226Y-69891937D01*
X89171744Y-70005205D01*
X89360102Y-70083226D01*
X89560061Y-70123000D01*
X89763939Y-70123000D01*
X89963898Y-70083226D01*
X90152256Y-70005205D01*
X90270794Y-69926000D01*
X98483928Y-69926000D01*
X98496188Y-70050482D01*
X98532498Y-70170180D01*
X98591463Y-70280494D01*
X98670815Y-70377185D01*
X98767506Y-70456537D01*
X98877820Y-70515502D01*
X98997518Y-70551812D01*
X99122000Y-70564072D01*
X99536250Y-70561000D01*
X99695000Y-70402250D01*
X99695000Y-69478000D01*
X99949000Y-69478000D01*
X99949000Y-70402250D01*
X100107750Y-70561000D01*
X100522000Y-70564072D01*
X100646482Y-70551812D01*
X100766180Y-70515502D01*
X100876494Y-70456537D01*
X100973185Y-70377185D01*
X101052537Y-70280494D01*
X101111502Y-70170180D01*
X101147812Y-70050482D01*
X101160072Y-69926000D01*
X102547928Y-69926000D01*
X102560188Y-70050482D01*
X102596498Y-70170180D01*
X102655463Y-70280494D01*
X102734815Y-70377185D01*
X102831506Y-70456537D01*
X102941820Y-70515502D01*
X103061518Y-70551812D01*
X103186000Y-70564072D01*
X103600250Y-70561000D01*
X103759000Y-70402250D01*
X103759000Y-69478000D01*
X104013000Y-69478000D01*
X104013000Y-70402250D01*
X104171750Y-70561000D01*
X104586000Y-70564072D01*
X104710482Y-70551812D01*
X104830180Y-70515502D01*
X104940494Y-70456537D01*
X105037185Y-70377185D01*
X105116537Y-70280494D01*
X105175502Y-70170180D01*
X105211812Y-70050482D01*
X105224072Y-69926000D01*
X105221000Y-69636750D01*
X105062250Y-69478000D01*
X104013000Y-69478000D01*
X103759000Y-69478000D01*
X102709750Y-69478000D01*
X102551000Y-69636750D01*
X102547928Y-69926000D01*
X101160072Y-69926000D01*
X101157000Y-69636750D01*
X100998250Y-69478000D01*
X99949000Y-69478000D01*
X99695000Y-69478000D01*
X98645750Y-69478000D01*
X98487000Y-69636750D01*
X98483928Y-69926000D01*
X90270794Y-69926000D01*
X90321774Y-69891937D01*
X90465937Y-69747774D01*
X90579205Y-69578256D01*
X90657226Y-69389898D01*
X90697000Y-69189939D01*
X90697000Y-68986061D01*
X90657226Y-68786102D01*
X90579205Y-68597744D01*
X90545000Y-68546552D01*
X90545000Y-64922061D01*
X92183000Y-64922061D01*
X92183000Y-65125939D01*
X92222774Y-65325898D01*
X92300795Y-65514256D01*
X92414063Y-65683774D01*
X92558226Y-65827937D01*
X92727744Y-65941205D01*
X92916102Y-66019226D01*
X93116061Y-66059000D01*
X93319939Y-66059000D01*
X93519898Y-66019226D01*
X93708256Y-65941205D01*
X93877774Y-65827937D01*
X93921711Y-65784000D01*
X97221199Y-65784000D01*
X98483928Y-67046730D01*
X98483928Y-67626001D01*
X98500992Y-67799255D01*
X98551528Y-67965851D01*
X98633595Y-68119387D01*
X98744038Y-68253962D01*
X98750594Y-68259342D01*
X98670815Y-68324815D01*
X98591463Y-68421506D01*
X98532498Y-68531820D01*
X98496188Y-68651518D01*
X98483928Y-68776000D01*
X98487000Y-69065250D01*
X98645750Y-69224000D01*
X99695000Y-69224000D01*
X99695000Y-69204000D01*
X99949000Y-69204000D01*
X99949000Y-69224000D01*
X100998250Y-69224000D01*
X101157000Y-69065250D01*
X101160072Y-68776000D01*
X101147812Y-68651518D01*
X101111502Y-68531820D01*
X101052537Y-68421506D01*
X100973185Y-68324815D01*
X100893406Y-68259342D01*
X100899962Y-68253962D01*
X101010405Y-68119387D01*
X101041614Y-68061000D01*
X102666386Y-68061000D01*
X102697595Y-68119387D01*
X102808038Y-68253962D01*
X102814594Y-68259342D01*
X102734815Y-68324815D01*
X102655463Y-68421506D01*
X102596498Y-68531820D01*
X102560188Y-68651518D01*
X102547928Y-68776000D01*
X102551000Y-69065250D01*
X102709750Y-69224000D01*
X103759000Y-69224000D01*
X103759000Y-69204000D01*
X104013000Y-69204000D01*
X104013000Y-69224000D01*
X105062250Y-69224000D01*
X105221000Y-69065250D01*
X105224072Y-68776000D01*
X105211812Y-68651518D01*
X105175502Y-68531820D01*
X105116537Y-68421506D01*
X105037185Y-68324815D01*
X104957406Y-68259342D01*
X104963962Y-68253962D01*
X105074405Y-68119387D01*
X105156472Y-67965851D01*
X105207008Y-67799255D01*
X105224072Y-67626001D01*
X105224072Y-66975999D01*
X105207008Y-66802745D01*
X105156472Y-66636149D01*
X105074405Y-66482613D01*
X104963962Y-66348038D01*
X104891787Y-66288805D01*
X104921000Y-66141939D01*
X104921000Y-65938061D01*
X104881226Y-65738102D01*
X104803205Y-65549744D01*
X104689937Y-65380226D01*
X104545774Y-65236063D01*
X104376256Y-65122795D01*
X104187898Y-65044774D01*
X103987939Y-65005000D01*
X103784061Y-65005000D01*
X103584102Y-65044774D01*
X103395744Y-65122795D01*
X103226226Y-65236063D01*
X103082063Y-65380226D01*
X102968795Y-65549744D01*
X102890774Y-65738102D01*
X102851000Y-65938061D01*
X102851000Y-66141939D01*
X102880213Y-66288805D01*
X102808038Y-66348038D01*
X102697595Y-66482613D01*
X102666386Y-66541000D01*
X101041614Y-66541000D01*
X101010405Y-66482613D01*
X100899962Y-66348038D01*
X100765387Y-66237595D01*
X100611851Y-66155528D01*
X100445255Y-66104992D01*
X100272001Y-66087928D01*
X99674730Y-66087928D01*
X98099804Y-64513003D01*
X98076001Y-64483999D01*
X97960276Y-64389026D01*
X97828247Y-64318454D01*
X97684986Y-64274997D01*
X97573333Y-64264000D01*
X97573322Y-64264000D01*
X97536000Y-64260324D01*
X97498678Y-64264000D01*
X93921711Y-64264000D01*
X93877774Y-64220063D01*
X93708256Y-64106795D01*
X93519898Y-64028774D01*
X93319939Y-63989000D01*
X93116061Y-63989000D01*
X92916102Y-64028774D01*
X92727744Y-64106795D01*
X92558226Y-64220063D01*
X92414063Y-64364226D01*
X92300795Y-64533744D01*
X92222774Y-64722102D01*
X92183000Y-64922061D01*
X90545000Y-64922061D01*
X90545000Y-59050072D01*
X91040000Y-59050072D01*
X91164482Y-59037812D01*
X91284180Y-59001502D01*
X91394494Y-58942537D01*
X91491185Y-58863185D01*
X91570537Y-58766494D01*
X91621046Y-58672000D01*
X91910678Y-58672000D01*
X91948000Y-58675676D01*
X91985322Y-58672000D01*
X91985333Y-58672000D01*
X92096986Y-58661003D01*
X92240247Y-58617546D01*
X92372276Y-58546974D01*
X92488001Y-58452001D01*
X92511804Y-58422997D01*
X93606004Y-57328798D01*
X93635001Y-57305001D01*
X93675274Y-57255928D01*
X96867897Y-57255928D01*
X96867897Y-58188072D01*
X97049749Y-59102304D01*
X97406464Y-59963491D01*
X97924335Y-60738540D01*
X98583460Y-61397665D01*
X99358509Y-61915536D01*
X100219696Y-62272251D01*
X101133928Y-62454103D01*
X102066072Y-62454103D01*
X102980304Y-62272251D01*
X103841491Y-61915536D01*
X104616540Y-61397665D01*
X105177205Y-60837000D01*
X107957928Y-60837000D01*
X107957928Y-61837000D01*
X107970188Y-61961482D01*
X108006498Y-62081180D01*
X108065463Y-62191494D01*
X108144815Y-62288185D01*
X108241506Y-62367537D01*
X108351820Y-62426502D01*
X108471518Y-62462812D01*
X108596000Y-62475072D01*
X109190260Y-62475072D01*
X109216026Y-62523276D01*
X109252504Y-62567724D01*
X109310999Y-62639001D01*
X109340002Y-62662803D01*
X109709000Y-63031801D01*
X109709000Y-63093939D01*
X109748774Y-63293898D01*
X109826795Y-63482256D01*
X109940063Y-63651774D01*
X110084226Y-63795937D01*
X110253744Y-63909205D01*
X110442102Y-63987226D01*
X110642061Y-64027000D01*
X110845939Y-64027000D01*
X111045898Y-63987226D01*
X111234256Y-63909205D01*
X111334992Y-63841895D01*
X111379026Y-63924276D01*
X111473999Y-64040001D01*
X111589724Y-64134974D01*
X111721753Y-64205546D01*
X111865014Y-64249003D01*
X111976667Y-64260000D01*
X112051333Y-64260000D01*
X112162986Y-64249003D01*
X112306247Y-64205546D01*
X112438276Y-64134974D01*
X112554001Y-64040001D01*
X112648974Y-63924276D01*
X112719546Y-63792247D01*
X112763003Y-63648986D01*
X112777677Y-63500000D01*
X112763003Y-63351014D01*
X112719546Y-63207753D01*
X112648974Y-63075724D01*
X112554001Y-62959999D01*
X112438276Y-62865026D01*
X112306247Y-62794454D01*
X112162986Y-62750997D01*
X112051333Y-62740000D01*
X111976667Y-62740000D01*
X111865014Y-62750997D01*
X111757807Y-62783517D01*
X111739226Y-62690102D01*
X111661205Y-62501744D01*
X111547937Y-62332226D01*
X111527916Y-62312205D01*
X111557185Y-62288185D01*
X111636537Y-62191494D01*
X111695502Y-62081180D01*
X111731812Y-61961482D01*
X111744072Y-61837000D01*
X111744072Y-60837000D01*
X111731812Y-60712518D01*
X111695502Y-60592820D01*
X111686613Y-60576189D01*
X112327731Y-59935072D01*
X114416000Y-59935072D01*
X114540482Y-59922812D01*
X114660180Y-59886502D01*
X114770494Y-59827537D01*
X114867185Y-59748185D01*
X114946537Y-59651494D01*
X115005502Y-59541180D01*
X115041812Y-59421482D01*
X115054072Y-59297000D01*
X115054072Y-58297000D01*
X115041812Y-58172518D01*
X115005502Y-58052820D01*
X114946537Y-57942506D01*
X114867185Y-57845815D01*
X114770494Y-57766463D01*
X114660180Y-57707498D01*
X114540482Y-57671188D01*
X114416000Y-57658928D01*
X111906000Y-57658928D01*
X111781518Y-57671188D01*
X111661820Y-57707498D01*
X111551506Y-57766463D01*
X111454815Y-57845815D01*
X111375463Y-57942506D01*
X111316498Y-58052820D01*
X111280188Y-58172518D01*
X111267928Y-58297000D01*
X111267928Y-58845269D01*
X109914271Y-60198928D01*
X108596000Y-60198928D01*
X108471518Y-60211188D01*
X108351820Y-60247498D01*
X108241506Y-60306463D01*
X108144815Y-60385815D01*
X108065463Y-60482506D01*
X108006498Y-60592820D01*
X107970188Y-60712518D01*
X107957928Y-60837000D01*
X105177205Y-60837000D01*
X105275665Y-60738540D01*
X105793536Y-59963491D01*
X106150251Y-59102304D01*
X106332103Y-58188072D01*
X106332103Y-57255928D01*
X106150251Y-56341696D01*
X105793536Y-55480509D01*
X105275665Y-54705460D01*
X104616540Y-54046335D01*
X103841491Y-53528464D01*
X102980304Y-53171749D01*
X102066072Y-52989897D01*
X101133928Y-52989897D01*
X100219696Y-53171749D01*
X99358509Y-53528464D01*
X98583460Y-54046335D01*
X97924335Y-54705460D01*
X97406464Y-55480509D01*
X97049749Y-56341696D01*
X96867897Y-57255928D01*
X93675274Y-57255928D01*
X93729974Y-57189277D01*
X93800546Y-57057247D01*
X93800546Y-57057246D01*
X93844003Y-56913986D01*
X93855000Y-56802333D01*
X93855000Y-56802323D01*
X93858676Y-56765000D01*
X93855000Y-56727677D01*
X93855000Y-56510072D01*
X94350000Y-56510072D01*
X94474482Y-56497812D01*
X94594180Y-56461502D01*
X94704494Y-56402537D01*
X94801185Y-56323185D01*
X94880537Y-56226494D01*
X94939502Y-56116180D01*
X94975812Y-55996482D01*
X94988072Y-55872000D01*
X94988072Y-54872000D01*
X94975812Y-54747518D01*
X94939502Y-54627820D01*
X94880537Y-54517506D01*
X94801185Y-54420815D01*
X94704494Y-54341463D01*
X94594180Y-54282498D01*
X94474482Y-54246188D01*
X94350000Y-54233928D01*
X91840000Y-54233928D01*
X91715518Y-54246188D01*
X91595820Y-54282498D01*
X91485506Y-54341463D01*
X91388815Y-54420815D01*
X91309463Y-54517506D01*
X91250498Y-54627820D01*
X91214188Y-54747518D01*
X91201928Y-54872000D01*
X91201928Y-55872000D01*
X91214188Y-55996482D01*
X91250498Y-56116180D01*
X91309463Y-56226494D01*
X91388815Y-56323185D01*
X91485506Y-56402537D01*
X91595820Y-56461502D01*
X91715518Y-56497812D01*
X91840000Y-56510072D01*
X92275126Y-56510072D01*
X91633199Y-57152000D01*
X91621046Y-57152000D01*
X91570537Y-57057506D01*
X91491185Y-56960815D01*
X91394494Y-56881463D01*
X91284180Y-56822498D01*
X91164482Y-56786188D01*
X91040000Y-56773928D01*
X89127000Y-56773928D01*
X89127000Y-48291801D01*
X90876201Y-50041003D01*
X90899999Y-50070001D01*
X91015724Y-50164974D01*
X91147753Y-50235546D01*
X91291014Y-50279003D01*
X91402667Y-50290000D01*
X91402676Y-50290000D01*
X91439999Y-50293676D01*
X91477322Y-50290000D01*
X99276678Y-50290000D01*
X99314000Y-50293676D01*
X99351322Y-50290000D01*
X99351333Y-50290000D01*
X99462986Y-50279003D01*
X99606247Y-50235546D01*
X99738276Y-50164974D01*
X99854001Y-50070001D01*
X99877803Y-50040998D01*
X101357513Y-48561289D01*
X101511851Y-48514472D01*
X101665387Y-48432405D01*
X101799962Y-48321962D01*
X101910405Y-48187387D01*
X101992472Y-48033851D01*
X102043008Y-47867255D01*
X102060072Y-47694001D01*
X102060072Y-46793999D01*
X102043008Y-46620745D01*
X101992472Y-46454149D01*
X101910405Y-46300613D01*
X101799962Y-46166038D01*
X101665387Y-46055595D01*
X101511851Y-45973528D01*
X101345255Y-45922992D01*
X101172001Y-45905928D01*
X100521999Y-45905928D01*
X100348745Y-45922992D01*
X100182149Y-45973528D01*
X100028613Y-46055595D01*
X99894038Y-46166038D01*
X99822000Y-46253816D01*
X99749962Y-46166038D01*
X99615387Y-46055595D01*
X99461851Y-45973528D01*
X99295255Y-45922992D01*
X99122001Y-45905928D01*
X98471999Y-45905928D01*
X98298745Y-45922992D01*
X98132149Y-45973528D01*
X97978613Y-46055595D01*
X97844038Y-46166038D01*
X97733595Y-46300613D01*
X97729145Y-46308938D01*
X97583898Y-46248774D01*
X97383939Y-46209000D01*
X97180061Y-46209000D01*
X96980102Y-46248774D01*
X96791744Y-46326795D01*
X96622226Y-46440063D01*
X96478063Y-46584226D01*
X96364795Y-46753744D01*
X96286774Y-46942102D01*
X96247000Y-47142061D01*
X96247000Y-47345939D01*
X96286774Y-47545898D01*
X96364795Y-47734256D01*
X96478063Y-47903774D01*
X96622226Y-48047937D01*
X96791744Y-48161205D01*
X96980102Y-48239226D01*
X97180061Y-48279000D01*
X97383939Y-48279000D01*
X97583898Y-48239226D01*
X97729145Y-48179062D01*
X97733595Y-48187387D01*
X97844038Y-48321962D01*
X97978613Y-48432405D01*
X98132149Y-48514472D01*
X98298745Y-48565008D01*
X98471999Y-48582072D01*
X99122001Y-48582072D01*
X99194241Y-48574957D01*
X98999199Y-48770000D01*
X91754802Y-48770000D01*
X89717804Y-46733003D01*
X89694001Y-46703999D01*
X89578276Y-46609026D01*
X89446247Y-46538454D01*
X89302986Y-46494997D01*
X89191333Y-46484000D01*
X89191322Y-46484000D01*
X89154000Y-46480324D01*
X89116678Y-46484000D01*
X79189655Y-46484000D01*
X79317120Y-46356535D01*
X79470005Y-46127727D01*
X79575314Y-45873490D01*
X79629000Y-45603592D01*
X79629000Y-45328408D01*
X79575314Y-45058510D01*
X79470005Y-44804273D01*
X79317120Y-44575465D01*
X79122535Y-44380880D01*
X78893727Y-44227995D01*
X78639490Y-44122686D01*
X78369592Y-44069000D01*
X78094408Y-44069000D01*
X77824510Y-44122686D01*
X77570273Y-44227995D01*
X77341465Y-44380880D01*
X77146880Y-44575465D01*
X76993995Y-44804273D01*
X76962000Y-44881515D01*
X76930005Y-44804273D01*
X76777120Y-44575465D01*
X76582535Y-44380880D01*
X76353727Y-44227995D01*
X76099490Y-44122686D01*
X75829592Y-44069000D01*
X75554408Y-44069000D01*
X75284510Y-44122686D01*
X75030273Y-44227995D01*
X74801465Y-44380880D01*
X74606880Y-44575465D01*
X74453995Y-44804273D01*
X74424308Y-44875943D01*
X74419636Y-44862977D01*
X74357656Y-44747020D01*
X74117565Y-44680040D01*
X73331605Y-45466000D01*
X74117565Y-46251960D01*
X74357656Y-46184980D01*
X74421485Y-46049240D01*
X74453995Y-46127727D01*
X74606880Y-46356535D01*
X74734345Y-46484000D01*
X73923332Y-46484000D01*
X73937960Y-46431565D01*
X73152000Y-45645605D01*
X72366040Y-46431565D01*
X72380668Y-46484000D01*
X71569655Y-46484000D01*
X71697120Y-46356535D01*
X71850005Y-46127727D01*
X71879692Y-46056057D01*
X71884364Y-46069023D01*
X71946344Y-46184980D01*
X72186435Y-46251960D01*
X72972395Y-45466000D01*
X72186435Y-44680040D01*
X71946344Y-44747020D01*
X71882515Y-44882760D01*
X71850005Y-44804273D01*
X71697120Y-44575465D01*
X71622090Y-44500435D01*
X72366040Y-44500435D01*
X73152000Y-45286395D01*
X73937960Y-44500435D01*
X73870980Y-44260344D01*
X73621952Y-44143244D01*
X73354865Y-44076977D01*
X73079983Y-44064090D01*
X72807867Y-44105078D01*
X72548977Y-44198364D01*
X72433020Y-44260344D01*
X72366040Y-44500435D01*
X71622090Y-44500435D01*
X71502535Y-44380880D01*
X71273727Y-44227995D01*
X71019490Y-44122686D01*
X70749592Y-44069000D01*
X70474408Y-44069000D01*
X70204510Y-44122686D01*
X69950273Y-44227995D01*
X69721465Y-44380880D01*
X69526880Y-44575465D01*
X69373995Y-44804273D01*
X69268686Y-45058510D01*
X69215000Y-45328408D01*
X69215000Y-45603592D01*
X69268686Y-45873490D01*
X69373995Y-46127727D01*
X69526880Y-46356535D01*
X69721465Y-46551120D01*
X69852001Y-46638341D01*
X69852001Y-46952668D01*
X69848324Y-46990000D01*
X69862998Y-47138985D01*
X69903043Y-47271000D01*
X60488105Y-47271000D01*
X60452000Y-47267444D01*
X60415895Y-47271000D01*
X60307915Y-47281635D01*
X60169367Y-47323663D01*
X60041680Y-47391913D01*
X59929762Y-47483762D01*
X59837913Y-47595680D01*
X59769663Y-47723367D01*
X59727635Y-47861915D01*
X59713444Y-48006000D01*
X56007000Y-48006000D01*
X56007000Y-42799000D01*
X116205000Y-42799000D01*
X116205000Y-72771000D01*
G37*
X116205000Y-72771000D02*
X56007000Y-72771000D01*
X56007000Y-48006000D01*
X59713444Y-48006000D01*
X59717001Y-48042115D01*
X59717000Y-67781895D01*
X59713444Y-67818000D01*
X59727635Y-67962085D01*
X59769663Y-68100633D01*
X59837913Y-68228320D01*
X59929762Y-68340238D01*
X60036975Y-68428226D01*
X60041680Y-68432087D01*
X60169367Y-68500337D01*
X60307915Y-68542365D01*
X60452000Y-68556556D01*
X60488105Y-68553000D01*
X88355895Y-68553000D01*
X88392000Y-68556556D01*
X88428105Y-68553000D01*
X88536085Y-68542365D01*
X88674633Y-68500337D01*
X88802320Y-68432087D01*
X88914238Y-68340238D01*
X89006087Y-68228320D01*
X89025001Y-68192934D01*
X89025001Y-68268845D01*
X89002226Y-68284063D01*
X88858063Y-68428226D01*
X88744795Y-68597744D01*
X88666774Y-68786102D01*
X88627000Y-68986061D01*
X88627000Y-69189939D01*
X88666774Y-69389898D01*
X88744795Y-69578256D01*
X88858063Y-69747774D01*
X89002226Y-69891937D01*
X89171744Y-70005205D01*
X89360102Y-70083226D01*
X89560061Y-70123000D01*
X89763939Y-70123000D01*
X89963898Y-70083226D01*
X90152256Y-70005205D01*
X90270794Y-69926000D01*
X98483928Y-69926000D01*
X98496188Y-70050482D01*
X98532498Y-70170180D01*
X98591463Y-70280494D01*
X98670815Y-70377185D01*
X98767506Y-70456537D01*
X98877820Y-70515502D01*
X98997518Y-70551812D01*
X99122000Y-70564072D01*
X99536250Y-70561000D01*
X99695000Y-70402250D01*
X99695000Y-69478000D01*
X99949000Y-69478000D01*
X99949000Y-70402250D01*
X100107750Y-70561000D01*
X100522000Y-70564072D01*
X100646482Y-70551812D01*
X100766180Y-70515502D01*
X100876494Y-70456537D01*
X100973185Y-70377185D01*
X101052537Y-70280494D01*
X101111502Y-70170180D01*
X101147812Y-70050482D01*
X101160072Y-69926000D01*
X102547928Y-69926000D01*
X102560188Y-70050482D01*
X102596498Y-70170180D01*
X102655463Y-70280494D01*
X102734815Y-70377185D01*
X102831506Y-70456537D01*
X102941820Y-70515502D01*
X103061518Y-70551812D01*
X103186000Y-70564072D01*
X103600250Y-70561000D01*
X103759000Y-70402250D01*
X103759000Y-69478000D01*
X104013000Y-69478000D01*
X104013000Y-70402250D01*
X104171750Y-70561000D01*
X104586000Y-70564072D01*
X104710482Y-70551812D01*
X104830180Y-70515502D01*
X104940494Y-70456537D01*
X105037185Y-70377185D01*
X105116537Y-70280494D01*
X105175502Y-70170180D01*
X105211812Y-70050482D01*
X105224072Y-69926000D01*
X105221000Y-69636750D01*
X105062250Y-69478000D01*
X104013000Y-69478000D01*
X103759000Y-69478000D01*
X102709750Y-69478000D01*
X102551000Y-69636750D01*
X102547928Y-69926000D01*
X101160072Y-69926000D01*
X101157000Y-69636750D01*
X100998250Y-69478000D01*
X99949000Y-69478000D01*
X99695000Y-69478000D01*
X98645750Y-69478000D01*
X98487000Y-69636750D01*
X98483928Y-69926000D01*
X90270794Y-69926000D01*
X90321774Y-69891937D01*
X90465937Y-69747774D01*
X90579205Y-69578256D01*
X90657226Y-69389898D01*
X90697000Y-69189939D01*
X90697000Y-68986061D01*
X90657226Y-68786102D01*
X90579205Y-68597744D01*
X90545000Y-68546552D01*
X90545000Y-64922061D01*
X92183000Y-64922061D01*
X92183000Y-65125939D01*
X92222774Y-65325898D01*
X92300795Y-65514256D01*
X92414063Y-65683774D01*
X92558226Y-65827937D01*
X92727744Y-65941205D01*
X92916102Y-66019226D01*
X93116061Y-66059000D01*
X93319939Y-66059000D01*
X93519898Y-66019226D01*
X93708256Y-65941205D01*
X93877774Y-65827937D01*
X93921711Y-65784000D01*
X97221199Y-65784000D01*
X98483928Y-67046730D01*
X98483928Y-67626001D01*
X98500992Y-67799255D01*
X98551528Y-67965851D01*
X98633595Y-68119387D01*
X98744038Y-68253962D01*
X98750594Y-68259342D01*
X98670815Y-68324815D01*
X98591463Y-68421506D01*
X98532498Y-68531820D01*
X98496188Y-68651518D01*
X98483928Y-68776000D01*
X98487000Y-69065250D01*
X98645750Y-69224000D01*
X99695000Y-69224000D01*
X99695000Y-69204000D01*
X99949000Y-69204000D01*
X99949000Y-69224000D01*
X100998250Y-69224000D01*
X101157000Y-69065250D01*
X101160072Y-68776000D01*
X101147812Y-68651518D01*
X101111502Y-68531820D01*
X101052537Y-68421506D01*
X100973185Y-68324815D01*
X100893406Y-68259342D01*
X100899962Y-68253962D01*
X101010405Y-68119387D01*
X101041614Y-68061000D01*
X102666386Y-68061000D01*
X102697595Y-68119387D01*
X102808038Y-68253962D01*
X102814594Y-68259342D01*
X102734815Y-68324815D01*
X102655463Y-68421506D01*
X102596498Y-68531820D01*
X102560188Y-68651518D01*
X102547928Y-68776000D01*
X102551000Y-69065250D01*
X102709750Y-69224000D01*
X103759000Y-69224000D01*
X103759000Y-69204000D01*
X104013000Y-69204000D01*
X104013000Y-69224000D01*
X105062250Y-69224000D01*
X105221000Y-69065250D01*
X105224072Y-68776000D01*
X105211812Y-68651518D01*
X105175502Y-68531820D01*
X105116537Y-68421506D01*
X105037185Y-68324815D01*
X104957406Y-68259342D01*
X104963962Y-68253962D01*
X105074405Y-68119387D01*
X105156472Y-67965851D01*
X105207008Y-67799255D01*
X105224072Y-67626001D01*
X105224072Y-66975999D01*
X105207008Y-66802745D01*
X105156472Y-66636149D01*
X105074405Y-66482613D01*
X104963962Y-66348038D01*
X104891787Y-66288805D01*
X104921000Y-66141939D01*
X104921000Y-65938061D01*
X104881226Y-65738102D01*
X104803205Y-65549744D01*
X104689937Y-65380226D01*
X104545774Y-65236063D01*
X104376256Y-65122795D01*
X104187898Y-65044774D01*
X103987939Y-65005000D01*
X103784061Y-65005000D01*
X103584102Y-65044774D01*
X103395744Y-65122795D01*
X103226226Y-65236063D01*
X103082063Y-65380226D01*
X102968795Y-65549744D01*
X102890774Y-65738102D01*
X102851000Y-65938061D01*
X102851000Y-66141939D01*
X102880213Y-66288805D01*
X102808038Y-66348038D01*
X102697595Y-66482613D01*
X102666386Y-66541000D01*
X101041614Y-66541000D01*
X101010405Y-66482613D01*
X100899962Y-66348038D01*
X100765387Y-66237595D01*
X100611851Y-66155528D01*
X100445255Y-66104992D01*
X100272001Y-66087928D01*
X99674730Y-66087928D01*
X98099804Y-64513003D01*
X98076001Y-64483999D01*
X97960276Y-64389026D01*
X97828247Y-64318454D01*
X97684986Y-64274997D01*
X97573333Y-64264000D01*
X97573322Y-64264000D01*
X97536000Y-64260324D01*
X97498678Y-64264000D01*
X93921711Y-64264000D01*
X93877774Y-64220063D01*
X93708256Y-64106795D01*
X93519898Y-64028774D01*
X93319939Y-63989000D01*
X93116061Y-63989000D01*
X92916102Y-64028774D01*
X92727744Y-64106795D01*
X92558226Y-64220063D01*
X92414063Y-64364226D01*
X92300795Y-64533744D01*
X92222774Y-64722102D01*
X92183000Y-64922061D01*
X90545000Y-64922061D01*
X90545000Y-59050072D01*
X91040000Y-59050072D01*
X91164482Y-59037812D01*
X91284180Y-59001502D01*
X91394494Y-58942537D01*
X91491185Y-58863185D01*
X91570537Y-58766494D01*
X91621046Y-58672000D01*
X91910678Y-58672000D01*
X91948000Y-58675676D01*
X91985322Y-58672000D01*
X91985333Y-58672000D01*
X92096986Y-58661003D01*
X92240247Y-58617546D01*
X92372276Y-58546974D01*
X92488001Y-58452001D01*
X92511804Y-58422997D01*
X93606004Y-57328798D01*
X93635001Y-57305001D01*
X93675274Y-57255928D01*
X96867897Y-57255928D01*
X96867897Y-58188072D01*
X97049749Y-59102304D01*
X97406464Y-59963491D01*
X97924335Y-60738540D01*
X98583460Y-61397665D01*
X99358509Y-61915536D01*
X100219696Y-62272251D01*
X101133928Y-62454103D01*
X102066072Y-62454103D01*
X102980304Y-62272251D01*
X103841491Y-61915536D01*
X104616540Y-61397665D01*
X105177205Y-60837000D01*
X107957928Y-60837000D01*
X107957928Y-61837000D01*
X107970188Y-61961482D01*
X108006498Y-62081180D01*
X108065463Y-62191494D01*
X108144815Y-62288185D01*
X108241506Y-62367537D01*
X108351820Y-62426502D01*
X108471518Y-62462812D01*
X108596000Y-62475072D01*
X109190260Y-62475072D01*
X109216026Y-62523276D01*
X109252504Y-62567724D01*
X109310999Y-62639001D01*
X109340002Y-62662803D01*
X109709000Y-63031801D01*
X109709000Y-63093939D01*
X109748774Y-63293898D01*
X109826795Y-63482256D01*
X109940063Y-63651774D01*
X110084226Y-63795937D01*
X110253744Y-63909205D01*
X110442102Y-63987226D01*
X110642061Y-64027000D01*
X110845939Y-64027000D01*
X111045898Y-63987226D01*
X111234256Y-63909205D01*
X111334992Y-63841895D01*
X111379026Y-63924276D01*
X111473999Y-64040001D01*
X111589724Y-64134974D01*
X111721753Y-64205546D01*
X111865014Y-64249003D01*
X111976667Y-64260000D01*
X112051333Y-64260000D01*
X112162986Y-64249003D01*
X112306247Y-64205546D01*
X112438276Y-64134974D01*
X112554001Y-64040001D01*
X112648974Y-63924276D01*
X112719546Y-63792247D01*
X112763003Y-63648986D01*
X112777677Y-63500000D01*
X112763003Y-63351014D01*
X112719546Y-63207753D01*
X112648974Y-63075724D01*
X112554001Y-62959999D01*
X112438276Y-62865026D01*
X112306247Y-62794454D01*
X112162986Y-62750997D01*
X112051333Y-62740000D01*
X111976667Y-62740000D01*
X111865014Y-62750997D01*
X111757807Y-62783517D01*
X111739226Y-62690102D01*
X111661205Y-62501744D01*
X111547937Y-62332226D01*
X111527916Y-62312205D01*
X111557185Y-62288185D01*
X111636537Y-62191494D01*
X111695502Y-62081180D01*
X111731812Y-61961482D01*
X111744072Y-61837000D01*
X111744072Y-60837000D01*
X111731812Y-60712518D01*
X111695502Y-60592820D01*
X111686613Y-60576189D01*
X112327731Y-59935072D01*
X114416000Y-59935072D01*
X114540482Y-59922812D01*
X114660180Y-59886502D01*
X114770494Y-59827537D01*
X114867185Y-59748185D01*
X114946537Y-59651494D01*
X115005502Y-59541180D01*
X115041812Y-59421482D01*
X115054072Y-59297000D01*
X115054072Y-58297000D01*
X115041812Y-58172518D01*
X115005502Y-58052820D01*
X114946537Y-57942506D01*
X114867185Y-57845815D01*
X114770494Y-57766463D01*
X114660180Y-57707498D01*
X114540482Y-57671188D01*
X114416000Y-57658928D01*
X111906000Y-57658928D01*
X111781518Y-57671188D01*
X111661820Y-57707498D01*
X111551506Y-57766463D01*
X111454815Y-57845815D01*
X111375463Y-57942506D01*
X111316498Y-58052820D01*
X111280188Y-58172518D01*
X111267928Y-58297000D01*
X111267928Y-58845269D01*
X109914271Y-60198928D01*
X108596000Y-60198928D01*
X108471518Y-60211188D01*
X108351820Y-60247498D01*
X108241506Y-60306463D01*
X108144815Y-60385815D01*
X108065463Y-60482506D01*
X108006498Y-60592820D01*
X107970188Y-60712518D01*
X107957928Y-60837000D01*
X105177205Y-60837000D01*
X105275665Y-60738540D01*
X105793536Y-59963491D01*
X106150251Y-59102304D01*
X106332103Y-58188072D01*
X106332103Y-57255928D01*
X106150251Y-56341696D01*
X105793536Y-55480509D01*
X105275665Y-54705460D01*
X104616540Y-54046335D01*
X103841491Y-53528464D01*
X102980304Y-53171749D01*
X102066072Y-52989897D01*
X101133928Y-52989897D01*
X100219696Y-53171749D01*
X99358509Y-53528464D01*
X98583460Y-54046335D01*
X97924335Y-54705460D01*
X97406464Y-55480509D01*
X97049749Y-56341696D01*
X96867897Y-57255928D01*
X93675274Y-57255928D01*
X93729974Y-57189277D01*
X93800546Y-57057247D01*
X93800546Y-57057246D01*
X93844003Y-56913986D01*
X93855000Y-56802333D01*
X93855000Y-56802323D01*
X93858676Y-56765000D01*
X93855000Y-56727677D01*
X93855000Y-56510072D01*
X94350000Y-56510072D01*
X94474482Y-56497812D01*
X94594180Y-56461502D01*
X94704494Y-56402537D01*
X94801185Y-56323185D01*
X94880537Y-56226494D01*
X94939502Y-56116180D01*
X94975812Y-55996482D01*
X94988072Y-55872000D01*
X94988072Y-54872000D01*
X94975812Y-54747518D01*
X94939502Y-54627820D01*
X94880537Y-54517506D01*
X94801185Y-54420815D01*
X94704494Y-54341463D01*
X94594180Y-54282498D01*
X94474482Y-54246188D01*
X94350000Y-54233928D01*
X91840000Y-54233928D01*
X91715518Y-54246188D01*
X91595820Y-54282498D01*
X91485506Y-54341463D01*
X91388815Y-54420815D01*
X91309463Y-54517506D01*
X91250498Y-54627820D01*
X91214188Y-54747518D01*
X91201928Y-54872000D01*
X91201928Y-55872000D01*
X91214188Y-55996482D01*
X91250498Y-56116180D01*
X91309463Y-56226494D01*
X91388815Y-56323185D01*
X91485506Y-56402537D01*
X91595820Y-56461502D01*
X91715518Y-56497812D01*
X91840000Y-56510072D01*
X92275126Y-56510072D01*
X91633199Y-57152000D01*
X91621046Y-57152000D01*
X91570537Y-57057506D01*
X91491185Y-56960815D01*
X91394494Y-56881463D01*
X91284180Y-56822498D01*
X91164482Y-56786188D01*
X91040000Y-56773928D01*
X89127000Y-56773928D01*
X89127000Y-48291801D01*
X90876201Y-50041003D01*
X90899999Y-50070001D01*
X91015724Y-50164974D01*
X91147753Y-50235546D01*
X91291014Y-50279003D01*
X91402667Y-50290000D01*
X91402676Y-50290000D01*
X91439999Y-50293676D01*
X91477322Y-50290000D01*
X99276678Y-50290000D01*
X99314000Y-50293676D01*
X99351322Y-50290000D01*
X99351333Y-50290000D01*
X99462986Y-50279003D01*
X99606247Y-50235546D01*
X99738276Y-50164974D01*
X99854001Y-50070001D01*
X99877803Y-50040998D01*
X101357513Y-48561289D01*
X101511851Y-48514472D01*
X101665387Y-48432405D01*
X101799962Y-48321962D01*
X101910405Y-48187387D01*
X101992472Y-48033851D01*
X102043008Y-47867255D01*
X102060072Y-47694001D01*
X102060072Y-46793999D01*
X102043008Y-46620745D01*
X101992472Y-46454149D01*
X101910405Y-46300613D01*
X101799962Y-46166038D01*
X101665387Y-46055595D01*
X101511851Y-45973528D01*
X101345255Y-45922992D01*
X101172001Y-45905928D01*
X100521999Y-45905928D01*
X100348745Y-45922992D01*
X100182149Y-45973528D01*
X100028613Y-46055595D01*
X99894038Y-46166038D01*
X99822000Y-46253816D01*
X99749962Y-46166038D01*
X99615387Y-46055595D01*
X99461851Y-45973528D01*
X99295255Y-45922992D01*
X99122001Y-45905928D01*
X98471999Y-45905928D01*
X98298745Y-45922992D01*
X98132149Y-45973528D01*
X97978613Y-46055595D01*
X97844038Y-46166038D01*
X97733595Y-46300613D01*
X97729145Y-46308938D01*
X97583898Y-46248774D01*
X97383939Y-46209000D01*
X97180061Y-46209000D01*
X96980102Y-46248774D01*
X96791744Y-46326795D01*
X96622226Y-46440063D01*
X96478063Y-46584226D01*
X96364795Y-46753744D01*
X96286774Y-46942102D01*
X96247000Y-47142061D01*
X96247000Y-47345939D01*
X96286774Y-47545898D01*
X96364795Y-47734256D01*
X96478063Y-47903774D01*
X96622226Y-48047937D01*
X96791744Y-48161205D01*
X96980102Y-48239226D01*
X97180061Y-48279000D01*
X97383939Y-48279000D01*
X97583898Y-48239226D01*
X97729145Y-48179062D01*
X97733595Y-48187387D01*
X97844038Y-48321962D01*
X97978613Y-48432405D01*
X98132149Y-48514472D01*
X98298745Y-48565008D01*
X98471999Y-48582072D01*
X99122001Y-48582072D01*
X99194241Y-48574957D01*
X98999199Y-48770000D01*
X91754802Y-48770000D01*
X89717804Y-46733003D01*
X89694001Y-46703999D01*
X89578276Y-46609026D01*
X89446247Y-46538454D01*
X89302986Y-46494997D01*
X89191333Y-46484000D01*
X89191322Y-46484000D01*
X89154000Y-46480324D01*
X89116678Y-46484000D01*
X79189655Y-46484000D01*
X79317120Y-46356535D01*
X79470005Y-46127727D01*
X79575314Y-45873490D01*
X79629000Y-45603592D01*
X79629000Y-45328408D01*
X79575314Y-45058510D01*
X79470005Y-44804273D01*
X79317120Y-44575465D01*
X79122535Y-44380880D01*
X78893727Y-44227995D01*
X78639490Y-44122686D01*
X78369592Y-44069000D01*
X78094408Y-44069000D01*
X77824510Y-44122686D01*
X77570273Y-44227995D01*
X77341465Y-44380880D01*
X77146880Y-44575465D01*
X76993995Y-44804273D01*
X76962000Y-44881515D01*
X76930005Y-44804273D01*
X76777120Y-44575465D01*
X76582535Y-44380880D01*
X76353727Y-44227995D01*
X76099490Y-44122686D01*
X75829592Y-44069000D01*
X75554408Y-44069000D01*
X75284510Y-44122686D01*
X75030273Y-44227995D01*
X74801465Y-44380880D01*
X74606880Y-44575465D01*
X74453995Y-44804273D01*
X74424308Y-44875943D01*
X74419636Y-44862977D01*
X74357656Y-44747020D01*
X74117565Y-44680040D01*
X73331605Y-45466000D01*
X74117565Y-46251960D01*
X74357656Y-46184980D01*
X74421485Y-46049240D01*
X74453995Y-46127727D01*
X74606880Y-46356535D01*
X74734345Y-46484000D01*
X73923332Y-46484000D01*
X73937960Y-46431565D01*
X73152000Y-45645605D01*
X72366040Y-46431565D01*
X72380668Y-46484000D01*
X71569655Y-46484000D01*
X71697120Y-46356535D01*
X71850005Y-46127727D01*
X71879692Y-46056057D01*
X71884364Y-46069023D01*
X71946344Y-46184980D01*
X72186435Y-46251960D01*
X72972395Y-45466000D01*
X72186435Y-44680040D01*
X71946344Y-44747020D01*
X71882515Y-44882760D01*
X71850005Y-44804273D01*
X71697120Y-44575465D01*
X71622090Y-44500435D01*
X72366040Y-44500435D01*
X73152000Y-45286395D01*
X73937960Y-44500435D01*
X73870980Y-44260344D01*
X73621952Y-44143244D01*
X73354865Y-44076977D01*
X73079983Y-44064090D01*
X72807867Y-44105078D01*
X72548977Y-44198364D01*
X72433020Y-44260344D01*
X72366040Y-44500435D01*
X71622090Y-44500435D01*
X71502535Y-44380880D01*
X71273727Y-44227995D01*
X71019490Y-44122686D01*
X70749592Y-44069000D01*
X70474408Y-44069000D01*
X70204510Y-44122686D01*
X69950273Y-44227995D01*
X69721465Y-44380880D01*
X69526880Y-44575465D01*
X69373995Y-44804273D01*
X69268686Y-45058510D01*
X69215000Y-45328408D01*
X69215000Y-45603592D01*
X69268686Y-45873490D01*
X69373995Y-46127727D01*
X69526880Y-46356535D01*
X69721465Y-46551120D01*
X69852001Y-46638341D01*
X69852001Y-46952668D01*
X69848324Y-46990000D01*
X69862998Y-47138985D01*
X69903043Y-47271000D01*
X60488105Y-47271000D01*
X60452000Y-47267444D01*
X60415895Y-47271000D01*
X60307915Y-47281635D01*
X60169367Y-47323663D01*
X60041680Y-47391913D01*
X59929762Y-47483762D01*
X59837913Y-47595680D01*
X59769663Y-47723367D01*
X59727635Y-47861915D01*
X59713444Y-48006000D01*
X56007000Y-48006000D01*
X56007000Y-42799000D01*
X116205000Y-42799000D01*
X116205000Y-72771000D01*
G36*
X58401292Y-39593384D02*
G01*
X58423525Y-39620475D01*
X58450615Y-39642707D01*
X58531635Y-39709199D01*
X58531637Y-39709200D01*
X58654980Y-39775128D01*
X58788816Y-39815727D01*
X58893123Y-39826000D01*
X58893124Y-39826000D01*
X58927999Y-39829435D01*
X58962874Y-39826000D01*
X60504000Y-39826000D01*
X60504001Y-40605113D01*
X60500565Y-40640000D01*
X60514273Y-40779184D01*
X60554872Y-40913020D01*
X60620800Y-41036363D01*
X60709525Y-41144475D01*
X60817637Y-41233200D01*
X60833000Y-41241412D01*
X60833000Y-42291000D01*
X60706000Y-42291000D01*
X60681224Y-42293440D01*
X60657399Y-42300667D01*
X60635443Y-42312403D01*
X60616197Y-42328197D01*
X54558000Y-48386394D01*
X54558000Y-48294874D01*
X54561435Y-48259999D01*
X54554762Y-48192249D01*
X54547727Y-48120817D01*
X54507128Y-47986980D01*
X54441200Y-47863637D01*
X54441199Y-47863635D01*
X54374707Y-47782615D01*
X54352475Y-47755525D01*
X54325384Y-47733292D01*
X48970000Y-42377909D01*
X48970000Y-41182719D01*
X48994835Y-40929422D01*
X49898738Y-40929422D01*
X49898738Y-41366578D01*
X49984023Y-41795335D01*
X50151316Y-42199215D01*
X50394187Y-42562697D01*
X50703303Y-42871813D01*
X51066785Y-43114684D01*
X51470665Y-43281977D01*
X51899422Y-43367262D01*
X52336578Y-43367262D01*
X52765335Y-43281977D01*
X53169215Y-43114684D01*
X53532697Y-42871813D01*
X53841813Y-42562697D01*
X54084684Y-42199215D01*
X54251977Y-41795335D01*
X54337262Y-41366578D01*
X54337262Y-40929422D01*
X54251977Y-40500665D01*
X54084684Y-40096785D01*
X53841813Y-39733303D01*
X53532697Y-39424187D01*
X53169215Y-39181316D01*
X52765335Y-39014023D01*
X52336578Y-38928738D01*
X51899422Y-38928738D01*
X51470665Y-39014023D01*
X51066785Y-39181316D01*
X50703303Y-39424187D01*
X50394187Y-39733303D01*
X50151316Y-40096785D01*
X49984023Y-40500665D01*
X49898738Y-40929422D01*
X48994835Y-40929422D01*
X49026168Y-40609868D01*
X51471021Y-38339647D01*
X51829216Y-38302000D01*
X57109909Y-38302000D01*
X58401292Y-39593384D01*
G37*
X58401292Y-39593384D02*
X58423525Y-39620475D01*
X58450615Y-39642707D01*
X58531635Y-39709199D01*
X58531637Y-39709200D01*
X58654980Y-39775128D01*
X58788816Y-39815727D01*
X58893123Y-39826000D01*
X58893124Y-39826000D01*
X58927999Y-39829435D01*
X58962874Y-39826000D01*
X60504000Y-39826000D01*
X60504001Y-40605113D01*
X60500565Y-40640000D01*
X60514273Y-40779184D01*
X60554872Y-40913020D01*
X60620800Y-41036363D01*
X60709525Y-41144475D01*
X60817637Y-41233200D01*
X60833000Y-41241412D01*
X60833000Y-42291000D01*
X60706000Y-42291000D01*
X60681224Y-42293440D01*
X60657399Y-42300667D01*
X60635443Y-42312403D01*
X60616197Y-42328197D01*
X54558000Y-48386394D01*
X54558000Y-48294874D01*
X54561435Y-48259999D01*
X54554762Y-48192249D01*
X54547727Y-48120817D01*
X54507128Y-47986980D01*
X54441200Y-47863637D01*
X54441199Y-47863635D01*
X54374707Y-47782615D01*
X54352475Y-47755525D01*
X54325384Y-47733292D01*
X48970000Y-42377909D01*
X48970000Y-41182719D01*
X48994835Y-40929422D01*
X49898738Y-40929422D01*
X49898738Y-41366578D01*
X49984023Y-41795335D01*
X50151316Y-42199215D01*
X50394187Y-42562697D01*
X50703303Y-42871813D01*
X51066785Y-43114684D01*
X51470665Y-43281977D01*
X51899422Y-43367262D01*
X52336578Y-43367262D01*
X52765335Y-43281977D01*
X53169215Y-43114684D01*
X53532697Y-42871813D01*
X53841813Y-42562697D01*
X54084684Y-42199215D01*
X54251977Y-41795335D01*
X54337262Y-41366578D01*
X54337262Y-40929422D01*
X54251977Y-40500665D01*
X54084684Y-40096785D01*
X53841813Y-39733303D01*
X53532697Y-39424187D01*
X53169215Y-39181316D01*
X52765335Y-39014023D01*
X52336578Y-38928738D01*
X51899422Y-38928738D01*
X51470665Y-39014023D01*
X51066785Y-39181316D01*
X50703303Y-39424187D01*
X50394187Y-39733303D01*
X50151316Y-40096785D01*
X49984023Y-40500665D01*
X49898738Y-40929422D01*
X48994835Y-40929422D01*
X49026168Y-40609868D01*
X51471021Y-38339647D01*
X51829216Y-38302000D01*
X57109909Y-38302000D01*
X58401292Y-39593384D01*
%TD*%
M02*
