%TF.GenerationSoftware,KiCad,Pcbnew,(5.1.6)-1*%
%TF.CreationDate,2020-11-07T21:03:06+00:00*%
%TF.ProjectId,ninja_iron,6e696e6a-615f-4697-926f-6e2e6b696361,rev?*%
%TF.SameCoordinates,Original*%
%TF.FileFunction,Legend,Top*%
%TF.FilePolarity,Positive*%
%FSLAX46Y46*%
G04 Gerber Fmt 4.6, Leading zero omitted, Abs format (unit mm)*
G04 Created by KiCad (PCBNEW (5.1.6)-1) date 2020-11-07 21:03:06*
%MOMM*%
%LPD*%
G01*
G04 APERTURE LIST*
%ADD10C,0.200000*%
%ADD11C,0.300000*%
%ADD12C,0.150000*%
%ADD13C,0.120000*%
G04 APERTURE END LIST*
D10*
X109250000Y-57882000D02*
G75*
G03*
X109250000Y-57882000I-7650000J0D01*
G01*
D11*
X97238857Y-66694857D02*
X97738857Y-66694857D01*
X97953142Y-67480571D02*
X97238857Y-67480571D01*
X97238857Y-65980571D01*
X97953142Y-65980571D01*
X98596000Y-66480571D02*
X98596000Y-67480571D01*
X98596000Y-66623428D02*
X98667428Y-66552000D01*
X98810285Y-66480571D01*
X99024571Y-66480571D01*
X99167428Y-66552000D01*
X99238857Y-66694857D01*
X99238857Y-67480571D01*
X100596000Y-67409142D02*
X100453142Y-67480571D01*
X100167428Y-67480571D01*
X100024571Y-67409142D01*
X99953142Y-67337714D01*
X99881714Y-67194857D01*
X99881714Y-66766285D01*
X99953142Y-66623428D01*
X100024571Y-66552000D01*
X100167428Y-66480571D01*
X100453142Y-66480571D01*
X100596000Y-66552000D01*
X101453142Y-67480571D02*
X101310285Y-67409142D01*
X101238857Y-67337714D01*
X101167428Y-67194857D01*
X101167428Y-66766285D01*
X101238857Y-66623428D01*
X101310285Y-66552000D01*
X101453142Y-66480571D01*
X101667428Y-66480571D01*
X101810285Y-66552000D01*
X101881714Y-66623428D01*
X101953142Y-66766285D01*
X101953142Y-67194857D01*
X101881714Y-67337714D01*
X101810285Y-67409142D01*
X101667428Y-67480571D01*
X101453142Y-67480571D01*
X103238857Y-67480571D02*
X103238857Y-65980571D01*
X103238857Y-67409142D02*
X103096000Y-67480571D01*
X102810285Y-67480571D01*
X102667428Y-67409142D01*
X102596000Y-67337714D01*
X102524571Y-67194857D01*
X102524571Y-66766285D01*
X102596000Y-66623428D01*
X102667428Y-66552000D01*
X102810285Y-66480571D01*
X103096000Y-66480571D01*
X103238857Y-66552000D01*
X104524571Y-67409142D02*
X104381714Y-67480571D01*
X104096000Y-67480571D01*
X103953142Y-67409142D01*
X103881714Y-67266285D01*
X103881714Y-66694857D01*
X103953142Y-66552000D01*
X104096000Y-66480571D01*
X104381714Y-66480571D01*
X104524571Y-66552000D01*
X104596000Y-66694857D01*
X104596000Y-66837714D01*
X103881714Y-66980571D01*
X105238857Y-67480571D02*
X105238857Y-66480571D01*
X105238857Y-66766285D02*
X105310285Y-66623428D01*
X105381714Y-66552000D01*
X105524571Y-66480571D01*
X105667428Y-66480571D01*
D12*
%TO.C,OLED*%
X88392000Y-44196000D02*
X60452000Y-44196000D01*
X60452000Y-48006000D02*
X88392000Y-48006000D01*
X88392000Y-67691000D02*
X60452000Y-67691000D01*
X88392000Y-44196000D02*
X88392000Y-72136000D01*
X60452000Y-72136000D02*
X88392000Y-72136000D01*
X60452000Y-72136000D02*
X60452000Y-44196000D01*
D13*
%TO.C,iron 1*%
X89822000Y-64814000D02*
X97122000Y-64814000D01*
X89822000Y-70314000D02*
X97122000Y-70314000D01*
X97122000Y-70314000D02*
X97122000Y-69164000D01*
%TO.C,power*%
X94018000Y-46509000D02*
X91558000Y-46509000D01*
X91558000Y-46509000D02*
X91558000Y-47979000D01*
X91558000Y-47979000D02*
X94018000Y-47979000D01*
%TO.C,iron 2*%
X105824000Y-64814000D02*
X113124000Y-64814000D01*
X105824000Y-70314000D02*
X113124000Y-70314000D01*
X113124000Y-70314000D02*
X113124000Y-69164000D01*
%TO.C,OLED*%
D12*
X72969619Y-69810380D02*
X73160095Y-69810380D01*
X73255333Y-69858000D01*
X73350571Y-69953238D01*
X73398190Y-70143714D01*
X73398190Y-70477047D01*
X73350571Y-70667523D01*
X73255333Y-70762761D01*
X73160095Y-70810380D01*
X72969619Y-70810380D01*
X72874380Y-70762761D01*
X72779142Y-70667523D01*
X72731523Y-70477047D01*
X72731523Y-70143714D01*
X72779142Y-69953238D01*
X72874380Y-69858000D01*
X72969619Y-69810380D01*
X74302952Y-70810380D02*
X73826761Y-70810380D01*
X73826761Y-69810380D01*
X74636285Y-70286571D02*
X74969619Y-70286571D01*
X75112476Y-70810380D02*
X74636285Y-70810380D01*
X74636285Y-69810380D01*
X75112476Y-69810380D01*
X75541047Y-70810380D02*
X75541047Y-69810380D01*
X75779142Y-69810380D01*
X75922000Y-69858000D01*
X76017238Y-69953238D01*
X76064857Y-70048476D01*
X76112476Y-70238952D01*
X76112476Y-70381809D01*
X76064857Y-70572285D01*
X76017238Y-70667523D01*
X75922000Y-70762761D01*
X75779142Y-70810380D01*
X75541047Y-70810380D01*
X76015809Y-44386380D02*
X76053904Y-44272095D01*
X76053904Y-44081619D01*
X76015809Y-44005428D01*
X75977714Y-43967333D01*
X75901523Y-43929238D01*
X75825333Y-43929238D01*
X75749142Y-43967333D01*
X75711047Y-44005428D01*
X75672952Y-44081619D01*
X75634857Y-44234000D01*
X75596761Y-44310190D01*
X75558666Y-44348285D01*
X75482476Y-44386380D01*
X75406285Y-44386380D01*
X75330095Y-44348285D01*
X75292000Y-44310190D01*
X75253904Y-44234000D01*
X75253904Y-44043523D01*
X75292000Y-43929238D01*
X75977714Y-43129238D02*
X76015809Y-43167333D01*
X76053904Y-43281619D01*
X76053904Y-43357809D01*
X76015809Y-43472095D01*
X75939619Y-43548285D01*
X75863428Y-43586380D01*
X75711047Y-43624476D01*
X75596761Y-43624476D01*
X75444380Y-43586380D01*
X75368190Y-43548285D01*
X75292000Y-43472095D01*
X75253904Y-43357809D01*
X75253904Y-43281619D01*
X75292000Y-43167333D01*
X75330095Y-43129238D01*
X76053904Y-42405428D02*
X76053904Y-42786380D01*
X75253904Y-42786380D01*
X78555809Y-44405428D02*
X78593904Y-44291142D01*
X78593904Y-44100666D01*
X78555809Y-44024476D01*
X78517714Y-43986380D01*
X78441523Y-43948285D01*
X78365333Y-43948285D01*
X78289142Y-43986380D01*
X78251047Y-44024476D01*
X78212952Y-44100666D01*
X78174857Y-44253047D01*
X78136761Y-44329238D01*
X78098666Y-44367333D01*
X78022476Y-44405428D01*
X77946285Y-44405428D01*
X77870095Y-44367333D01*
X77832000Y-44329238D01*
X77793904Y-44253047D01*
X77793904Y-44062571D01*
X77832000Y-43948285D01*
X78593904Y-43605428D02*
X77793904Y-43605428D01*
X77793904Y-43414952D01*
X77832000Y-43300666D01*
X77908190Y-43224476D01*
X77984380Y-43186380D01*
X78136761Y-43148285D01*
X78251047Y-43148285D01*
X78403428Y-43186380D01*
X78479619Y-43224476D01*
X78555809Y-43300666D01*
X78593904Y-43414952D01*
X78593904Y-43605428D01*
X78365333Y-42843523D02*
X78365333Y-42462571D01*
X78593904Y-42919714D02*
X77793904Y-42653047D01*
X78593904Y-42386380D01*
X70173904Y-43586380D02*
X70173904Y-43967333D01*
X70554857Y-44005428D01*
X70516761Y-43967333D01*
X70478666Y-43891142D01*
X70478666Y-43700666D01*
X70516761Y-43624476D01*
X70554857Y-43586380D01*
X70631047Y-43548285D01*
X70821523Y-43548285D01*
X70897714Y-43586380D01*
X70935809Y-43624476D01*
X70973904Y-43700666D01*
X70973904Y-43891142D01*
X70935809Y-43967333D01*
X70897714Y-44005428D01*
X70173904Y-43319714D02*
X70973904Y-43053047D01*
X70173904Y-42786380D01*
X72752000Y-43948285D02*
X72713904Y-44024476D01*
X72713904Y-44138761D01*
X72752000Y-44253047D01*
X72828190Y-44329238D01*
X72904380Y-44367333D01*
X73056761Y-44405428D01*
X73171047Y-44405428D01*
X73323428Y-44367333D01*
X73399619Y-44329238D01*
X73475809Y-44253047D01*
X73513904Y-44138761D01*
X73513904Y-44062571D01*
X73475809Y-43948285D01*
X73437714Y-43910190D01*
X73171047Y-43910190D01*
X73171047Y-44062571D01*
X72980571Y-43567333D02*
X73513904Y-43567333D01*
X73056761Y-43567333D02*
X73018666Y-43529238D01*
X72980571Y-43453047D01*
X72980571Y-43338761D01*
X73018666Y-43262571D01*
X73094857Y-43224476D01*
X73513904Y-43224476D01*
X73513904Y-42500666D02*
X72713904Y-42500666D01*
X73475809Y-42500666D02*
X73513904Y-42576857D01*
X73513904Y-42729238D01*
X73475809Y-42805428D01*
X73437714Y-42843523D01*
X73361523Y-42881619D01*
X73132952Y-42881619D01*
X73056761Y-42843523D01*
X73018666Y-42805428D01*
X72980571Y-42729238D01*
X72980571Y-42576857D01*
X73018666Y-42500666D01*
%TO.C,iron 1*%
X91400571Y-64516380D02*
X91400571Y-63849714D01*
X91400571Y-63516380D02*
X91352952Y-63564000D01*
X91400571Y-63611619D01*
X91448190Y-63564000D01*
X91400571Y-63516380D01*
X91400571Y-63611619D01*
X91876761Y-64516380D02*
X91876761Y-63849714D01*
X91876761Y-64040190D02*
X91924380Y-63944952D01*
X91972000Y-63897333D01*
X92067238Y-63849714D01*
X92162476Y-63849714D01*
X92638666Y-64516380D02*
X92543428Y-64468761D01*
X92495809Y-64421142D01*
X92448190Y-64325904D01*
X92448190Y-64040190D01*
X92495809Y-63944952D01*
X92543428Y-63897333D01*
X92638666Y-63849714D01*
X92781523Y-63849714D01*
X92876761Y-63897333D01*
X92924380Y-63944952D01*
X92972000Y-64040190D01*
X92972000Y-64325904D01*
X92924380Y-64421142D01*
X92876761Y-64468761D01*
X92781523Y-64516380D01*
X92638666Y-64516380D01*
X93400571Y-63849714D02*
X93400571Y-64516380D01*
X93400571Y-63944952D02*
X93448190Y-63897333D01*
X93543428Y-63849714D01*
X93686285Y-63849714D01*
X93781523Y-63897333D01*
X93829142Y-63992571D01*
X93829142Y-64516380D01*
X95591047Y-64516380D02*
X95019619Y-64516380D01*
X95305333Y-64516380D02*
X95305333Y-63516380D01*
X95210095Y-63659238D01*
X95114857Y-63754476D01*
X95019619Y-63802095D01*
X89607714Y-66416380D02*
X89036285Y-66416380D01*
X89322000Y-66416380D02*
X89322000Y-65416380D01*
X89226761Y-65559238D01*
X89131523Y-65654476D01*
X89036285Y-65702095D01*
%TO.C,power*%
X91289428Y-45599714D02*
X91289428Y-46599714D01*
X91289428Y-45647333D02*
X91384666Y-45599714D01*
X91575142Y-45599714D01*
X91670380Y-45647333D01*
X91718000Y-45694952D01*
X91765619Y-45790190D01*
X91765619Y-46075904D01*
X91718000Y-46171142D01*
X91670380Y-46218761D01*
X91575142Y-46266380D01*
X91384666Y-46266380D01*
X91289428Y-46218761D01*
X92337047Y-46266380D02*
X92241809Y-46218761D01*
X92194190Y-46171142D01*
X92146571Y-46075904D01*
X92146571Y-45790190D01*
X92194190Y-45694952D01*
X92241809Y-45647333D01*
X92337047Y-45599714D01*
X92479904Y-45599714D01*
X92575142Y-45647333D01*
X92622761Y-45694952D01*
X92670380Y-45790190D01*
X92670380Y-46075904D01*
X92622761Y-46171142D01*
X92575142Y-46218761D01*
X92479904Y-46266380D01*
X92337047Y-46266380D01*
X93003714Y-45599714D02*
X93194190Y-46266380D01*
X93384666Y-45790190D01*
X93575142Y-46266380D01*
X93765619Y-45599714D01*
X94527523Y-46218761D02*
X94432285Y-46266380D01*
X94241809Y-46266380D01*
X94146571Y-46218761D01*
X94098952Y-46123523D01*
X94098952Y-45742571D01*
X94146571Y-45647333D01*
X94241809Y-45599714D01*
X94432285Y-45599714D01*
X94527523Y-45647333D01*
X94575142Y-45742571D01*
X94575142Y-45837809D01*
X94098952Y-45933047D01*
X95003714Y-46266380D02*
X95003714Y-45599714D01*
X95003714Y-45790190D02*
X95051333Y-45694952D01*
X95098952Y-45647333D01*
X95194190Y-45599714D01*
X95289428Y-45599714D01*
%TO.C,iron 2*%
X107402571Y-64516380D02*
X107402571Y-63849714D01*
X107402571Y-63516380D02*
X107354952Y-63564000D01*
X107402571Y-63611619D01*
X107450190Y-63564000D01*
X107402571Y-63516380D01*
X107402571Y-63611619D01*
X107878761Y-64516380D02*
X107878761Y-63849714D01*
X107878761Y-64040190D02*
X107926380Y-63944952D01*
X107974000Y-63897333D01*
X108069238Y-63849714D01*
X108164476Y-63849714D01*
X108640666Y-64516380D02*
X108545428Y-64468761D01*
X108497809Y-64421142D01*
X108450190Y-64325904D01*
X108450190Y-64040190D01*
X108497809Y-63944952D01*
X108545428Y-63897333D01*
X108640666Y-63849714D01*
X108783523Y-63849714D01*
X108878761Y-63897333D01*
X108926380Y-63944952D01*
X108974000Y-64040190D01*
X108974000Y-64325904D01*
X108926380Y-64421142D01*
X108878761Y-64468761D01*
X108783523Y-64516380D01*
X108640666Y-64516380D01*
X109402571Y-63849714D02*
X109402571Y-64516380D01*
X109402571Y-63944952D02*
X109450190Y-63897333D01*
X109545428Y-63849714D01*
X109688285Y-63849714D01*
X109783523Y-63897333D01*
X109831142Y-63992571D01*
X109831142Y-64516380D01*
X111021619Y-63611619D02*
X111069238Y-63564000D01*
X111164476Y-63516380D01*
X111402571Y-63516380D01*
X111497809Y-63564000D01*
X111545428Y-63611619D01*
X111593047Y-63706857D01*
X111593047Y-63802095D01*
X111545428Y-63944952D01*
X110974000Y-64516380D01*
X111593047Y-64516380D01*
X95281714Y-68016380D02*
X94710285Y-68016380D01*
X94996000Y-68016380D02*
X94996000Y-67016380D01*
X94900761Y-67159238D01*
X94805523Y-67254476D01*
X94710285Y-67302095D01*
%TD*%
M02*
