%TF.GenerationSoftware,KiCad,Pcbnew,(5.1.6)-1*%
%TF.CreationDate,2020-11-07T21:03:07+00:00*%
%TF.ProjectId,ninja_iron,6e696e6a-615f-4697-926f-6e2e6b696361,rev?*%
%TF.SameCoordinates,Original*%
%TF.FileFunction,Legend,Bot*%
%TF.FilePolarity,Positive*%
%FSLAX46Y46*%
G04 Gerber Fmt 4.6, Leading zero omitted, Abs format (unit mm)*
G04 Created by KiCad (PCBNEW (5.1.6)-1) date 2020-11-07 21:03:07*
%MOMM*%
%LPD*%
G01*
G04 APERTURE LIST*
%ADD10C,0.120000*%
%ADD11C,0.150000*%
G04 APERTURE END LIST*
D10*
%TO.C,R22*%
X100083252Y-47954000D02*
X99560748Y-47954000D01*
X100083252Y-46534000D02*
X99560748Y-46534000D01*
%TO.C,C15*%
X99112000Y-68064748D02*
X99112000Y-68587252D01*
X100532000Y-68064748D02*
X100532000Y-68587252D01*
%TO.C,C16*%
X103176000Y-68064748D02*
X103176000Y-68587252D01*
X104596000Y-68064748D02*
X104596000Y-68587252D01*
%TO.C,J5*%
X92770000Y-56132000D02*
X92770000Y-59242000D01*
X90110000Y-58672000D02*
X90110000Y-59242000D01*
X92770000Y-54042000D02*
X92770000Y-54612000D01*
X92770000Y-54612000D02*
X94290000Y-54612000D01*
X90110000Y-54042000D02*
X90110000Y-57152000D01*
X92770000Y-59242000D02*
X90110000Y-59242000D01*
X92770000Y-54042000D02*
X90110000Y-54042000D01*
%TO.C,led data*%
X110176000Y-60577000D02*
X110176000Y-57467000D01*
X112836000Y-58037000D02*
X112836000Y-57467000D01*
X110176000Y-62667000D02*
X110176000Y-62097000D01*
X110176000Y-62097000D02*
X108656000Y-62097000D01*
X112836000Y-62667000D02*
X112836000Y-59557000D01*
X110176000Y-57467000D02*
X112836000Y-57467000D01*
X110176000Y-62667000D02*
X112836000Y-62667000D01*
%TO.C,R22*%
D11*
X100464857Y-46046380D02*
X100798190Y-45570190D01*
X101036285Y-46046380D02*
X101036285Y-45046380D01*
X100655333Y-45046380D01*
X100560095Y-45094000D01*
X100512476Y-45141619D01*
X100464857Y-45236857D01*
X100464857Y-45379714D01*
X100512476Y-45474952D01*
X100560095Y-45522571D01*
X100655333Y-45570190D01*
X101036285Y-45570190D01*
X100083904Y-45141619D02*
X100036285Y-45094000D01*
X99941047Y-45046380D01*
X99702952Y-45046380D01*
X99607714Y-45094000D01*
X99560095Y-45141619D01*
X99512476Y-45236857D01*
X99512476Y-45332095D01*
X99560095Y-45474952D01*
X100131523Y-46046380D01*
X99512476Y-46046380D01*
X99131523Y-45141619D02*
X99083904Y-45094000D01*
X98988666Y-45046380D01*
X98750571Y-45046380D01*
X98655333Y-45094000D01*
X98607714Y-45141619D01*
X98560095Y-45236857D01*
X98560095Y-45332095D01*
X98607714Y-45474952D01*
X99179142Y-46046380D01*
X98560095Y-46046380D01*
%TO.C,C15*%
X98529142Y-67683142D02*
X98576761Y-67635523D01*
X98624380Y-67492666D01*
X98624380Y-67397428D01*
X98576761Y-67254571D01*
X98481523Y-67159333D01*
X98386285Y-67111714D01*
X98195809Y-67064095D01*
X98052952Y-67064095D01*
X97862476Y-67111714D01*
X97767238Y-67159333D01*
X97672000Y-67254571D01*
X97624380Y-67397428D01*
X97624380Y-67492666D01*
X97672000Y-67635523D01*
X97719619Y-67683142D01*
X98624380Y-68635523D02*
X98624380Y-68064095D01*
X98624380Y-68349809D02*
X97624380Y-68349809D01*
X97767238Y-68254571D01*
X97862476Y-68159333D01*
X97910095Y-68064095D01*
X97624380Y-69540285D02*
X97624380Y-69064095D01*
X98100571Y-69016476D01*
X98052952Y-69064095D01*
X98005333Y-69159333D01*
X98005333Y-69397428D01*
X98052952Y-69492666D01*
X98100571Y-69540285D01*
X98195809Y-69587904D01*
X98433904Y-69587904D01*
X98529142Y-69540285D01*
X98576761Y-69492666D01*
X98624380Y-69397428D01*
X98624380Y-69159333D01*
X98576761Y-69064095D01*
X98529142Y-69016476D01*
%TO.C,C16*%
X102593142Y-67683142D02*
X102640761Y-67635523D01*
X102688380Y-67492666D01*
X102688380Y-67397428D01*
X102640761Y-67254571D01*
X102545523Y-67159333D01*
X102450285Y-67111714D01*
X102259809Y-67064095D01*
X102116952Y-67064095D01*
X101926476Y-67111714D01*
X101831238Y-67159333D01*
X101736000Y-67254571D01*
X101688380Y-67397428D01*
X101688380Y-67492666D01*
X101736000Y-67635523D01*
X101783619Y-67683142D01*
X102688380Y-68635523D02*
X102688380Y-68064095D01*
X102688380Y-68349809D02*
X101688380Y-68349809D01*
X101831238Y-68254571D01*
X101926476Y-68159333D01*
X101974095Y-68064095D01*
X101688380Y-69492666D02*
X101688380Y-69302190D01*
X101736000Y-69206952D01*
X101783619Y-69159333D01*
X101926476Y-69064095D01*
X102116952Y-69016476D01*
X102497904Y-69016476D01*
X102593142Y-69064095D01*
X102640761Y-69111714D01*
X102688380Y-69206952D01*
X102688380Y-69397428D01*
X102640761Y-69492666D01*
X102593142Y-69540285D01*
X102497904Y-69587904D01*
X102259809Y-69587904D01*
X102164571Y-69540285D01*
X102116952Y-69492666D01*
X102069333Y-69397428D01*
X102069333Y-69206952D01*
X102116952Y-69111714D01*
X102164571Y-69064095D01*
X102259809Y-69016476D01*
%TO.C,J5*%
X91773333Y-52494380D02*
X91773333Y-53208666D01*
X91820952Y-53351523D01*
X91916190Y-53446761D01*
X92059047Y-53494380D01*
X92154285Y-53494380D01*
X90820952Y-52494380D02*
X91297142Y-52494380D01*
X91344761Y-52970571D01*
X91297142Y-52922952D01*
X91201904Y-52875333D01*
X90963809Y-52875333D01*
X90868571Y-52922952D01*
X90820952Y-52970571D01*
X90773333Y-53065809D01*
X90773333Y-53303904D01*
X90820952Y-53399142D01*
X90868571Y-53446761D01*
X90963809Y-53494380D01*
X91201904Y-53494380D01*
X91297142Y-53446761D01*
X91344761Y-53399142D01*
%TO.C,led data*%
X114291714Y-64119380D02*
X114386952Y-64071761D01*
X114434571Y-63976523D01*
X114434571Y-63119380D01*
X113529809Y-64071761D02*
X113625047Y-64119380D01*
X113815523Y-64119380D01*
X113910761Y-64071761D01*
X113958380Y-63976523D01*
X113958380Y-63595571D01*
X113910761Y-63500333D01*
X113815523Y-63452714D01*
X113625047Y-63452714D01*
X113529809Y-63500333D01*
X113482190Y-63595571D01*
X113482190Y-63690809D01*
X113958380Y-63786047D01*
X112625047Y-64119380D02*
X112625047Y-63119380D01*
X112625047Y-64071761D02*
X112720285Y-64119380D01*
X112910761Y-64119380D01*
X113006000Y-64071761D01*
X113053619Y-64024142D01*
X113101238Y-63928904D01*
X113101238Y-63643190D01*
X113053619Y-63547952D01*
X113006000Y-63500333D01*
X112910761Y-63452714D01*
X112720285Y-63452714D01*
X112625047Y-63500333D01*
X110958380Y-64119380D02*
X110958380Y-63119380D01*
X110958380Y-64071761D02*
X111053619Y-64119380D01*
X111244095Y-64119380D01*
X111339333Y-64071761D01*
X111386952Y-64024142D01*
X111434571Y-63928904D01*
X111434571Y-63643190D01*
X111386952Y-63547952D01*
X111339333Y-63500333D01*
X111244095Y-63452714D01*
X111053619Y-63452714D01*
X110958380Y-63500333D01*
X110053619Y-64119380D02*
X110053619Y-63595571D01*
X110101238Y-63500333D01*
X110196476Y-63452714D01*
X110386952Y-63452714D01*
X110482190Y-63500333D01*
X110053619Y-64071761D02*
X110148857Y-64119380D01*
X110386952Y-64119380D01*
X110482190Y-64071761D01*
X110529809Y-63976523D01*
X110529809Y-63881285D01*
X110482190Y-63786047D01*
X110386952Y-63738428D01*
X110148857Y-63738428D01*
X110053619Y-63690809D01*
X109720285Y-63452714D02*
X109339333Y-63452714D01*
X109577428Y-63119380D02*
X109577428Y-63976523D01*
X109529809Y-64071761D01*
X109434571Y-64119380D01*
X109339333Y-64119380D01*
X108577428Y-64119380D02*
X108577428Y-63595571D01*
X108625047Y-63500333D01*
X108720285Y-63452714D01*
X108910761Y-63452714D01*
X109006000Y-63500333D01*
X108577428Y-64071761D02*
X108672666Y-64119380D01*
X108910761Y-64119380D01*
X109006000Y-64071761D01*
X109053619Y-63976523D01*
X109053619Y-63881285D01*
X109006000Y-63786047D01*
X108910761Y-63738428D01*
X108672666Y-63738428D01*
X108577428Y-63690809D01*
%TD*%
M02*
