%TF.GenerationSoftware,KiCad,Pcbnew,(5.1.6)-1*%
%TF.CreationDate,2021-01-23T13:54:21+00:00*%
%TF.ProjectId,ninja_iron,6e696e6a-615f-4697-926f-6e2e6b696361,rev?*%
%TF.SameCoordinates,Original*%
%TF.FileFunction,Legend,Top*%
%TF.FilePolarity,Positive*%
%FSLAX46Y46*%
G04 Gerber Fmt 4.6, Leading zero omitted, Abs format (unit mm)*
G04 Created by KiCad (PCBNEW (5.1.6)-1) date 2021-01-23 13:54:21*
%MOMM*%
%LPD*%
G01*
G04 APERTURE LIST*
%ADD10C,0.300000*%
%ADD11C,0.200000*%
%ADD12C,0.120000*%
%ADD13C,0.150000*%
G04 APERTURE END LIST*
D10*
X97238857Y-66694857D02*
X97738857Y-66694857D01*
X97953142Y-67480571D02*
X97238857Y-67480571D01*
X97238857Y-65980571D01*
X97953142Y-65980571D01*
X98596000Y-66480571D02*
X98596000Y-67480571D01*
X98596000Y-66623428D02*
X98667428Y-66552000D01*
X98810285Y-66480571D01*
X99024571Y-66480571D01*
X99167428Y-66552000D01*
X99238857Y-66694857D01*
X99238857Y-67480571D01*
X100596000Y-67409142D02*
X100453142Y-67480571D01*
X100167428Y-67480571D01*
X100024571Y-67409142D01*
X99953142Y-67337714D01*
X99881714Y-67194857D01*
X99881714Y-66766285D01*
X99953142Y-66623428D01*
X100024571Y-66552000D01*
X100167428Y-66480571D01*
X100453142Y-66480571D01*
X100596000Y-66552000D01*
X101453142Y-67480571D02*
X101310285Y-67409142D01*
X101238857Y-67337714D01*
X101167428Y-67194857D01*
X101167428Y-66766285D01*
X101238857Y-66623428D01*
X101310285Y-66552000D01*
X101453142Y-66480571D01*
X101667428Y-66480571D01*
X101810285Y-66552000D01*
X101881714Y-66623428D01*
X101953142Y-66766285D01*
X101953142Y-67194857D01*
X101881714Y-67337714D01*
X101810285Y-67409142D01*
X101667428Y-67480571D01*
X101453142Y-67480571D01*
X103238857Y-67480571D02*
X103238857Y-65980571D01*
X103238857Y-67409142D02*
X103096000Y-67480571D01*
X102810285Y-67480571D01*
X102667428Y-67409142D01*
X102596000Y-67337714D01*
X102524571Y-67194857D01*
X102524571Y-66766285D01*
X102596000Y-66623428D01*
X102667428Y-66552000D01*
X102810285Y-66480571D01*
X103096000Y-66480571D01*
X103238857Y-66552000D01*
X104524571Y-67409142D02*
X104381714Y-67480571D01*
X104096000Y-67480571D01*
X103953142Y-67409142D01*
X103881714Y-67266285D01*
X103881714Y-66694857D01*
X103953142Y-66552000D01*
X104096000Y-66480571D01*
X104381714Y-66480571D01*
X104524571Y-66552000D01*
X104596000Y-66694857D01*
X104596000Y-66837714D01*
X103881714Y-66980571D01*
X105238857Y-67480571D02*
X105238857Y-66480571D01*
X105238857Y-66766285D02*
X105310285Y-66623428D01*
X105381714Y-66552000D01*
X105524571Y-66480571D01*
X105667428Y-66480571D01*
D11*
X109250000Y-57882000D02*
G75*
G03*
X109250000Y-57882000I-7650000J0D01*
G01*
D12*
%TO.C,R36*%
X174550000Y-36314748D02*
X174550000Y-36837252D01*
X175970000Y-36314748D02*
X175970000Y-36837252D01*
%TO.C,U10*%
X241438000Y-32426000D02*
X238988000Y-32426000D01*
X239638000Y-35646000D02*
X241438000Y-35646000D01*
%TO.C,J3*%
X176978000Y-81848000D02*
X179638000Y-81848000D01*
X176978000Y-81788000D02*
X176978000Y-81848000D01*
X179638000Y-81788000D02*
X179638000Y-81848000D01*
X176978000Y-81788000D02*
X179638000Y-81788000D01*
X176978000Y-80518000D02*
X176978000Y-79188000D01*
X176978000Y-79188000D02*
X178308000Y-79188000D01*
%TO.C,R10*%
X194556748Y-68782000D02*
X195079252Y-68782000D01*
X194556748Y-67362000D02*
X195079252Y-67362000D01*
D13*
%TO.C,iron*%
X248158000Y-47356000D02*
X264414000Y-47356000D01*
X264414000Y-47356000D02*
X264414000Y-61356000D01*
X264414000Y-61356000D02*
X248158000Y-61356000D01*
X248158000Y-61356000D02*
X248158000Y-47356000D01*
D12*
%TO.C,R8*%
X216654748Y-82244000D02*
X217177252Y-82244000D01*
X216654748Y-80824000D02*
X217177252Y-80824000D01*
%TO.C,R5*%
X231088000Y-71112748D02*
X231088000Y-71635252D01*
X229668000Y-71112748D02*
X229668000Y-71635252D01*
%TO.C,J4*%
X253154000Y-83602000D02*
X253154000Y-84652000D01*
X254204000Y-84652000D02*
X253154000Y-84652000D01*
X259254000Y-75252000D02*
X268054000Y-75252000D01*
X268054000Y-75252000D02*
X268054000Y-84452000D01*
X253354000Y-77952000D02*
X253354000Y-75252000D01*
X253354000Y-75252000D02*
X255254000Y-75252000D01*
X268054000Y-84452000D02*
X253354000Y-84452000D01*
X253354000Y-84452000D02*
X253354000Y-81852000D01*
%TO.C,JP2*%
X178862000Y-47770000D02*
X178262000Y-47770000D01*
X179562000Y-44320000D02*
X179562000Y-47120000D01*
X178262000Y-43670000D02*
X178862000Y-43670000D01*
X177562000Y-47120000D02*
X177562000Y-44320000D01*
X178262000Y-47770000D02*
G75*
G02*
X177562000Y-47070000I0J700000D01*
G01*
X179562000Y-47070000D02*
G75*
G02*
X178862000Y-47770000I-700000J0D01*
G01*
X178862000Y-43670000D02*
G75*
G02*
X179562000Y-44370000I0J-700000D01*
G01*
X177562000Y-44370000D02*
G75*
G02*
X178262000Y-43670000I700000J0D01*
G01*
%TO.C,R3*%
X216654748Y-61162000D02*
X217177252Y-61162000D01*
X216654748Y-59742000D02*
X217177252Y-59742000D01*
%TO.C,JP1*%
X178862000Y-42690000D02*
X178262000Y-42690000D01*
X179562000Y-39240000D02*
X179562000Y-42040000D01*
X178262000Y-38590000D02*
X178862000Y-38590000D01*
X177562000Y-42040000D02*
X177562000Y-39240000D01*
X178262000Y-42690000D02*
G75*
G02*
X177562000Y-41990000I0J700000D01*
G01*
X179562000Y-41990000D02*
G75*
G02*
X178862000Y-42690000I-700000J0D01*
G01*
X178862000Y-38590000D02*
G75*
G02*
X179562000Y-39290000I0J-700000D01*
G01*
X177562000Y-39290000D02*
G75*
G02*
X178262000Y-38590000I700000J0D01*
G01*
%TO.C,R11*%
X194556748Y-65076000D02*
X195079252Y-65076000D01*
X194556748Y-66496000D02*
X195079252Y-66496000D01*
%TO.C,L1*%
X209802000Y-43664000D02*
X209802000Y-45364000D01*
X209802000Y-45364000D02*
X203202000Y-45364000D01*
X203202000Y-45364000D02*
X203202000Y-43664000D01*
X203202000Y-40664000D02*
X203202000Y-38964000D01*
X203202000Y-38964000D02*
X209802000Y-38964000D01*
X209802000Y-38964000D02*
X209802000Y-40664000D01*
%TO.C,R19*%
X225305252Y-83364000D02*
X224782748Y-83364000D01*
X225305252Y-84784000D02*
X224782748Y-84784000D01*
%TO.C,R14*%
X212142000Y-38869252D02*
X212142000Y-38346748D01*
X213562000Y-38869252D02*
X213562000Y-38346748D01*
%TO.C,R15*%
X209811252Y-32818000D02*
X209288748Y-32818000D01*
X209811252Y-34238000D02*
X209288748Y-34238000D01*
%TO.C,R25*%
X180900000Y-54602748D02*
X180900000Y-55125252D01*
X182320000Y-54602748D02*
X182320000Y-55125252D01*
%TO.C,R21*%
X225305252Y-82498000D02*
X224782748Y-82498000D01*
X225305252Y-81078000D02*
X224782748Y-81078000D01*
%TO.C,R23*%
X171756000Y-54602748D02*
X171756000Y-55125252D01*
X173176000Y-54602748D02*
X173176000Y-55125252D01*
%TO.C,R28*%
X221988748Y-45010000D02*
X222511252Y-45010000D01*
X221988748Y-46430000D02*
X222511252Y-46430000D01*
%TO.C,R30*%
X180855252Y-58876000D02*
X180332748Y-58876000D01*
X180855252Y-57456000D02*
X180332748Y-57456000D01*
%TO.C,R35*%
X170994000Y-36314748D02*
X170994000Y-36837252D01*
X172414000Y-36314748D02*
X172414000Y-36837252D01*
%TO.C,R20*%
X217177252Y-70052000D02*
X216654748Y-70052000D01*
X217177252Y-68632000D02*
X216654748Y-68632000D01*
%TO.C,R27*%
X182887252Y-70410000D02*
X182364748Y-70410000D01*
X182887252Y-71830000D02*
X182364748Y-71830000D01*
%TO.C,R29*%
X227068748Y-46684000D02*
X227591252Y-46684000D01*
X227068748Y-45264000D02*
X227591252Y-45264000D01*
%TO.C,R31*%
X176283252Y-57456000D02*
X175760748Y-57456000D01*
X176283252Y-58876000D02*
X175760748Y-58876000D01*
%TO.C,R26*%
X182320000Y-67556748D02*
X182320000Y-68079252D01*
X180900000Y-67556748D02*
X180900000Y-68079252D01*
%TO.C,R16*%
X225305252Y-67512000D02*
X224782748Y-67512000D01*
X225305252Y-66092000D02*
X224782748Y-66092000D01*
%TO.C,R17*%
X217177252Y-51614000D02*
X216654748Y-51614000D01*
X217177252Y-53034000D02*
X216654748Y-53034000D01*
%TO.C,R18*%
X226814748Y-61520000D02*
X227337252Y-61520000D01*
X226814748Y-62940000D02*
X227337252Y-62940000D01*
%TO.C,R24*%
X177494000Y-54602748D02*
X177494000Y-55125252D01*
X176074000Y-54602748D02*
X176074000Y-55125252D01*
%TO.C,C21*%
X217177252Y-46684000D02*
X216654748Y-46684000D01*
X217177252Y-45264000D02*
X216654748Y-45264000D01*
%TO.C,C18*%
X176074000Y-61206748D02*
X176074000Y-61729252D01*
X177494000Y-61206748D02*
X177494000Y-61729252D01*
%TO.C,C7*%
X197918000Y-63761252D02*
X197918000Y-63238748D01*
X199338000Y-63761252D02*
X199338000Y-63238748D01*
%TO.C,C8*%
X221988748Y-42724000D02*
X222511252Y-42724000D01*
X221988748Y-44144000D02*
X222511252Y-44144000D01*
%TO.C,C20*%
X201370000Y-63761252D02*
X201370000Y-63238748D01*
X199950000Y-63761252D02*
X199950000Y-63238748D01*
%TO.C,D2*%
X203356000Y-47118000D02*
X203356000Y-50418000D01*
X203356000Y-50418000D02*
X208756000Y-50418000D01*
X203356000Y-47118000D02*
X208756000Y-47118000D01*
%TO.C,D9*%
X212562000Y-84312000D02*
X212562000Y-82312000D01*
X212562000Y-82312000D02*
X208662000Y-82312000D01*
X212562000Y-84312000D02*
X208662000Y-84312000D01*
%TO.C,C19*%
X182320000Y-61206748D02*
X182320000Y-61729252D01*
X180900000Y-61206748D02*
X180900000Y-61729252D01*
%TO.C,C6*%
X210872000Y-76954748D02*
X210872000Y-77477252D01*
X212292000Y-76954748D02*
X212292000Y-77477252D01*
%TO.C,C3*%
X212038000Y-62222748D02*
X212038000Y-62745252D01*
X210618000Y-62222748D02*
X210618000Y-62745252D01*
%TO.C,C9*%
X221988748Y-41096000D02*
X222511252Y-41096000D01*
X221988748Y-39676000D02*
X222511252Y-39676000D01*
%TO.C,C1*%
X210295748Y-58472000D02*
X210818252Y-58472000D01*
X210295748Y-59892000D02*
X210818252Y-59892000D01*
%TO.C,C4*%
X210304748Y-73204000D02*
X210827252Y-73204000D01*
X210304748Y-74624000D02*
X210827252Y-74624000D01*
%TO.C,C13*%
X194512000Y-35821252D02*
X194512000Y-35298748D01*
X193092000Y-35821252D02*
X193092000Y-35298748D01*
%TO.C,C14*%
X225305252Y-78792000D02*
X224782748Y-78792000D01*
X225305252Y-80212000D02*
X224782748Y-80212000D01*
%TO.C,D6*%
X182610000Y-72730000D02*
X180610000Y-72730000D01*
X180610000Y-72730000D02*
X180610000Y-76580000D01*
X182610000Y-72730000D02*
X182610000Y-76580000D01*
%TO.C,D1*%
X221910000Y-38846000D02*
X221910000Y-36846000D01*
X221910000Y-36846000D02*
X218060000Y-36846000D01*
X221910000Y-38846000D02*
X218060000Y-38846000D01*
%TO.C,R1*%
X228652000Y-56649252D02*
X228652000Y-56126748D01*
X230072000Y-56649252D02*
X230072000Y-56126748D01*
%TO.C,R4*%
X216654748Y-64718000D02*
X217177252Y-64718000D01*
X216654748Y-63298000D02*
X217177252Y-63298000D01*
%TO.C,R13*%
X214428000Y-38346748D02*
X214428000Y-38869252D01*
X215848000Y-38346748D02*
X215848000Y-38869252D01*
%TO.C,R7*%
X216654748Y-76506000D02*
X217177252Y-76506000D01*
X216654748Y-77926000D02*
X217177252Y-77926000D01*
%TO.C,J6*%
X260604000Y-64210000D02*
X260604000Y-62860000D01*
X262140000Y-64210000D02*
X262140000Y-62860000D01*
X262140000Y-64210000D02*
X263440000Y-64210000D01*
X259842000Y-64262000D02*
X260604000Y-64262000D01*
X250698000Y-64262000D02*
X257302000Y-64262000D01*
X247142000Y-70358000D02*
X247142000Y-64262000D01*
X263398000Y-70358000D02*
X260604000Y-70358000D01*
X263440000Y-64710000D02*
X265440000Y-64710000D01*
X265440000Y-64710000D02*
X265440000Y-69910000D01*
X265440000Y-69910000D02*
X263440000Y-69910000D01*
X263398000Y-69850000D02*
X263398000Y-70358000D01*
X263440000Y-64210000D02*
X263440000Y-64710000D01*
X257302000Y-64210000D02*
X257302000Y-62860000D01*
X250698000Y-64262000D02*
X250698000Y-62912000D01*
X247142000Y-64262000D02*
X247904000Y-64262000D01*
X247142000Y-70358000D02*
X255270000Y-70358000D01*
X255270000Y-71708000D02*
X255270000Y-70358000D01*
%TO.C,D11*%
X212308000Y-57388000D02*
X212308000Y-55388000D01*
X212308000Y-55388000D02*
X208408000Y-55388000D01*
X212308000Y-57388000D02*
X208408000Y-57388000D01*
%TO.C,R2*%
X216654748Y-67258000D02*
X217177252Y-67258000D01*
X216654748Y-65838000D02*
X217177252Y-65838000D01*
%TO.C,R6*%
X216654748Y-83110000D02*
X217177252Y-83110000D01*
X216654748Y-84530000D02*
X217177252Y-84530000D01*
%TO.C,R9*%
X194556748Y-73458000D02*
X195079252Y-73458000D01*
X194556748Y-74878000D02*
X195079252Y-74878000D01*
%TO.C,R12*%
X194556748Y-77164000D02*
X195079252Y-77164000D01*
X194556748Y-75744000D02*
X195079252Y-75744000D01*
%TO.C,U2*%
X262188000Y-36846000D02*
X262188000Y-31786000D01*
X262188000Y-31786000D02*
X231588000Y-31786000D01*
X231588000Y-31786000D02*
X231588000Y-43906000D01*
X231588000Y-43906000D02*
X262188000Y-43906000D01*
X262188000Y-43906000D02*
X262188000Y-38846000D01*
X262188000Y-38846000D02*
G75*
G02*
X262188000Y-36846000I0J1000000D01*
G01*
%TO.C,R33*%
X218184252Y-33834000D02*
X217661748Y-33834000D01*
X218184252Y-35254000D02*
X217661748Y-35254000D01*
%TO.C,C17*%
X171756000Y-61206748D02*
X171756000Y-61729252D01*
X173176000Y-61206748D02*
X173176000Y-61729252D01*
%TO.C,U4*%
X216576000Y-41010000D02*
X216576000Y-42810000D01*
X219796000Y-42810000D02*
X219796000Y-39860000D01*
D13*
%TO.C,TP1*%
X183360000Y-32004000D02*
G75*
G03*
X183360000Y-32004000I-1750000J0D01*
G01*
D12*
%TO.C,U8*%
X227644000Y-54880000D02*
X227644000Y-53430000D01*
X227644000Y-53430000D02*
X222444000Y-53430000D01*
X222444000Y-53430000D02*
X222444000Y-58330000D01*
X222444000Y-58330000D02*
X227644000Y-58330000D01*
X227644000Y-58330000D02*
X227644000Y-56880000D01*
X227644000Y-56880000D02*
G75*
G02*
X227644000Y-54880000I0J1000000D01*
G01*
D13*
%TO.C,TP2*%
X177264000Y-32258000D02*
G75*
G03*
X177264000Y-32258000I-1750000J0D01*
G01*
%TO.C,TP3*%
X183360000Y-37592000D02*
G75*
G03*
X183360000Y-37592000I-1750000J0D01*
G01*
%TO.C,U5*%
X193513000Y-43985000D02*
X193563000Y-43985000D01*
X193513000Y-39835000D02*
X193658000Y-39835000D01*
X198663000Y-39835000D02*
X198518000Y-39835000D01*
X198663000Y-43985000D02*
X198518000Y-43985000D01*
X193513000Y-43985000D02*
X193513000Y-39835000D01*
X198663000Y-43985000D02*
X198663000Y-39835000D01*
X193563000Y-43985000D02*
X193563000Y-45385000D01*
D12*
%TO.C,U9*%
X227644000Y-75602000D02*
X227644000Y-74152000D01*
X222444000Y-75602000D02*
X227644000Y-75602000D01*
X222444000Y-70702000D02*
X222444000Y-75602000D01*
X227644000Y-70702000D02*
X222444000Y-70702000D01*
X227644000Y-72152000D02*
X227644000Y-70702000D01*
X227644000Y-74152000D02*
G75*
G02*
X227644000Y-72152000I0J1000000D01*
G01*
%TO.C,D8*%
X212308000Y-72374000D02*
X208408000Y-72374000D01*
X212308000Y-70374000D02*
X208408000Y-70374000D01*
X212308000Y-72374000D02*
X212308000Y-70374000D01*
%TO.C,D10*%
X212308000Y-69580000D02*
X208408000Y-69580000D01*
X212308000Y-67580000D02*
X208408000Y-67580000D01*
X212308000Y-69580000D02*
X212308000Y-67580000D01*
%TO.C,U3*%
X203903000Y-71120000D02*
X203903000Y-68920000D01*
X203903000Y-71120000D02*
X203903000Y-73320000D01*
X198433000Y-71120000D02*
X198433000Y-68920000D01*
X198433000Y-71120000D02*
X198433000Y-74720000D01*
%TO.C,R32*%
X171188748Y-57456000D02*
X171711252Y-57456000D01*
X171188748Y-58876000D02*
X171711252Y-58876000D01*
%TO.C,R34*%
X213875252Y-35254000D02*
X213352748Y-35254000D01*
X213875252Y-33834000D02*
X213352748Y-33834000D01*
%TO.C,D7*%
X224876000Y-42688000D02*
X228726000Y-42688000D01*
X224876000Y-44688000D02*
X228726000Y-44688000D01*
X224876000Y-42688000D02*
X224876000Y-44688000D01*
%TO.C,C10*%
X209288748Y-37032000D02*
X209811252Y-37032000D01*
X209288748Y-35612000D02*
X209811252Y-35612000D01*
%TO.C,C12*%
X196290000Y-47998748D02*
X196290000Y-48521252D01*
X194870000Y-47998748D02*
X194870000Y-48521252D01*
D13*
%TO.C,TP4*%
X183360000Y-43434000D02*
G75*
G03*
X183360000Y-43434000I-1750000J0D01*
G01*
D12*
%TO.C,C2*%
X210827252Y-65330000D02*
X210304748Y-65330000D01*
X210827252Y-66750000D02*
X210304748Y-66750000D01*
%TO.C,C11*%
X223273252Y-62940000D02*
X222750748Y-62940000D01*
X223273252Y-61520000D02*
X222750748Y-61520000D01*
%TO.C,C5*%
X211081252Y-79808000D02*
X210558748Y-79808000D01*
X211081252Y-81228000D02*
X210558748Y-81228000D01*
%TO.C,R36*%
D13*
X177362380Y-37218857D02*
X176886190Y-37552190D01*
X177362380Y-37790285D02*
X176362380Y-37790285D01*
X176362380Y-37409333D01*
X176410000Y-37314095D01*
X176457619Y-37266476D01*
X176552857Y-37218857D01*
X176695714Y-37218857D01*
X176790952Y-37266476D01*
X176838571Y-37314095D01*
X176886190Y-37409333D01*
X176886190Y-37790285D01*
X176362380Y-36885523D02*
X176362380Y-36266476D01*
X176743333Y-36599809D01*
X176743333Y-36456952D01*
X176790952Y-36361714D01*
X176838571Y-36314095D01*
X176933809Y-36266476D01*
X177171904Y-36266476D01*
X177267142Y-36314095D01*
X177314761Y-36361714D01*
X177362380Y-36456952D01*
X177362380Y-36742666D01*
X177314761Y-36837904D01*
X177267142Y-36885523D01*
X176362380Y-35409333D02*
X176362380Y-35599809D01*
X176410000Y-35695047D01*
X176457619Y-35742666D01*
X176600476Y-35837904D01*
X176790952Y-35885523D01*
X177171904Y-35885523D01*
X177267142Y-35837904D01*
X177314761Y-35790285D01*
X177362380Y-35695047D01*
X177362380Y-35504571D01*
X177314761Y-35409333D01*
X177267142Y-35361714D01*
X177171904Y-35314095D01*
X176933809Y-35314095D01*
X176838571Y-35361714D01*
X176790952Y-35409333D01*
X176743333Y-35504571D01*
X176743333Y-35695047D01*
X176790952Y-35790285D01*
X176838571Y-35837904D01*
X176933809Y-35885523D01*
%TO.C,U10*%
X239299904Y-30588380D02*
X239299904Y-31397904D01*
X239347523Y-31493142D01*
X239395142Y-31540761D01*
X239490380Y-31588380D01*
X239680857Y-31588380D01*
X239776095Y-31540761D01*
X239823714Y-31493142D01*
X239871333Y-31397904D01*
X239871333Y-30588380D01*
X240871333Y-31588380D02*
X240299904Y-31588380D01*
X240585619Y-31588380D02*
X240585619Y-30588380D01*
X240490380Y-30731238D01*
X240395142Y-30826476D01*
X240299904Y-30874095D01*
X241490380Y-30588380D02*
X241585619Y-30588380D01*
X241680857Y-30636000D01*
X241728476Y-30683619D01*
X241776095Y-30778857D01*
X241823714Y-30969333D01*
X241823714Y-31207428D01*
X241776095Y-31397904D01*
X241728476Y-31493142D01*
X241680857Y-31540761D01*
X241585619Y-31588380D01*
X241490380Y-31588380D01*
X241395142Y-31540761D01*
X241347523Y-31493142D01*
X241299904Y-31397904D01*
X241252285Y-31207428D01*
X241252285Y-30969333D01*
X241299904Y-30778857D01*
X241347523Y-30683619D01*
X241395142Y-30636000D01*
X241490380Y-30588380D01*
%TO.C,J3*%
X178228666Y-82764380D02*
X178228666Y-83478666D01*
X178181047Y-83621523D01*
X178085809Y-83716761D01*
X177942952Y-83764380D01*
X177847714Y-83764380D01*
X178609619Y-82764380D02*
X179228666Y-82764380D01*
X178895333Y-83145333D01*
X179038190Y-83145333D01*
X179133428Y-83192952D01*
X179181047Y-83240571D01*
X179228666Y-83335809D01*
X179228666Y-83573904D01*
X179181047Y-83669142D01*
X179133428Y-83716761D01*
X179038190Y-83764380D01*
X178752476Y-83764380D01*
X178657238Y-83716761D01*
X178609619Y-83669142D01*
%TO.C,R10*%
X190619142Y-68524380D02*
X190285809Y-68048190D01*
X190047714Y-68524380D02*
X190047714Y-67524380D01*
X190428666Y-67524380D01*
X190523904Y-67572000D01*
X190571523Y-67619619D01*
X190619142Y-67714857D01*
X190619142Y-67857714D01*
X190571523Y-67952952D01*
X190523904Y-68000571D01*
X190428666Y-68048190D01*
X190047714Y-68048190D01*
X191571523Y-68524380D02*
X191000095Y-68524380D01*
X191285809Y-68524380D02*
X191285809Y-67524380D01*
X191190571Y-67667238D01*
X191095333Y-67762476D01*
X191000095Y-67810095D01*
X192190571Y-67524380D02*
X192285809Y-67524380D01*
X192381047Y-67572000D01*
X192428666Y-67619619D01*
X192476285Y-67714857D01*
X192523904Y-67905333D01*
X192523904Y-68143428D01*
X192476285Y-68333904D01*
X192428666Y-68429142D01*
X192381047Y-68476761D01*
X192285809Y-68524380D01*
X192190571Y-68524380D01*
X192095333Y-68476761D01*
X192047714Y-68429142D01*
X192000095Y-68333904D01*
X191952476Y-68143428D01*
X191952476Y-67905333D01*
X192000095Y-67714857D01*
X192047714Y-67619619D01*
X192095333Y-67572000D01*
X192190571Y-67524380D01*
%TO.C,iron*%
X247594380Y-55570285D02*
X246927714Y-55570285D01*
X246594380Y-55570285D02*
X246642000Y-55617904D01*
X246689619Y-55570285D01*
X246642000Y-55522666D01*
X246594380Y-55570285D01*
X246689619Y-55570285D01*
X247594380Y-55094095D02*
X246927714Y-55094095D01*
X247118190Y-55094095D02*
X247022952Y-55046476D01*
X246975333Y-54998857D01*
X246927714Y-54903619D01*
X246927714Y-54808380D01*
X247594380Y-54332190D02*
X247546761Y-54427428D01*
X247499142Y-54475047D01*
X247403904Y-54522666D01*
X247118190Y-54522666D01*
X247022952Y-54475047D01*
X246975333Y-54427428D01*
X246927714Y-54332190D01*
X246927714Y-54189333D01*
X246975333Y-54094095D01*
X247022952Y-54046476D01*
X247118190Y-53998857D01*
X247403904Y-53998857D01*
X247499142Y-54046476D01*
X247546761Y-54094095D01*
X247594380Y-54189333D01*
X247594380Y-54332190D01*
X246927714Y-53570285D02*
X247594380Y-53570285D01*
X247022952Y-53570285D02*
X246975333Y-53522666D01*
X246927714Y-53427428D01*
X246927714Y-53284571D01*
X246975333Y-53189333D01*
X247070571Y-53141714D01*
X247594380Y-53141714D01*
%TO.C,R8*%
X213447333Y-81986380D02*
X213114000Y-81510190D01*
X212875904Y-81986380D02*
X212875904Y-80986380D01*
X213256857Y-80986380D01*
X213352095Y-81034000D01*
X213399714Y-81081619D01*
X213447333Y-81176857D01*
X213447333Y-81319714D01*
X213399714Y-81414952D01*
X213352095Y-81462571D01*
X213256857Y-81510190D01*
X212875904Y-81510190D01*
X214018761Y-81414952D02*
X213923523Y-81367333D01*
X213875904Y-81319714D01*
X213828285Y-81224476D01*
X213828285Y-81176857D01*
X213875904Y-81081619D01*
X213923523Y-81034000D01*
X214018761Y-80986380D01*
X214209238Y-80986380D01*
X214304476Y-81034000D01*
X214352095Y-81081619D01*
X214399714Y-81176857D01*
X214399714Y-81224476D01*
X214352095Y-81319714D01*
X214304476Y-81367333D01*
X214209238Y-81414952D01*
X214018761Y-81414952D01*
X213923523Y-81462571D01*
X213875904Y-81510190D01*
X213828285Y-81605428D01*
X213828285Y-81795904D01*
X213875904Y-81891142D01*
X213923523Y-81938761D01*
X214018761Y-81986380D01*
X214209238Y-81986380D01*
X214304476Y-81938761D01*
X214352095Y-81891142D01*
X214399714Y-81795904D01*
X214399714Y-81605428D01*
X214352095Y-81510190D01*
X214304476Y-81462571D01*
X214209238Y-81414952D01*
%TO.C,R5*%
X232480380Y-71540666D02*
X232004190Y-71874000D01*
X232480380Y-72112095D02*
X231480380Y-72112095D01*
X231480380Y-71731142D01*
X231528000Y-71635904D01*
X231575619Y-71588285D01*
X231670857Y-71540666D01*
X231813714Y-71540666D01*
X231908952Y-71588285D01*
X231956571Y-71635904D01*
X232004190Y-71731142D01*
X232004190Y-72112095D01*
X231480380Y-70635904D02*
X231480380Y-71112095D01*
X231956571Y-71159714D01*
X231908952Y-71112095D01*
X231861333Y-71016857D01*
X231861333Y-70778761D01*
X231908952Y-70683523D01*
X231956571Y-70635904D01*
X232051809Y-70588285D01*
X232289904Y-70588285D01*
X232385142Y-70635904D01*
X232432761Y-70683523D01*
X232480380Y-70778761D01*
X232480380Y-71016857D01*
X232432761Y-71112095D01*
X232385142Y-71159714D01*
%TO.C,J4*%
X249642380Y-79835333D02*
X250356666Y-79835333D01*
X250499523Y-79882952D01*
X250594761Y-79978190D01*
X250642380Y-80121047D01*
X250642380Y-80216285D01*
X249975714Y-78930571D02*
X250642380Y-78930571D01*
X249594761Y-79168666D02*
X250309047Y-79406761D01*
X250309047Y-78787714D01*
%TO.C,JP2*%
X180046380Y-47315333D02*
X180760666Y-47315333D01*
X180903523Y-47362952D01*
X180998761Y-47458190D01*
X181046380Y-47601047D01*
X181046380Y-47696285D01*
X181046380Y-46839142D02*
X180046380Y-46839142D01*
X180046380Y-46458190D01*
X180094000Y-46362952D01*
X180141619Y-46315333D01*
X180236857Y-46267714D01*
X180379714Y-46267714D01*
X180474952Y-46315333D01*
X180522571Y-46362952D01*
X180570190Y-46458190D01*
X180570190Y-46839142D01*
X180141619Y-45886761D02*
X180094000Y-45839142D01*
X180046380Y-45743904D01*
X180046380Y-45505809D01*
X180094000Y-45410571D01*
X180141619Y-45362952D01*
X180236857Y-45315333D01*
X180332095Y-45315333D01*
X180474952Y-45362952D01*
X181046380Y-45934380D01*
X181046380Y-45315333D01*
X178014380Y-43322857D02*
X178014380Y-43799047D01*
X178490571Y-43846666D01*
X178442952Y-43799047D01*
X178395333Y-43703809D01*
X178395333Y-43465714D01*
X178442952Y-43370476D01*
X178490571Y-43322857D01*
X178585809Y-43275238D01*
X178823904Y-43275238D01*
X178919142Y-43322857D01*
X178966761Y-43370476D01*
X179014380Y-43465714D01*
X179014380Y-43703809D01*
X178966761Y-43799047D01*
X178919142Y-43846666D01*
X178347714Y-42941904D02*
X179014380Y-42703809D01*
X178347714Y-42465714D01*
X178347714Y-48045714D02*
X179157238Y-48045714D01*
X179252476Y-48093333D01*
X179300095Y-48140952D01*
X179347714Y-48236190D01*
X179347714Y-48379047D01*
X179300095Y-48474285D01*
X178966761Y-48045714D02*
X179014380Y-48140952D01*
X179014380Y-48331428D01*
X178966761Y-48426666D01*
X178919142Y-48474285D01*
X178823904Y-48521904D01*
X178538190Y-48521904D01*
X178442952Y-48474285D01*
X178395333Y-48426666D01*
X178347714Y-48331428D01*
X178347714Y-48140952D01*
X178395333Y-48045714D01*
%TO.C,R3*%
X216749333Y-59380380D02*
X216416000Y-58904190D01*
X216177904Y-59380380D02*
X216177904Y-58380380D01*
X216558857Y-58380380D01*
X216654095Y-58428000D01*
X216701714Y-58475619D01*
X216749333Y-58570857D01*
X216749333Y-58713714D01*
X216701714Y-58808952D01*
X216654095Y-58856571D01*
X216558857Y-58904190D01*
X216177904Y-58904190D01*
X217082666Y-58380380D02*
X217701714Y-58380380D01*
X217368380Y-58761333D01*
X217511238Y-58761333D01*
X217606476Y-58808952D01*
X217654095Y-58856571D01*
X217701714Y-58951809D01*
X217701714Y-59189904D01*
X217654095Y-59285142D01*
X217606476Y-59332761D01*
X217511238Y-59380380D01*
X217225523Y-59380380D01*
X217130285Y-59332761D01*
X217082666Y-59285142D01*
%TO.C,JP1*%
X179792380Y-41219333D02*
X180506666Y-41219333D01*
X180649523Y-41266952D01*
X180744761Y-41362190D01*
X180792380Y-41505047D01*
X180792380Y-41600285D01*
X180792380Y-40743142D02*
X179792380Y-40743142D01*
X179792380Y-40362190D01*
X179840000Y-40266952D01*
X179887619Y-40219333D01*
X179982857Y-40171714D01*
X180125714Y-40171714D01*
X180220952Y-40219333D01*
X180268571Y-40266952D01*
X180316190Y-40362190D01*
X180316190Y-40743142D01*
X180792380Y-39219333D02*
X180792380Y-39790761D01*
X180792380Y-39505047D02*
X179792380Y-39505047D01*
X179935238Y-39600285D01*
X180030476Y-39695523D01*
X180078095Y-39790761D01*
X178014380Y-43322857D02*
X178014380Y-43799047D01*
X178490571Y-43846666D01*
X178442952Y-43799047D01*
X178395333Y-43703809D01*
X178395333Y-43465714D01*
X178442952Y-43370476D01*
X178490571Y-43322857D01*
X178585809Y-43275238D01*
X178823904Y-43275238D01*
X178919142Y-43322857D01*
X178966761Y-43370476D01*
X179014380Y-43465714D01*
X179014380Y-43703809D01*
X178966761Y-43799047D01*
X178919142Y-43846666D01*
X178347714Y-42941904D02*
X179014380Y-42703809D01*
X178347714Y-42465714D01*
X178347714Y-37825714D02*
X179157238Y-37825714D01*
X179252476Y-37873333D01*
X179300095Y-37920952D01*
X179347714Y-38016190D01*
X179347714Y-38159047D01*
X179300095Y-38254285D01*
X178966761Y-37825714D02*
X179014380Y-37920952D01*
X179014380Y-38111428D01*
X178966761Y-38206666D01*
X178919142Y-38254285D01*
X178823904Y-38301904D01*
X178538190Y-38301904D01*
X178442952Y-38254285D01*
X178395333Y-38206666D01*
X178347714Y-38111428D01*
X178347714Y-37920952D01*
X178395333Y-37825714D01*
%TO.C,R11*%
X190873142Y-66238380D02*
X190539809Y-65762190D01*
X190301714Y-66238380D02*
X190301714Y-65238380D01*
X190682666Y-65238380D01*
X190777904Y-65286000D01*
X190825523Y-65333619D01*
X190873142Y-65428857D01*
X190873142Y-65571714D01*
X190825523Y-65666952D01*
X190777904Y-65714571D01*
X190682666Y-65762190D01*
X190301714Y-65762190D01*
X191825523Y-66238380D02*
X191254095Y-66238380D01*
X191539809Y-66238380D02*
X191539809Y-65238380D01*
X191444571Y-65381238D01*
X191349333Y-65476476D01*
X191254095Y-65524095D01*
X192777904Y-66238380D02*
X192206476Y-66238380D01*
X192492190Y-66238380D02*
X192492190Y-65238380D01*
X192396952Y-65381238D01*
X192301714Y-65476476D01*
X192206476Y-65524095D01*
%TO.C,L1*%
X206335333Y-38166380D02*
X205859142Y-38166380D01*
X205859142Y-37166380D01*
X207192476Y-38166380D02*
X206621047Y-38166380D01*
X206906761Y-38166380D02*
X206906761Y-37166380D01*
X206811523Y-37309238D01*
X206716285Y-37404476D01*
X206621047Y-37452095D01*
%TO.C,R19*%
X221099142Y-84526380D02*
X220765809Y-84050190D01*
X220527714Y-84526380D02*
X220527714Y-83526380D01*
X220908666Y-83526380D01*
X221003904Y-83574000D01*
X221051523Y-83621619D01*
X221099142Y-83716857D01*
X221099142Y-83859714D01*
X221051523Y-83954952D01*
X221003904Y-84002571D01*
X220908666Y-84050190D01*
X220527714Y-84050190D01*
X222051523Y-84526380D02*
X221480095Y-84526380D01*
X221765809Y-84526380D02*
X221765809Y-83526380D01*
X221670571Y-83669238D01*
X221575333Y-83764476D01*
X221480095Y-83812095D01*
X222527714Y-84526380D02*
X222718190Y-84526380D01*
X222813428Y-84478761D01*
X222861047Y-84431142D01*
X222956285Y-84288285D01*
X223003904Y-84097809D01*
X223003904Y-83716857D01*
X222956285Y-83621619D01*
X222908666Y-83574000D01*
X222813428Y-83526380D01*
X222622952Y-83526380D01*
X222527714Y-83574000D01*
X222480095Y-83621619D01*
X222432476Y-83716857D01*
X222432476Y-83954952D01*
X222480095Y-84050190D01*
X222527714Y-84097809D01*
X222622952Y-84145428D01*
X222813428Y-84145428D01*
X222908666Y-84097809D01*
X222956285Y-84050190D01*
X223003904Y-83954952D01*
%TO.C,R14*%
X211654380Y-39250857D02*
X211178190Y-39584190D01*
X211654380Y-39822285D02*
X210654380Y-39822285D01*
X210654380Y-39441333D01*
X210702000Y-39346095D01*
X210749619Y-39298476D01*
X210844857Y-39250857D01*
X210987714Y-39250857D01*
X211082952Y-39298476D01*
X211130571Y-39346095D01*
X211178190Y-39441333D01*
X211178190Y-39822285D01*
X211654380Y-38298476D02*
X211654380Y-38869904D01*
X211654380Y-38584190D02*
X210654380Y-38584190D01*
X210797238Y-38679428D01*
X210892476Y-38774666D01*
X210940095Y-38869904D01*
X210987714Y-37441333D02*
X211654380Y-37441333D01*
X210606761Y-37679428D02*
X211321047Y-37917523D01*
X211321047Y-37298476D01*
%TO.C,R15*%
X205351142Y-33726380D02*
X205017809Y-33250190D01*
X204779714Y-33726380D02*
X204779714Y-32726380D01*
X205160666Y-32726380D01*
X205255904Y-32774000D01*
X205303523Y-32821619D01*
X205351142Y-32916857D01*
X205351142Y-33059714D01*
X205303523Y-33154952D01*
X205255904Y-33202571D01*
X205160666Y-33250190D01*
X204779714Y-33250190D01*
X206303523Y-33726380D02*
X205732095Y-33726380D01*
X206017809Y-33726380D02*
X206017809Y-32726380D01*
X205922571Y-32869238D01*
X205827333Y-32964476D01*
X205732095Y-33012095D01*
X207208285Y-32726380D02*
X206732095Y-32726380D01*
X206684476Y-33202571D01*
X206732095Y-33154952D01*
X206827333Y-33107333D01*
X207065428Y-33107333D01*
X207160666Y-33154952D01*
X207208285Y-33202571D01*
X207255904Y-33297809D01*
X207255904Y-33535904D01*
X207208285Y-33631142D01*
X207160666Y-33678761D01*
X207065428Y-33726380D01*
X206827333Y-33726380D01*
X206732095Y-33678761D01*
X206684476Y-33631142D01*
%TO.C,R25*%
X184602380Y-55506857D02*
X184126190Y-55840190D01*
X184602380Y-56078285D02*
X183602380Y-56078285D01*
X183602380Y-55697333D01*
X183650000Y-55602095D01*
X183697619Y-55554476D01*
X183792857Y-55506857D01*
X183935714Y-55506857D01*
X184030952Y-55554476D01*
X184078571Y-55602095D01*
X184126190Y-55697333D01*
X184126190Y-56078285D01*
X183697619Y-55125904D02*
X183650000Y-55078285D01*
X183602380Y-54983047D01*
X183602380Y-54744952D01*
X183650000Y-54649714D01*
X183697619Y-54602095D01*
X183792857Y-54554476D01*
X183888095Y-54554476D01*
X184030952Y-54602095D01*
X184602380Y-55173523D01*
X184602380Y-54554476D01*
X183602380Y-53649714D02*
X183602380Y-54125904D01*
X184078571Y-54173523D01*
X184030952Y-54125904D01*
X183983333Y-54030666D01*
X183983333Y-53792571D01*
X184030952Y-53697333D01*
X184078571Y-53649714D01*
X184173809Y-53602095D01*
X184411904Y-53602095D01*
X184507142Y-53649714D01*
X184554761Y-53697333D01*
X184602380Y-53792571D01*
X184602380Y-54030666D01*
X184554761Y-54125904D01*
X184507142Y-54173523D01*
%TO.C,R21*%
X221099142Y-82240380D02*
X220765809Y-81764190D01*
X220527714Y-82240380D02*
X220527714Y-81240380D01*
X220908666Y-81240380D01*
X221003904Y-81288000D01*
X221051523Y-81335619D01*
X221099142Y-81430857D01*
X221099142Y-81573714D01*
X221051523Y-81668952D01*
X221003904Y-81716571D01*
X220908666Y-81764190D01*
X220527714Y-81764190D01*
X221480095Y-81335619D02*
X221527714Y-81288000D01*
X221622952Y-81240380D01*
X221861047Y-81240380D01*
X221956285Y-81288000D01*
X222003904Y-81335619D01*
X222051523Y-81430857D01*
X222051523Y-81526095D01*
X222003904Y-81668952D01*
X221432476Y-82240380D01*
X222051523Y-82240380D01*
X223003904Y-82240380D02*
X222432476Y-82240380D01*
X222718190Y-82240380D02*
X222718190Y-81240380D01*
X222622952Y-81383238D01*
X222527714Y-81478476D01*
X222432476Y-81526095D01*
%TO.C,R23*%
X174568380Y-55506857D02*
X174092190Y-55840190D01*
X174568380Y-56078285D02*
X173568380Y-56078285D01*
X173568380Y-55697333D01*
X173616000Y-55602095D01*
X173663619Y-55554476D01*
X173758857Y-55506857D01*
X173901714Y-55506857D01*
X173996952Y-55554476D01*
X174044571Y-55602095D01*
X174092190Y-55697333D01*
X174092190Y-56078285D01*
X173663619Y-55125904D02*
X173616000Y-55078285D01*
X173568380Y-54983047D01*
X173568380Y-54744952D01*
X173616000Y-54649714D01*
X173663619Y-54602095D01*
X173758857Y-54554476D01*
X173854095Y-54554476D01*
X173996952Y-54602095D01*
X174568380Y-55173523D01*
X174568380Y-54554476D01*
X173568380Y-54221142D02*
X173568380Y-53602095D01*
X173949333Y-53935428D01*
X173949333Y-53792571D01*
X173996952Y-53697333D01*
X174044571Y-53649714D01*
X174139809Y-53602095D01*
X174377904Y-53602095D01*
X174473142Y-53649714D01*
X174520761Y-53697333D01*
X174568380Y-53792571D01*
X174568380Y-54078285D01*
X174520761Y-54173523D01*
X174473142Y-54221142D01*
%TO.C,R28*%
X221607142Y-47950380D02*
X221273809Y-47474190D01*
X221035714Y-47950380D02*
X221035714Y-46950380D01*
X221416666Y-46950380D01*
X221511904Y-46998000D01*
X221559523Y-47045619D01*
X221607142Y-47140857D01*
X221607142Y-47283714D01*
X221559523Y-47378952D01*
X221511904Y-47426571D01*
X221416666Y-47474190D01*
X221035714Y-47474190D01*
X221988095Y-47045619D02*
X222035714Y-46998000D01*
X222130952Y-46950380D01*
X222369047Y-46950380D01*
X222464285Y-46998000D01*
X222511904Y-47045619D01*
X222559523Y-47140857D01*
X222559523Y-47236095D01*
X222511904Y-47378952D01*
X221940476Y-47950380D01*
X222559523Y-47950380D01*
X223130952Y-47378952D02*
X223035714Y-47331333D01*
X222988095Y-47283714D01*
X222940476Y-47188476D01*
X222940476Y-47140857D01*
X222988095Y-47045619D01*
X223035714Y-46998000D01*
X223130952Y-46950380D01*
X223321428Y-46950380D01*
X223416666Y-46998000D01*
X223464285Y-47045619D01*
X223511904Y-47140857D01*
X223511904Y-47188476D01*
X223464285Y-47283714D01*
X223416666Y-47331333D01*
X223321428Y-47378952D01*
X223130952Y-47378952D01*
X223035714Y-47426571D01*
X222988095Y-47474190D01*
X222940476Y-47569428D01*
X222940476Y-47759904D01*
X222988095Y-47855142D01*
X223035714Y-47902761D01*
X223130952Y-47950380D01*
X223321428Y-47950380D01*
X223416666Y-47902761D01*
X223464285Y-47855142D01*
X223511904Y-47759904D01*
X223511904Y-47569428D01*
X223464285Y-47474190D01*
X223416666Y-47426571D01*
X223321428Y-47378952D01*
%TO.C,R30*%
X183253142Y-60142380D02*
X182919809Y-59666190D01*
X182681714Y-60142380D02*
X182681714Y-59142380D01*
X183062666Y-59142380D01*
X183157904Y-59190000D01*
X183205523Y-59237619D01*
X183253142Y-59332857D01*
X183253142Y-59475714D01*
X183205523Y-59570952D01*
X183157904Y-59618571D01*
X183062666Y-59666190D01*
X182681714Y-59666190D01*
X183586476Y-59142380D02*
X184205523Y-59142380D01*
X183872190Y-59523333D01*
X184015047Y-59523333D01*
X184110285Y-59570952D01*
X184157904Y-59618571D01*
X184205523Y-59713809D01*
X184205523Y-59951904D01*
X184157904Y-60047142D01*
X184110285Y-60094761D01*
X184015047Y-60142380D01*
X183729333Y-60142380D01*
X183634095Y-60094761D01*
X183586476Y-60047142D01*
X184824571Y-59142380D02*
X184919809Y-59142380D01*
X185015047Y-59190000D01*
X185062666Y-59237619D01*
X185110285Y-59332857D01*
X185157904Y-59523333D01*
X185157904Y-59761428D01*
X185110285Y-59951904D01*
X185062666Y-60047142D01*
X185015047Y-60094761D01*
X184919809Y-60142380D01*
X184824571Y-60142380D01*
X184729333Y-60094761D01*
X184681714Y-60047142D01*
X184634095Y-59951904D01*
X184586476Y-59761428D01*
X184586476Y-59523333D01*
X184634095Y-59332857D01*
X184681714Y-59237619D01*
X184729333Y-59190000D01*
X184824571Y-59142380D01*
%TO.C,R35*%
X173806380Y-37218857D02*
X173330190Y-37552190D01*
X173806380Y-37790285D02*
X172806380Y-37790285D01*
X172806380Y-37409333D01*
X172854000Y-37314095D01*
X172901619Y-37266476D01*
X172996857Y-37218857D01*
X173139714Y-37218857D01*
X173234952Y-37266476D01*
X173282571Y-37314095D01*
X173330190Y-37409333D01*
X173330190Y-37790285D01*
X172806380Y-36885523D02*
X172806380Y-36266476D01*
X173187333Y-36599809D01*
X173187333Y-36456952D01*
X173234952Y-36361714D01*
X173282571Y-36314095D01*
X173377809Y-36266476D01*
X173615904Y-36266476D01*
X173711142Y-36314095D01*
X173758761Y-36361714D01*
X173806380Y-36456952D01*
X173806380Y-36742666D01*
X173758761Y-36837904D01*
X173711142Y-36885523D01*
X172806380Y-35361714D02*
X172806380Y-35837904D01*
X173282571Y-35885523D01*
X173234952Y-35837904D01*
X173187333Y-35742666D01*
X173187333Y-35504571D01*
X173234952Y-35409333D01*
X173282571Y-35361714D01*
X173377809Y-35314095D01*
X173615904Y-35314095D01*
X173711142Y-35361714D01*
X173758761Y-35409333D01*
X173806380Y-35504571D01*
X173806380Y-35742666D01*
X173758761Y-35837904D01*
X173711142Y-35885523D01*
%TO.C,R20*%
X212971142Y-70048380D02*
X212637809Y-69572190D01*
X212399714Y-70048380D02*
X212399714Y-69048380D01*
X212780666Y-69048380D01*
X212875904Y-69096000D01*
X212923523Y-69143619D01*
X212971142Y-69238857D01*
X212971142Y-69381714D01*
X212923523Y-69476952D01*
X212875904Y-69524571D01*
X212780666Y-69572190D01*
X212399714Y-69572190D01*
X213352095Y-69143619D02*
X213399714Y-69096000D01*
X213494952Y-69048380D01*
X213733047Y-69048380D01*
X213828285Y-69096000D01*
X213875904Y-69143619D01*
X213923523Y-69238857D01*
X213923523Y-69334095D01*
X213875904Y-69476952D01*
X213304476Y-70048380D01*
X213923523Y-70048380D01*
X214542571Y-69048380D02*
X214637809Y-69048380D01*
X214733047Y-69096000D01*
X214780666Y-69143619D01*
X214828285Y-69238857D01*
X214875904Y-69429333D01*
X214875904Y-69667428D01*
X214828285Y-69857904D01*
X214780666Y-69953142D01*
X214733047Y-70000761D01*
X214637809Y-70048380D01*
X214542571Y-70048380D01*
X214447333Y-70000761D01*
X214399714Y-69953142D01*
X214352095Y-69857904D01*
X214304476Y-69667428D01*
X214304476Y-69429333D01*
X214352095Y-69238857D01*
X214399714Y-69143619D01*
X214447333Y-69096000D01*
X214542571Y-69048380D01*
%TO.C,R27*%
X185539142Y-71572380D02*
X185205809Y-71096190D01*
X184967714Y-71572380D02*
X184967714Y-70572380D01*
X185348666Y-70572380D01*
X185443904Y-70620000D01*
X185491523Y-70667619D01*
X185539142Y-70762857D01*
X185539142Y-70905714D01*
X185491523Y-71000952D01*
X185443904Y-71048571D01*
X185348666Y-71096190D01*
X184967714Y-71096190D01*
X185920095Y-70667619D02*
X185967714Y-70620000D01*
X186062952Y-70572380D01*
X186301047Y-70572380D01*
X186396285Y-70620000D01*
X186443904Y-70667619D01*
X186491523Y-70762857D01*
X186491523Y-70858095D01*
X186443904Y-71000952D01*
X185872476Y-71572380D01*
X186491523Y-71572380D01*
X186824857Y-70572380D02*
X187491523Y-70572380D01*
X187062952Y-71572380D01*
%TO.C,R29*%
X226687142Y-48204380D02*
X226353809Y-47728190D01*
X226115714Y-48204380D02*
X226115714Y-47204380D01*
X226496666Y-47204380D01*
X226591904Y-47252000D01*
X226639523Y-47299619D01*
X226687142Y-47394857D01*
X226687142Y-47537714D01*
X226639523Y-47632952D01*
X226591904Y-47680571D01*
X226496666Y-47728190D01*
X226115714Y-47728190D01*
X227068095Y-47299619D02*
X227115714Y-47252000D01*
X227210952Y-47204380D01*
X227449047Y-47204380D01*
X227544285Y-47252000D01*
X227591904Y-47299619D01*
X227639523Y-47394857D01*
X227639523Y-47490095D01*
X227591904Y-47632952D01*
X227020476Y-48204380D01*
X227639523Y-48204380D01*
X228115714Y-48204380D02*
X228306190Y-48204380D01*
X228401428Y-48156761D01*
X228449047Y-48109142D01*
X228544285Y-47966285D01*
X228591904Y-47775809D01*
X228591904Y-47394857D01*
X228544285Y-47299619D01*
X228496666Y-47252000D01*
X228401428Y-47204380D01*
X228210952Y-47204380D01*
X228115714Y-47252000D01*
X228068095Y-47299619D01*
X228020476Y-47394857D01*
X228020476Y-47632952D01*
X228068095Y-47728190D01*
X228115714Y-47775809D01*
X228210952Y-47823428D01*
X228401428Y-47823428D01*
X228496666Y-47775809D01*
X228544285Y-47728190D01*
X228591904Y-47632952D01*
%TO.C,R31*%
X177919142Y-60142380D02*
X177585809Y-59666190D01*
X177347714Y-60142380D02*
X177347714Y-59142380D01*
X177728666Y-59142380D01*
X177823904Y-59190000D01*
X177871523Y-59237619D01*
X177919142Y-59332857D01*
X177919142Y-59475714D01*
X177871523Y-59570952D01*
X177823904Y-59618571D01*
X177728666Y-59666190D01*
X177347714Y-59666190D01*
X178252476Y-59142380D02*
X178871523Y-59142380D01*
X178538190Y-59523333D01*
X178681047Y-59523333D01*
X178776285Y-59570952D01*
X178823904Y-59618571D01*
X178871523Y-59713809D01*
X178871523Y-59951904D01*
X178823904Y-60047142D01*
X178776285Y-60094761D01*
X178681047Y-60142380D01*
X178395333Y-60142380D01*
X178300095Y-60094761D01*
X178252476Y-60047142D01*
X179823904Y-60142380D02*
X179252476Y-60142380D01*
X179538190Y-60142380D02*
X179538190Y-59142380D01*
X179442952Y-59285238D01*
X179347714Y-59380476D01*
X179252476Y-59428095D01*
%TO.C,R26*%
X183712380Y-68460857D02*
X183236190Y-68794190D01*
X183712380Y-69032285D02*
X182712380Y-69032285D01*
X182712380Y-68651333D01*
X182760000Y-68556095D01*
X182807619Y-68508476D01*
X182902857Y-68460857D01*
X183045714Y-68460857D01*
X183140952Y-68508476D01*
X183188571Y-68556095D01*
X183236190Y-68651333D01*
X183236190Y-69032285D01*
X182807619Y-68079904D02*
X182760000Y-68032285D01*
X182712380Y-67937047D01*
X182712380Y-67698952D01*
X182760000Y-67603714D01*
X182807619Y-67556095D01*
X182902857Y-67508476D01*
X182998095Y-67508476D01*
X183140952Y-67556095D01*
X183712380Y-68127523D01*
X183712380Y-67508476D01*
X182712380Y-66651333D02*
X182712380Y-66841809D01*
X182760000Y-66937047D01*
X182807619Y-66984666D01*
X182950476Y-67079904D01*
X183140952Y-67127523D01*
X183521904Y-67127523D01*
X183617142Y-67079904D01*
X183664761Y-67032285D01*
X183712380Y-66937047D01*
X183712380Y-66746571D01*
X183664761Y-66651333D01*
X183617142Y-66603714D01*
X183521904Y-66556095D01*
X183283809Y-66556095D01*
X183188571Y-66603714D01*
X183140952Y-66651333D01*
X183093333Y-66746571D01*
X183093333Y-66937047D01*
X183140952Y-67032285D01*
X183188571Y-67079904D01*
X183283809Y-67127523D01*
%TO.C,R16*%
X220845142Y-67254380D02*
X220511809Y-66778190D01*
X220273714Y-67254380D02*
X220273714Y-66254380D01*
X220654666Y-66254380D01*
X220749904Y-66302000D01*
X220797523Y-66349619D01*
X220845142Y-66444857D01*
X220845142Y-66587714D01*
X220797523Y-66682952D01*
X220749904Y-66730571D01*
X220654666Y-66778190D01*
X220273714Y-66778190D01*
X221797523Y-67254380D02*
X221226095Y-67254380D01*
X221511809Y-67254380D02*
X221511809Y-66254380D01*
X221416571Y-66397238D01*
X221321333Y-66492476D01*
X221226095Y-66540095D01*
X222654666Y-66254380D02*
X222464190Y-66254380D01*
X222368952Y-66302000D01*
X222321333Y-66349619D01*
X222226095Y-66492476D01*
X222178476Y-66682952D01*
X222178476Y-67063904D01*
X222226095Y-67159142D01*
X222273714Y-67206761D01*
X222368952Y-67254380D01*
X222559428Y-67254380D01*
X222654666Y-67206761D01*
X222702285Y-67159142D01*
X222749904Y-67063904D01*
X222749904Y-66825809D01*
X222702285Y-66730571D01*
X222654666Y-66682952D01*
X222559428Y-66635333D01*
X222368952Y-66635333D01*
X222273714Y-66682952D01*
X222226095Y-66730571D01*
X222178476Y-66825809D01*
%TO.C,R17*%
X216273142Y-54554380D02*
X215939809Y-54078190D01*
X215701714Y-54554380D02*
X215701714Y-53554380D01*
X216082666Y-53554380D01*
X216177904Y-53602000D01*
X216225523Y-53649619D01*
X216273142Y-53744857D01*
X216273142Y-53887714D01*
X216225523Y-53982952D01*
X216177904Y-54030571D01*
X216082666Y-54078190D01*
X215701714Y-54078190D01*
X217225523Y-54554380D02*
X216654095Y-54554380D01*
X216939809Y-54554380D02*
X216939809Y-53554380D01*
X216844571Y-53697238D01*
X216749333Y-53792476D01*
X216654095Y-53840095D01*
X217558857Y-53554380D02*
X218225523Y-53554380D01*
X217796952Y-54554380D01*
%TO.C,R18*%
X226433142Y-64206380D02*
X226099809Y-63730190D01*
X225861714Y-64206380D02*
X225861714Y-63206380D01*
X226242666Y-63206380D01*
X226337904Y-63254000D01*
X226385523Y-63301619D01*
X226433142Y-63396857D01*
X226433142Y-63539714D01*
X226385523Y-63634952D01*
X226337904Y-63682571D01*
X226242666Y-63730190D01*
X225861714Y-63730190D01*
X227385523Y-64206380D02*
X226814095Y-64206380D01*
X227099809Y-64206380D02*
X227099809Y-63206380D01*
X227004571Y-63349238D01*
X226909333Y-63444476D01*
X226814095Y-63492095D01*
X227956952Y-63634952D02*
X227861714Y-63587333D01*
X227814095Y-63539714D01*
X227766476Y-63444476D01*
X227766476Y-63396857D01*
X227814095Y-63301619D01*
X227861714Y-63254000D01*
X227956952Y-63206380D01*
X228147428Y-63206380D01*
X228242666Y-63254000D01*
X228290285Y-63301619D01*
X228337904Y-63396857D01*
X228337904Y-63444476D01*
X228290285Y-63539714D01*
X228242666Y-63587333D01*
X228147428Y-63634952D01*
X227956952Y-63634952D01*
X227861714Y-63682571D01*
X227814095Y-63730190D01*
X227766476Y-63825428D01*
X227766476Y-64015904D01*
X227814095Y-64111142D01*
X227861714Y-64158761D01*
X227956952Y-64206380D01*
X228147428Y-64206380D01*
X228242666Y-64158761D01*
X228290285Y-64111142D01*
X228337904Y-64015904D01*
X228337904Y-63825428D01*
X228290285Y-63730190D01*
X228242666Y-63682571D01*
X228147428Y-63634952D01*
%TO.C,R24*%
X178886380Y-55506857D02*
X178410190Y-55840190D01*
X178886380Y-56078285D02*
X177886380Y-56078285D01*
X177886380Y-55697333D01*
X177934000Y-55602095D01*
X177981619Y-55554476D01*
X178076857Y-55506857D01*
X178219714Y-55506857D01*
X178314952Y-55554476D01*
X178362571Y-55602095D01*
X178410190Y-55697333D01*
X178410190Y-56078285D01*
X177981619Y-55125904D02*
X177934000Y-55078285D01*
X177886380Y-54983047D01*
X177886380Y-54744952D01*
X177934000Y-54649714D01*
X177981619Y-54602095D01*
X178076857Y-54554476D01*
X178172095Y-54554476D01*
X178314952Y-54602095D01*
X178886380Y-55173523D01*
X178886380Y-54554476D01*
X178219714Y-53697333D02*
X178886380Y-53697333D01*
X177838761Y-53935428D02*
X178553047Y-54173523D01*
X178553047Y-53554476D01*
%TO.C,C21*%
X216273142Y-47981142D02*
X216225523Y-48028761D01*
X216082666Y-48076380D01*
X215987428Y-48076380D01*
X215844571Y-48028761D01*
X215749333Y-47933523D01*
X215701714Y-47838285D01*
X215654095Y-47647809D01*
X215654095Y-47504952D01*
X215701714Y-47314476D01*
X215749333Y-47219238D01*
X215844571Y-47124000D01*
X215987428Y-47076380D01*
X216082666Y-47076380D01*
X216225523Y-47124000D01*
X216273142Y-47171619D01*
X216654095Y-47171619D02*
X216701714Y-47124000D01*
X216796952Y-47076380D01*
X217035047Y-47076380D01*
X217130285Y-47124000D01*
X217177904Y-47171619D01*
X217225523Y-47266857D01*
X217225523Y-47362095D01*
X217177904Y-47504952D01*
X216606476Y-48076380D01*
X217225523Y-48076380D01*
X218177904Y-48076380D02*
X217606476Y-48076380D01*
X217892190Y-48076380D02*
X217892190Y-47076380D01*
X217796952Y-47219238D01*
X217701714Y-47314476D01*
X217606476Y-47362095D01*
%TO.C,C18*%
X178919142Y-62618857D02*
X178966761Y-62666476D01*
X179014380Y-62809333D01*
X179014380Y-62904571D01*
X178966761Y-63047428D01*
X178871523Y-63142666D01*
X178776285Y-63190285D01*
X178585809Y-63237904D01*
X178442952Y-63237904D01*
X178252476Y-63190285D01*
X178157238Y-63142666D01*
X178062000Y-63047428D01*
X178014380Y-62904571D01*
X178014380Y-62809333D01*
X178062000Y-62666476D01*
X178109619Y-62618857D01*
X179014380Y-61666476D02*
X179014380Y-62237904D01*
X179014380Y-61952190D02*
X178014380Y-61952190D01*
X178157238Y-62047428D01*
X178252476Y-62142666D01*
X178300095Y-62237904D01*
X178442952Y-61095047D02*
X178395333Y-61190285D01*
X178347714Y-61237904D01*
X178252476Y-61285523D01*
X178204857Y-61285523D01*
X178109619Y-61237904D01*
X178062000Y-61190285D01*
X178014380Y-61095047D01*
X178014380Y-60904571D01*
X178062000Y-60809333D01*
X178109619Y-60761714D01*
X178204857Y-60714095D01*
X178252476Y-60714095D01*
X178347714Y-60761714D01*
X178395333Y-60809333D01*
X178442952Y-60904571D01*
X178442952Y-61095047D01*
X178490571Y-61190285D01*
X178538190Y-61237904D01*
X178633428Y-61285523D01*
X178823904Y-61285523D01*
X178919142Y-61237904D01*
X178966761Y-61190285D01*
X179014380Y-61095047D01*
X179014380Y-60904571D01*
X178966761Y-60809333D01*
X178919142Y-60761714D01*
X178823904Y-60714095D01*
X178633428Y-60714095D01*
X178538190Y-60761714D01*
X178490571Y-60809333D01*
X178442952Y-60904571D01*
%TO.C,C7*%
X198985142Y-60618666D02*
X199032761Y-60666285D01*
X199080380Y-60809142D01*
X199080380Y-60904380D01*
X199032761Y-61047238D01*
X198937523Y-61142476D01*
X198842285Y-61190095D01*
X198651809Y-61237714D01*
X198508952Y-61237714D01*
X198318476Y-61190095D01*
X198223238Y-61142476D01*
X198128000Y-61047238D01*
X198080380Y-60904380D01*
X198080380Y-60809142D01*
X198128000Y-60666285D01*
X198175619Y-60618666D01*
X198080380Y-60285333D02*
X198080380Y-59618666D01*
X199080380Y-60047238D01*
%TO.C,C8*%
X222083333Y-42267142D02*
X222035714Y-42314761D01*
X221892857Y-42362380D01*
X221797619Y-42362380D01*
X221654761Y-42314761D01*
X221559523Y-42219523D01*
X221511904Y-42124285D01*
X221464285Y-41933809D01*
X221464285Y-41790952D01*
X221511904Y-41600476D01*
X221559523Y-41505238D01*
X221654761Y-41410000D01*
X221797619Y-41362380D01*
X221892857Y-41362380D01*
X222035714Y-41410000D01*
X222083333Y-41457619D01*
X222654761Y-41790952D02*
X222559523Y-41743333D01*
X222511904Y-41695714D01*
X222464285Y-41600476D01*
X222464285Y-41552857D01*
X222511904Y-41457619D01*
X222559523Y-41410000D01*
X222654761Y-41362380D01*
X222845238Y-41362380D01*
X222940476Y-41410000D01*
X222988095Y-41457619D01*
X223035714Y-41552857D01*
X223035714Y-41600476D01*
X222988095Y-41695714D01*
X222940476Y-41743333D01*
X222845238Y-41790952D01*
X222654761Y-41790952D01*
X222559523Y-41838571D01*
X222511904Y-41886190D01*
X222464285Y-41981428D01*
X222464285Y-42171904D01*
X222511904Y-42267142D01*
X222559523Y-42314761D01*
X222654761Y-42362380D01*
X222845238Y-42362380D01*
X222940476Y-42314761D01*
X222988095Y-42267142D01*
X223035714Y-42171904D01*
X223035714Y-41981428D01*
X222988095Y-41886190D01*
X222940476Y-41838571D01*
X222845238Y-41790952D01*
%TO.C,OLED*%
X171156380Y-45902380D02*
X171156380Y-45711904D01*
X171204000Y-45616666D01*
X171299238Y-45521428D01*
X171489714Y-45473809D01*
X171823047Y-45473809D01*
X172013523Y-45521428D01*
X172108761Y-45616666D01*
X172156380Y-45711904D01*
X172156380Y-45902380D01*
X172108761Y-45997619D01*
X172013523Y-46092857D01*
X171823047Y-46140476D01*
X171489714Y-46140476D01*
X171299238Y-46092857D01*
X171204000Y-45997619D01*
X171156380Y-45902380D01*
X172156380Y-44569047D02*
X172156380Y-45045238D01*
X171156380Y-45045238D01*
X171632571Y-44235714D02*
X171632571Y-43902380D01*
X172156380Y-43759523D02*
X172156380Y-44235714D01*
X171156380Y-44235714D01*
X171156380Y-43759523D01*
X172156380Y-43330952D02*
X171156380Y-43330952D01*
X171156380Y-43092857D01*
X171204000Y-42950000D01*
X171299238Y-42854761D01*
X171394476Y-42807142D01*
X171584952Y-42759523D01*
X171727809Y-42759523D01*
X171918285Y-42807142D01*
X172013523Y-42854761D01*
X172108761Y-42950000D01*
X172156380Y-43092857D01*
X172156380Y-43330952D01*
X175323619Y-45281809D02*
X175437904Y-45319904D01*
X175628380Y-45319904D01*
X175704571Y-45281809D01*
X175742666Y-45243714D01*
X175780761Y-45167523D01*
X175780761Y-45091333D01*
X175742666Y-45015142D01*
X175704571Y-44977047D01*
X175628380Y-44938952D01*
X175476000Y-44900857D01*
X175399809Y-44862761D01*
X175361714Y-44824666D01*
X175323619Y-44748476D01*
X175323619Y-44672285D01*
X175361714Y-44596095D01*
X175399809Y-44558000D01*
X175476000Y-44519904D01*
X175666476Y-44519904D01*
X175780761Y-44558000D01*
X176580761Y-45243714D02*
X176542666Y-45281809D01*
X176428380Y-45319904D01*
X176352190Y-45319904D01*
X176237904Y-45281809D01*
X176161714Y-45205619D01*
X176123619Y-45129428D01*
X176085523Y-44977047D01*
X176085523Y-44862761D01*
X176123619Y-44710380D01*
X176161714Y-44634190D01*
X176237904Y-44558000D01*
X176352190Y-44519904D01*
X176428380Y-44519904D01*
X176542666Y-44558000D01*
X176580761Y-44596095D01*
X177304571Y-45319904D02*
X176923619Y-45319904D01*
X176923619Y-44519904D01*
X175304571Y-47821809D02*
X175418857Y-47859904D01*
X175609333Y-47859904D01*
X175685523Y-47821809D01*
X175723619Y-47783714D01*
X175761714Y-47707523D01*
X175761714Y-47631333D01*
X175723619Y-47555142D01*
X175685523Y-47517047D01*
X175609333Y-47478952D01*
X175456952Y-47440857D01*
X175380761Y-47402761D01*
X175342666Y-47364666D01*
X175304571Y-47288476D01*
X175304571Y-47212285D01*
X175342666Y-47136095D01*
X175380761Y-47098000D01*
X175456952Y-47059904D01*
X175647428Y-47059904D01*
X175761714Y-47098000D01*
X176104571Y-47859904D02*
X176104571Y-47059904D01*
X176295047Y-47059904D01*
X176409333Y-47098000D01*
X176485523Y-47174190D01*
X176523619Y-47250380D01*
X176561714Y-47402761D01*
X176561714Y-47517047D01*
X176523619Y-47669428D01*
X176485523Y-47745619D01*
X176409333Y-47821809D01*
X176295047Y-47859904D01*
X176104571Y-47859904D01*
X176866476Y-47631333D02*
X177247428Y-47631333D01*
X176790285Y-47859904D02*
X177056952Y-47059904D01*
X177323619Y-47859904D01*
X176123619Y-39439904D02*
X175742666Y-39439904D01*
X175704571Y-39820857D01*
X175742666Y-39782761D01*
X175818857Y-39744666D01*
X176009333Y-39744666D01*
X176085523Y-39782761D01*
X176123619Y-39820857D01*
X176161714Y-39897047D01*
X176161714Y-40087523D01*
X176123619Y-40163714D01*
X176085523Y-40201809D01*
X176009333Y-40239904D01*
X175818857Y-40239904D01*
X175742666Y-40201809D01*
X175704571Y-40163714D01*
X176390285Y-39439904D02*
X176656952Y-40239904D01*
X176923619Y-39439904D01*
X175761714Y-42018000D02*
X175685523Y-41979904D01*
X175571238Y-41979904D01*
X175456952Y-42018000D01*
X175380761Y-42094190D01*
X175342666Y-42170380D01*
X175304571Y-42322761D01*
X175304571Y-42437047D01*
X175342666Y-42589428D01*
X175380761Y-42665619D01*
X175456952Y-42741809D01*
X175571238Y-42779904D01*
X175647428Y-42779904D01*
X175761714Y-42741809D01*
X175799809Y-42703714D01*
X175799809Y-42437047D01*
X175647428Y-42437047D01*
X176142666Y-42246571D02*
X176142666Y-42779904D01*
X176142666Y-42322761D02*
X176180761Y-42284666D01*
X176256952Y-42246571D01*
X176371238Y-42246571D01*
X176447428Y-42284666D01*
X176485523Y-42360857D01*
X176485523Y-42779904D01*
X177209333Y-42779904D02*
X177209333Y-41979904D01*
X177209333Y-42741809D02*
X177133142Y-42779904D01*
X176980761Y-42779904D01*
X176904571Y-42741809D01*
X176866476Y-42703714D01*
X176828380Y-42627523D01*
X176828380Y-42398952D01*
X176866476Y-42322761D01*
X176904571Y-42284666D01*
X176980761Y-42246571D01*
X177133142Y-42246571D01*
X177209333Y-42284666D01*
%TO.C,C20*%
X201017142Y-60840857D02*
X201064761Y-60888476D01*
X201112380Y-61031333D01*
X201112380Y-61126571D01*
X201064761Y-61269428D01*
X200969523Y-61364666D01*
X200874285Y-61412285D01*
X200683809Y-61459904D01*
X200540952Y-61459904D01*
X200350476Y-61412285D01*
X200255238Y-61364666D01*
X200160000Y-61269428D01*
X200112380Y-61126571D01*
X200112380Y-61031333D01*
X200160000Y-60888476D01*
X200207619Y-60840857D01*
X200207619Y-60459904D02*
X200160000Y-60412285D01*
X200112380Y-60317047D01*
X200112380Y-60078952D01*
X200160000Y-59983714D01*
X200207619Y-59936095D01*
X200302857Y-59888476D01*
X200398095Y-59888476D01*
X200540952Y-59936095D01*
X201112380Y-60507523D01*
X201112380Y-59888476D01*
X200112380Y-59269428D02*
X200112380Y-59174190D01*
X200160000Y-59078952D01*
X200207619Y-59031333D01*
X200302857Y-58983714D01*
X200493333Y-58936095D01*
X200731428Y-58936095D01*
X200921904Y-58983714D01*
X201017142Y-59031333D01*
X201064761Y-59078952D01*
X201112380Y-59174190D01*
X201112380Y-59269428D01*
X201064761Y-59364666D01*
X201017142Y-59412285D01*
X200921904Y-59459904D01*
X200731428Y-59507523D01*
X200493333Y-59507523D01*
X200302857Y-59459904D01*
X200207619Y-59412285D01*
X200160000Y-59364666D01*
X200112380Y-59269428D01*
%TO.C,D2*%
X206017904Y-46720380D02*
X206017904Y-45720380D01*
X206256000Y-45720380D01*
X206398857Y-45768000D01*
X206494095Y-45863238D01*
X206541714Y-45958476D01*
X206589333Y-46148952D01*
X206589333Y-46291809D01*
X206541714Y-46482285D01*
X206494095Y-46577523D01*
X206398857Y-46672761D01*
X206256000Y-46720380D01*
X206017904Y-46720380D01*
X206970285Y-45815619D02*
X207017904Y-45768000D01*
X207113142Y-45720380D01*
X207351238Y-45720380D01*
X207446476Y-45768000D01*
X207494095Y-45815619D01*
X207541714Y-45910857D01*
X207541714Y-46006095D01*
X207494095Y-46148952D01*
X206922666Y-46720380D01*
X207541714Y-46720380D01*
%TO.C,D9*%
X206017904Y-83764380D02*
X206017904Y-82764380D01*
X206256000Y-82764380D01*
X206398857Y-82812000D01*
X206494095Y-82907238D01*
X206541714Y-83002476D01*
X206589333Y-83192952D01*
X206589333Y-83335809D01*
X206541714Y-83526285D01*
X206494095Y-83621523D01*
X206398857Y-83716761D01*
X206256000Y-83764380D01*
X206017904Y-83764380D01*
X207065523Y-83764380D02*
X207256000Y-83764380D01*
X207351238Y-83716761D01*
X207398857Y-83669142D01*
X207494095Y-83526285D01*
X207541714Y-83335809D01*
X207541714Y-82954857D01*
X207494095Y-82859619D01*
X207446476Y-82812000D01*
X207351238Y-82764380D01*
X207160761Y-82764380D01*
X207065523Y-82812000D01*
X207017904Y-82859619D01*
X206970285Y-82954857D01*
X206970285Y-83192952D01*
X207017904Y-83288190D01*
X207065523Y-83335809D01*
X207160761Y-83383428D01*
X207351238Y-83383428D01*
X207446476Y-83335809D01*
X207494095Y-83288190D01*
X207541714Y-83192952D01*
%TO.C,C19*%
X184507142Y-62618857D02*
X184554761Y-62666476D01*
X184602380Y-62809333D01*
X184602380Y-62904571D01*
X184554761Y-63047428D01*
X184459523Y-63142666D01*
X184364285Y-63190285D01*
X184173809Y-63237904D01*
X184030952Y-63237904D01*
X183840476Y-63190285D01*
X183745238Y-63142666D01*
X183650000Y-63047428D01*
X183602380Y-62904571D01*
X183602380Y-62809333D01*
X183650000Y-62666476D01*
X183697619Y-62618857D01*
X184602380Y-61666476D02*
X184602380Y-62237904D01*
X184602380Y-61952190D02*
X183602380Y-61952190D01*
X183745238Y-62047428D01*
X183840476Y-62142666D01*
X183888095Y-62237904D01*
X184602380Y-61190285D02*
X184602380Y-60999809D01*
X184554761Y-60904571D01*
X184507142Y-60856952D01*
X184364285Y-60761714D01*
X184173809Y-60714095D01*
X183792857Y-60714095D01*
X183697619Y-60761714D01*
X183650000Y-60809333D01*
X183602380Y-60904571D01*
X183602380Y-61095047D01*
X183650000Y-61190285D01*
X183697619Y-61237904D01*
X183792857Y-61285523D01*
X184030952Y-61285523D01*
X184126190Y-61237904D01*
X184173809Y-61190285D01*
X184221428Y-61095047D01*
X184221428Y-60904571D01*
X184173809Y-60809333D01*
X184126190Y-60761714D01*
X184030952Y-60714095D01*
%TO.C,C6*%
X213589142Y-77382666D02*
X213636761Y-77430285D01*
X213684380Y-77573142D01*
X213684380Y-77668380D01*
X213636761Y-77811238D01*
X213541523Y-77906476D01*
X213446285Y-77954095D01*
X213255809Y-78001714D01*
X213112952Y-78001714D01*
X212922476Y-77954095D01*
X212827238Y-77906476D01*
X212732000Y-77811238D01*
X212684380Y-77668380D01*
X212684380Y-77573142D01*
X212732000Y-77430285D01*
X212779619Y-77382666D01*
X212684380Y-76525523D02*
X212684380Y-76716000D01*
X212732000Y-76811238D01*
X212779619Y-76858857D01*
X212922476Y-76954095D01*
X213112952Y-77001714D01*
X213493904Y-77001714D01*
X213589142Y-76954095D01*
X213636761Y-76906476D01*
X213684380Y-76811238D01*
X213684380Y-76620761D01*
X213636761Y-76525523D01*
X213589142Y-76477904D01*
X213493904Y-76430285D01*
X213255809Y-76430285D01*
X213160571Y-76477904D01*
X213112952Y-76525523D01*
X213065333Y-76620761D01*
X213065333Y-76811238D01*
X213112952Y-76906476D01*
X213160571Y-76954095D01*
X213255809Y-77001714D01*
%TO.C,C3*%
X213335142Y-62650666D02*
X213382761Y-62698285D01*
X213430380Y-62841142D01*
X213430380Y-62936380D01*
X213382761Y-63079238D01*
X213287523Y-63174476D01*
X213192285Y-63222095D01*
X213001809Y-63269714D01*
X212858952Y-63269714D01*
X212668476Y-63222095D01*
X212573238Y-63174476D01*
X212478000Y-63079238D01*
X212430380Y-62936380D01*
X212430380Y-62841142D01*
X212478000Y-62698285D01*
X212525619Y-62650666D01*
X212430380Y-62317333D02*
X212430380Y-61698285D01*
X212811333Y-62031619D01*
X212811333Y-61888761D01*
X212858952Y-61793523D01*
X212906571Y-61745904D01*
X213001809Y-61698285D01*
X213239904Y-61698285D01*
X213335142Y-61745904D01*
X213382761Y-61793523D01*
X213430380Y-61888761D01*
X213430380Y-62174476D01*
X213382761Y-62269714D01*
X213335142Y-62317333D01*
%TO.C,C9*%
X225131333Y-40743142D02*
X225083714Y-40790761D01*
X224940857Y-40838380D01*
X224845619Y-40838380D01*
X224702761Y-40790761D01*
X224607523Y-40695523D01*
X224559904Y-40600285D01*
X224512285Y-40409809D01*
X224512285Y-40266952D01*
X224559904Y-40076476D01*
X224607523Y-39981238D01*
X224702761Y-39886000D01*
X224845619Y-39838380D01*
X224940857Y-39838380D01*
X225083714Y-39886000D01*
X225131333Y-39933619D01*
X225607523Y-40838380D02*
X225798000Y-40838380D01*
X225893238Y-40790761D01*
X225940857Y-40743142D01*
X226036095Y-40600285D01*
X226083714Y-40409809D01*
X226083714Y-40028857D01*
X226036095Y-39933619D01*
X225988476Y-39886000D01*
X225893238Y-39838380D01*
X225702761Y-39838380D01*
X225607523Y-39886000D01*
X225559904Y-39933619D01*
X225512285Y-40028857D01*
X225512285Y-40266952D01*
X225559904Y-40362190D01*
X225607523Y-40409809D01*
X225702761Y-40457428D01*
X225893238Y-40457428D01*
X225988476Y-40409809D01*
X226036095Y-40362190D01*
X226083714Y-40266952D01*
%TO.C,C1*%
X207097333Y-59539142D02*
X207049714Y-59586761D01*
X206906857Y-59634380D01*
X206811619Y-59634380D01*
X206668761Y-59586761D01*
X206573523Y-59491523D01*
X206525904Y-59396285D01*
X206478285Y-59205809D01*
X206478285Y-59062952D01*
X206525904Y-58872476D01*
X206573523Y-58777238D01*
X206668761Y-58682000D01*
X206811619Y-58634380D01*
X206906857Y-58634380D01*
X207049714Y-58682000D01*
X207097333Y-58729619D01*
X208049714Y-59634380D02*
X207478285Y-59634380D01*
X207764000Y-59634380D02*
X207764000Y-58634380D01*
X207668761Y-58777238D01*
X207573523Y-58872476D01*
X207478285Y-58920095D01*
%TO.C,C4*%
X207351333Y-74271142D02*
X207303714Y-74318761D01*
X207160857Y-74366380D01*
X207065619Y-74366380D01*
X206922761Y-74318761D01*
X206827523Y-74223523D01*
X206779904Y-74128285D01*
X206732285Y-73937809D01*
X206732285Y-73794952D01*
X206779904Y-73604476D01*
X206827523Y-73509238D01*
X206922761Y-73414000D01*
X207065619Y-73366380D01*
X207160857Y-73366380D01*
X207303714Y-73414000D01*
X207351333Y-73461619D01*
X208208476Y-73699714D02*
X208208476Y-74366380D01*
X207970380Y-73318761D02*
X207732285Y-74033047D01*
X208351333Y-74033047D01*
%TO.C,C13*%
X192509142Y-36202857D02*
X192556761Y-36250476D01*
X192604380Y-36393333D01*
X192604380Y-36488571D01*
X192556761Y-36631428D01*
X192461523Y-36726666D01*
X192366285Y-36774285D01*
X192175809Y-36821904D01*
X192032952Y-36821904D01*
X191842476Y-36774285D01*
X191747238Y-36726666D01*
X191652000Y-36631428D01*
X191604380Y-36488571D01*
X191604380Y-36393333D01*
X191652000Y-36250476D01*
X191699619Y-36202857D01*
X192604380Y-35250476D02*
X192604380Y-35821904D01*
X192604380Y-35536190D02*
X191604380Y-35536190D01*
X191747238Y-35631428D01*
X191842476Y-35726666D01*
X191890095Y-35821904D01*
X191604380Y-34917142D02*
X191604380Y-34298095D01*
X191985333Y-34631428D01*
X191985333Y-34488571D01*
X192032952Y-34393333D01*
X192080571Y-34345714D01*
X192175809Y-34298095D01*
X192413904Y-34298095D01*
X192509142Y-34345714D01*
X192556761Y-34393333D01*
X192604380Y-34488571D01*
X192604380Y-34774285D01*
X192556761Y-34869523D01*
X192509142Y-34917142D01*
%TO.C,C14*%
X221099142Y-79859142D02*
X221051523Y-79906761D01*
X220908666Y-79954380D01*
X220813428Y-79954380D01*
X220670571Y-79906761D01*
X220575333Y-79811523D01*
X220527714Y-79716285D01*
X220480095Y-79525809D01*
X220480095Y-79382952D01*
X220527714Y-79192476D01*
X220575333Y-79097238D01*
X220670571Y-79002000D01*
X220813428Y-78954380D01*
X220908666Y-78954380D01*
X221051523Y-79002000D01*
X221099142Y-79049619D01*
X222051523Y-79954380D02*
X221480095Y-79954380D01*
X221765809Y-79954380D02*
X221765809Y-78954380D01*
X221670571Y-79097238D01*
X221575333Y-79192476D01*
X221480095Y-79240095D01*
X222908666Y-79287714D02*
X222908666Y-79954380D01*
X222670571Y-78906761D02*
X222432476Y-79621047D01*
X223051523Y-79621047D01*
%TO.C,D6*%
X183967380Y-75541095D02*
X182967380Y-75541095D01*
X182967380Y-75303000D01*
X183015000Y-75160142D01*
X183110238Y-75064904D01*
X183205476Y-75017285D01*
X183395952Y-74969666D01*
X183538809Y-74969666D01*
X183729285Y-75017285D01*
X183824523Y-75064904D01*
X183919761Y-75160142D01*
X183967380Y-75303000D01*
X183967380Y-75541095D01*
X182967380Y-74112523D02*
X182967380Y-74303000D01*
X183015000Y-74398238D01*
X183062619Y-74445857D01*
X183205476Y-74541095D01*
X183395952Y-74588714D01*
X183776904Y-74588714D01*
X183872142Y-74541095D01*
X183919761Y-74493476D01*
X183967380Y-74398238D01*
X183967380Y-74207761D01*
X183919761Y-74112523D01*
X183872142Y-74064904D01*
X183776904Y-74017285D01*
X183538809Y-74017285D01*
X183443571Y-74064904D01*
X183395952Y-74112523D01*
X183348333Y-74207761D01*
X183348333Y-74398238D01*
X183395952Y-74493476D01*
X183443571Y-74541095D01*
X183538809Y-74588714D01*
%TO.C,D1*%
X222273904Y-38298380D02*
X222273904Y-37298380D01*
X222512000Y-37298380D01*
X222654857Y-37346000D01*
X222750095Y-37441238D01*
X222797714Y-37536476D01*
X222845333Y-37726952D01*
X222845333Y-37869809D01*
X222797714Y-38060285D01*
X222750095Y-38155523D01*
X222654857Y-38250761D01*
X222512000Y-38298380D01*
X222273904Y-38298380D01*
X223797714Y-38298380D02*
X223226285Y-38298380D01*
X223512000Y-38298380D02*
X223512000Y-37298380D01*
X223416761Y-37441238D01*
X223321523Y-37536476D01*
X223226285Y-37584095D01*
%TO.C,R1*%
X229814380Y-53760666D02*
X229338190Y-54094000D01*
X229814380Y-54332095D02*
X228814380Y-54332095D01*
X228814380Y-53951142D01*
X228862000Y-53855904D01*
X228909619Y-53808285D01*
X229004857Y-53760666D01*
X229147714Y-53760666D01*
X229242952Y-53808285D01*
X229290571Y-53855904D01*
X229338190Y-53951142D01*
X229338190Y-54332095D01*
X229814380Y-52808285D02*
X229814380Y-53379714D01*
X229814380Y-53094000D02*
X228814380Y-53094000D01*
X228957238Y-53189238D01*
X229052476Y-53284476D01*
X229100095Y-53379714D01*
%TO.C,R4*%
X213955333Y-64460380D02*
X213622000Y-63984190D01*
X213383904Y-64460380D02*
X213383904Y-63460380D01*
X213764857Y-63460380D01*
X213860095Y-63508000D01*
X213907714Y-63555619D01*
X213955333Y-63650857D01*
X213955333Y-63793714D01*
X213907714Y-63888952D01*
X213860095Y-63936571D01*
X213764857Y-63984190D01*
X213383904Y-63984190D01*
X214812476Y-63793714D02*
X214812476Y-64460380D01*
X214574380Y-63412761D02*
X214336285Y-64127047D01*
X214955333Y-64127047D01*
%TO.C,R13*%
X217240380Y-39250857D02*
X216764190Y-39584190D01*
X217240380Y-39822285D02*
X216240380Y-39822285D01*
X216240380Y-39441333D01*
X216288000Y-39346095D01*
X216335619Y-39298476D01*
X216430857Y-39250857D01*
X216573714Y-39250857D01*
X216668952Y-39298476D01*
X216716571Y-39346095D01*
X216764190Y-39441333D01*
X216764190Y-39822285D01*
X217240380Y-38298476D02*
X217240380Y-38869904D01*
X217240380Y-38584190D02*
X216240380Y-38584190D01*
X216383238Y-38679428D01*
X216478476Y-38774666D01*
X216526095Y-38869904D01*
X216240380Y-37965142D02*
X216240380Y-37346095D01*
X216621333Y-37679428D01*
X216621333Y-37536571D01*
X216668952Y-37441333D01*
X216716571Y-37393714D01*
X216811809Y-37346095D01*
X217049904Y-37346095D01*
X217145142Y-37393714D01*
X217192761Y-37441333D01*
X217240380Y-37536571D01*
X217240380Y-37822285D01*
X217192761Y-37917523D01*
X217145142Y-37965142D01*
%TO.C,R7*%
X216749333Y-76144380D02*
X216416000Y-75668190D01*
X216177904Y-76144380D02*
X216177904Y-75144380D01*
X216558857Y-75144380D01*
X216654095Y-75192000D01*
X216701714Y-75239619D01*
X216749333Y-75334857D01*
X216749333Y-75477714D01*
X216701714Y-75572952D01*
X216654095Y-75620571D01*
X216558857Y-75668190D01*
X216177904Y-75668190D01*
X217082666Y-75144380D02*
X217749333Y-75144380D01*
X217320761Y-76144380D01*
%TO.C,J6*%
X245832380Y-69421333D02*
X246546666Y-69421333D01*
X246689523Y-69468952D01*
X246784761Y-69564190D01*
X246832380Y-69707047D01*
X246832380Y-69802285D01*
X245832380Y-68516571D02*
X245832380Y-68707047D01*
X245880000Y-68802285D01*
X245927619Y-68849904D01*
X246070476Y-68945142D01*
X246260952Y-68992761D01*
X246641904Y-68992761D01*
X246737142Y-68945142D01*
X246784761Y-68897523D01*
X246832380Y-68802285D01*
X246832380Y-68611809D01*
X246784761Y-68516571D01*
X246737142Y-68468952D01*
X246641904Y-68421333D01*
X246403809Y-68421333D01*
X246308571Y-68468952D01*
X246260952Y-68516571D01*
X246213333Y-68611809D01*
X246213333Y-68802285D01*
X246260952Y-68897523D01*
X246308571Y-68945142D01*
X246403809Y-68992761D01*
%TO.C,D11*%
X208843714Y-54808380D02*
X208843714Y-53808380D01*
X209081809Y-53808380D01*
X209224666Y-53856000D01*
X209319904Y-53951238D01*
X209367523Y-54046476D01*
X209415142Y-54236952D01*
X209415142Y-54379809D01*
X209367523Y-54570285D01*
X209319904Y-54665523D01*
X209224666Y-54760761D01*
X209081809Y-54808380D01*
X208843714Y-54808380D01*
X210367523Y-54808380D02*
X209796095Y-54808380D01*
X210081809Y-54808380D02*
X210081809Y-53808380D01*
X209986571Y-53951238D01*
X209891333Y-54046476D01*
X209796095Y-54094095D01*
X211319904Y-54808380D02*
X210748476Y-54808380D01*
X211034190Y-54808380D02*
X211034190Y-53808380D01*
X210938952Y-53951238D01*
X210843714Y-54046476D01*
X210748476Y-54094095D01*
%TO.C,R2*%
X213955333Y-67000380D02*
X213622000Y-66524190D01*
X213383904Y-67000380D02*
X213383904Y-66000380D01*
X213764857Y-66000380D01*
X213860095Y-66048000D01*
X213907714Y-66095619D01*
X213955333Y-66190857D01*
X213955333Y-66333714D01*
X213907714Y-66428952D01*
X213860095Y-66476571D01*
X213764857Y-66524190D01*
X213383904Y-66524190D01*
X214336285Y-66095619D02*
X214383904Y-66048000D01*
X214479142Y-66000380D01*
X214717238Y-66000380D01*
X214812476Y-66048000D01*
X214860095Y-66095619D01*
X214907714Y-66190857D01*
X214907714Y-66286095D01*
X214860095Y-66428952D01*
X214288666Y-67000380D01*
X214907714Y-67000380D01*
%TO.C,R6*%
X213447333Y-84272380D02*
X213114000Y-83796190D01*
X212875904Y-84272380D02*
X212875904Y-83272380D01*
X213256857Y-83272380D01*
X213352095Y-83320000D01*
X213399714Y-83367619D01*
X213447333Y-83462857D01*
X213447333Y-83605714D01*
X213399714Y-83700952D01*
X213352095Y-83748571D01*
X213256857Y-83796190D01*
X212875904Y-83796190D01*
X214304476Y-83272380D02*
X214114000Y-83272380D01*
X214018761Y-83320000D01*
X213971142Y-83367619D01*
X213875904Y-83510476D01*
X213828285Y-83700952D01*
X213828285Y-84081904D01*
X213875904Y-84177142D01*
X213923523Y-84224761D01*
X214018761Y-84272380D01*
X214209238Y-84272380D01*
X214304476Y-84224761D01*
X214352095Y-84177142D01*
X214399714Y-84081904D01*
X214399714Y-83843809D01*
X214352095Y-83748571D01*
X214304476Y-83700952D01*
X214209238Y-83653333D01*
X214018761Y-83653333D01*
X213923523Y-83700952D01*
X213875904Y-83748571D01*
X213828285Y-83843809D01*
%TO.C,R9*%
X191095333Y-74620380D02*
X190762000Y-74144190D01*
X190523904Y-74620380D02*
X190523904Y-73620380D01*
X190904857Y-73620380D01*
X191000095Y-73668000D01*
X191047714Y-73715619D01*
X191095333Y-73810857D01*
X191095333Y-73953714D01*
X191047714Y-74048952D01*
X191000095Y-74096571D01*
X190904857Y-74144190D01*
X190523904Y-74144190D01*
X191571523Y-74620380D02*
X191762000Y-74620380D01*
X191857238Y-74572761D01*
X191904857Y-74525142D01*
X192000095Y-74382285D01*
X192047714Y-74191809D01*
X192047714Y-73810857D01*
X192000095Y-73715619D01*
X191952476Y-73668000D01*
X191857238Y-73620380D01*
X191666761Y-73620380D01*
X191571523Y-73668000D01*
X191523904Y-73715619D01*
X191476285Y-73810857D01*
X191476285Y-74048952D01*
X191523904Y-74144190D01*
X191571523Y-74191809D01*
X191666761Y-74239428D01*
X191857238Y-74239428D01*
X191952476Y-74191809D01*
X192000095Y-74144190D01*
X192047714Y-74048952D01*
%TO.C,R12*%
X190873142Y-76906380D02*
X190539809Y-76430190D01*
X190301714Y-76906380D02*
X190301714Y-75906380D01*
X190682666Y-75906380D01*
X190777904Y-75954000D01*
X190825523Y-76001619D01*
X190873142Y-76096857D01*
X190873142Y-76239714D01*
X190825523Y-76334952D01*
X190777904Y-76382571D01*
X190682666Y-76430190D01*
X190301714Y-76430190D01*
X191825523Y-76906380D02*
X191254095Y-76906380D01*
X191539809Y-76906380D02*
X191539809Y-75906380D01*
X191444571Y-76049238D01*
X191349333Y-76144476D01*
X191254095Y-76192095D01*
X192206476Y-76001619D02*
X192254095Y-75954000D01*
X192349333Y-75906380D01*
X192587428Y-75906380D01*
X192682666Y-75954000D01*
X192730285Y-76001619D01*
X192777904Y-76096857D01*
X192777904Y-76192095D01*
X192730285Y-76334952D01*
X192158857Y-76906380D01*
X192777904Y-76906380D01*
%TO.C,U2*%
X230084380Y-38861904D02*
X230893904Y-38861904D01*
X230989142Y-38814285D01*
X231036761Y-38766666D01*
X231084380Y-38671428D01*
X231084380Y-38480952D01*
X231036761Y-38385714D01*
X230989142Y-38338095D01*
X230893904Y-38290476D01*
X230084380Y-38290476D01*
X230179619Y-37861904D02*
X230132000Y-37814285D01*
X230084380Y-37719047D01*
X230084380Y-37480952D01*
X230132000Y-37385714D01*
X230179619Y-37338095D01*
X230274857Y-37290476D01*
X230370095Y-37290476D01*
X230512952Y-37338095D01*
X231084380Y-37909523D01*
X231084380Y-37290476D01*
%TO.C,U6*%
X241552380Y-64261904D02*
X242361904Y-64261904D01*
X242457142Y-64214285D01*
X242504761Y-64166666D01*
X242552380Y-64071428D01*
X242552380Y-63880952D01*
X242504761Y-63785714D01*
X242457142Y-63738095D01*
X242361904Y-63690476D01*
X241552380Y-63690476D01*
X241552380Y-62785714D02*
X241552380Y-62976190D01*
X241600000Y-63071428D01*
X241647619Y-63119047D01*
X241790476Y-63214285D01*
X241980952Y-63261904D01*
X242361904Y-63261904D01*
X242457142Y-63214285D01*
X242504761Y-63166666D01*
X242552380Y-63071428D01*
X242552380Y-62880952D01*
X242504761Y-62785714D01*
X242457142Y-62738095D01*
X242361904Y-62690476D01*
X242123809Y-62690476D01*
X242028571Y-62738095D01*
X241980952Y-62785714D01*
X241933333Y-62880952D01*
X241933333Y-63071428D01*
X241980952Y-63166666D01*
X242028571Y-63214285D01*
X242123809Y-63261904D01*
%TO.C,R33*%
X217280142Y-33472380D02*
X216946809Y-32996190D01*
X216708714Y-33472380D02*
X216708714Y-32472380D01*
X217089666Y-32472380D01*
X217184904Y-32520000D01*
X217232523Y-32567619D01*
X217280142Y-32662857D01*
X217280142Y-32805714D01*
X217232523Y-32900952D01*
X217184904Y-32948571D01*
X217089666Y-32996190D01*
X216708714Y-32996190D01*
X217613476Y-32472380D02*
X218232523Y-32472380D01*
X217899190Y-32853333D01*
X218042047Y-32853333D01*
X218137285Y-32900952D01*
X218184904Y-32948571D01*
X218232523Y-33043809D01*
X218232523Y-33281904D01*
X218184904Y-33377142D01*
X218137285Y-33424761D01*
X218042047Y-33472380D01*
X217756333Y-33472380D01*
X217661095Y-33424761D01*
X217613476Y-33377142D01*
X218565857Y-32472380D02*
X219184904Y-32472380D01*
X218851571Y-32853333D01*
X218994428Y-32853333D01*
X219089666Y-32900952D01*
X219137285Y-32948571D01*
X219184904Y-33043809D01*
X219184904Y-33281904D01*
X219137285Y-33377142D01*
X219089666Y-33424761D01*
X218994428Y-33472380D01*
X218708714Y-33472380D01*
X218613476Y-33424761D01*
X218565857Y-33377142D01*
%TO.C,C17*%
X174601142Y-62618857D02*
X174648761Y-62666476D01*
X174696380Y-62809333D01*
X174696380Y-62904571D01*
X174648761Y-63047428D01*
X174553523Y-63142666D01*
X174458285Y-63190285D01*
X174267809Y-63237904D01*
X174124952Y-63237904D01*
X173934476Y-63190285D01*
X173839238Y-63142666D01*
X173744000Y-63047428D01*
X173696380Y-62904571D01*
X173696380Y-62809333D01*
X173744000Y-62666476D01*
X173791619Y-62618857D01*
X174696380Y-61666476D02*
X174696380Y-62237904D01*
X174696380Y-61952190D02*
X173696380Y-61952190D01*
X173839238Y-62047428D01*
X173934476Y-62142666D01*
X173982095Y-62237904D01*
X173696380Y-61333142D02*
X173696380Y-60666476D01*
X174696380Y-61095047D01*
%TO.C,U4*%
X215098380Y-42671904D02*
X215907904Y-42671904D01*
X216003142Y-42624285D01*
X216050761Y-42576666D01*
X216098380Y-42481428D01*
X216098380Y-42290952D01*
X216050761Y-42195714D01*
X216003142Y-42148095D01*
X215907904Y-42100476D01*
X215098380Y-42100476D01*
X215431714Y-41195714D02*
X216098380Y-41195714D01*
X215050761Y-41433809D02*
X215765047Y-41671904D01*
X215765047Y-41052857D01*
%TO.C,TP1*%
X180348095Y-28916380D02*
X180919523Y-28916380D01*
X180633809Y-29916380D02*
X180633809Y-28916380D01*
X181252857Y-29916380D02*
X181252857Y-28916380D01*
X181633809Y-28916380D01*
X181729047Y-28964000D01*
X181776666Y-29011619D01*
X181824285Y-29106857D01*
X181824285Y-29249714D01*
X181776666Y-29344952D01*
X181729047Y-29392571D01*
X181633809Y-29440190D01*
X181252857Y-29440190D01*
X182776666Y-29916380D02*
X182205238Y-29916380D01*
X182490952Y-29916380D02*
X182490952Y-28916380D01*
X182395714Y-29059238D01*
X182300476Y-29154476D01*
X182205238Y-29202095D01*
%TO.C,U8*%
X221194380Y-56641904D02*
X222003904Y-56641904D01*
X222099142Y-56594285D01*
X222146761Y-56546666D01*
X222194380Y-56451428D01*
X222194380Y-56260952D01*
X222146761Y-56165714D01*
X222099142Y-56118095D01*
X222003904Y-56070476D01*
X221194380Y-56070476D01*
X221622952Y-55451428D02*
X221575333Y-55546666D01*
X221527714Y-55594285D01*
X221432476Y-55641904D01*
X221384857Y-55641904D01*
X221289619Y-55594285D01*
X221242000Y-55546666D01*
X221194380Y-55451428D01*
X221194380Y-55260952D01*
X221242000Y-55165714D01*
X221289619Y-55118095D01*
X221384857Y-55070476D01*
X221432476Y-55070476D01*
X221527714Y-55118095D01*
X221575333Y-55165714D01*
X221622952Y-55260952D01*
X221622952Y-55451428D01*
X221670571Y-55546666D01*
X221718190Y-55594285D01*
X221813428Y-55641904D01*
X222003904Y-55641904D01*
X222099142Y-55594285D01*
X222146761Y-55546666D01*
X222194380Y-55451428D01*
X222194380Y-55260952D01*
X222146761Y-55165714D01*
X222099142Y-55118095D01*
X222003904Y-55070476D01*
X221813428Y-55070476D01*
X221718190Y-55118095D01*
X221670571Y-55165714D01*
X221622952Y-55260952D01*
%TO.C,TP2*%
X174252095Y-28916380D02*
X174823523Y-28916380D01*
X174537809Y-29916380D02*
X174537809Y-28916380D01*
X175156857Y-29916380D02*
X175156857Y-28916380D01*
X175537809Y-28916380D01*
X175633047Y-28964000D01*
X175680666Y-29011619D01*
X175728285Y-29106857D01*
X175728285Y-29249714D01*
X175680666Y-29344952D01*
X175633047Y-29392571D01*
X175537809Y-29440190D01*
X175156857Y-29440190D01*
X176109238Y-29011619D02*
X176156857Y-28964000D01*
X176252095Y-28916380D01*
X176490190Y-28916380D01*
X176585428Y-28964000D01*
X176633047Y-29011619D01*
X176680666Y-29106857D01*
X176680666Y-29202095D01*
X176633047Y-29344952D01*
X176061619Y-29916380D01*
X176680666Y-29916380D01*
%TO.C,TP3*%
X180348095Y-34504380D02*
X180919523Y-34504380D01*
X180633809Y-35504380D02*
X180633809Y-34504380D01*
X181252857Y-35504380D02*
X181252857Y-34504380D01*
X181633809Y-34504380D01*
X181729047Y-34552000D01*
X181776666Y-34599619D01*
X181824285Y-34694857D01*
X181824285Y-34837714D01*
X181776666Y-34932952D01*
X181729047Y-34980571D01*
X181633809Y-35028190D01*
X181252857Y-35028190D01*
X182157619Y-34504380D02*
X182776666Y-34504380D01*
X182443333Y-34885333D01*
X182586190Y-34885333D01*
X182681428Y-34932952D01*
X182729047Y-34980571D01*
X182776666Y-35075809D01*
X182776666Y-35313904D01*
X182729047Y-35409142D01*
X182681428Y-35456761D01*
X182586190Y-35504380D01*
X182300476Y-35504380D01*
X182205238Y-35456761D01*
X182157619Y-35409142D01*
%TO.C,U7*%
X241806380Y-77977904D02*
X242615904Y-77977904D01*
X242711142Y-77930285D01*
X242758761Y-77882666D01*
X242806380Y-77787428D01*
X242806380Y-77596952D01*
X242758761Y-77501714D01*
X242711142Y-77454095D01*
X242615904Y-77406476D01*
X241806380Y-77406476D01*
X241806380Y-77025523D02*
X241806380Y-76358857D01*
X242806380Y-76787428D01*
%TO.C,U5*%
X192040380Y-42671904D02*
X192849904Y-42671904D01*
X192945142Y-42624285D01*
X192992761Y-42576666D01*
X193040380Y-42481428D01*
X193040380Y-42290952D01*
X192992761Y-42195714D01*
X192945142Y-42148095D01*
X192849904Y-42100476D01*
X192040380Y-42100476D01*
X192040380Y-41148095D02*
X192040380Y-41624285D01*
X192516571Y-41671904D01*
X192468952Y-41624285D01*
X192421333Y-41529047D01*
X192421333Y-41290952D01*
X192468952Y-41195714D01*
X192516571Y-41148095D01*
X192611809Y-41100476D01*
X192849904Y-41100476D01*
X192945142Y-41148095D01*
X192992761Y-41195714D01*
X193040380Y-41290952D01*
X193040380Y-41529047D01*
X192992761Y-41624285D01*
X192945142Y-41671904D01*
%TO.C,U9*%
X220940380Y-73913904D02*
X221749904Y-73913904D01*
X221845142Y-73866285D01*
X221892761Y-73818666D01*
X221940380Y-73723428D01*
X221940380Y-73532952D01*
X221892761Y-73437714D01*
X221845142Y-73390095D01*
X221749904Y-73342476D01*
X220940380Y-73342476D01*
X221940380Y-72818666D02*
X221940380Y-72628190D01*
X221892761Y-72532952D01*
X221845142Y-72485333D01*
X221702285Y-72390095D01*
X221511809Y-72342476D01*
X221130857Y-72342476D01*
X221035619Y-72390095D01*
X220988000Y-72437714D01*
X220940380Y-72532952D01*
X220940380Y-72723428D01*
X220988000Y-72818666D01*
X221035619Y-72866285D01*
X221130857Y-72913904D01*
X221368952Y-72913904D01*
X221464190Y-72866285D01*
X221511809Y-72818666D01*
X221559428Y-72723428D01*
X221559428Y-72532952D01*
X221511809Y-72437714D01*
X221464190Y-72390095D01*
X221368952Y-72342476D01*
%TO.C,D8*%
X212621904Y-71826380D02*
X212621904Y-70826380D01*
X212860000Y-70826380D01*
X213002857Y-70874000D01*
X213098095Y-70969238D01*
X213145714Y-71064476D01*
X213193333Y-71254952D01*
X213193333Y-71397809D01*
X213145714Y-71588285D01*
X213098095Y-71683523D01*
X213002857Y-71778761D01*
X212860000Y-71826380D01*
X212621904Y-71826380D01*
X213764761Y-71254952D02*
X213669523Y-71207333D01*
X213621904Y-71159714D01*
X213574285Y-71064476D01*
X213574285Y-71016857D01*
X213621904Y-70921619D01*
X213669523Y-70874000D01*
X213764761Y-70826380D01*
X213955238Y-70826380D01*
X214050476Y-70874000D01*
X214098095Y-70921619D01*
X214145714Y-71016857D01*
X214145714Y-71064476D01*
X214098095Y-71159714D01*
X214050476Y-71207333D01*
X213955238Y-71254952D01*
X213764761Y-71254952D01*
X213669523Y-71302571D01*
X213621904Y-71350190D01*
X213574285Y-71445428D01*
X213574285Y-71635904D01*
X213621904Y-71731142D01*
X213669523Y-71778761D01*
X213764761Y-71826380D01*
X213955238Y-71826380D01*
X214050476Y-71778761D01*
X214098095Y-71731142D01*
X214145714Y-71635904D01*
X214145714Y-71445428D01*
X214098095Y-71350190D01*
X214050476Y-71302571D01*
X213955238Y-71254952D01*
%TO.C,D10*%
X205033714Y-69032380D02*
X205033714Y-68032380D01*
X205271809Y-68032380D01*
X205414666Y-68080000D01*
X205509904Y-68175238D01*
X205557523Y-68270476D01*
X205605142Y-68460952D01*
X205605142Y-68603809D01*
X205557523Y-68794285D01*
X205509904Y-68889523D01*
X205414666Y-68984761D01*
X205271809Y-69032380D01*
X205033714Y-69032380D01*
X206557523Y-69032380D02*
X205986095Y-69032380D01*
X206271809Y-69032380D02*
X206271809Y-68032380D01*
X206176571Y-68175238D01*
X206081333Y-68270476D01*
X205986095Y-68318095D01*
X207176571Y-68032380D02*
X207271809Y-68032380D01*
X207367047Y-68080000D01*
X207414666Y-68127619D01*
X207462285Y-68222857D01*
X207509904Y-68413333D01*
X207509904Y-68651428D01*
X207462285Y-68841904D01*
X207414666Y-68937142D01*
X207367047Y-68984761D01*
X207271809Y-69032380D01*
X207176571Y-69032380D01*
X207081333Y-68984761D01*
X207033714Y-68937142D01*
X206986095Y-68841904D01*
X206938476Y-68651428D01*
X206938476Y-68413333D01*
X206986095Y-68222857D01*
X207033714Y-68127619D01*
X207081333Y-68080000D01*
X207176571Y-68032380D01*
%TO.C,U3*%
X197064380Y-71881904D02*
X197873904Y-71881904D01*
X197969142Y-71834285D01*
X198016761Y-71786666D01*
X198064380Y-71691428D01*
X198064380Y-71500952D01*
X198016761Y-71405714D01*
X197969142Y-71358095D01*
X197873904Y-71310476D01*
X197064380Y-71310476D01*
X197064380Y-70929523D02*
X197064380Y-70310476D01*
X197445333Y-70643809D01*
X197445333Y-70500952D01*
X197492952Y-70405714D01*
X197540571Y-70358095D01*
X197635809Y-70310476D01*
X197873904Y-70310476D01*
X197969142Y-70358095D01*
X198016761Y-70405714D01*
X198064380Y-70500952D01*
X198064380Y-70786666D01*
X198016761Y-70881904D01*
X197969142Y-70929523D01*
%TO.C,R32*%
X173347142Y-60142380D02*
X173013809Y-59666190D01*
X172775714Y-60142380D02*
X172775714Y-59142380D01*
X173156666Y-59142380D01*
X173251904Y-59190000D01*
X173299523Y-59237619D01*
X173347142Y-59332857D01*
X173347142Y-59475714D01*
X173299523Y-59570952D01*
X173251904Y-59618571D01*
X173156666Y-59666190D01*
X172775714Y-59666190D01*
X173680476Y-59142380D02*
X174299523Y-59142380D01*
X173966190Y-59523333D01*
X174109047Y-59523333D01*
X174204285Y-59570952D01*
X174251904Y-59618571D01*
X174299523Y-59713809D01*
X174299523Y-59951904D01*
X174251904Y-60047142D01*
X174204285Y-60094761D01*
X174109047Y-60142380D01*
X173823333Y-60142380D01*
X173728095Y-60094761D01*
X173680476Y-60047142D01*
X174680476Y-59237619D02*
X174728095Y-59190000D01*
X174823333Y-59142380D01*
X175061428Y-59142380D01*
X175156666Y-59190000D01*
X175204285Y-59237619D01*
X175251904Y-59332857D01*
X175251904Y-59428095D01*
X175204285Y-59570952D01*
X174632857Y-60142380D01*
X175251904Y-60142380D01*
%TO.C,R34*%
X212971142Y-33472380D02*
X212637809Y-32996190D01*
X212399714Y-33472380D02*
X212399714Y-32472380D01*
X212780666Y-32472380D01*
X212875904Y-32520000D01*
X212923523Y-32567619D01*
X212971142Y-32662857D01*
X212971142Y-32805714D01*
X212923523Y-32900952D01*
X212875904Y-32948571D01*
X212780666Y-32996190D01*
X212399714Y-32996190D01*
X213304476Y-32472380D02*
X213923523Y-32472380D01*
X213590190Y-32853333D01*
X213733047Y-32853333D01*
X213828285Y-32900952D01*
X213875904Y-32948571D01*
X213923523Y-33043809D01*
X213923523Y-33281904D01*
X213875904Y-33377142D01*
X213828285Y-33424761D01*
X213733047Y-33472380D01*
X213447333Y-33472380D01*
X213352095Y-33424761D01*
X213304476Y-33377142D01*
X214780666Y-32805714D02*
X214780666Y-33472380D01*
X214542571Y-32424761D02*
X214304476Y-33139047D01*
X214923523Y-33139047D01*
%TO.C,D7*%
X226591904Y-42235380D02*
X226591904Y-41235380D01*
X226830000Y-41235380D01*
X226972857Y-41283000D01*
X227068095Y-41378238D01*
X227115714Y-41473476D01*
X227163333Y-41663952D01*
X227163333Y-41806809D01*
X227115714Y-41997285D01*
X227068095Y-42092523D01*
X226972857Y-42187761D01*
X226830000Y-42235380D01*
X226591904Y-42235380D01*
X227496666Y-41235380D02*
X228163333Y-41235380D01*
X227734761Y-42235380D01*
%TO.C,C10*%
X205351142Y-36425142D02*
X205303523Y-36472761D01*
X205160666Y-36520380D01*
X205065428Y-36520380D01*
X204922571Y-36472761D01*
X204827333Y-36377523D01*
X204779714Y-36282285D01*
X204732095Y-36091809D01*
X204732095Y-35948952D01*
X204779714Y-35758476D01*
X204827333Y-35663238D01*
X204922571Y-35568000D01*
X205065428Y-35520380D01*
X205160666Y-35520380D01*
X205303523Y-35568000D01*
X205351142Y-35615619D01*
X206303523Y-36520380D02*
X205732095Y-36520380D01*
X206017809Y-36520380D02*
X206017809Y-35520380D01*
X205922571Y-35663238D01*
X205827333Y-35758476D01*
X205732095Y-35806095D01*
X206922571Y-35520380D02*
X207017809Y-35520380D01*
X207113047Y-35568000D01*
X207160666Y-35615619D01*
X207208285Y-35710857D01*
X207255904Y-35901333D01*
X207255904Y-36139428D01*
X207208285Y-36329904D01*
X207160666Y-36425142D01*
X207113047Y-36472761D01*
X207017809Y-36520380D01*
X206922571Y-36520380D01*
X206827333Y-36472761D01*
X206779714Y-36425142D01*
X206732095Y-36329904D01*
X206684476Y-36139428D01*
X206684476Y-35901333D01*
X206732095Y-35710857D01*
X206779714Y-35615619D01*
X206827333Y-35568000D01*
X206922571Y-35520380D01*
%TO.C,C12*%
X194159142Y-48648857D02*
X194206761Y-48696476D01*
X194254380Y-48839333D01*
X194254380Y-48934571D01*
X194206761Y-49077428D01*
X194111523Y-49172666D01*
X194016285Y-49220285D01*
X193825809Y-49267904D01*
X193682952Y-49267904D01*
X193492476Y-49220285D01*
X193397238Y-49172666D01*
X193302000Y-49077428D01*
X193254380Y-48934571D01*
X193254380Y-48839333D01*
X193302000Y-48696476D01*
X193349619Y-48648857D01*
X194254380Y-47696476D02*
X194254380Y-48267904D01*
X194254380Y-47982190D02*
X193254380Y-47982190D01*
X193397238Y-48077428D01*
X193492476Y-48172666D01*
X193540095Y-48267904D01*
X193349619Y-47315523D02*
X193302000Y-47267904D01*
X193254380Y-47172666D01*
X193254380Y-46934571D01*
X193302000Y-46839333D01*
X193349619Y-46791714D01*
X193444857Y-46744095D01*
X193540095Y-46744095D01*
X193682952Y-46791714D01*
X194254380Y-47363142D01*
X194254380Y-46744095D01*
%TO.C,TP4*%
X181618095Y-40346380D02*
X182189523Y-40346380D01*
X181903809Y-41346380D02*
X181903809Y-40346380D01*
X182522857Y-41346380D02*
X182522857Y-40346380D01*
X182903809Y-40346380D01*
X182999047Y-40394000D01*
X183046666Y-40441619D01*
X183094285Y-40536857D01*
X183094285Y-40679714D01*
X183046666Y-40774952D01*
X182999047Y-40822571D01*
X182903809Y-40870190D01*
X182522857Y-40870190D01*
X183951428Y-40679714D02*
X183951428Y-41346380D01*
X183713333Y-40298761D02*
X183475238Y-41013047D01*
X184094285Y-41013047D01*
%TO.C,SW1*%
X178204761Y-73469333D02*
X178252380Y-73326476D01*
X178252380Y-73088380D01*
X178204761Y-72993142D01*
X178157142Y-72945523D01*
X178061904Y-72897904D01*
X177966666Y-72897904D01*
X177871428Y-72945523D01*
X177823809Y-72993142D01*
X177776190Y-73088380D01*
X177728571Y-73278857D01*
X177680952Y-73374095D01*
X177633333Y-73421714D01*
X177538095Y-73469333D01*
X177442857Y-73469333D01*
X177347619Y-73421714D01*
X177300000Y-73374095D01*
X177252380Y-73278857D01*
X177252380Y-73040761D01*
X177300000Y-72897904D01*
X177252380Y-72564571D02*
X178252380Y-72326476D01*
X177538095Y-72136000D01*
X178252380Y-71945523D01*
X177252380Y-71707428D01*
X178252380Y-70802666D02*
X178252380Y-71374095D01*
X178252380Y-71088380D02*
X177252380Y-71088380D01*
X177395238Y-71183619D01*
X177490476Y-71278857D01*
X177538095Y-71374095D01*
%TO.C,C2*%
X207351333Y-66397142D02*
X207303714Y-66444761D01*
X207160857Y-66492380D01*
X207065619Y-66492380D01*
X206922761Y-66444761D01*
X206827523Y-66349523D01*
X206779904Y-66254285D01*
X206732285Y-66063809D01*
X206732285Y-65920952D01*
X206779904Y-65730476D01*
X206827523Y-65635238D01*
X206922761Y-65540000D01*
X207065619Y-65492380D01*
X207160857Y-65492380D01*
X207303714Y-65540000D01*
X207351333Y-65587619D01*
X207732285Y-65587619D02*
X207779904Y-65540000D01*
X207875142Y-65492380D01*
X208113238Y-65492380D01*
X208208476Y-65540000D01*
X208256095Y-65587619D01*
X208303714Y-65682857D01*
X208303714Y-65778095D01*
X208256095Y-65920952D01*
X207684666Y-66492380D01*
X208303714Y-66492380D01*
%TO.C,C11*%
X222369142Y-64111142D02*
X222321523Y-64158761D01*
X222178666Y-64206380D01*
X222083428Y-64206380D01*
X221940571Y-64158761D01*
X221845333Y-64063523D01*
X221797714Y-63968285D01*
X221750095Y-63777809D01*
X221750095Y-63634952D01*
X221797714Y-63444476D01*
X221845333Y-63349238D01*
X221940571Y-63254000D01*
X222083428Y-63206380D01*
X222178666Y-63206380D01*
X222321523Y-63254000D01*
X222369142Y-63301619D01*
X223321523Y-64206380D02*
X222750095Y-64206380D01*
X223035809Y-64206380D02*
X223035809Y-63206380D01*
X222940571Y-63349238D01*
X222845333Y-63444476D01*
X222750095Y-63492095D01*
X224273904Y-64206380D02*
X223702476Y-64206380D01*
X223988190Y-64206380D02*
X223988190Y-63206380D01*
X223892952Y-63349238D01*
X223797714Y-63444476D01*
X223702476Y-63492095D01*
%TO.C,C5*%
X207605333Y-80875142D02*
X207557714Y-80922761D01*
X207414857Y-80970380D01*
X207319619Y-80970380D01*
X207176761Y-80922761D01*
X207081523Y-80827523D01*
X207033904Y-80732285D01*
X206986285Y-80541809D01*
X206986285Y-80398952D01*
X207033904Y-80208476D01*
X207081523Y-80113238D01*
X207176761Y-80018000D01*
X207319619Y-79970380D01*
X207414857Y-79970380D01*
X207557714Y-80018000D01*
X207605333Y-80065619D01*
X208510095Y-79970380D02*
X208033904Y-79970380D01*
X207986285Y-80446571D01*
X208033904Y-80398952D01*
X208129142Y-80351333D01*
X208367238Y-80351333D01*
X208462476Y-80398952D01*
X208510095Y-80446571D01*
X208557714Y-80541809D01*
X208557714Y-80779904D01*
X208510095Y-80875142D01*
X208462476Y-80922761D01*
X208367238Y-80970380D01*
X208129142Y-80970380D01*
X208033904Y-80922761D01*
X207986285Y-80875142D01*
%TD*%
M02*
