%TF.GenerationSoftware,KiCad,Pcbnew,(5.1.6)-1*%
%TF.CreationDate,2021-01-23T13:54:21+00:00*%
%TF.ProjectId,ninja_iron,6e696e6a-615f-4697-926f-6e2e6b696361,rev?*%
%TF.SameCoordinates,Original*%
%TF.FileFunction,Legend,Bot*%
%TF.FilePolarity,Positive*%
%FSLAX46Y46*%
G04 Gerber Fmt 4.6, Leading zero omitted, Abs format (unit mm)*
G04 Created by KiCad (PCBNEW (5.1.6)-1) date 2021-01-23 13:54:21*
%MOMM*%
%LPD*%
G01*
G04 APERTURE LIST*
%ADD10C,0.120000*%
%ADD11C,0.150000*%
G04 APERTURE END LIST*
D10*
%TO.C,Q2*%
X246790000Y-70700000D02*
X247890000Y-70700000D01*
X246790000Y-72510000D02*
X246790000Y-70700000D01*
X245290000Y-72510000D02*
X246790000Y-72510000D01*
X246790000Y-63920000D02*
X251915000Y-63920000D01*
X246790000Y-62110000D02*
X246790000Y-63920000D01*
X245290000Y-62110000D02*
X246790000Y-62110000D01*
%TO.C,Q1*%
X246790000Y-57492000D02*
X247890000Y-57492000D01*
X246790000Y-59302000D02*
X246790000Y-57492000D01*
X245290000Y-59302000D02*
X246790000Y-59302000D01*
X246790000Y-50712000D02*
X251915000Y-50712000D01*
X246790000Y-48902000D02*
X246790000Y-50712000D01*
X245290000Y-48902000D02*
X246790000Y-48902000D01*
%TO.C,Q2*%
D11*
X243935238Y-61207619D02*
X244030476Y-61160000D01*
X244125714Y-61064761D01*
X244268571Y-60921904D01*
X244363809Y-60874285D01*
X244459047Y-60874285D01*
X244411428Y-61112380D02*
X244506666Y-61064761D01*
X244601904Y-60969523D01*
X244649523Y-60779047D01*
X244649523Y-60445714D01*
X244601904Y-60255238D01*
X244506666Y-60160000D01*
X244411428Y-60112380D01*
X244220952Y-60112380D01*
X244125714Y-60160000D01*
X244030476Y-60255238D01*
X243982857Y-60445714D01*
X243982857Y-60779047D01*
X244030476Y-60969523D01*
X244125714Y-61064761D01*
X244220952Y-61112380D01*
X244411428Y-61112380D01*
X243601904Y-60207619D02*
X243554285Y-60160000D01*
X243459047Y-60112380D01*
X243220952Y-60112380D01*
X243125714Y-60160000D01*
X243078095Y-60207619D01*
X243030476Y-60302857D01*
X243030476Y-60398095D01*
X243078095Y-60540952D01*
X243649523Y-61112380D01*
X243030476Y-61112380D01*
%TO.C,Q1*%
X243935238Y-47999619D02*
X244030476Y-47952000D01*
X244125714Y-47856761D01*
X244268571Y-47713904D01*
X244363809Y-47666285D01*
X244459047Y-47666285D01*
X244411428Y-47904380D02*
X244506666Y-47856761D01*
X244601904Y-47761523D01*
X244649523Y-47571047D01*
X244649523Y-47237714D01*
X244601904Y-47047238D01*
X244506666Y-46952000D01*
X244411428Y-46904380D01*
X244220952Y-46904380D01*
X244125714Y-46952000D01*
X244030476Y-47047238D01*
X243982857Y-47237714D01*
X243982857Y-47571047D01*
X244030476Y-47761523D01*
X244125714Y-47856761D01*
X244220952Y-47904380D01*
X244411428Y-47904380D01*
X243030476Y-47904380D02*
X243601904Y-47904380D01*
X243316190Y-47904380D02*
X243316190Y-46904380D01*
X243411428Y-47047238D01*
X243506666Y-47142476D01*
X243601904Y-47190095D01*
%TD*%
M02*
