%TF.GenerationSoftware,KiCad,Pcbnew,(5.1.6)-1*%
%TF.CreationDate,2021-01-23T13:54:21+00:00*%
%TF.ProjectId,ninja_iron,6e696e6a-615f-4697-926f-6e2e6b696361,rev?*%
%TF.SameCoordinates,Original*%
%TF.FileFunction,Soldermask,Bot*%
%TF.FilePolarity,Negative*%
%FSLAX46Y46*%
G04 Gerber Fmt 4.6, Leading zero omitted, Abs format (unit mm)*
G04 Created by KiCad (PCBNEW (5.1.6)-1) date 2021-01-23 13:54:21*
%MOMM*%
%LPD*%
G01*
G04 APERTURE LIST*
%ADD10R,9.400000X10.800000*%
%ADD11R,4.600000X1.100000*%
%ADD12R,1.700000X1.700000*%
%ADD13C,3.048000*%
%ADD14R,3.500000X3.500000*%
%ADD15C,1.524000*%
%ADD16C,2.000000*%
%ADD17R,1.600000X2.400000*%
%ADD18O,1.600000X2.400000*%
%ADD19C,2.800000*%
%ADD20O,3.800000X3.000000*%
G04 APERTURE END LIST*
D10*
%TO.C,Q2*%
X240465000Y-67310000D03*
D11*
X249615000Y-69850000D03*
X249615000Y-64770000D03*
%TD*%
D10*
%TO.C,Q1*%
X240465000Y-54102000D03*
D11*
X249615000Y-56642000D03*
X249615000Y-51562000D03*
%TD*%
D12*
%TO.C,J3*%
X178308000Y-80518000D03*
%TD*%
D13*
%TO.C,iron*%
X259588000Y-49784000D03*
X255270000Y-49784000D03*
X259588000Y-58928000D03*
X255270000Y-58928000D03*
%TD*%
D14*
%TO.C,J4*%
X254254000Y-79852000D03*
G36*
G01*
X261754000Y-78852000D02*
X261754000Y-80852000D01*
G75*
G02*
X261004000Y-81602000I-750000J0D01*
G01*
X259504000Y-81602000D01*
G75*
G02*
X258754000Y-80852000I0J750000D01*
G01*
X258754000Y-78852000D01*
G75*
G02*
X259504000Y-78102000I750000J0D01*
G01*
X261004000Y-78102000D01*
G75*
G02*
X261754000Y-78852000I0J-750000D01*
G01*
G37*
G36*
G01*
X259004000Y-74277000D02*
X259004000Y-76027000D01*
G75*
G02*
X258129000Y-76902000I-875000J0D01*
G01*
X256379000Y-76902000D01*
G75*
G02*
X255504000Y-76027000I0J875000D01*
G01*
X255504000Y-74277000D01*
G75*
G02*
X256379000Y-73402000I875000J0D01*
G01*
X258129000Y-73402000D01*
G75*
G02*
X259004000Y-74277000I0J-875000D01*
G01*
G37*
%TD*%
D15*
%TO.C,OLED*%
X174244000Y-47498000D03*
X174244000Y-44958000D03*
X174244000Y-42418000D03*
X174244000Y-39878000D03*
%TD*%
D16*
%TO.C,J6*%
X257556000Y-67310000D03*
X250556000Y-67310000D03*
%TD*%
D17*
%TO.C,U2*%
X260858000Y-30226000D03*
D18*
X232918000Y-45466000D03*
X258318000Y-30226000D03*
X235458000Y-45466000D03*
X255778000Y-30226000D03*
X237998000Y-45466000D03*
X253238000Y-30226000D03*
X240538000Y-45466000D03*
X250698000Y-30226000D03*
X243078000Y-45466000D03*
X248158000Y-30226000D03*
X245618000Y-45466000D03*
X245618000Y-30226000D03*
X248158000Y-45466000D03*
X243078000Y-30226000D03*
X250698000Y-45466000D03*
X240538000Y-30226000D03*
X253238000Y-45466000D03*
X237998000Y-30226000D03*
X255778000Y-45466000D03*
X235458000Y-30226000D03*
X258318000Y-45466000D03*
X232918000Y-30226000D03*
X260858000Y-45466000D03*
%TD*%
D19*
%TO.C,TP1*%
X181610000Y-32004000D03*
%TD*%
%TO.C,TP2*%
X175514000Y-32258000D03*
%TD*%
%TO.C,TP3*%
X181610000Y-37592000D03*
%TD*%
%TO.C,TP4*%
X181610000Y-43434000D03*
%TD*%
D20*
%TO.C,SW1*%
X173944000Y-77432000D03*
X173944000Y-66632000D03*
D16*
X175229000Y-69732000D03*
X175229000Y-74732000D03*
X172794000Y-74732000D03*
X172794000Y-72232000D03*
X172794000Y-69732000D03*
%TD*%
M02*
