%TF.GenerationSoftware,KiCad,Pcbnew,(5.1.6)-1*%
%TF.CreationDate,2021-01-23T13:54:21+00:00*%
%TF.ProjectId,ninja_iron,6e696e6a-615f-4697-926f-6e2e6b696361,rev?*%
%TF.SameCoordinates,Original*%
%TF.FileFunction,Copper,L1,Top*%
%TF.FilePolarity,Positive*%
%FSLAX46Y46*%
G04 Gerber Fmt 4.6, Leading zero omitted, Abs format (unit mm)*
G04 Created by KiCad (PCBNEW (5.1.6)-1) date 2021-01-23 13:54:21*
%MOMM*%
%LPD*%
G01*
G04 APERTURE LIST*
%TA.AperFunction,EtchedComponent*%
%ADD10C,0.100000*%
%TD*%
%TA.AperFunction,SMDPad,CuDef*%
%ADD11R,1.560000X0.650000*%
%TD*%
%TA.AperFunction,ComponentPad*%
%ADD12R,1.700000X1.700000*%
%TD*%
%TA.AperFunction,ComponentPad*%
%ADD13C,3.048000*%
%TD*%
%TA.AperFunction,ComponentPad*%
%ADD14R,3.500000X3.500000*%
%TD*%
%TA.AperFunction,SMDPad,CuDef*%
%ADD15C,0.100000*%
%TD*%
%TA.AperFunction,SMDPad,CuDef*%
%ADD16R,1.500000X1.000000*%
%TD*%
%TA.AperFunction,SMDPad,CuDef*%
%ADD17R,1.500000X2.400000*%
%TD*%
%TA.AperFunction,ComponentPad*%
%ADD18C,1.524000*%
%TD*%
%TA.AperFunction,SMDPad,CuDef*%
%ADD19R,2.500000X1.800000*%
%TD*%
%TA.AperFunction,SMDPad,CuDef*%
%ADD20R,0.900000X1.200000*%
%TD*%
%TA.AperFunction,SMDPad,CuDef*%
%ADD21R,1.100000X1.100000*%
%TD*%
%TA.AperFunction,SMDPad,CuDef*%
%ADD22R,2.400000X2.900000*%
%TD*%
%TA.AperFunction,SMDPad,CuDef*%
%ADD23R,1.200000X2.900000*%
%TD*%
%TA.AperFunction,SMDPad,CuDef*%
%ADD24R,1.800000X2.900000*%
%TD*%
%TA.AperFunction,ComponentPad*%
%ADD25R,1.600000X2.400000*%
%TD*%
%TA.AperFunction,ComponentPad*%
%ADD26O,1.600000X2.400000*%
%TD*%
%TA.AperFunction,SMDPad,CuDef*%
%ADD27R,2.500000X0.650000*%
%TD*%
%TA.AperFunction,SMDPad,CuDef*%
%ADD28R,6.600000X6.300000*%
%TD*%
%TA.AperFunction,SMDPad,CuDef*%
%ADD29R,0.650000X1.560000*%
%TD*%
%TA.AperFunction,ComponentPad*%
%ADD30C,2.800000*%
%TD*%
%TA.AperFunction,SMDPad,CuDef*%
%ADD31R,1.780000X2.000000*%
%TD*%
%TA.AperFunction,SMDPad,CuDef*%
%ADD32R,0.600000X1.550000*%
%TD*%
%TA.AperFunction,SMDPad,CuDef*%
%ADD33R,2.350000X2.350000*%
%TD*%
%TA.AperFunction,WasherPad*%
%ADD34O,3.800000X3.000000*%
%TD*%
%TA.AperFunction,ComponentPad*%
%ADD35C,2.000000*%
%TD*%
%TA.AperFunction,ViaPad*%
%ADD36C,0.800000*%
%TD*%
%TA.AperFunction,Conductor*%
%ADD37C,0.250000*%
%TD*%
%TA.AperFunction,Conductor*%
%ADD38C,6.000000*%
%TD*%
%TA.AperFunction,Conductor*%
%ADD39C,1.500000*%
%TD*%
G04 APERTURE END LIST*
D10*
%TO.C,JP2*%
G36*
X178262000Y-46620000D02*
G01*
X178262000Y-46120000D01*
X178862000Y-46120000D01*
X178862000Y-46620000D01*
X178262000Y-46620000D01*
G37*
%TO.C,JP1*%
G36*
X178262000Y-41540000D02*
G01*
X178262000Y-41040000D01*
X178862000Y-41040000D01*
X178862000Y-41540000D01*
X178262000Y-41540000D01*
G37*
%TD*%
%TO.P,R36,1*%
%TO.N,+5VD*%
%TA.AperFunction,SMDPad,CuDef*%
G36*
G01*
X174809550Y-34976000D02*
X175710450Y-34976000D01*
G75*
G02*
X175960000Y-35225550I0J-249550D01*
G01*
X175960000Y-35876450D01*
G75*
G02*
X175710450Y-36126000I-249550J0D01*
G01*
X174809550Y-36126000D01*
G75*
G02*
X174560000Y-35876450I0J249550D01*
G01*
X174560000Y-35225550D01*
G75*
G02*
X174809550Y-34976000I249550J0D01*
G01*
G37*
%TD.AperFunction*%
%TO.P,R36,2*%
%TO.N,Net-(U1-Pad4)*%
%TA.AperFunction,SMDPad,CuDef*%
G36*
G01*
X174809550Y-37026000D02*
X175710450Y-37026000D01*
G75*
G02*
X175960000Y-37275550I0J-249550D01*
G01*
X175960000Y-37926450D01*
G75*
G02*
X175710450Y-38176000I-249550J0D01*
G01*
X174809550Y-38176000D01*
G75*
G02*
X174560000Y-37926450I0J249550D01*
G01*
X174560000Y-37275550D01*
G75*
G02*
X174809550Y-37026000I249550J0D01*
G01*
G37*
%TD.AperFunction*%
%TD*%
D11*
%TO.P,U10,5*%
%TO.N,+5VD*%
X241888000Y-33086000D03*
%TO.P,U10,4*%
%TO.N,/low_mosfet_0*%
X241888000Y-34986000D03*
%TO.P,U10,3*%
%TO.N,GND*%
X239188000Y-34986000D03*
%TO.P,U10,2*%
%TO.N,/Heater_pwm_1*%
X239188000Y-34036000D03*
%TO.P,U10,1*%
%TO.N,/Heater_pwm_0*%
X239188000Y-33086000D03*
%TD*%
D12*
%TO.P,J3,1*%
%TO.N,/led_data*%
X178308000Y-80518000D03*
%TD*%
%TO.P,R10,2*%
%TO.N,Net-(R10-Pad2)*%
%TA.AperFunction,SMDPad,CuDef*%
G36*
G01*
X195268000Y-68522001D02*
X195268000Y-67621999D01*
G75*
G02*
X195517999Y-67372000I249999J0D01*
G01*
X196168001Y-67372000D01*
G75*
G02*
X196418000Y-67621999I0J-249999D01*
G01*
X196418000Y-68522001D01*
G75*
G02*
X196168001Y-68772000I-249999J0D01*
G01*
X195517999Y-68772000D01*
G75*
G02*
X195268000Y-68522001I0J249999D01*
G01*
G37*
%TD.AperFunction*%
%TO.P,R10,1*%
%TO.N,/MOSI*%
%TA.AperFunction,SMDPad,CuDef*%
G36*
G01*
X193218000Y-68522001D02*
X193218000Y-67621999D01*
G75*
G02*
X193467999Y-67372000I249999J0D01*
G01*
X194118001Y-67372000D01*
G75*
G02*
X194368000Y-67621999I0J-249999D01*
G01*
X194368000Y-68522001D01*
G75*
G02*
X194118001Y-68772000I-249999J0D01*
G01*
X193467999Y-68772000D01*
G75*
G02*
X193218000Y-68522001I0J249999D01*
G01*
G37*
%TD.AperFunction*%
%TD*%
D13*
%TO.P,iron,5*%
%TO.N,/Heater0*%
X259588000Y-49784000D03*
%TO.P,iron,4*%
%TO.N,Net-(J1-Pad1)*%
X255270000Y-49784000D03*
%TO.P,iron,3*%
%TO.N,/Heater1*%
X259588000Y-58928000D03*
%TO.P,iron,2*%
%TO.N,Net-(J2-Pad1)*%
X255270000Y-58928000D03*
%TD*%
%TO.P,R8,2*%
%TO.N,Net-(J2-Pad1)*%
%TA.AperFunction,SMDPad,CuDef*%
G36*
G01*
X217366000Y-81984001D02*
X217366000Y-81083999D01*
G75*
G02*
X217615999Y-80834000I249999J0D01*
G01*
X218266001Y-80834000D01*
G75*
G02*
X218516000Y-81083999I0J-249999D01*
G01*
X218516000Y-81984001D01*
G75*
G02*
X218266001Y-82234000I-249999J0D01*
G01*
X217615999Y-82234000D01*
G75*
G02*
X217366000Y-81984001I0J249999D01*
G01*
G37*
%TD.AperFunction*%
%TO.P,R8,1*%
%TO.N,Net-(C5-Pad1)*%
%TA.AperFunction,SMDPad,CuDef*%
G36*
G01*
X215316000Y-81984001D02*
X215316000Y-81083999D01*
G75*
G02*
X215565999Y-80834000I249999J0D01*
G01*
X216216001Y-80834000D01*
G75*
G02*
X216466000Y-81083999I0J-249999D01*
G01*
X216466000Y-81984001D01*
G75*
G02*
X216216001Y-82234000I-249999J0D01*
G01*
X215565999Y-82234000D01*
G75*
G02*
X215316000Y-81984001I0J249999D01*
G01*
G37*
%TD.AperFunction*%
%TD*%
%TO.P,R5,1*%
%TO.N,+5VA*%
%TA.AperFunction,SMDPad,CuDef*%
G36*
G01*
X229927999Y-69774000D02*
X230828001Y-69774000D01*
G75*
G02*
X231078000Y-70023999I0J-249999D01*
G01*
X231078000Y-70674001D01*
G75*
G02*
X230828001Y-70924000I-249999J0D01*
G01*
X229927999Y-70924000D01*
G75*
G02*
X229678000Y-70674001I0J249999D01*
G01*
X229678000Y-70023999D01*
G75*
G02*
X229927999Y-69774000I249999J0D01*
G01*
G37*
%TD.AperFunction*%
%TO.P,R5,2*%
%TO.N,/Heater1*%
%TA.AperFunction,SMDPad,CuDef*%
G36*
G01*
X229927999Y-71824000D02*
X230828001Y-71824000D01*
G75*
G02*
X231078000Y-72073999I0J-249999D01*
G01*
X231078000Y-72724001D01*
G75*
G02*
X230828001Y-72974000I-249999J0D01*
G01*
X229927999Y-72974000D01*
G75*
G02*
X229678000Y-72724001I0J249999D01*
G01*
X229678000Y-72073999D01*
G75*
G02*
X229927999Y-71824000I249999J0D01*
G01*
G37*
%TD.AperFunction*%
%TD*%
D14*
%TO.P,J4,1*%
%TO.N,+24V*%
X254254000Y-79852000D03*
%TO.P,J4,2*%
%TO.N,GND*%
%TA.AperFunction,ComponentPad*%
G36*
G01*
X261754000Y-78852000D02*
X261754000Y-80852000D01*
G75*
G02*
X261004000Y-81602000I-750000J0D01*
G01*
X259504000Y-81602000D01*
G75*
G02*
X258754000Y-80852000I0J750000D01*
G01*
X258754000Y-78852000D01*
G75*
G02*
X259504000Y-78102000I750000J0D01*
G01*
X261004000Y-78102000D01*
G75*
G02*
X261754000Y-78852000I0J-750000D01*
G01*
G37*
%TD.AperFunction*%
%TO.P,J4,3*%
%TA.AperFunction,ComponentPad*%
G36*
G01*
X259004000Y-74277000D02*
X259004000Y-76027000D01*
G75*
G02*
X258129000Y-76902000I-875000J0D01*
G01*
X256379000Y-76902000D01*
G75*
G02*
X255504000Y-76027000I0J875000D01*
G01*
X255504000Y-74277000D01*
G75*
G02*
X256379000Y-73402000I875000J0D01*
G01*
X258129000Y-73402000D01*
G75*
G02*
X259004000Y-74277000I0J-875000D01*
G01*
G37*
%TD.AperFunction*%
%TD*%
%TA.AperFunction,SMDPad,CuDef*%
D15*
%TO.P,JP2,1*%
%TO.N,GND*%
G36*
X179312000Y-46470000D02*
G01*
X179312000Y-47020000D01*
X179311398Y-47020000D01*
X179311398Y-47044534D01*
X179306588Y-47093365D01*
X179297016Y-47141490D01*
X179282772Y-47188445D01*
X179263995Y-47233778D01*
X179240864Y-47277051D01*
X179213604Y-47317850D01*
X179182476Y-47355779D01*
X179147779Y-47390476D01*
X179109850Y-47421604D01*
X179069051Y-47448864D01*
X179025778Y-47471995D01*
X178980445Y-47490772D01*
X178933490Y-47505016D01*
X178885365Y-47514588D01*
X178836534Y-47519398D01*
X178812000Y-47519398D01*
X178812000Y-47520000D01*
X178312000Y-47520000D01*
X178312000Y-47519398D01*
X178287466Y-47519398D01*
X178238635Y-47514588D01*
X178190510Y-47505016D01*
X178143555Y-47490772D01*
X178098222Y-47471995D01*
X178054949Y-47448864D01*
X178014150Y-47421604D01*
X177976221Y-47390476D01*
X177941524Y-47355779D01*
X177910396Y-47317850D01*
X177883136Y-47277051D01*
X177860005Y-47233778D01*
X177841228Y-47188445D01*
X177826984Y-47141490D01*
X177817412Y-47093365D01*
X177812602Y-47044534D01*
X177812602Y-47020000D01*
X177812000Y-47020000D01*
X177812000Y-46470000D01*
X179312000Y-46470000D01*
G37*
%TD.AperFunction*%
D16*
%TO.P,JP2,2*%
X178562000Y-45720000D03*
%TA.AperFunction,SMDPad,CuDef*%
D15*
%TO.P,JP2,3*%
%TO.N,+5VD*%
G36*
X177812602Y-44420000D02*
G01*
X177812602Y-44395466D01*
X177817412Y-44346635D01*
X177826984Y-44298510D01*
X177841228Y-44251555D01*
X177860005Y-44206222D01*
X177883136Y-44162949D01*
X177910396Y-44122150D01*
X177941524Y-44084221D01*
X177976221Y-44049524D01*
X178014150Y-44018396D01*
X178054949Y-43991136D01*
X178098222Y-43968005D01*
X178143555Y-43949228D01*
X178190510Y-43934984D01*
X178238635Y-43925412D01*
X178287466Y-43920602D01*
X178312000Y-43920602D01*
X178312000Y-43920000D01*
X178812000Y-43920000D01*
X178812000Y-43920602D01*
X178836534Y-43920602D01*
X178885365Y-43925412D01*
X178933490Y-43934984D01*
X178980445Y-43949228D01*
X179025778Y-43968005D01*
X179069051Y-43991136D01*
X179109850Y-44018396D01*
X179147779Y-44049524D01*
X179182476Y-44084221D01*
X179213604Y-44122150D01*
X179240864Y-44162949D01*
X179263995Y-44206222D01*
X179282772Y-44251555D01*
X179297016Y-44298510D01*
X179306588Y-44346635D01*
X179311398Y-44395466D01*
X179311398Y-44420000D01*
X179312000Y-44420000D01*
X179312000Y-44970000D01*
X177812000Y-44970000D01*
X177812000Y-44420000D01*
X177812602Y-44420000D01*
G37*
%TD.AperFunction*%
%TD*%
%TO.P,R3,2*%
%TO.N,Net-(R3-Pad2)*%
%TA.AperFunction,SMDPad,CuDef*%
G36*
G01*
X217366000Y-60902001D02*
X217366000Y-60001999D01*
G75*
G02*
X217615999Y-59752000I249999J0D01*
G01*
X218266001Y-59752000D01*
G75*
G02*
X218516000Y-60001999I0J-249999D01*
G01*
X218516000Y-60902001D01*
G75*
G02*
X218266001Y-61152000I-249999J0D01*
G01*
X217615999Y-61152000D01*
G75*
G02*
X217366000Y-60902001I0J249999D01*
G01*
G37*
%TD.AperFunction*%
%TO.P,R3,1*%
%TO.N,Net-(C1-Pad2)*%
%TA.AperFunction,SMDPad,CuDef*%
G36*
G01*
X215316000Y-60902001D02*
X215316000Y-60001999D01*
G75*
G02*
X215565999Y-59752000I249999J0D01*
G01*
X216216001Y-59752000D01*
G75*
G02*
X216466000Y-60001999I0J-249999D01*
G01*
X216466000Y-60902001D01*
G75*
G02*
X216216001Y-61152000I-249999J0D01*
G01*
X215565999Y-61152000D01*
G75*
G02*
X215316000Y-60902001I0J249999D01*
G01*
G37*
%TD.AperFunction*%
%TD*%
%TA.AperFunction,SMDPad,CuDef*%
%TO.P,JP1,1*%
%TO.N,+5VD*%
G36*
X179312000Y-41390000D02*
G01*
X179312000Y-41940000D01*
X179311398Y-41940000D01*
X179311398Y-41964534D01*
X179306588Y-42013365D01*
X179297016Y-42061490D01*
X179282772Y-42108445D01*
X179263995Y-42153778D01*
X179240864Y-42197051D01*
X179213604Y-42237850D01*
X179182476Y-42275779D01*
X179147779Y-42310476D01*
X179109850Y-42341604D01*
X179069051Y-42368864D01*
X179025778Y-42391995D01*
X178980445Y-42410772D01*
X178933490Y-42425016D01*
X178885365Y-42434588D01*
X178836534Y-42439398D01*
X178812000Y-42439398D01*
X178812000Y-42440000D01*
X178312000Y-42440000D01*
X178312000Y-42439398D01*
X178287466Y-42439398D01*
X178238635Y-42434588D01*
X178190510Y-42425016D01*
X178143555Y-42410772D01*
X178098222Y-42391995D01*
X178054949Y-42368864D01*
X178014150Y-42341604D01*
X177976221Y-42310476D01*
X177941524Y-42275779D01*
X177910396Y-42237850D01*
X177883136Y-42197051D01*
X177860005Y-42153778D01*
X177841228Y-42108445D01*
X177826984Y-42061490D01*
X177817412Y-42013365D01*
X177812602Y-41964534D01*
X177812602Y-41940000D01*
X177812000Y-41940000D01*
X177812000Y-41390000D01*
X179312000Y-41390000D01*
G37*
%TD.AperFunction*%
D16*
%TO.P,JP1,2*%
X178562000Y-40640000D03*
%TA.AperFunction,SMDPad,CuDef*%
D15*
%TO.P,JP1,3*%
%TO.N,GND*%
G36*
X177812602Y-39340000D02*
G01*
X177812602Y-39315466D01*
X177817412Y-39266635D01*
X177826984Y-39218510D01*
X177841228Y-39171555D01*
X177860005Y-39126222D01*
X177883136Y-39082949D01*
X177910396Y-39042150D01*
X177941524Y-39004221D01*
X177976221Y-38969524D01*
X178014150Y-38938396D01*
X178054949Y-38911136D01*
X178098222Y-38888005D01*
X178143555Y-38869228D01*
X178190510Y-38854984D01*
X178238635Y-38845412D01*
X178287466Y-38840602D01*
X178312000Y-38840602D01*
X178312000Y-38840000D01*
X178812000Y-38840000D01*
X178812000Y-38840602D01*
X178836534Y-38840602D01*
X178885365Y-38845412D01*
X178933490Y-38854984D01*
X178980445Y-38869228D01*
X179025778Y-38888005D01*
X179069051Y-38911136D01*
X179109850Y-38938396D01*
X179147779Y-38969524D01*
X179182476Y-39004221D01*
X179213604Y-39042150D01*
X179240864Y-39082949D01*
X179263995Y-39126222D01*
X179282772Y-39171555D01*
X179297016Y-39218510D01*
X179306588Y-39266635D01*
X179311398Y-39315466D01*
X179311398Y-39340000D01*
X179312000Y-39340000D01*
X179312000Y-39890000D01*
X177812000Y-39890000D01*
X177812000Y-39340000D01*
X177812602Y-39340000D01*
G37*
%TD.AperFunction*%
%TD*%
%TO.P,R11,1*%
%TO.N,/MISO*%
%TA.AperFunction,SMDPad,CuDef*%
G36*
G01*
X193218000Y-66236001D02*
X193218000Y-65335999D01*
G75*
G02*
X193467999Y-65086000I249999J0D01*
G01*
X194118001Y-65086000D01*
G75*
G02*
X194368000Y-65335999I0J-249999D01*
G01*
X194368000Y-66236001D01*
G75*
G02*
X194118001Y-66486000I-249999J0D01*
G01*
X193467999Y-66486000D01*
G75*
G02*
X193218000Y-66236001I0J249999D01*
G01*
G37*
%TD.AperFunction*%
%TO.P,R11,2*%
%TO.N,Net-(R11-Pad2)*%
%TA.AperFunction,SMDPad,CuDef*%
G36*
G01*
X195268000Y-66236001D02*
X195268000Y-65335999D01*
G75*
G02*
X195517999Y-65086000I249999J0D01*
G01*
X196168001Y-65086000D01*
G75*
G02*
X196418000Y-65335999I0J-249999D01*
G01*
X196418000Y-66236001D01*
G75*
G02*
X196168001Y-66486000I-249999J0D01*
G01*
X195517999Y-66486000D01*
G75*
G02*
X195268000Y-66236001I0J249999D01*
G01*
G37*
%TD.AperFunction*%
%TD*%
D17*
%TO.P,L1,1*%
%TO.N,Net-(C9-Pad2)*%
X203752000Y-42164000D03*
%TO.P,L1,2*%
%TO.N,+5VD*%
X209252000Y-42164000D03*
%TD*%
%TO.P,R19,2*%
%TO.N,GND*%
%TA.AperFunction,SMDPad,CuDef*%
G36*
G01*
X224594000Y-83623999D02*
X224594000Y-84524001D01*
G75*
G02*
X224344001Y-84774000I-249999J0D01*
G01*
X223693999Y-84774000D01*
G75*
G02*
X223444000Y-84524001I0J249999D01*
G01*
X223444000Y-83623999D01*
G75*
G02*
X223693999Y-83374000I249999J0D01*
G01*
X224344001Y-83374000D01*
G75*
G02*
X224594000Y-83623999I0J-249999D01*
G01*
G37*
%TD.AperFunction*%
%TO.P,R19,1*%
%TO.N,Net-(R19-Pad1)*%
%TA.AperFunction,SMDPad,CuDef*%
G36*
G01*
X226644000Y-83623999D02*
X226644000Y-84524001D01*
G75*
G02*
X226394001Y-84774000I-249999J0D01*
G01*
X225743999Y-84774000D01*
G75*
G02*
X225494000Y-84524001I0J249999D01*
G01*
X225494000Y-83623999D01*
G75*
G02*
X225743999Y-83374000I249999J0D01*
G01*
X226394001Y-83374000D01*
G75*
G02*
X226644000Y-83623999I0J-249999D01*
G01*
G37*
%TD.AperFunction*%
%TD*%
%TO.P,R14,1*%
%TO.N,Net-(R13-Pad2)*%
%TA.AperFunction,SMDPad,CuDef*%
G36*
G01*
X213302001Y-40208000D02*
X212401999Y-40208000D01*
G75*
G02*
X212152000Y-39958001I0J249999D01*
G01*
X212152000Y-39307999D01*
G75*
G02*
X212401999Y-39058000I249999J0D01*
G01*
X213302001Y-39058000D01*
G75*
G02*
X213552000Y-39307999I0J-249999D01*
G01*
X213552000Y-39958001D01*
G75*
G02*
X213302001Y-40208000I-249999J0D01*
G01*
G37*
%TD.AperFunction*%
%TO.P,R14,2*%
%TO.N,GND*%
%TA.AperFunction,SMDPad,CuDef*%
G36*
G01*
X213302001Y-38158000D02*
X212401999Y-38158000D01*
G75*
G02*
X212152000Y-37908001I0J249999D01*
G01*
X212152000Y-37257999D01*
G75*
G02*
X212401999Y-37008000I249999J0D01*
G01*
X213302001Y-37008000D01*
G75*
G02*
X213552000Y-37257999I0J-249999D01*
G01*
X213552000Y-37908001D01*
G75*
G02*
X213302001Y-38158000I-249999J0D01*
G01*
G37*
%TD.AperFunction*%
%TD*%
%TO.P,R15,2*%
%TO.N,GNDA*%
%TA.AperFunction,SMDPad,CuDef*%
G36*
G01*
X209100000Y-33077999D02*
X209100000Y-33978001D01*
G75*
G02*
X208850001Y-34228000I-249999J0D01*
G01*
X208199999Y-34228000D01*
G75*
G02*
X207950000Y-33978001I0J249999D01*
G01*
X207950000Y-33077999D01*
G75*
G02*
X208199999Y-32828000I249999J0D01*
G01*
X208850001Y-32828000D01*
G75*
G02*
X209100000Y-33077999I0J-249999D01*
G01*
G37*
%TD.AperFunction*%
%TO.P,R15,1*%
%TO.N,GND*%
%TA.AperFunction,SMDPad,CuDef*%
G36*
G01*
X211150000Y-33077999D02*
X211150000Y-33978001D01*
G75*
G02*
X210900001Y-34228000I-249999J0D01*
G01*
X210249999Y-34228000D01*
G75*
G02*
X210000000Y-33978001I0J249999D01*
G01*
X210000000Y-33077999D01*
G75*
G02*
X210249999Y-32828000I249999J0D01*
G01*
X210900001Y-32828000D01*
G75*
G02*
X211150000Y-33077999I0J-249999D01*
G01*
G37*
%TD.AperFunction*%
%TD*%
%TO.P,R25,2*%
%TO.N,/aIn*%
%TA.AperFunction,SMDPad,CuDef*%
G36*
G01*
X181159999Y-55314000D02*
X182060001Y-55314000D01*
G75*
G02*
X182310000Y-55563999I0J-249999D01*
G01*
X182310000Y-56214001D01*
G75*
G02*
X182060001Y-56464000I-249999J0D01*
G01*
X181159999Y-56464000D01*
G75*
G02*
X180910000Y-56214001I0J249999D01*
G01*
X180910000Y-55563999D01*
G75*
G02*
X181159999Y-55314000I249999J0D01*
G01*
G37*
%TD.AperFunction*%
%TO.P,R25,1*%
%TO.N,+5VD*%
%TA.AperFunction,SMDPad,CuDef*%
G36*
G01*
X181159999Y-53264000D02*
X182060001Y-53264000D01*
G75*
G02*
X182310000Y-53513999I0J-249999D01*
G01*
X182310000Y-54164001D01*
G75*
G02*
X182060001Y-54414000I-249999J0D01*
G01*
X181159999Y-54414000D01*
G75*
G02*
X180910000Y-54164001I0J249999D01*
G01*
X180910000Y-53513999D01*
G75*
G02*
X181159999Y-53264000I249999J0D01*
G01*
G37*
%TD.AperFunction*%
%TD*%
%TO.P,R21,1*%
%TO.N,/Current_sense_1*%
%TA.AperFunction,SMDPad,CuDef*%
G36*
G01*
X226644000Y-81337999D02*
X226644000Y-82238001D01*
G75*
G02*
X226394001Y-82488000I-249999J0D01*
G01*
X225743999Y-82488000D01*
G75*
G02*
X225494000Y-82238001I0J249999D01*
G01*
X225494000Y-81337999D01*
G75*
G02*
X225743999Y-81088000I249999J0D01*
G01*
X226394001Y-81088000D01*
G75*
G02*
X226644000Y-81337999I0J-249999D01*
G01*
G37*
%TD.AperFunction*%
%TO.P,R21,2*%
%TO.N,GND*%
%TA.AperFunction,SMDPad,CuDef*%
G36*
G01*
X224594000Y-81337999D02*
X224594000Y-82238001D01*
G75*
G02*
X224344001Y-82488000I-249999J0D01*
G01*
X223693999Y-82488000D01*
G75*
G02*
X223444000Y-82238001I0J249999D01*
G01*
X223444000Y-81337999D01*
G75*
G02*
X223693999Y-81088000I249999J0D01*
G01*
X224344001Y-81088000D01*
G75*
G02*
X224594000Y-81337999I0J-249999D01*
G01*
G37*
%TD.AperFunction*%
%TD*%
%TO.P,R23,2*%
%TO.N,/swIn*%
%TA.AperFunction,SMDPad,CuDef*%
G36*
G01*
X172015999Y-55314000D02*
X172916001Y-55314000D01*
G75*
G02*
X173166000Y-55563999I0J-249999D01*
G01*
X173166000Y-56214001D01*
G75*
G02*
X172916001Y-56464000I-249999J0D01*
G01*
X172015999Y-56464000D01*
G75*
G02*
X171766000Y-56214001I0J249999D01*
G01*
X171766000Y-55563999D01*
G75*
G02*
X172015999Y-55314000I249999J0D01*
G01*
G37*
%TD.AperFunction*%
%TO.P,R23,1*%
%TO.N,+5VD*%
%TA.AperFunction,SMDPad,CuDef*%
G36*
G01*
X172015999Y-53264000D02*
X172916001Y-53264000D01*
G75*
G02*
X173166000Y-53513999I0J-249999D01*
G01*
X173166000Y-54164001D01*
G75*
G02*
X172916001Y-54414000I-249999J0D01*
G01*
X172015999Y-54414000D01*
G75*
G02*
X171766000Y-54164001I0J249999D01*
G01*
X171766000Y-53513999D01*
G75*
G02*
X172015999Y-53264000I249999J0D01*
G01*
G37*
%TD.AperFunction*%
%TD*%
%TO.P,R28,1*%
%TO.N,+24V*%
%TA.AperFunction,SMDPad,CuDef*%
G36*
G01*
X220650000Y-46170001D02*
X220650000Y-45269999D01*
G75*
G02*
X220899999Y-45020000I249999J0D01*
G01*
X221550001Y-45020000D01*
G75*
G02*
X221800000Y-45269999I0J-249999D01*
G01*
X221800000Y-46170001D01*
G75*
G02*
X221550001Y-46420000I-249999J0D01*
G01*
X220899999Y-46420000D01*
G75*
G02*
X220650000Y-46170001I0J249999D01*
G01*
G37*
%TD.AperFunction*%
%TO.P,R28,2*%
%TO.N,/VinDev*%
%TA.AperFunction,SMDPad,CuDef*%
G36*
G01*
X222700000Y-46170001D02*
X222700000Y-45269999D01*
G75*
G02*
X222949999Y-45020000I249999J0D01*
G01*
X223600001Y-45020000D01*
G75*
G02*
X223850000Y-45269999I0J-249999D01*
G01*
X223850000Y-46170001D01*
G75*
G02*
X223600001Y-46420000I-249999J0D01*
G01*
X222949999Y-46420000D01*
G75*
G02*
X222700000Y-46170001I0J249999D01*
G01*
G37*
%TD.AperFunction*%
%TD*%
%TO.P,R30,1*%
%TO.N,/aIn*%
%TA.AperFunction,SMDPad,CuDef*%
G36*
G01*
X182194000Y-57715999D02*
X182194000Y-58616001D01*
G75*
G02*
X181944001Y-58866000I-249999J0D01*
G01*
X181293999Y-58866000D01*
G75*
G02*
X181044000Y-58616001I0J249999D01*
G01*
X181044000Y-57715999D01*
G75*
G02*
X181293999Y-57466000I249999J0D01*
G01*
X181944001Y-57466000D01*
G75*
G02*
X182194000Y-57715999I0J-249999D01*
G01*
G37*
%TD.AperFunction*%
%TO.P,R30,2*%
%TO.N,N/C*%
%TA.AperFunction,SMDPad,CuDef*%
G36*
G01*
X180144000Y-57715550D02*
X180144000Y-58616450D01*
G75*
G02*
X179894450Y-58866000I-249550J0D01*
G01*
X179243550Y-58866000D01*
G75*
G02*
X178994000Y-58616450I0J249550D01*
G01*
X178994000Y-57715550D01*
G75*
G02*
X179243550Y-57466000I249550J0D01*
G01*
X179894450Y-57466000D01*
G75*
G02*
X180144000Y-57715550I0J-249550D01*
G01*
G37*
%TD.AperFunction*%
%TD*%
%TO.P,R35,2*%
%TO.N,Net-(U1-Pad3)*%
%TA.AperFunction,SMDPad,CuDef*%
G36*
G01*
X171253550Y-37026000D02*
X172154450Y-37026000D01*
G75*
G02*
X172404000Y-37275550I0J-249550D01*
G01*
X172404000Y-37926450D01*
G75*
G02*
X172154450Y-38176000I-249550J0D01*
G01*
X171253550Y-38176000D01*
G75*
G02*
X171004000Y-37926450I0J249550D01*
G01*
X171004000Y-37275550D01*
G75*
G02*
X171253550Y-37026000I249550J0D01*
G01*
G37*
%TD.AperFunction*%
%TO.P,R35,1*%
%TO.N,+5VD*%
%TA.AperFunction,SMDPad,CuDef*%
G36*
G01*
X171253550Y-34976000D02*
X172154450Y-34976000D01*
G75*
G02*
X172404000Y-35225550I0J-249550D01*
G01*
X172404000Y-35876450D01*
G75*
G02*
X172154450Y-36126000I-249550J0D01*
G01*
X171253550Y-36126000D01*
G75*
G02*
X171004000Y-35876450I0J249550D01*
G01*
X171004000Y-35225550D01*
G75*
G02*
X171253550Y-34976000I249550J0D01*
G01*
G37*
%TD.AperFunction*%
%TD*%
%TO.P,R20,1*%
%TO.N,Net-(R20-Pad1)*%
%TA.AperFunction,SMDPad,CuDef*%
G36*
G01*
X218516000Y-68891999D02*
X218516000Y-69792001D01*
G75*
G02*
X218266001Y-70042000I-249999J0D01*
G01*
X217615999Y-70042000D01*
G75*
G02*
X217366000Y-69792001I0J249999D01*
G01*
X217366000Y-68891999D01*
G75*
G02*
X217615999Y-68642000I249999J0D01*
G01*
X218266001Y-68642000D01*
G75*
G02*
X218516000Y-68891999I0J-249999D01*
G01*
G37*
%TD.AperFunction*%
%TO.P,R20,2*%
%TO.N,/low_mosfet_0*%
%TA.AperFunction,SMDPad,CuDef*%
G36*
G01*
X216466000Y-68891999D02*
X216466000Y-69792001D01*
G75*
G02*
X216216001Y-70042000I-249999J0D01*
G01*
X215565999Y-70042000D01*
G75*
G02*
X215316000Y-69792001I0J249999D01*
G01*
X215316000Y-68891999D01*
G75*
G02*
X215565999Y-68642000I249999J0D01*
G01*
X216216001Y-68642000D01*
G75*
G02*
X216466000Y-68891999I0J-249999D01*
G01*
G37*
%TD.AperFunction*%
%TD*%
%TO.P,R27,2*%
%TO.N,/sleepIn*%
%TA.AperFunction,SMDPad,CuDef*%
G36*
G01*
X182176000Y-70669999D02*
X182176000Y-71570001D01*
G75*
G02*
X181926001Y-71820000I-249999J0D01*
G01*
X181275999Y-71820000D01*
G75*
G02*
X181026000Y-71570001I0J249999D01*
G01*
X181026000Y-70669999D01*
G75*
G02*
X181275999Y-70420000I249999J0D01*
G01*
X181926001Y-70420000D01*
G75*
G02*
X182176000Y-70669999I0J-249999D01*
G01*
G37*
%TD.AperFunction*%
%TO.P,R27,1*%
%TO.N,Net-(J6-Pad2)*%
%TA.AperFunction,SMDPad,CuDef*%
G36*
G01*
X184226000Y-70669999D02*
X184226000Y-71570001D01*
G75*
G02*
X183976001Y-71820000I-249999J0D01*
G01*
X183325999Y-71820000D01*
G75*
G02*
X183076000Y-71570001I0J249999D01*
G01*
X183076000Y-70669999D01*
G75*
G02*
X183325999Y-70420000I249999J0D01*
G01*
X183976001Y-70420000D01*
G75*
G02*
X184226000Y-70669999I0J-249999D01*
G01*
G37*
%TD.AperFunction*%
%TD*%
%TO.P,R29,2*%
%TO.N,GND*%
%TA.AperFunction,SMDPad,CuDef*%
G36*
G01*
X227780000Y-46424001D02*
X227780000Y-45523999D01*
G75*
G02*
X228029999Y-45274000I249999J0D01*
G01*
X228680001Y-45274000D01*
G75*
G02*
X228930000Y-45523999I0J-249999D01*
G01*
X228930000Y-46424001D01*
G75*
G02*
X228680001Y-46674000I-249999J0D01*
G01*
X228029999Y-46674000D01*
G75*
G02*
X227780000Y-46424001I0J249999D01*
G01*
G37*
%TD.AperFunction*%
%TO.P,R29,1*%
%TO.N,/VinDev*%
%TA.AperFunction,SMDPad,CuDef*%
G36*
G01*
X225730000Y-46424001D02*
X225730000Y-45523999D01*
G75*
G02*
X225979999Y-45274000I249999J0D01*
G01*
X226630001Y-45274000D01*
G75*
G02*
X226880000Y-45523999I0J-249999D01*
G01*
X226880000Y-46424001D01*
G75*
G02*
X226630001Y-46674000I-249999J0D01*
G01*
X225979999Y-46674000D01*
G75*
G02*
X225730000Y-46424001I0J249999D01*
G01*
G37*
%TD.AperFunction*%
%TD*%
%TO.P,R31,2*%
%TO.N,N/C*%
%TA.AperFunction,SMDPad,CuDef*%
G36*
G01*
X175572000Y-57715999D02*
X175572000Y-58616001D01*
G75*
G02*
X175322001Y-58866000I-249999J0D01*
G01*
X174671999Y-58866000D01*
G75*
G02*
X174422000Y-58616001I0J249999D01*
G01*
X174422000Y-57715999D01*
G75*
G02*
X174671999Y-57466000I249999J0D01*
G01*
X175322001Y-57466000D01*
G75*
G02*
X175572000Y-57715999I0J-249999D01*
G01*
G37*
%TD.AperFunction*%
%TO.P,R31,1*%
%TO.N,/bIn*%
%TA.AperFunction,SMDPad,CuDef*%
G36*
G01*
X177622000Y-57715999D02*
X177622000Y-58616001D01*
G75*
G02*
X177372001Y-58866000I-249999J0D01*
G01*
X176721999Y-58866000D01*
G75*
G02*
X176472000Y-58616001I0J249999D01*
G01*
X176472000Y-57715999D01*
G75*
G02*
X176721999Y-57466000I249999J0D01*
G01*
X177372001Y-57466000D01*
G75*
G02*
X177622000Y-57715999I0J-249999D01*
G01*
G37*
%TD.AperFunction*%
%TD*%
%TO.P,R26,1*%
%TO.N,+5VD*%
%TA.AperFunction,SMDPad,CuDef*%
G36*
G01*
X181159999Y-66218000D02*
X182060001Y-66218000D01*
G75*
G02*
X182310000Y-66467999I0J-249999D01*
G01*
X182310000Y-67118001D01*
G75*
G02*
X182060001Y-67368000I-249999J0D01*
G01*
X181159999Y-67368000D01*
G75*
G02*
X180910000Y-67118001I0J249999D01*
G01*
X180910000Y-66467999D01*
G75*
G02*
X181159999Y-66218000I249999J0D01*
G01*
G37*
%TD.AperFunction*%
%TO.P,R26,2*%
%TO.N,/sleepIn*%
%TA.AperFunction,SMDPad,CuDef*%
G36*
G01*
X181159999Y-68268000D02*
X182060001Y-68268000D01*
G75*
G02*
X182310000Y-68517999I0J-249999D01*
G01*
X182310000Y-69168001D01*
G75*
G02*
X182060001Y-69418000I-249999J0D01*
G01*
X181159999Y-69418000D01*
G75*
G02*
X180910000Y-69168001I0J249999D01*
G01*
X180910000Y-68517999D01*
G75*
G02*
X181159999Y-68268000I249999J0D01*
G01*
G37*
%TD.AperFunction*%
%TD*%
%TO.P,R16,1*%
%TO.N,Net-(R16-Pad1)*%
%TA.AperFunction,SMDPad,CuDef*%
G36*
G01*
X226644000Y-66351999D02*
X226644000Y-67252001D01*
G75*
G02*
X226394001Y-67502000I-249999J0D01*
G01*
X225743999Y-67502000D01*
G75*
G02*
X225494000Y-67252001I0J249999D01*
G01*
X225494000Y-66351999D01*
G75*
G02*
X225743999Y-66102000I249999J0D01*
G01*
X226394001Y-66102000D01*
G75*
G02*
X226644000Y-66351999I0J-249999D01*
G01*
G37*
%TD.AperFunction*%
%TO.P,R16,2*%
%TO.N,GND*%
%TA.AperFunction,SMDPad,CuDef*%
G36*
G01*
X224594000Y-66351999D02*
X224594000Y-67252001D01*
G75*
G02*
X224344001Y-67502000I-249999J0D01*
G01*
X223693999Y-67502000D01*
G75*
G02*
X223444000Y-67252001I0J249999D01*
G01*
X223444000Y-66351999D01*
G75*
G02*
X223693999Y-66102000I249999J0D01*
G01*
X224344001Y-66102000D01*
G75*
G02*
X224594000Y-66351999I0J-249999D01*
G01*
G37*
%TD.AperFunction*%
%TD*%
%TO.P,R17,2*%
%TO.N,/low_mosfet_0*%
%TA.AperFunction,SMDPad,CuDef*%
G36*
G01*
X216466000Y-51873999D02*
X216466000Y-52774001D01*
G75*
G02*
X216216001Y-53024000I-249999J0D01*
G01*
X215565999Y-53024000D01*
G75*
G02*
X215316000Y-52774001I0J249999D01*
G01*
X215316000Y-51873999D01*
G75*
G02*
X215565999Y-51624000I249999J0D01*
G01*
X216216001Y-51624000D01*
G75*
G02*
X216466000Y-51873999I0J-249999D01*
G01*
G37*
%TD.AperFunction*%
%TO.P,R17,1*%
%TO.N,Net-(R17-Pad1)*%
%TA.AperFunction,SMDPad,CuDef*%
G36*
G01*
X218516000Y-51873999D02*
X218516000Y-52774001D01*
G75*
G02*
X218266001Y-53024000I-249999J0D01*
G01*
X217615999Y-53024000D01*
G75*
G02*
X217366000Y-52774001I0J249999D01*
G01*
X217366000Y-51873999D01*
G75*
G02*
X217615999Y-51624000I249999J0D01*
G01*
X218266001Y-51624000D01*
G75*
G02*
X218516000Y-51873999I0J-249999D01*
G01*
G37*
%TD.AperFunction*%
%TD*%
%TO.P,R18,1*%
%TO.N,/Current_sense_0*%
%TA.AperFunction,SMDPad,CuDef*%
G36*
G01*
X225476000Y-62680001D02*
X225476000Y-61779999D01*
G75*
G02*
X225725999Y-61530000I249999J0D01*
G01*
X226376001Y-61530000D01*
G75*
G02*
X226626000Y-61779999I0J-249999D01*
G01*
X226626000Y-62680001D01*
G75*
G02*
X226376001Y-62930000I-249999J0D01*
G01*
X225725999Y-62930000D01*
G75*
G02*
X225476000Y-62680001I0J249999D01*
G01*
G37*
%TD.AperFunction*%
%TO.P,R18,2*%
%TO.N,GND*%
%TA.AperFunction,SMDPad,CuDef*%
G36*
G01*
X227526000Y-62680001D02*
X227526000Y-61779999D01*
G75*
G02*
X227775999Y-61530000I249999J0D01*
G01*
X228426001Y-61530000D01*
G75*
G02*
X228676000Y-61779999I0J-249999D01*
G01*
X228676000Y-62680001D01*
G75*
G02*
X228426001Y-62930000I-249999J0D01*
G01*
X227775999Y-62930000D01*
G75*
G02*
X227526000Y-62680001I0J249999D01*
G01*
G37*
%TD.AperFunction*%
%TD*%
%TO.P,R24,1*%
%TO.N,+5VD*%
%TA.AperFunction,SMDPad,CuDef*%
G36*
G01*
X176333999Y-53264000D02*
X177234001Y-53264000D01*
G75*
G02*
X177484000Y-53513999I0J-249999D01*
G01*
X177484000Y-54164001D01*
G75*
G02*
X177234001Y-54414000I-249999J0D01*
G01*
X176333999Y-54414000D01*
G75*
G02*
X176084000Y-54164001I0J249999D01*
G01*
X176084000Y-53513999D01*
G75*
G02*
X176333999Y-53264000I249999J0D01*
G01*
G37*
%TD.AperFunction*%
%TO.P,R24,2*%
%TO.N,/bIn*%
%TA.AperFunction,SMDPad,CuDef*%
G36*
G01*
X176333999Y-55314000D02*
X177234001Y-55314000D01*
G75*
G02*
X177484000Y-55563999I0J-249999D01*
G01*
X177484000Y-56214001D01*
G75*
G02*
X177234001Y-56464000I-249999J0D01*
G01*
X176333999Y-56464000D01*
G75*
G02*
X176084000Y-56214001I0J249999D01*
G01*
X176084000Y-55563999D01*
G75*
G02*
X176333999Y-55314000I249999J0D01*
G01*
G37*
%TD.AperFunction*%
%TD*%
%TO.P,C21,1*%
%TO.N,+24V*%
%TA.AperFunction,SMDPad,CuDef*%
G36*
G01*
X218516000Y-45523999D02*
X218516000Y-46424001D01*
G75*
G02*
X218266001Y-46674000I-249999J0D01*
G01*
X217615999Y-46674000D01*
G75*
G02*
X217366000Y-46424001I0J249999D01*
G01*
X217366000Y-45523999D01*
G75*
G02*
X217615999Y-45274000I249999J0D01*
G01*
X218266001Y-45274000D01*
G75*
G02*
X218516000Y-45523999I0J-249999D01*
G01*
G37*
%TD.AperFunction*%
%TO.P,C21,2*%
%TO.N,GND*%
%TA.AperFunction,SMDPad,CuDef*%
G36*
G01*
X216466000Y-45523999D02*
X216466000Y-46424001D01*
G75*
G02*
X216216001Y-46674000I-249999J0D01*
G01*
X215565999Y-46674000D01*
G75*
G02*
X215316000Y-46424001I0J249999D01*
G01*
X215316000Y-45523999D01*
G75*
G02*
X215565999Y-45274000I249999J0D01*
G01*
X216216001Y-45274000D01*
G75*
G02*
X216466000Y-45523999I0J-249999D01*
G01*
G37*
%TD.AperFunction*%
%TD*%
%TO.P,C18,2*%
%TO.N,GND*%
%TA.AperFunction,SMDPad,CuDef*%
G36*
G01*
X176333999Y-61918000D02*
X177234001Y-61918000D01*
G75*
G02*
X177484000Y-62167999I0J-249999D01*
G01*
X177484000Y-62818001D01*
G75*
G02*
X177234001Y-63068000I-249999J0D01*
G01*
X176333999Y-63068000D01*
G75*
G02*
X176084000Y-62818001I0J249999D01*
G01*
X176084000Y-62167999D01*
G75*
G02*
X176333999Y-61918000I249999J0D01*
G01*
G37*
%TD.AperFunction*%
%TO.P,C18,1*%
%TO.N,/bIn*%
%TA.AperFunction,SMDPad,CuDef*%
G36*
G01*
X176333999Y-59868000D02*
X177234001Y-59868000D01*
G75*
G02*
X177484000Y-60117999I0J-249999D01*
G01*
X177484000Y-60768001D01*
G75*
G02*
X177234001Y-61018000I-249999J0D01*
G01*
X176333999Y-61018000D01*
G75*
G02*
X176084000Y-60768001I0J249999D01*
G01*
X176084000Y-60117999D01*
G75*
G02*
X176333999Y-59868000I249999J0D01*
G01*
G37*
%TD.AperFunction*%
%TD*%
%TO.P,C7,1*%
%TO.N,+5VD*%
%TA.AperFunction,SMDPad,CuDef*%
G36*
G01*
X199078001Y-65100000D02*
X198177999Y-65100000D01*
G75*
G02*
X197928000Y-64850001I0J249999D01*
G01*
X197928000Y-64199999D01*
G75*
G02*
X198177999Y-63950000I249999J0D01*
G01*
X199078001Y-63950000D01*
G75*
G02*
X199328000Y-64199999I0J-249999D01*
G01*
X199328000Y-64850001D01*
G75*
G02*
X199078001Y-65100000I-249999J0D01*
G01*
G37*
%TD.AperFunction*%
%TO.P,C7,2*%
%TO.N,GND*%
%TA.AperFunction,SMDPad,CuDef*%
G36*
G01*
X199078001Y-63050000D02*
X198177999Y-63050000D01*
G75*
G02*
X197928000Y-62800001I0J249999D01*
G01*
X197928000Y-62149999D01*
G75*
G02*
X198177999Y-61900000I249999J0D01*
G01*
X199078001Y-61900000D01*
G75*
G02*
X199328000Y-62149999I0J-249999D01*
G01*
X199328000Y-62800001D01*
G75*
G02*
X199078001Y-63050000I-249999J0D01*
G01*
G37*
%TD.AperFunction*%
%TD*%
%TO.P,C8,1*%
%TO.N,+24V*%
%TA.AperFunction,SMDPad,CuDef*%
G36*
G01*
X220650000Y-43884001D02*
X220650000Y-42983999D01*
G75*
G02*
X220899999Y-42734000I249999J0D01*
G01*
X221550001Y-42734000D01*
G75*
G02*
X221800000Y-42983999I0J-249999D01*
G01*
X221800000Y-43884001D01*
G75*
G02*
X221550001Y-44134000I-249999J0D01*
G01*
X220899999Y-44134000D01*
G75*
G02*
X220650000Y-43884001I0J249999D01*
G01*
G37*
%TD.AperFunction*%
%TO.P,C8,2*%
%TO.N,GND*%
%TA.AperFunction,SMDPad,CuDef*%
G36*
G01*
X222700000Y-43884001D02*
X222700000Y-42983999D01*
G75*
G02*
X222949999Y-42734000I249999J0D01*
G01*
X223600001Y-42734000D01*
G75*
G02*
X223850000Y-42983999I0J-249999D01*
G01*
X223850000Y-43884001D01*
G75*
G02*
X223600001Y-44134000I-249999J0D01*
G01*
X222949999Y-44134000D01*
G75*
G02*
X222700000Y-43884001I0J249999D01*
G01*
G37*
%TD.AperFunction*%
%TD*%
D18*
%TO.P,OLED,4*%
%TO.N,Net-(U1-Pad4)*%
X174244000Y-47498000D03*
%TO.P,OLED,3*%
%TO.N,Net-(U1-Pad3)*%
X174244000Y-44958000D03*
%TO.P,OLED,2*%
%TO.N,GND*%
X174244000Y-42418000D03*
%TO.P,OLED,1*%
%TO.N,+5VD*%
X174244000Y-39878000D03*
%TD*%
%TO.P,C20,2*%
%TO.N,GND*%
%TA.AperFunction,SMDPad,CuDef*%
G36*
G01*
X201110001Y-63050000D02*
X200209999Y-63050000D01*
G75*
G02*
X199960000Y-62800001I0J249999D01*
G01*
X199960000Y-62149999D01*
G75*
G02*
X200209999Y-61900000I249999J0D01*
G01*
X201110001Y-61900000D01*
G75*
G02*
X201360000Y-62149999I0J-249999D01*
G01*
X201360000Y-62800001D01*
G75*
G02*
X201110001Y-63050000I-249999J0D01*
G01*
G37*
%TD.AperFunction*%
%TO.P,C20,1*%
%TO.N,+5VA*%
%TA.AperFunction,SMDPad,CuDef*%
G36*
G01*
X201110001Y-65100000D02*
X200209999Y-65100000D01*
G75*
G02*
X199960000Y-64850001I0J249999D01*
G01*
X199960000Y-64199999D01*
G75*
G02*
X200209999Y-63950000I249999J0D01*
G01*
X201110001Y-63950000D01*
G75*
G02*
X201360000Y-64199999I0J-249999D01*
G01*
X201360000Y-64850001D01*
G75*
G02*
X201110001Y-65100000I-249999J0D01*
G01*
G37*
%TD.AperFunction*%
%TD*%
D19*
%TO.P,D2,1*%
%TO.N,Net-(C9-Pad2)*%
X204756000Y-48768000D03*
%TO.P,D2,2*%
%TO.N,GND*%
X208756000Y-48768000D03*
%TD*%
D20*
%TO.P,D9,1*%
%TO.N,Net-(C5-Pad1)*%
X211962000Y-83312000D03*
%TO.P,D9,2*%
%TO.N,GNDA*%
X208662000Y-83312000D03*
%TD*%
%TO.P,C19,1*%
%TO.N,/aIn*%
%TA.AperFunction,SMDPad,CuDef*%
G36*
G01*
X181159999Y-59868000D02*
X182060001Y-59868000D01*
G75*
G02*
X182310000Y-60117999I0J-249999D01*
G01*
X182310000Y-60768001D01*
G75*
G02*
X182060001Y-61018000I-249999J0D01*
G01*
X181159999Y-61018000D01*
G75*
G02*
X180910000Y-60768001I0J249999D01*
G01*
X180910000Y-60117999D01*
G75*
G02*
X181159999Y-59868000I249999J0D01*
G01*
G37*
%TD.AperFunction*%
%TO.P,C19,2*%
%TO.N,GND*%
%TA.AperFunction,SMDPad,CuDef*%
G36*
G01*
X181159999Y-61918000D02*
X182060001Y-61918000D01*
G75*
G02*
X182310000Y-62167999I0J-249999D01*
G01*
X182310000Y-62818001D01*
G75*
G02*
X182060001Y-63068000I-249999J0D01*
G01*
X181159999Y-63068000D01*
G75*
G02*
X180910000Y-62818001I0J249999D01*
G01*
X180910000Y-62167999D01*
G75*
G02*
X181159999Y-61918000I249999J0D01*
G01*
G37*
%TD.AperFunction*%
%TD*%
%TO.P,C6,2*%
%TO.N,Net-(C5-Pad1)*%
%TA.AperFunction,SMDPad,CuDef*%
G36*
G01*
X211131999Y-77666000D02*
X212032001Y-77666000D01*
G75*
G02*
X212282000Y-77915999I0J-249999D01*
G01*
X212282000Y-78566001D01*
G75*
G02*
X212032001Y-78816000I-249999J0D01*
G01*
X211131999Y-78816000D01*
G75*
G02*
X210882000Y-78566001I0J249999D01*
G01*
X210882000Y-77915999D01*
G75*
G02*
X211131999Y-77666000I249999J0D01*
G01*
G37*
%TD.AperFunction*%
%TO.P,C6,1*%
%TO.N,Net-(C4-Pad2)*%
%TA.AperFunction,SMDPad,CuDef*%
G36*
G01*
X211131999Y-75616000D02*
X212032001Y-75616000D01*
G75*
G02*
X212282000Y-75865999I0J-249999D01*
G01*
X212282000Y-76516001D01*
G75*
G02*
X212032001Y-76766000I-249999J0D01*
G01*
X211131999Y-76766000D01*
G75*
G02*
X210882000Y-76516001I0J249999D01*
G01*
X210882000Y-75865999D01*
G75*
G02*
X211131999Y-75616000I249999J0D01*
G01*
G37*
%TD.AperFunction*%
%TD*%
%TO.P,C3,1*%
%TO.N,Net-(C1-Pad2)*%
%TA.AperFunction,SMDPad,CuDef*%
G36*
G01*
X210877999Y-60884000D02*
X211778001Y-60884000D01*
G75*
G02*
X212028000Y-61133999I0J-249999D01*
G01*
X212028000Y-61784001D01*
G75*
G02*
X211778001Y-62034000I-249999J0D01*
G01*
X210877999Y-62034000D01*
G75*
G02*
X210628000Y-61784001I0J249999D01*
G01*
X210628000Y-61133999D01*
G75*
G02*
X210877999Y-60884000I249999J0D01*
G01*
G37*
%TD.AperFunction*%
%TO.P,C3,2*%
%TO.N,Net-(C2-Pad1)*%
%TA.AperFunction,SMDPad,CuDef*%
G36*
G01*
X210877999Y-62934000D02*
X211778001Y-62934000D01*
G75*
G02*
X212028000Y-63183999I0J-249999D01*
G01*
X212028000Y-63834001D01*
G75*
G02*
X211778001Y-64084000I-249999J0D01*
G01*
X210877999Y-64084000D01*
G75*
G02*
X210628000Y-63834001I0J249999D01*
G01*
X210628000Y-63183999D01*
G75*
G02*
X210877999Y-62934000I249999J0D01*
G01*
G37*
%TD.AperFunction*%
%TD*%
%TO.P,C9,2*%
%TO.N,Net-(C9-Pad2)*%
%TA.AperFunction,SMDPad,CuDef*%
G36*
G01*
X222700000Y-40836001D02*
X222700000Y-39935999D01*
G75*
G02*
X222949999Y-39686000I249999J0D01*
G01*
X223600001Y-39686000D01*
G75*
G02*
X223850000Y-39935999I0J-249999D01*
G01*
X223850000Y-40836001D01*
G75*
G02*
X223600001Y-41086000I-249999J0D01*
G01*
X222949999Y-41086000D01*
G75*
G02*
X222700000Y-40836001I0J249999D01*
G01*
G37*
%TD.AperFunction*%
%TO.P,C9,1*%
%TO.N,Net-(C9-Pad1)*%
%TA.AperFunction,SMDPad,CuDef*%
G36*
G01*
X220650000Y-40836001D02*
X220650000Y-39935999D01*
G75*
G02*
X220899999Y-39686000I249999J0D01*
G01*
X221550001Y-39686000D01*
G75*
G02*
X221800000Y-39935999I0J-249999D01*
G01*
X221800000Y-40836001D01*
G75*
G02*
X221550001Y-41086000I-249999J0D01*
G01*
X220899999Y-41086000D01*
G75*
G02*
X220650000Y-40836001I0J249999D01*
G01*
G37*
%TD.AperFunction*%
%TD*%
%TO.P,C1,1*%
%TO.N,GNDA*%
%TA.AperFunction,SMDPad,CuDef*%
G36*
G01*
X208957000Y-59632001D02*
X208957000Y-58731999D01*
G75*
G02*
X209206999Y-58482000I249999J0D01*
G01*
X209857001Y-58482000D01*
G75*
G02*
X210107000Y-58731999I0J-249999D01*
G01*
X210107000Y-59632001D01*
G75*
G02*
X209857001Y-59882000I-249999J0D01*
G01*
X209206999Y-59882000D01*
G75*
G02*
X208957000Y-59632001I0J249999D01*
G01*
G37*
%TD.AperFunction*%
%TO.P,C1,2*%
%TO.N,Net-(C1-Pad2)*%
%TA.AperFunction,SMDPad,CuDef*%
G36*
G01*
X211007000Y-59632001D02*
X211007000Y-58731999D01*
G75*
G02*
X211256999Y-58482000I249999J0D01*
G01*
X211907001Y-58482000D01*
G75*
G02*
X212157000Y-58731999I0J-249999D01*
G01*
X212157000Y-59632001D01*
G75*
G02*
X211907001Y-59882000I-249999J0D01*
G01*
X211256999Y-59882000D01*
G75*
G02*
X211007000Y-59632001I0J249999D01*
G01*
G37*
%TD.AperFunction*%
%TD*%
%TO.P,C4,1*%
%TO.N,GNDA*%
%TA.AperFunction,SMDPad,CuDef*%
G36*
G01*
X208966000Y-74364001D02*
X208966000Y-73463999D01*
G75*
G02*
X209215999Y-73214000I249999J0D01*
G01*
X209866001Y-73214000D01*
G75*
G02*
X210116000Y-73463999I0J-249999D01*
G01*
X210116000Y-74364001D01*
G75*
G02*
X209866001Y-74614000I-249999J0D01*
G01*
X209215999Y-74614000D01*
G75*
G02*
X208966000Y-74364001I0J249999D01*
G01*
G37*
%TD.AperFunction*%
%TO.P,C4,2*%
%TO.N,Net-(C4-Pad2)*%
%TA.AperFunction,SMDPad,CuDef*%
G36*
G01*
X211016000Y-74364001D02*
X211016000Y-73463999D01*
G75*
G02*
X211265999Y-73214000I249999J0D01*
G01*
X211916001Y-73214000D01*
G75*
G02*
X212166000Y-73463999I0J-249999D01*
G01*
X212166000Y-74364001D01*
G75*
G02*
X211916001Y-74614000I-249999J0D01*
G01*
X211265999Y-74614000D01*
G75*
G02*
X211016000Y-74364001I0J249999D01*
G01*
G37*
%TD.AperFunction*%
%TD*%
%TO.P,C13,2*%
%TO.N,GNDA*%
%TA.AperFunction,SMDPad,CuDef*%
G36*
G01*
X194252001Y-35110000D02*
X193351999Y-35110000D01*
G75*
G02*
X193102000Y-34860001I0J249999D01*
G01*
X193102000Y-34209999D01*
G75*
G02*
X193351999Y-33960000I249999J0D01*
G01*
X194252001Y-33960000D01*
G75*
G02*
X194502000Y-34209999I0J-249999D01*
G01*
X194502000Y-34860001D01*
G75*
G02*
X194252001Y-35110000I-249999J0D01*
G01*
G37*
%TD.AperFunction*%
%TO.P,C13,1*%
%TO.N,Net-(C13-Pad1)*%
%TA.AperFunction,SMDPad,CuDef*%
G36*
G01*
X194252001Y-37160000D02*
X193351999Y-37160000D01*
G75*
G02*
X193102000Y-36910001I0J249999D01*
G01*
X193102000Y-36259999D01*
G75*
G02*
X193351999Y-36010000I249999J0D01*
G01*
X194252001Y-36010000D01*
G75*
G02*
X194502000Y-36259999I0J-249999D01*
G01*
X194502000Y-36910001D01*
G75*
G02*
X194252001Y-37160000I-249999J0D01*
G01*
G37*
%TD.AperFunction*%
%TD*%
%TO.P,C14,2*%
%TO.N,GND*%
%TA.AperFunction,SMDPad,CuDef*%
G36*
G01*
X224594000Y-79051999D02*
X224594000Y-79952001D01*
G75*
G02*
X224344001Y-80202000I-249999J0D01*
G01*
X223693999Y-80202000D01*
G75*
G02*
X223444000Y-79952001I0J249999D01*
G01*
X223444000Y-79051999D01*
G75*
G02*
X223693999Y-78802000I249999J0D01*
G01*
X224344001Y-78802000D01*
G75*
G02*
X224594000Y-79051999I0J-249999D01*
G01*
G37*
%TD.AperFunction*%
%TO.P,C14,1*%
%TO.N,/Current_sense_1*%
%TA.AperFunction,SMDPad,CuDef*%
G36*
G01*
X226644000Y-79051999D02*
X226644000Y-79952001D01*
G75*
G02*
X226394001Y-80202000I-249999J0D01*
G01*
X225743999Y-80202000D01*
G75*
G02*
X225494000Y-79952001I0J249999D01*
G01*
X225494000Y-79051999D01*
G75*
G02*
X225743999Y-78802000I249999J0D01*
G01*
X226394001Y-78802000D01*
G75*
G02*
X226644000Y-79051999I0J-249999D01*
G01*
G37*
%TD.AperFunction*%
%TD*%
D21*
%TO.P,D6,1*%
%TO.N,/sleepIn*%
X181610000Y-73530000D03*
%TO.P,D6,2*%
%TO.N,GND*%
X181610000Y-76330000D03*
%TD*%
%TO.P,D1,1*%
%TO.N,Net-(C9-Pad1)*%
X221110000Y-37846000D03*
%TO.P,D1,2*%
%TO.N,+5VD*%
X218310000Y-37846000D03*
%TD*%
%TO.P,R1,1*%
%TO.N,/Heater0*%
%TA.AperFunction,SMDPad,CuDef*%
G36*
G01*
X229812001Y-57988000D02*
X228911999Y-57988000D01*
G75*
G02*
X228662000Y-57738001I0J249999D01*
G01*
X228662000Y-57087999D01*
G75*
G02*
X228911999Y-56838000I249999J0D01*
G01*
X229812001Y-56838000D01*
G75*
G02*
X230062000Y-57087999I0J-249999D01*
G01*
X230062000Y-57738001D01*
G75*
G02*
X229812001Y-57988000I-249999J0D01*
G01*
G37*
%TD.AperFunction*%
%TO.P,R1,2*%
%TO.N,+5VA*%
%TA.AperFunction,SMDPad,CuDef*%
G36*
G01*
X229812001Y-55938000D02*
X228911999Y-55938000D01*
G75*
G02*
X228662000Y-55688001I0J249999D01*
G01*
X228662000Y-55037999D01*
G75*
G02*
X228911999Y-54788000I249999J0D01*
G01*
X229812001Y-54788000D01*
G75*
G02*
X230062000Y-55037999I0J-249999D01*
G01*
X230062000Y-55688001D01*
G75*
G02*
X229812001Y-55938000I-249999J0D01*
G01*
G37*
%TD.AperFunction*%
%TD*%
%TO.P,R4,2*%
%TO.N,Net-(J1-Pad1)*%
%TA.AperFunction,SMDPad,CuDef*%
G36*
G01*
X217366000Y-64458001D02*
X217366000Y-63557999D01*
G75*
G02*
X217615999Y-63308000I249999J0D01*
G01*
X218266001Y-63308000D01*
G75*
G02*
X218516000Y-63557999I0J-249999D01*
G01*
X218516000Y-64458001D01*
G75*
G02*
X218266001Y-64708000I-249999J0D01*
G01*
X217615999Y-64708000D01*
G75*
G02*
X217366000Y-64458001I0J249999D01*
G01*
G37*
%TD.AperFunction*%
%TO.P,R4,1*%
%TO.N,Net-(C2-Pad1)*%
%TA.AperFunction,SMDPad,CuDef*%
G36*
G01*
X215316000Y-64458001D02*
X215316000Y-63557999D01*
G75*
G02*
X215565999Y-63308000I249999J0D01*
G01*
X216216001Y-63308000D01*
G75*
G02*
X216466000Y-63557999I0J-249999D01*
G01*
X216466000Y-64458001D01*
G75*
G02*
X216216001Y-64708000I-249999J0D01*
G01*
X215565999Y-64708000D01*
G75*
G02*
X215316000Y-64458001I0J249999D01*
G01*
G37*
%TD.AperFunction*%
%TD*%
%TO.P,R13,2*%
%TO.N,Net-(R13-Pad2)*%
%TA.AperFunction,SMDPad,CuDef*%
G36*
G01*
X214687999Y-39058000D02*
X215588001Y-39058000D01*
G75*
G02*
X215838000Y-39307999I0J-249999D01*
G01*
X215838000Y-39958001D01*
G75*
G02*
X215588001Y-40208000I-249999J0D01*
G01*
X214687999Y-40208000D01*
G75*
G02*
X214438000Y-39958001I0J249999D01*
G01*
X214438000Y-39307999D01*
G75*
G02*
X214687999Y-39058000I249999J0D01*
G01*
G37*
%TD.AperFunction*%
%TO.P,R13,1*%
%TO.N,+5VD*%
%TA.AperFunction,SMDPad,CuDef*%
G36*
G01*
X214687999Y-37008000D02*
X215588001Y-37008000D01*
G75*
G02*
X215838000Y-37257999I0J-249999D01*
G01*
X215838000Y-37908001D01*
G75*
G02*
X215588001Y-38158000I-249999J0D01*
G01*
X214687999Y-38158000D01*
G75*
G02*
X214438000Y-37908001I0J249999D01*
G01*
X214438000Y-37257999D01*
G75*
G02*
X214687999Y-37008000I249999J0D01*
G01*
G37*
%TD.AperFunction*%
%TD*%
%TO.P,R7,1*%
%TO.N,Net-(C4-Pad2)*%
%TA.AperFunction,SMDPad,CuDef*%
G36*
G01*
X215316000Y-77666001D02*
X215316000Y-76765999D01*
G75*
G02*
X215565999Y-76516000I249999J0D01*
G01*
X216216001Y-76516000D01*
G75*
G02*
X216466000Y-76765999I0J-249999D01*
G01*
X216466000Y-77666001D01*
G75*
G02*
X216216001Y-77916000I-249999J0D01*
G01*
X215565999Y-77916000D01*
G75*
G02*
X215316000Y-77666001I0J249999D01*
G01*
G37*
%TD.AperFunction*%
%TO.P,R7,2*%
%TO.N,Net-(R7-Pad2)*%
%TA.AperFunction,SMDPad,CuDef*%
G36*
G01*
X217366000Y-77666001D02*
X217366000Y-76765999D01*
G75*
G02*
X217615999Y-76516000I249999J0D01*
G01*
X218266001Y-76516000D01*
G75*
G02*
X218516000Y-76765999I0J-249999D01*
G01*
X218516000Y-77666001D01*
G75*
G02*
X218266001Y-77916000I-249999J0D01*
G01*
X217615999Y-77916000D01*
G75*
G02*
X217366000Y-77666001I0J249999D01*
G01*
G37*
%TD.AperFunction*%
%TD*%
D22*
%TO.P,J6,3*%
%TO.N,GND*%
X249356000Y-63610000D03*
D23*
%TO.P,J6,1*%
%TO.N,+5VD*%
X261456000Y-63610000D03*
D24*
%TO.P,J6,2*%
%TO.N,Net-(J6-Pad2)*%
X258656000Y-63610000D03*
%TO.P,J6,5*%
%TO.N,N/C*%
X256756000Y-71010000D03*
%TO.P,J6,6*%
X259556000Y-71010000D03*
%TD*%
D20*
%TO.P,D11,1*%
%TO.N,Net-(C1-Pad2)*%
X211708000Y-56388000D03*
%TO.P,D11,2*%
%TO.N,GNDA*%
X208408000Y-56388000D03*
%TD*%
%TO.P,R2,2*%
%TO.N,Net-(J1-Pad1)*%
%TA.AperFunction,SMDPad,CuDef*%
G36*
G01*
X217366000Y-66998001D02*
X217366000Y-66097999D01*
G75*
G02*
X217615999Y-65848000I249999J0D01*
G01*
X218266001Y-65848000D01*
G75*
G02*
X218516000Y-66097999I0J-249999D01*
G01*
X218516000Y-66998001D01*
G75*
G02*
X218266001Y-67248000I-249999J0D01*
G01*
X217615999Y-67248000D01*
G75*
G02*
X217366000Y-66998001I0J249999D01*
G01*
G37*
%TD.AperFunction*%
%TO.P,R2,1*%
%TO.N,GNDA*%
%TA.AperFunction,SMDPad,CuDef*%
G36*
G01*
X215316000Y-66998001D02*
X215316000Y-66097999D01*
G75*
G02*
X215565999Y-65848000I249999J0D01*
G01*
X216216001Y-65848000D01*
G75*
G02*
X216466000Y-66097999I0J-249999D01*
G01*
X216466000Y-66998001D01*
G75*
G02*
X216216001Y-67248000I-249999J0D01*
G01*
X215565999Y-67248000D01*
G75*
G02*
X215316000Y-66998001I0J249999D01*
G01*
G37*
%TD.AperFunction*%
%TD*%
%TO.P,R6,1*%
%TO.N,Net-(J2-Pad1)*%
%TA.AperFunction,SMDPad,CuDef*%
G36*
G01*
X215316000Y-84270001D02*
X215316000Y-83369999D01*
G75*
G02*
X215565999Y-83120000I249999J0D01*
G01*
X216216001Y-83120000D01*
G75*
G02*
X216466000Y-83369999I0J-249999D01*
G01*
X216466000Y-84270001D01*
G75*
G02*
X216216001Y-84520000I-249999J0D01*
G01*
X215565999Y-84520000D01*
G75*
G02*
X215316000Y-84270001I0J249999D01*
G01*
G37*
%TD.AperFunction*%
%TO.P,R6,2*%
%TO.N,GNDA*%
%TA.AperFunction,SMDPad,CuDef*%
G36*
G01*
X217366000Y-84270001D02*
X217366000Y-83369999D01*
G75*
G02*
X217615999Y-83120000I249999J0D01*
G01*
X218266001Y-83120000D01*
G75*
G02*
X218516000Y-83369999I0J-249999D01*
G01*
X218516000Y-84270001D01*
G75*
G02*
X218266001Y-84520000I-249999J0D01*
G01*
X217615999Y-84520000D01*
G75*
G02*
X217366000Y-84270001I0J249999D01*
G01*
G37*
%TD.AperFunction*%
%TD*%
%TO.P,R9,1*%
%TO.N,/Clk*%
%TA.AperFunction,SMDPad,CuDef*%
G36*
G01*
X193218000Y-74618001D02*
X193218000Y-73717999D01*
G75*
G02*
X193467999Y-73468000I249999J0D01*
G01*
X194118001Y-73468000D01*
G75*
G02*
X194368000Y-73717999I0J-249999D01*
G01*
X194368000Y-74618001D01*
G75*
G02*
X194118001Y-74868000I-249999J0D01*
G01*
X193467999Y-74868000D01*
G75*
G02*
X193218000Y-74618001I0J249999D01*
G01*
G37*
%TD.AperFunction*%
%TO.P,R9,2*%
%TO.N,Net-(R9-Pad2)*%
%TA.AperFunction,SMDPad,CuDef*%
G36*
G01*
X195268000Y-74618001D02*
X195268000Y-73717999D01*
G75*
G02*
X195517999Y-73468000I249999J0D01*
G01*
X196168001Y-73468000D01*
G75*
G02*
X196418000Y-73717999I0J-249999D01*
G01*
X196418000Y-74618001D01*
G75*
G02*
X196168001Y-74868000I-249999J0D01*
G01*
X195517999Y-74868000D01*
G75*
G02*
X195268000Y-74618001I0J249999D01*
G01*
G37*
%TD.AperFunction*%
%TD*%
%TO.P,R12,2*%
%TO.N,Net-(R12-Pad2)*%
%TA.AperFunction,SMDPad,CuDef*%
G36*
G01*
X195268000Y-76904001D02*
X195268000Y-76003999D01*
G75*
G02*
X195517999Y-75754000I249999J0D01*
G01*
X196168001Y-75754000D01*
G75*
G02*
X196418000Y-76003999I0J-249999D01*
G01*
X196418000Y-76904001D01*
G75*
G02*
X196168001Y-77154000I-249999J0D01*
G01*
X195517999Y-77154000D01*
G75*
G02*
X195268000Y-76904001I0J249999D01*
G01*
G37*
%TD.AperFunction*%
%TO.P,R12,1*%
%TO.N,/\u005CCS*%
%TA.AperFunction,SMDPad,CuDef*%
G36*
G01*
X193218000Y-76904001D02*
X193218000Y-76003999D01*
G75*
G02*
X193467999Y-75754000I249999J0D01*
G01*
X194118001Y-75754000D01*
G75*
G02*
X194368000Y-76003999I0J-249999D01*
G01*
X194368000Y-76904001D01*
G75*
G02*
X194118001Y-77154000I-249999J0D01*
G01*
X193467999Y-77154000D01*
G75*
G02*
X193218000Y-76904001I0J249999D01*
G01*
G37*
%TD.AperFunction*%
%TD*%
D25*
%TO.P,U2,1*%
%TO.N,/aIn*%
X260858000Y-30226000D03*
D26*
%TO.P,U2,13*%
%TO.N,/Heater_pwm_1*%
X232918000Y-45466000D03*
%TO.P,U2,2*%
%TO.N,/bIn*%
X258318000Y-30226000D03*
%TO.P,U2,14*%
%TO.N,/MOSI*%
X235458000Y-45466000D03*
%TO.P,U2,3*%
%TO.N,GND*%
X255778000Y-30226000D03*
%TO.P,U2,15*%
%TO.N,/MISO*%
X237998000Y-45466000D03*
%TO.P,U2,4*%
%TO.N,GND*%
X253238000Y-30226000D03*
%TO.P,U2,16*%
%TO.N,/Clk*%
X240538000Y-45466000D03*
%TO.P,U2,5*%
%TO.N,Net-(R36-Pad2)*%
X250698000Y-30226000D03*
%TO.P,U2,17*%
%TO.N,Net-(R33-Pad2)*%
X243078000Y-45466000D03*
%TO.P,U2,6*%
%TO.N,Net-(R35-Pad2)*%
X248158000Y-30226000D03*
%TO.P,U2,18*%
%TO.N,/Current_sense_1*%
X245618000Y-45466000D03*
%TO.P,U2,7*%
%TO.N,/\u005CCS*%
X245618000Y-30226000D03*
%TO.P,U2,19*%
%TO.N,/Current_sense_0*%
X248158000Y-45466000D03*
%TO.P,U2,8*%
%TO.N,/led_data*%
X243078000Y-30226000D03*
%TO.P,U2,20*%
%TO.N,/VinDev*%
X250698000Y-45466000D03*
%TO.P,U2,9*%
%TO.N,/low_mosfet_0*%
X240538000Y-30226000D03*
%TO.P,U2,21*%
%TO.N,+5VD*%
X253238000Y-45466000D03*
%TO.P,U2,10*%
%TO.N,/swIn*%
X237998000Y-30226000D03*
%TO.P,U2,22*%
%TO.N,Net-(TP1-Pad1)*%
X255778000Y-45466000D03*
%TO.P,U2,11*%
%TO.N,/sleepIn*%
X235458000Y-30226000D03*
%TO.P,U2,23*%
%TO.N,GND*%
X258318000Y-45466000D03*
%TO.P,U2,12*%
%TO.N,/Heater_pwm_0*%
X232918000Y-30226000D03*
%TO.P,U2,24*%
%TO.N,N/C*%
X260858000Y-45466000D03*
%TD*%
D27*
%TO.P,U6,7*%
%TO.N,/Heater0*%
X230928000Y-66050000D03*
%TO.P,U6,6*%
%TO.N,Net-(R16-Pad1)*%
X230928000Y-65200000D03*
%TO.P,U6,5*%
%TO.N,/Current_sense_0*%
X230928000Y-64350000D03*
D28*
%TO.P,U6,4*%
%TO.N,+24V*%
X237998000Y-63500000D03*
D27*
%TO.P,U6,3*%
%TO.N,/Heater_pwm_0*%
X230928000Y-62650000D03*
%TO.P,U6,2*%
%TO.N,GND*%
X230928000Y-61800000D03*
%TO.P,U6,1*%
%TO.N,/Heater0*%
X230928000Y-60950000D03*
%TD*%
%TO.P,R33,2*%
%TO.N,Net-(R33-Pad2)*%
%TA.AperFunction,SMDPad,CuDef*%
G36*
G01*
X217473000Y-34093999D02*
X217473000Y-34994001D01*
G75*
G02*
X217223001Y-35244000I-249999J0D01*
G01*
X216572999Y-35244000D01*
G75*
G02*
X216323000Y-34994001I0J249999D01*
G01*
X216323000Y-34093999D01*
G75*
G02*
X216572999Y-33844000I249999J0D01*
G01*
X217223001Y-33844000D01*
G75*
G02*
X217473000Y-34093999I0J-249999D01*
G01*
G37*
%TD.AperFunction*%
%TO.P,R33,1*%
%TO.N,+5VD*%
%TA.AperFunction,SMDPad,CuDef*%
G36*
G01*
X219523000Y-34093999D02*
X219523000Y-34994001D01*
G75*
G02*
X219273001Y-35244000I-249999J0D01*
G01*
X218622999Y-35244000D01*
G75*
G02*
X218373000Y-34994001I0J249999D01*
G01*
X218373000Y-34093999D01*
G75*
G02*
X218622999Y-33844000I249999J0D01*
G01*
X219273001Y-33844000D01*
G75*
G02*
X219523000Y-34093999I0J-249999D01*
G01*
G37*
%TD.AperFunction*%
%TD*%
%TO.P,C17,2*%
%TO.N,GND*%
%TA.AperFunction,SMDPad,CuDef*%
G36*
G01*
X172015999Y-61918000D02*
X172916001Y-61918000D01*
G75*
G02*
X173166000Y-62167999I0J-249999D01*
G01*
X173166000Y-62818001D01*
G75*
G02*
X172916001Y-63068000I-249999J0D01*
G01*
X172015999Y-63068000D01*
G75*
G02*
X171766000Y-62818001I0J249999D01*
G01*
X171766000Y-62167999D01*
G75*
G02*
X172015999Y-61918000I249999J0D01*
G01*
G37*
%TD.AperFunction*%
%TO.P,C17,1*%
%TO.N,/swIn*%
%TA.AperFunction,SMDPad,CuDef*%
G36*
G01*
X172015999Y-59868000D02*
X172916001Y-59868000D01*
G75*
G02*
X173166000Y-60117999I0J-249999D01*
G01*
X173166000Y-60768001D01*
G75*
G02*
X172916001Y-61018000I-249999J0D01*
G01*
X172015999Y-61018000D01*
G75*
G02*
X171766000Y-60768001I0J249999D01*
G01*
X171766000Y-60117999D01*
G75*
G02*
X172015999Y-59868000I249999J0D01*
G01*
G37*
%TD.AperFunction*%
%TD*%
D29*
%TO.P,U4,1*%
%TO.N,Net-(C9-Pad1)*%
X219136000Y-40560000D03*
%TO.P,U4,2*%
%TO.N,GND*%
X218186000Y-40560000D03*
%TO.P,U4,3*%
%TO.N,Net-(R13-Pad2)*%
X217236000Y-40560000D03*
%TO.P,U4,4*%
%TO.N,+24V*%
X217236000Y-43260000D03*
%TO.P,U4,6*%
%TO.N,Net-(C9-Pad2)*%
X219136000Y-43260000D03*
%TO.P,U4,5*%
%TO.N,+24V*%
X218186000Y-43260000D03*
%TD*%
D30*
%TO.P,TP1,1*%
%TO.N,Net-(TP1-Pad1)*%
X181610000Y-32004000D03*
%TD*%
D31*
%TO.P,U8,1*%
%TO.N,+5VA*%
X226314000Y-52070000D03*
%TO.P,U8,3*%
%TO.N,Net-(R3-Pad2)*%
X223774000Y-59690000D03*
%TO.P,U8,2*%
%TO.N,Net-(R17-Pad1)*%
X223774000Y-52070000D03*
%TO.P,U8,4*%
%TO.N,/Heater0*%
X226314000Y-59690000D03*
%TD*%
D30*
%TO.P,TP2,1*%
%TO.N,+5VD*%
X175514000Y-32258000D03*
%TD*%
%TO.P,TP3,1*%
%TO.N,GND*%
X181610000Y-37592000D03*
%TD*%
D27*
%TO.P,U7,1*%
%TO.N,/Heater1*%
X231182000Y-74666000D03*
%TO.P,U7,2*%
%TO.N,GND*%
X231182000Y-75516000D03*
%TO.P,U7,3*%
%TO.N,/Heater_pwm_1*%
X231182000Y-76366000D03*
D28*
%TO.P,U7,4*%
%TO.N,+24V*%
X238252000Y-77216000D03*
D27*
%TO.P,U7,5*%
%TO.N,/Current_sense_1*%
X231182000Y-78066000D03*
%TO.P,U7,6*%
%TO.N,Net-(R19-Pad1)*%
X231182000Y-78916000D03*
%TO.P,U7,7*%
%TO.N,/Heater1*%
X231182000Y-79766000D03*
%TD*%
D32*
%TO.P,U5,1*%
%TO.N,N/C*%
X194183000Y-44610000D03*
%TO.P,U5,2*%
%TO.N,+24V*%
X195453000Y-44610000D03*
%TO.P,U5,3*%
%TO.N,N/C*%
X196723000Y-44610000D03*
%TO.P,U5,4*%
%TO.N,GNDA*%
X197993000Y-44610000D03*
%TO.P,U5,5*%
%TO.N,N/C*%
X197993000Y-39210000D03*
%TO.P,U5,6*%
%TO.N,+5VA*%
X196723000Y-39210000D03*
%TO.P,U5,7*%
%TO.N,N/C*%
X195453000Y-39210000D03*
%TO.P,U5,8*%
%TO.N,Net-(C13-Pad1)*%
X194183000Y-39210000D03*
D33*
%TO.P,U5,9*%
%TO.N,N/C*%
X196088000Y-41910000D03*
%TD*%
D31*
%TO.P,U9,4*%
%TO.N,/Heater1*%
X226314000Y-76962000D03*
%TO.P,U9,2*%
%TO.N,Net-(R20-Pad1)*%
X223774000Y-69342000D03*
%TO.P,U9,3*%
%TO.N,Net-(R7-Pad2)*%
X223774000Y-76962000D03*
%TO.P,U9,1*%
%TO.N,+5VA*%
X226314000Y-69342000D03*
%TD*%
D20*
%TO.P,D8,2*%
%TO.N,GNDA*%
X208408000Y-71374000D03*
%TO.P,D8,1*%
%TO.N,Net-(C4-Pad2)*%
X211708000Y-71374000D03*
%TD*%
%TO.P,D10,2*%
%TO.N,GNDA*%
X208408000Y-68580000D03*
%TO.P,D10,1*%
%TO.N,Net-(C2-Pad1)*%
X211708000Y-68580000D03*
%TD*%
%TO.P,U3,1*%
%TO.N,Net-(R9-Pad2)*%
%TA.AperFunction,SMDPad,CuDef*%
G36*
G01*
X198993000Y-74720000D02*
X198793000Y-74720000D01*
G75*
G02*
X198693000Y-74620000I0J100000D01*
G01*
X198693000Y-73345000D01*
G75*
G02*
X198793000Y-73245000I100000J0D01*
G01*
X198993000Y-73245000D01*
G75*
G02*
X199093000Y-73345000I0J-100000D01*
G01*
X199093000Y-74620000D01*
G75*
G02*
X198993000Y-74720000I-100000J0D01*
G01*
G37*
%TD.AperFunction*%
%TO.P,U3,2*%
%TO.N,Net-(R12-Pad2)*%
%TA.AperFunction,SMDPad,CuDef*%
G36*
G01*
X199643000Y-74720000D02*
X199443000Y-74720000D01*
G75*
G02*
X199343000Y-74620000I0J100000D01*
G01*
X199343000Y-73345000D01*
G75*
G02*
X199443000Y-73245000I100000J0D01*
G01*
X199643000Y-73245000D01*
G75*
G02*
X199743000Y-73345000I0J-100000D01*
G01*
X199743000Y-74620000D01*
G75*
G02*
X199643000Y-74720000I-100000J0D01*
G01*
G37*
%TD.AperFunction*%
%TO.P,U3,3*%
%TO.N,N/C*%
%TA.AperFunction,SMDPad,CuDef*%
G36*
G01*
X200293000Y-74720000D02*
X200093000Y-74720000D01*
G75*
G02*
X199993000Y-74620000I0J100000D01*
G01*
X199993000Y-73345000D01*
G75*
G02*
X200093000Y-73245000I100000J0D01*
G01*
X200293000Y-73245000D01*
G75*
G02*
X200393000Y-73345000I0J-100000D01*
G01*
X200393000Y-74620000D01*
G75*
G02*
X200293000Y-74720000I-100000J0D01*
G01*
G37*
%TD.AperFunction*%
%TO.P,U3,4*%
%TO.N,GND*%
%TA.AperFunction,SMDPad,CuDef*%
G36*
G01*
X200943000Y-74720000D02*
X200743000Y-74720000D01*
G75*
G02*
X200643000Y-74620000I0J100000D01*
G01*
X200643000Y-73345000D01*
G75*
G02*
X200743000Y-73245000I100000J0D01*
G01*
X200943000Y-73245000D01*
G75*
G02*
X201043000Y-73345000I0J-100000D01*
G01*
X201043000Y-74620000D01*
G75*
G02*
X200943000Y-74720000I-100000J0D01*
G01*
G37*
%TD.AperFunction*%
%TO.P,U3,5*%
%TO.N,GNDA*%
%TA.AperFunction,SMDPad,CuDef*%
G36*
G01*
X201593000Y-74720000D02*
X201393000Y-74720000D01*
G75*
G02*
X201293000Y-74620000I0J100000D01*
G01*
X201293000Y-73345000D01*
G75*
G02*
X201393000Y-73245000I100000J0D01*
G01*
X201593000Y-73245000D01*
G75*
G02*
X201693000Y-73345000I0J-100000D01*
G01*
X201693000Y-74620000D01*
G75*
G02*
X201593000Y-74720000I-100000J0D01*
G01*
G37*
%TD.AperFunction*%
%TO.P,U3,6*%
%TO.N,Net-(C5-Pad1)*%
%TA.AperFunction,SMDPad,CuDef*%
G36*
G01*
X202243000Y-74720000D02*
X202043000Y-74720000D01*
G75*
G02*
X201943000Y-74620000I0J100000D01*
G01*
X201943000Y-73345000D01*
G75*
G02*
X202043000Y-73245000I100000J0D01*
G01*
X202243000Y-73245000D01*
G75*
G02*
X202343000Y-73345000I0J-100000D01*
G01*
X202343000Y-74620000D01*
G75*
G02*
X202243000Y-74720000I-100000J0D01*
G01*
G37*
%TD.AperFunction*%
%TO.P,U3,7*%
%TO.N,Net-(C4-Pad2)*%
%TA.AperFunction,SMDPad,CuDef*%
G36*
G01*
X202893000Y-74720000D02*
X202693000Y-74720000D01*
G75*
G02*
X202593000Y-74620000I0J100000D01*
G01*
X202593000Y-73345000D01*
G75*
G02*
X202693000Y-73245000I100000J0D01*
G01*
X202893000Y-73245000D01*
G75*
G02*
X202993000Y-73345000I0J-100000D01*
G01*
X202993000Y-74620000D01*
G75*
G02*
X202893000Y-74720000I-100000J0D01*
G01*
G37*
%TD.AperFunction*%
%TO.P,U3,8*%
%TO.N,N/C*%
%TA.AperFunction,SMDPad,CuDef*%
G36*
G01*
X203543000Y-74720000D02*
X203343000Y-74720000D01*
G75*
G02*
X203243000Y-74620000I0J100000D01*
G01*
X203243000Y-73345000D01*
G75*
G02*
X203343000Y-73245000I100000J0D01*
G01*
X203543000Y-73245000D01*
G75*
G02*
X203643000Y-73345000I0J-100000D01*
G01*
X203643000Y-74620000D01*
G75*
G02*
X203543000Y-74720000I-100000J0D01*
G01*
G37*
%TD.AperFunction*%
%TO.P,U3,9*%
%TA.AperFunction,SMDPad,CuDef*%
G36*
G01*
X203543000Y-68995000D02*
X203343000Y-68995000D01*
G75*
G02*
X203243000Y-68895000I0J100000D01*
G01*
X203243000Y-67620000D01*
G75*
G02*
X203343000Y-67520000I100000J0D01*
G01*
X203543000Y-67520000D01*
G75*
G02*
X203643000Y-67620000I0J-100000D01*
G01*
X203643000Y-68895000D01*
G75*
G02*
X203543000Y-68995000I-100000J0D01*
G01*
G37*
%TD.AperFunction*%
%TO.P,U3,10*%
%TO.N,Net-(C2-Pad1)*%
%TA.AperFunction,SMDPad,CuDef*%
G36*
G01*
X202893000Y-68995000D02*
X202693000Y-68995000D01*
G75*
G02*
X202593000Y-68895000I0J100000D01*
G01*
X202593000Y-67620000D01*
G75*
G02*
X202693000Y-67520000I100000J0D01*
G01*
X202893000Y-67520000D01*
G75*
G02*
X202993000Y-67620000I0J-100000D01*
G01*
X202993000Y-68895000D01*
G75*
G02*
X202893000Y-68995000I-100000J0D01*
G01*
G37*
%TD.AperFunction*%
%TO.P,U3,11*%
%TO.N,Net-(C1-Pad2)*%
%TA.AperFunction,SMDPad,CuDef*%
G36*
G01*
X202243000Y-68995000D02*
X202043000Y-68995000D01*
G75*
G02*
X201943000Y-68895000I0J100000D01*
G01*
X201943000Y-67620000D01*
G75*
G02*
X202043000Y-67520000I100000J0D01*
G01*
X202243000Y-67520000D01*
G75*
G02*
X202343000Y-67620000I0J-100000D01*
G01*
X202343000Y-68895000D01*
G75*
G02*
X202243000Y-68995000I-100000J0D01*
G01*
G37*
%TD.AperFunction*%
%TO.P,U3,12*%
%TO.N,+5VA*%
%TA.AperFunction,SMDPad,CuDef*%
G36*
G01*
X201593000Y-68995000D02*
X201393000Y-68995000D01*
G75*
G02*
X201293000Y-68895000I0J100000D01*
G01*
X201293000Y-67620000D01*
G75*
G02*
X201393000Y-67520000I100000J0D01*
G01*
X201593000Y-67520000D01*
G75*
G02*
X201693000Y-67620000I0J-100000D01*
G01*
X201693000Y-68895000D01*
G75*
G02*
X201593000Y-68995000I-100000J0D01*
G01*
G37*
%TD.AperFunction*%
%TO.P,U3,13*%
%TO.N,+5VD*%
%TA.AperFunction,SMDPad,CuDef*%
G36*
G01*
X200943000Y-68995000D02*
X200743000Y-68995000D01*
G75*
G02*
X200643000Y-68895000I0J100000D01*
G01*
X200643000Y-67620000D01*
G75*
G02*
X200743000Y-67520000I100000J0D01*
G01*
X200943000Y-67520000D01*
G75*
G02*
X201043000Y-67620000I0J-100000D01*
G01*
X201043000Y-68895000D01*
G75*
G02*
X200943000Y-68995000I-100000J0D01*
G01*
G37*
%TD.AperFunction*%
%TO.P,U3,14*%
%TO.N,N/C*%
%TA.AperFunction,SMDPad,CuDef*%
G36*
G01*
X200293000Y-68995000D02*
X200093000Y-68995000D01*
G75*
G02*
X199993000Y-68895000I0J100000D01*
G01*
X199993000Y-67620000D01*
G75*
G02*
X200093000Y-67520000I100000J0D01*
G01*
X200293000Y-67520000D01*
G75*
G02*
X200393000Y-67620000I0J-100000D01*
G01*
X200393000Y-68895000D01*
G75*
G02*
X200293000Y-68995000I-100000J0D01*
G01*
G37*
%TD.AperFunction*%
%TO.P,U3,15*%
%TO.N,Net-(R11-Pad2)*%
%TA.AperFunction,SMDPad,CuDef*%
G36*
G01*
X199643000Y-68995000D02*
X199443000Y-68995000D01*
G75*
G02*
X199343000Y-68895000I0J100000D01*
G01*
X199343000Y-67620000D01*
G75*
G02*
X199443000Y-67520000I100000J0D01*
G01*
X199643000Y-67520000D01*
G75*
G02*
X199743000Y-67620000I0J-100000D01*
G01*
X199743000Y-68895000D01*
G75*
G02*
X199643000Y-68995000I-100000J0D01*
G01*
G37*
%TD.AperFunction*%
%TO.P,U3,16*%
%TO.N,Net-(R10-Pad2)*%
%TA.AperFunction,SMDPad,CuDef*%
G36*
G01*
X198993000Y-68995000D02*
X198793000Y-68995000D01*
G75*
G02*
X198693000Y-68895000I0J100000D01*
G01*
X198693000Y-67620000D01*
G75*
G02*
X198793000Y-67520000I100000J0D01*
G01*
X198993000Y-67520000D01*
G75*
G02*
X199093000Y-67620000I0J-100000D01*
G01*
X199093000Y-68895000D01*
G75*
G02*
X198993000Y-68995000I-100000J0D01*
G01*
G37*
%TD.AperFunction*%
%TD*%
%TO.P,R32,1*%
%TO.N,N/C*%
%TA.AperFunction,SMDPad,CuDef*%
G36*
G01*
X169850000Y-58616001D02*
X169850000Y-57715999D01*
G75*
G02*
X170099999Y-57466000I249999J0D01*
G01*
X170750001Y-57466000D01*
G75*
G02*
X171000000Y-57715999I0J-249999D01*
G01*
X171000000Y-58616001D01*
G75*
G02*
X170750001Y-58866000I-249999J0D01*
G01*
X170099999Y-58866000D01*
G75*
G02*
X169850000Y-58616001I0J249999D01*
G01*
G37*
%TD.AperFunction*%
%TO.P,R32,2*%
%TO.N,/swIn*%
%TA.AperFunction,SMDPad,CuDef*%
G36*
G01*
X171900000Y-58616001D02*
X171900000Y-57715999D01*
G75*
G02*
X172149999Y-57466000I249999J0D01*
G01*
X172800001Y-57466000D01*
G75*
G02*
X173050000Y-57715999I0J-249999D01*
G01*
X173050000Y-58616001D01*
G75*
G02*
X172800001Y-58866000I-249999J0D01*
G01*
X172149999Y-58866000D01*
G75*
G02*
X171900000Y-58616001I0J249999D01*
G01*
G37*
%TD.AperFunction*%
%TD*%
%TO.P,R34,1*%
%TO.N,Net-(R33-Pad2)*%
%TA.AperFunction,SMDPad,CuDef*%
G36*
G01*
X215214000Y-34093999D02*
X215214000Y-34994001D01*
G75*
G02*
X214964001Y-35244000I-249999J0D01*
G01*
X214313999Y-35244000D01*
G75*
G02*
X214064000Y-34994001I0J249999D01*
G01*
X214064000Y-34093999D01*
G75*
G02*
X214313999Y-33844000I249999J0D01*
G01*
X214964001Y-33844000D01*
G75*
G02*
X215214000Y-34093999I0J-249999D01*
G01*
G37*
%TD.AperFunction*%
%TO.P,R34,2*%
%TO.N,GND*%
%TA.AperFunction,SMDPad,CuDef*%
G36*
G01*
X213164000Y-34093999D02*
X213164000Y-34994001D01*
G75*
G02*
X212914001Y-35244000I-249999J0D01*
G01*
X212263999Y-35244000D01*
G75*
G02*
X212014000Y-34994001I0J249999D01*
G01*
X212014000Y-34093999D01*
G75*
G02*
X212263999Y-33844000I249999J0D01*
G01*
X212914001Y-33844000D01*
G75*
G02*
X213164000Y-34093999I0J-249999D01*
G01*
G37*
%TD.AperFunction*%
%TD*%
D21*
%TO.P,D7,2*%
%TO.N,GND*%
X228476000Y-43688000D03*
%TO.P,D7,1*%
%TO.N,/VinDev*%
X225676000Y-43688000D03*
%TD*%
%TO.P,C10,2*%
%TO.N,GND*%
%TA.AperFunction,SMDPad,CuDef*%
G36*
G01*
X210000000Y-36772001D02*
X210000000Y-35871999D01*
G75*
G02*
X210249999Y-35622000I249999J0D01*
G01*
X210900001Y-35622000D01*
G75*
G02*
X211150000Y-35871999I0J-249999D01*
G01*
X211150000Y-36772001D01*
G75*
G02*
X210900001Y-37022000I-249999J0D01*
G01*
X210249999Y-37022000D01*
G75*
G02*
X210000000Y-36772001I0J249999D01*
G01*
G37*
%TD.AperFunction*%
%TO.P,C10,1*%
%TO.N,+5VD*%
%TA.AperFunction,SMDPad,CuDef*%
G36*
G01*
X207950000Y-36772001D02*
X207950000Y-35871999D01*
G75*
G02*
X208199999Y-35622000I249999J0D01*
G01*
X208850001Y-35622000D01*
G75*
G02*
X209100000Y-35871999I0J-249999D01*
G01*
X209100000Y-36772001D01*
G75*
G02*
X208850001Y-37022000I-249999J0D01*
G01*
X208199999Y-37022000D01*
G75*
G02*
X207950000Y-36772001I0J249999D01*
G01*
G37*
%TD.AperFunction*%
%TD*%
%TO.P,C12,1*%
%TO.N,+24V*%
%TA.AperFunction,SMDPad,CuDef*%
G36*
G01*
X195129999Y-46660000D02*
X196030001Y-46660000D01*
G75*
G02*
X196280000Y-46909999I0J-249999D01*
G01*
X196280000Y-47560001D01*
G75*
G02*
X196030001Y-47810000I-249999J0D01*
G01*
X195129999Y-47810000D01*
G75*
G02*
X194880000Y-47560001I0J249999D01*
G01*
X194880000Y-46909999D01*
G75*
G02*
X195129999Y-46660000I249999J0D01*
G01*
G37*
%TD.AperFunction*%
%TO.P,C12,2*%
%TO.N,GND*%
%TA.AperFunction,SMDPad,CuDef*%
G36*
G01*
X195129999Y-48710000D02*
X196030001Y-48710000D01*
G75*
G02*
X196280000Y-48959999I0J-249999D01*
G01*
X196280000Y-49610001D01*
G75*
G02*
X196030001Y-49860000I-249999J0D01*
G01*
X195129999Y-49860000D01*
G75*
G02*
X194880000Y-49610001I0J249999D01*
G01*
X194880000Y-48959999D01*
G75*
G02*
X195129999Y-48710000I249999J0D01*
G01*
G37*
%TD.AperFunction*%
%TD*%
D30*
%TO.P,TP4,1*%
%TO.N,Net-(R33-Pad2)*%
X181610000Y-43434000D03*
%TD*%
D34*
%TO.P,SW1,*%
%TO.N,*%
X173944000Y-77432000D03*
X173944000Y-66632000D03*
D35*
%TO.P,SW1,5*%
%TO.N,N/C*%
X175229000Y-69732000D03*
%TO.P,SW1,4*%
X175229000Y-74732000D03*
%TO.P,SW1,3*%
X172794000Y-74732000D03*
%TO.P,SW1,2*%
X172794000Y-72232000D03*
%TO.P,SW1,1*%
X172794000Y-69732000D03*
%TD*%
%TO.P,C2,2*%
%TO.N,GNDA*%
%TA.AperFunction,SMDPad,CuDef*%
G36*
G01*
X210116000Y-65589999D02*
X210116000Y-66490001D01*
G75*
G02*
X209866001Y-66740000I-249999J0D01*
G01*
X209215999Y-66740000D01*
G75*
G02*
X208966000Y-66490001I0J249999D01*
G01*
X208966000Y-65589999D01*
G75*
G02*
X209215999Y-65340000I249999J0D01*
G01*
X209866001Y-65340000D01*
G75*
G02*
X210116000Y-65589999I0J-249999D01*
G01*
G37*
%TD.AperFunction*%
%TO.P,C2,1*%
%TO.N,Net-(C2-Pad1)*%
%TA.AperFunction,SMDPad,CuDef*%
G36*
G01*
X212166000Y-65589999D02*
X212166000Y-66490001D01*
G75*
G02*
X211916001Y-66740000I-249999J0D01*
G01*
X211265999Y-66740000D01*
G75*
G02*
X211016000Y-66490001I0J249999D01*
G01*
X211016000Y-65589999D01*
G75*
G02*
X211265999Y-65340000I249999J0D01*
G01*
X211916001Y-65340000D01*
G75*
G02*
X212166000Y-65589999I0J-249999D01*
G01*
G37*
%TD.AperFunction*%
%TD*%
%TO.P,C11,1*%
%TO.N,/Current_sense_0*%
%TA.AperFunction,SMDPad,CuDef*%
G36*
G01*
X224612000Y-61779999D02*
X224612000Y-62680001D01*
G75*
G02*
X224362001Y-62930000I-249999J0D01*
G01*
X223711999Y-62930000D01*
G75*
G02*
X223462000Y-62680001I0J249999D01*
G01*
X223462000Y-61779999D01*
G75*
G02*
X223711999Y-61530000I249999J0D01*
G01*
X224362001Y-61530000D01*
G75*
G02*
X224612000Y-61779999I0J-249999D01*
G01*
G37*
%TD.AperFunction*%
%TO.P,C11,2*%
%TO.N,GND*%
%TA.AperFunction,SMDPad,CuDef*%
G36*
G01*
X222562000Y-61779999D02*
X222562000Y-62680001D01*
G75*
G02*
X222312001Y-62930000I-249999J0D01*
G01*
X221661999Y-62930000D01*
G75*
G02*
X221412000Y-62680001I0J249999D01*
G01*
X221412000Y-61779999D01*
G75*
G02*
X221661999Y-61530000I249999J0D01*
G01*
X222312001Y-61530000D01*
G75*
G02*
X222562000Y-61779999I0J-249999D01*
G01*
G37*
%TD.AperFunction*%
%TD*%
%TO.P,C5,2*%
%TO.N,GNDA*%
%TA.AperFunction,SMDPad,CuDef*%
G36*
G01*
X210370000Y-80067999D02*
X210370000Y-80968001D01*
G75*
G02*
X210120001Y-81218000I-249999J0D01*
G01*
X209469999Y-81218000D01*
G75*
G02*
X209220000Y-80968001I0J249999D01*
G01*
X209220000Y-80067999D01*
G75*
G02*
X209469999Y-79818000I249999J0D01*
G01*
X210120001Y-79818000D01*
G75*
G02*
X210370000Y-80067999I0J-249999D01*
G01*
G37*
%TD.AperFunction*%
%TO.P,C5,1*%
%TO.N,Net-(C5-Pad1)*%
%TA.AperFunction,SMDPad,CuDef*%
G36*
G01*
X212420000Y-80067999D02*
X212420000Y-80968001D01*
G75*
G02*
X212170001Y-81218000I-249999J0D01*
G01*
X211519999Y-81218000D01*
G75*
G02*
X211270000Y-80968001I0J249999D01*
G01*
X211270000Y-80067999D01*
G75*
G02*
X211519999Y-79818000I249999J0D01*
G01*
X212170001Y-79818000D01*
G75*
G02*
X212420000Y-80067999I0J-249999D01*
G01*
G37*
%TD.AperFunction*%
%TD*%
D36*
%TO.N,GNDA*%
X209550000Y-60706000D03*
X209550000Y-78994000D03*
X201930000Y-72390000D03*
X207010000Y-71374000D03*
X203454000Y-45720000D03*
X209550000Y-64516000D03*
X209545340Y-75433340D03*
X200914000Y-44196000D03*
%TO.N,GND*%
X197104000Y-49276000D03*
X181864000Y-46990000D03*
X183388000Y-76200000D03*
X226060000Y-42164000D03*
X199644000Y-60960000D03*
X176784000Y-64008000D03*
X210820000Y-48768000D03*
X252730000Y-63500000D03*
X200914000Y-76454000D03*
X227076000Y-61290002D03*
X215900000Y-47498000D03*
X228854000Y-75184000D03*
X221812000Y-60706000D03*
X183134000Y-62484000D03*
X216662000Y-38862000D03*
X222504000Y-67056000D03*
X210566000Y-35052000D03*
X171150010Y-62484000D03*
X222504000Y-80518000D03*
X243840000Y-35814000D03*
%TO.N,+5VD*%
X202184000Y-44196000D03*
X186436000Y-62484000D03*
X172466000Y-50546000D03*
X183388000Y-52832000D03*
X172466000Y-52324000D03*
X191008000Y-46228000D03*
X190754000Y-62484000D03*
X249682000Y-35814000D03*
%TO.N,Net-(C9-Pad2)*%
X204724000Y-46482000D03*
X204724000Y-44196000D03*
%TO.N,/Current_sense_0*%
X228581809Y-64298999D03*
%TO.N,/Current_sense_1*%
X228512000Y-78066000D03*
%TO.N,+5VA*%
X234188000Y-70358000D03*
X234188000Y-52832000D03*
%TO.N,/led_data*%
X211582000Y-28177848D03*
X206502000Y-29972000D03*
%TO.N,/sleepIn*%
X207936734Y-29619949D03*
X210083936Y-28396630D03*
%TO.N,Net-(J1-Pad1)*%
X248666000Y-54356000D03*
X221996000Y-57912000D03*
X218948000Y-57912000D03*
%TO.N,Net-(J2-Pad1)*%
X262636000Y-85090000D03*
%TO.N,Net-(J6-Pad2)*%
X261874000Y-75438000D03*
X231025576Y-86206883D03*
X184150000Y-81280000D03*
X184150000Y-79756000D03*
%TO.N,/low_mosfet_0*%
X214630000Y-69342000D03*
X248920000Y-50038000D03*
X229743000Y-49911000D03*
X216916000Y-50800000D03*
%TO.N,Net-(R3-Pad2)*%
X221996000Y-59182000D03*
X218186000Y-59182000D03*
%TO.N,/\u005CCS*%
X245872000Y-33528000D03*
X245364000Y-38100000D03*
%TO.N,Net-(R16-Pad1)*%
X229103860Y-66549256D03*
X225043990Y-65776990D03*
%TO.N,Net-(R17-Pad1)*%
X218948000Y-50800000D03*
X221996000Y-50800000D03*
%TO.N,Net-(R33-Pad2)*%
X184222937Y-44911728D03*
X190888481Y-44569519D03*
%TO.N,/Heater_pwm_0*%
X229131821Y-63463828D03*
%TO.N,/Heater_pwm_1*%
X229108000Y-76962000D03*
X233172000Y-41656000D03*
X237236000Y-34544000D03*
%TD*%
D37*
%TO.N,*%
X172720000Y-64262000D02*
X170942000Y-66040000D01*
X171196000Y-73134000D02*
X172794000Y-74732000D01*
X175260000Y-79756000D02*
X176530000Y-78486000D01*
X171450000Y-79756000D02*
X175260000Y-79756000D01*
X174997000Y-58166000D02*
X174997000Y-63255000D01*
X170942000Y-72898000D02*
X170960000Y-72898000D01*
X179578000Y-63264000D02*
X179578000Y-70358000D01*
X179569000Y-58166000D02*
X179569000Y-63255000D01*
X170425000Y-58166000D02*
X170425000Y-78731000D01*
X174997000Y-63255000D02*
X173990000Y-64262000D01*
X176530000Y-78486000D02*
X176530000Y-76033000D01*
X179578000Y-70358000D02*
X178562000Y-71374000D01*
X170425000Y-78731000D02*
X171450000Y-79756000D01*
X179569000Y-63255000D02*
X179578000Y-63264000D01*
X176530000Y-76033000D02*
X175229000Y-74732000D01*
X178562000Y-71374000D02*
X174436000Y-71374000D01*
X174436000Y-71374000D02*
X172794000Y-69732000D01*
X170942000Y-66040000D02*
X170942000Y-72898000D01*
X170960000Y-72898000D02*
X171196000Y-73134000D01*
X173990000Y-64262000D02*
X172720000Y-64262000D01*
%TO.N,Net-(C1-Pad2)*%
X211582000Y-59182000D02*
X211582000Y-56514000D01*
X212852000Y-60452000D02*
X212598000Y-60198000D01*
X212335000Y-60452000D02*
X211328000Y-61459000D01*
X215891000Y-60452000D02*
X212852000Y-60452000D01*
X212598000Y-60198000D02*
X212589000Y-60198000D01*
X212589000Y-60198000D02*
X212335000Y-60452000D01*
X212852000Y-60452000D02*
X212335000Y-60452000D01*
X212598000Y-60198000D02*
X211582000Y-59182000D01*
X205495000Y-61459000D02*
X202143000Y-64811000D01*
X202143000Y-64811000D02*
X202143000Y-68257500D01*
X211582000Y-56514000D02*
X211708000Y-56388000D01*
X211328000Y-61459000D02*
X205495000Y-61459000D01*
%TO.N,GNDA*%
X209550000Y-66031000D02*
X209541000Y-66040000D01*
X209541000Y-73914000D02*
X209541000Y-72507000D01*
X209795000Y-80518000D02*
X209550000Y-80518000D01*
X197993000Y-44610000D02*
X198722000Y-44610000D01*
X201493000Y-72827000D02*
X201930000Y-72390000D01*
X208525000Y-33528000D02*
X200660000Y-33528000D01*
X217170000Y-85344000D02*
X217941000Y-84573000D01*
X209541000Y-72507000D02*
X208408000Y-71374000D01*
X199136000Y-44196000D02*
X199136000Y-34798000D01*
X199653000Y-34535000D02*
X199399000Y-34535000D01*
X209541000Y-73914000D02*
X209541000Y-75429000D01*
X209532000Y-59182000D02*
X209532000Y-60688000D01*
X215891000Y-66548000D02*
X215009590Y-66548000D01*
X199399000Y-34535000D02*
X199136000Y-34798000D01*
X211835590Y-69976000D02*
X208408000Y-69976000D01*
X208408000Y-71374000D02*
X208408000Y-69976000D01*
X209541000Y-66040000D02*
X209042000Y-66040000D01*
X198722000Y-44610000D02*
X199136000Y-44196000D01*
X213925991Y-67631599D02*
X213925991Y-67885599D01*
X199136000Y-34798000D02*
X198873000Y-34535000D01*
X208408000Y-56388000D02*
X208408000Y-58802000D01*
X200660000Y-33528000D02*
X199653000Y-34535000D01*
X215009590Y-66548000D02*
X213925991Y-67631599D01*
X210312000Y-85344000D02*
X217170000Y-85344000D01*
X208408000Y-58802000D02*
X208788000Y-59182000D01*
X208408000Y-66674000D02*
X208408000Y-68580000D01*
X209550000Y-64516000D02*
X209550000Y-66031000D01*
X198873000Y-34535000D02*
X198637000Y-34535000D01*
X199399000Y-34535000D02*
X198637000Y-34535000D01*
X209541000Y-75429000D02*
X209545340Y-75433340D01*
X208788000Y-59182000D02*
X209532000Y-59182000D01*
X208662000Y-81406000D02*
X208662000Y-83312000D01*
X209550000Y-80273000D02*
X209795000Y-80518000D01*
X208662000Y-83694000D02*
X210312000Y-85344000D01*
X208662000Y-83312000D02*
X208662000Y-83694000D01*
X209532000Y-60688000D02*
X209550000Y-60706000D01*
X213925991Y-67885599D02*
X211835590Y-69976000D01*
X207010000Y-71374000D02*
X208408000Y-71374000D01*
X209042000Y-66040000D02*
X208408000Y-66674000D01*
X203454000Y-45720000D02*
X202692000Y-46482000D01*
X208408000Y-69976000D02*
X208408000Y-68580000D01*
X198637000Y-34535000D02*
X193802000Y-34535000D01*
X209550000Y-78994000D02*
X209550000Y-80273000D01*
X208280000Y-56388000D02*
X208408000Y-56388000D01*
X202692000Y-50800000D02*
X208280000Y-56388000D01*
X202692000Y-46482000D02*
X202692000Y-50800000D01*
X201493000Y-73982500D02*
X201493000Y-72827000D01*
X217941000Y-84573000D02*
X217941000Y-83820000D01*
X209550000Y-80518000D02*
X208662000Y-81406000D01*
X199136000Y-44196000D02*
X200914000Y-44196000D01*
%TO.N,Net-(C2-Pad1)*%
X215891000Y-64008000D02*
X214630000Y-64008000D01*
X214630000Y-64008000D02*
X214131000Y-63509000D01*
X211328000Y-63509000D02*
X204715000Y-63509000D01*
X204715000Y-63509000D02*
X202793000Y-65431000D01*
X202793000Y-65431000D02*
X202793000Y-68257500D01*
X211708000Y-66157000D02*
X211591000Y-66040000D01*
X214131000Y-63509000D02*
X211328000Y-63509000D01*
X211708000Y-68580000D02*
X211708000Y-66157000D01*
X211591000Y-64525000D02*
X211591000Y-66040000D01*
X211328000Y-63509000D02*
X211328000Y-64262000D01*
X211328000Y-64262000D02*
X211591000Y-64525000D01*
%TO.N,Net-(C4-Pad2)*%
X204977011Y-76904011D02*
X202793000Y-74720000D01*
X215138000Y-77216000D02*
X214113000Y-76191000D01*
X211582000Y-76191000D02*
X210868989Y-76904011D01*
X211708000Y-73797000D02*
X211591000Y-73914000D01*
X202793000Y-74720000D02*
X202793000Y-73982500D01*
X215891000Y-77216000D02*
X215138000Y-77216000D01*
X210868989Y-76904011D02*
X204977011Y-76904011D01*
X211582000Y-73923000D02*
X211591000Y-73914000D01*
X211582000Y-76191000D02*
X211582000Y-73923000D01*
X214113000Y-76191000D02*
X211582000Y-76191000D01*
X211708000Y-71374000D02*
X211708000Y-73797000D01*
%TO.N,Net-(C5-Pad1)*%
X215891000Y-81534000D02*
X212861000Y-81534000D01*
X202143000Y-73982500D02*
X202143000Y-75651000D01*
X211582000Y-78994000D02*
X211845000Y-79257000D01*
X212861000Y-81534000D02*
X212852000Y-81534000D01*
X211582000Y-78241000D02*
X211582000Y-78994000D01*
X211845000Y-79257000D02*
X211845000Y-80518000D01*
X211962000Y-82424000D02*
X211962000Y-83312000D01*
X202143000Y-75651000D02*
X204733000Y-78241000D01*
X212852000Y-81534000D02*
X211962000Y-82424000D01*
X212861000Y-81534000D02*
X211845000Y-80518000D01*
X204733000Y-78241000D02*
X211582000Y-78241000D01*
%TO.N,GND*%
X197095000Y-49285000D02*
X197104000Y-49276000D01*
X222758000Y-66802000D02*
X222504000Y-67056000D01*
X178592000Y-46990000D02*
X178562000Y-47020000D01*
X181864000Y-46990000D02*
X178592000Y-46990000D01*
X215891000Y-45974000D02*
X215891000Y-47489000D01*
X230928000Y-61800000D02*
X228531000Y-61800000D01*
X181834000Y-47020000D02*
X181864000Y-46990000D01*
X179862000Y-39340000D02*
X181610000Y-37592000D01*
X210575000Y-33528000D02*
X211573000Y-33528000D01*
X213097000Y-37583000D02*
X214246990Y-38732990D01*
X171159010Y-62493000D02*
X171150010Y-62484000D01*
X228476000Y-43688000D02*
X228476000Y-45853000D01*
X200660000Y-62475000D02*
X199635000Y-62475000D01*
X183258000Y-76330000D02*
X183388000Y-76200000D01*
X223275000Y-43434000D02*
X224545000Y-42164000D01*
X210575000Y-35061000D02*
X210566000Y-35052000D01*
X200843000Y-76383000D02*
X200914000Y-76454000D01*
X224545000Y-42164000D02*
X226060000Y-42164000D01*
X210575000Y-35043000D02*
X210566000Y-35052000D01*
X195580000Y-49285000D02*
X197095000Y-49285000D01*
X208756000Y-48768000D02*
X210820000Y-48768000D01*
X221987000Y-62230000D02*
X221987000Y-60881000D01*
X211573000Y-33528000D02*
X212589000Y-34544000D01*
X216532990Y-38732990D02*
X216662000Y-38862000D01*
X224019000Y-80527000D02*
X224019000Y-81788000D01*
X176784000Y-44958000D02*
X174244000Y-42418000D01*
X210575000Y-33528000D02*
X210575000Y-35043000D01*
X224019000Y-66802000D02*
X222758000Y-66802000D01*
X210575000Y-36322000D02*
X210575000Y-35061000D01*
X183125000Y-62493000D02*
X183134000Y-62484000D01*
X229186000Y-75516000D02*
X228854000Y-75184000D01*
X177546000Y-45720000D02*
X176784000Y-44958000D01*
X178562000Y-45720000D02*
X177546000Y-45720000D01*
X228101000Y-62230000D02*
X228015998Y-62230000D01*
X231182000Y-75516000D02*
X229186000Y-75516000D01*
X224019000Y-81788000D02*
X224019000Y-84074000D01*
X224019000Y-80527000D02*
X222513000Y-80527000D01*
X181610000Y-62493000D02*
X183125000Y-62493000D01*
X178562000Y-39340000D02*
X179862000Y-39340000D01*
X214246990Y-38732990D02*
X216532990Y-38732990D01*
X176784000Y-62493000D02*
X176784000Y-64008000D01*
X224019000Y-79502000D02*
X224019000Y-80527000D01*
X212852000Y-37583000D02*
X213097000Y-37583000D01*
X218186000Y-40560000D02*
X218186000Y-39530000D01*
X200843000Y-73982500D02*
X200843000Y-76383000D01*
X252620000Y-63610000D02*
X252730000Y-63500000D01*
X215891000Y-47489000D02*
X215900000Y-47498000D01*
X181610000Y-76330000D02*
X183258000Y-76330000D01*
X199635000Y-62475000D02*
X198628000Y-62475000D01*
X221987000Y-60881000D02*
X221812000Y-60706000D01*
X228015998Y-62230000D02*
X227076000Y-61290002D01*
X217518000Y-38862000D02*
X216662000Y-38862000D01*
X227584000Y-42164000D02*
X226060000Y-42164000D01*
X228531000Y-61800000D02*
X228101000Y-62230000D01*
X228476000Y-43056000D02*
X227584000Y-42164000D01*
X172466000Y-62493000D02*
X171159010Y-62493000D01*
X228476000Y-43688000D02*
X228476000Y-43056000D01*
X218186000Y-39530000D02*
X217518000Y-38862000D01*
X228476000Y-45853000D02*
X228355000Y-45974000D01*
X249356000Y-63610000D02*
X252620000Y-63610000D01*
X199635000Y-62475000D02*
X199635000Y-60969000D01*
X199635000Y-60969000D02*
X199644000Y-60960000D01*
X222513000Y-80527000D02*
X222504000Y-80518000D01*
X239188000Y-34986000D02*
X240016000Y-35814000D01*
X240016000Y-35814000D02*
X243840000Y-35814000D01*
%TO.N,+5VD*%
X230632000Y-42418000D02*
X230632000Y-46736000D01*
X211582000Y-37084000D02*
X211582000Y-41656000D01*
X252222000Y-42672000D02*
X253238000Y-43688000D01*
X222758000Y-34544000D02*
X230632000Y-42418000D01*
X258572000Y-61214000D02*
X260096000Y-61214000D01*
X253238000Y-45466000D02*
X253238000Y-46736000D01*
X175514000Y-32258000D02*
X175514000Y-35297000D01*
X175514000Y-32258000D02*
X173736000Y-32258000D01*
X254000000Y-47498000D02*
X260604000Y-47498000D01*
X175514000Y-35297000D02*
X175260000Y-35551000D01*
X214884000Y-36322000D02*
X212344000Y-36322000D01*
X194310000Y-62484000D02*
X196351000Y-64525000D01*
X208525000Y-36322000D02*
X203200000Y-36322000D01*
X261874000Y-48768000D02*
X261874000Y-52832000D01*
X253238000Y-46736000D02*
X254000000Y-47498000D01*
X253238000Y-43688000D02*
X253238000Y-45466000D01*
X208525000Y-36322000D02*
X208525000Y-41437000D01*
X257302000Y-57404000D02*
X257302000Y-59944000D01*
X261456000Y-62574000D02*
X260096000Y-61214000D01*
X218948000Y-34544000D02*
X222758000Y-34544000D01*
X249283010Y-43578990D02*
X250190000Y-42672000D01*
X183388000Y-52832000D02*
X182617000Y-52832000D01*
X191008000Y-46228000D02*
X190754000Y-46482000D01*
X183143000Y-66793000D02*
X186436000Y-63500000D01*
X212344000Y-36322000D02*
X211582000Y-37084000D01*
X190754000Y-62484000D02*
X194310000Y-62484000D01*
X186436000Y-63500000D02*
X186436000Y-62484000D01*
X211074000Y-42164000D02*
X209252000Y-42164000D01*
X261456000Y-63610000D02*
X261456000Y-62574000D01*
X182617000Y-52832000D02*
X181610000Y-53839000D01*
X172466000Y-53839000D02*
X176784000Y-53839000D01*
X215138000Y-37583000D02*
X215138000Y-36576000D01*
X173482000Y-34290000D02*
X173482000Y-38354000D01*
X215138000Y-36576000D02*
X214884000Y-36322000D01*
X190754000Y-46482000D02*
X190754000Y-62484000D01*
X208525000Y-41437000D02*
X209252000Y-42164000D01*
X203200000Y-36322000D02*
X202184000Y-37338000D01*
X196351000Y-64525000D02*
X198628000Y-64525000D01*
X199898000Y-66040000D02*
X199136000Y-66040000D01*
X181610000Y-66793000D02*
X183143000Y-66793000D01*
X230632000Y-46736000D02*
X231394000Y-47498000D01*
X176784000Y-53839000D02*
X176784000Y-53848000D01*
X199136000Y-66040000D02*
X198628000Y-65532000D01*
X175514000Y-32258000D02*
X173482000Y-34290000D01*
X198628000Y-65532000D02*
X198628000Y-64525000D01*
X181610000Y-53839000D02*
X176784000Y-53839000D01*
X172720000Y-40640000D02*
X173228000Y-41148000D01*
X211582000Y-41656000D02*
X211074000Y-42164000D01*
X170180000Y-48260000D02*
X170942000Y-49022000D01*
X250190000Y-42672000D02*
X252222000Y-42672000D01*
X260604000Y-47498000D02*
X261874000Y-48768000D01*
X178562000Y-40640000D02*
X177038000Y-40640000D01*
X200843000Y-68257500D02*
X200843000Y-66985000D01*
X218948000Y-37208000D02*
X218310000Y-37846000D01*
X178562000Y-40640000D02*
X178562000Y-41940000D01*
X249283010Y-46880990D02*
X249283010Y-43578990D01*
X202184000Y-37338000D02*
X202184000Y-44196000D01*
X171704000Y-35551000D02*
X170697000Y-35551000D01*
X178562000Y-43180000D02*
X178562000Y-44420000D01*
X248666000Y-47498000D02*
X231394000Y-47498000D01*
X171704000Y-34290000D02*
X171704000Y-35551000D01*
X174244000Y-39878000D02*
X176276000Y-39878000D01*
X174752000Y-41148000D02*
X176784000Y-43180000D01*
X170942000Y-49022000D02*
X172466000Y-50546000D01*
X176784000Y-43180000D02*
X177292000Y-43180000D01*
X218310000Y-37846000D02*
X215401000Y-37846000D01*
X170180000Y-36068000D02*
X170180000Y-48260000D01*
X172720000Y-39116000D02*
X172720000Y-40640000D01*
X173736000Y-32258000D02*
X171704000Y-34290000D01*
X177292000Y-43180000D02*
X178562000Y-43180000D01*
X173228000Y-41148000D02*
X174752000Y-41148000D01*
X173482000Y-38354000D02*
X172720000Y-39116000D01*
X176276000Y-39878000D02*
X177038000Y-40640000D01*
X178562000Y-41940000D02*
X178562000Y-43180000D01*
X218948000Y-34544000D02*
X218948000Y-37208000D01*
X215401000Y-37846000D02*
X215138000Y-37583000D01*
X261874000Y-52832000D02*
X257302000Y-57404000D01*
X172466000Y-53839000D02*
X172466000Y-52324000D01*
X200843000Y-66985000D02*
X199898000Y-66040000D01*
X170697000Y-35551000D02*
X170180000Y-36068000D01*
X248666000Y-47498000D02*
X249283010Y-46880990D01*
X257302000Y-59944000D02*
X258572000Y-61214000D01*
X241888000Y-33086000D02*
X242636000Y-33086000D01*
X242636000Y-33086000D02*
X245618000Y-36068000D01*
X245618000Y-36068000D02*
X249428000Y-36068000D01*
X249428000Y-36068000D02*
X249682000Y-35814000D01*
D38*
%TO.N,+24V*%
X240888000Y-79852000D02*
X238252000Y-77216000D01*
X238252000Y-77216000D02*
X238252000Y-66802000D01*
D39*
X217941000Y-47253000D02*
X217941000Y-45974000D01*
X221225000Y-47235000D02*
X220461990Y-47998010D01*
D38*
X238252000Y-66802000D02*
X238252000Y-63754000D01*
D39*
X217941000Y-45274000D02*
X217678000Y-45011000D01*
D37*
X196046000Y-46228000D02*
X196046000Y-46769000D01*
X217615990Y-44948990D02*
X200923010Y-44948990D01*
D39*
X220890989Y-64426989D02*
X226762987Y-64426989D01*
X220461990Y-58426304D02*
X220461990Y-63997990D01*
X218686010Y-47998010D02*
X217941000Y-47253000D01*
X220461990Y-47998010D02*
X218686010Y-47998010D01*
X217941000Y-45974000D02*
X217941000Y-45274000D01*
D37*
X195453000Y-45635000D02*
X195453000Y-44610000D01*
X196046000Y-46228000D02*
X195453000Y-45635000D01*
D39*
X227753858Y-65417860D02*
X227753858Y-67197258D01*
X217678000Y-45011000D02*
X217678000Y-43434000D01*
D37*
X217678000Y-45011000D02*
X217615990Y-44948990D01*
D39*
X220531010Y-48067030D02*
X220531010Y-58357284D01*
X220461990Y-47998010D02*
X220531010Y-48067030D01*
D37*
X221225000Y-43434000D02*
X221225000Y-45720000D01*
D38*
X254254000Y-79852000D02*
X240888000Y-79852000D01*
D39*
X226762987Y-64426989D02*
X227753858Y-65417860D01*
D38*
X238252000Y-63754000D02*
X237998000Y-63500000D01*
D39*
X221225000Y-45720000D02*
X221225000Y-47235000D01*
X236230010Y-68823990D02*
X238252000Y-66802000D01*
D37*
X200923010Y-44948990D02*
X199644000Y-46228000D01*
D39*
X220531010Y-58357284D02*
X220461990Y-58426304D01*
X220461990Y-63997990D02*
X220890989Y-64426989D01*
D37*
X199644000Y-46228000D02*
X196046000Y-46228000D01*
X196046000Y-46769000D02*
X195580000Y-47235000D01*
D39*
X229380590Y-68823990D02*
X236230010Y-68823990D01*
X227753858Y-67197258D02*
X229380590Y-68823990D01*
D37*
%TO.N,Net-(C9-Pad2)*%
X223275000Y-41393000D02*
X222504000Y-42164000D01*
X219136000Y-42352000D02*
X219136000Y-43260000D01*
X223275000Y-40386000D02*
X223275000Y-41393000D01*
X204724000Y-43136000D02*
X203752000Y-42164000D01*
X219136000Y-42738000D02*
X219136000Y-43260000D01*
X216408000Y-42418000D02*
X216671001Y-42154999D01*
X218938999Y-42154999D02*
X219136000Y-42352000D01*
X204724000Y-44196000D02*
X204724000Y-43136000D01*
X219710000Y-42164000D02*
X219136000Y-42738000D01*
X216408000Y-43434000D02*
X216408000Y-42418000D01*
X204756000Y-48768000D02*
X204756000Y-46514000D01*
X204724000Y-44196000D02*
X215646000Y-44196000D01*
X222504000Y-42164000D02*
X219710000Y-42164000D01*
X204756000Y-46514000D02*
X204724000Y-46482000D01*
X215646000Y-44196000D02*
X216408000Y-43434000D01*
X216671001Y-42154999D02*
X218938999Y-42154999D01*
%TO.N,Net-(C9-Pad1)*%
X219310000Y-40386000D02*
X219136000Y-40560000D01*
X221225000Y-40386000D02*
X219310000Y-40386000D01*
X221110000Y-37846000D02*
X221110000Y-40271000D01*
X221110000Y-40271000D02*
X221225000Y-40386000D01*
%TO.N,/Current_sense_0*%
X228817001Y-64298999D02*
X228581809Y-64298999D01*
X225053000Y-63246000D02*
X224037000Y-62230000D01*
X230876999Y-64298999D02*
X228817001Y-64298999D01*
X227528810Y-63246000D02*
X226822000Y-63246000D01*
X226051000Y-62729000D02*
X226568000Y-63246000D01*
X226568000Y-63246000D02*
X226822000Y-63246000D01*
X228581809Y-64298999D02*
X227528810Y-63246000D01*
X226051000Y-62230000D02*
X226051000Y-62729000D01*
X226822000Y-63246000D02*
X225053000Y-63246000D01*
X230928000Y-64350000D02*
X230876999Y-64298999D01*
%TO.N,Net-(C13-Pad1)*%
X193802000Y-36585000D02*
X193802000Y-38829000D01*
X193802000Y-38829000D02*
X194183000Y-39210000D01*
%TO.N,/Current_sense_1*%
X226069000Y-81788000D02*
X226069000Y-79502000D01*
X226069000Y-79502000D02*
X227076000Y-79502000D01*
X228512000Y-78066000D02*
X231182000Y-78066000D01*
X228512000Y-78066000D02*
X228512000Y-78066000D01*
X227076000Y-79502000D02*
X228512000Y-78066000D01*
%TO.N,/swIn*%
X209366991Y-28752689D02*
X209967215Y-29352913D01*
X172475000Y-60434000D02*
X172466000Y-60443000D01*
X172466000Y-55889000D02*
X171205000Y-55889000D01*
X208560111Y-27896965D02*
X209366991Y-28703845D01*
X182372000Y-51308000D02*
X185847967Y-47832033D01*
X171205000Y-55889000D02*
X170688000Y-55372000D01*
X233860000Y-35814000D02*
X237998000Y-31676000D01*
X237998000Y-31676000D02*
X237998000Y-30226000D01*
X209967215Y-29352913D02*
X224170913Y-29352913D01*
X170688000Y-52324000D02*
X171704000Y-51308000D01*
X209366991Y-28703845D02*
X209366991Y-28752689D01*
X230632000Y-35814000D02*
X233860000Y-35814000D01*
X172466000Y-58157000D02*
X172475000Y-58166000D01*
X224170913Y-29352913D02*
X230632000Y-35814000D01*
X185847967Y-32206801D02*
X190157803Y-27896965D01*
X172466000Y-55889000D02*
X172466000Y-58157000D01*
X171704000Y-51308000D02*
X182372000Y-51308000D01*
X185847967Y-47832033D02*
X185847967Y-32206801D01*
X170688000Y-55372000D02*
X170688000Y-52324000D01*
X172475000Y-58166000D02*
X172475000Y-60434000D01*
X190157803Y-27896965D02*
X208560111Y-27896965D01*
%TO.N,/bIn*%
X176784000Y-55889000D02*
X176784000Y-57903000D01*
X183131179Y-54864000D02*
X177234000Y-54864000D01*
X176784000Y-55314000D02*
X176784000Y-55889000D01*
X230632000Y-36576000D02*
X223858924Y-29802924D01*
X177234000Y-54864000D02*
X176784000Y-55314000D01*
X258318000Y-35814000D02*
X257556000Y-36576000D01*
X209780815Y-29802924D02*
X208916980Y-28939089D01*
X208373711Y-28346976D02*
X190344203Y-28346976D01*
X208916980Y-28939089D02*
X208916980Y-28890245D01*
X208916980Y-28890245D02*
X208373711Y-28346976D01*
X258318000Y-30226000D02*
X258318000Y-35814000D01*
X176784000Y-57903000D02*
X177047000Y-58166000D01*
X190344203Y-28346976D02*
X186297978Y-32393201D01*
X186297978Y-51697201D02*
X183131179Y-54864000D01*
X177047000Y-58166000D02*
X177047000Y-60180000D01*
X186297978Y-32393201D02*
X186297978Y-51697201D01*
X257556000Y-36576000D02*
X230632000Y-36576000D01*
X177047000Y-60180000D02*
X176784000Y-60443000D01*
X223858924Y-29802924D02*
X209780815Y-29802924D01*
%TO.N,/aIn*%
X186747989Y-32705190D02*
X186747989Y-53037011D01*
X190656192Y-28796987D02*
X186747989Y-32705190D01*
X260858000Y-30226000D02*
X260858000Y-36322000D01*
X181619000Y-55898000D02*
X181610000Y-55889000D01*
X208466969Y-29125489D02*
X208466969Y-29076645D01*
X181619000Y-58166000D02*
X181619000Y-55898000D01*
X181610000Y-58175000D02*
X181619000Y-58166000D01*
X186747989Y-53037011D02*
X181619000Y-58166000D01*
X230378000Y-37084000D02*
X223546935Y-30252935D01*
X209594415Y-30252935D02*
X208466969Y-29125489D01*
X223546935Y-30252935D02*
X209594415Y-30252935D01*
X260096000Y-37084000D02*
X230378000Y-37084000D01*
X260858000Y-36322000D02*
X260096000Y-37084000D01*
X181610000Y-60443000D02*
X181610000Y-58175000D01*
X208466969Y-29076645D02*
X208187311Y-28796987D01*
X208187311Y-28796987D02*
X190656192Y-28796987D01*
%TO.N,+5VA*%
X226314000Y-69088000D02*
X225053010Y-67827010D01*
X229362000Y-52070000D02*
X229616000Y-52070000D01*
X200152000Y-51816000D02*
X202184000Y-53848000D01*
X210556990Y-70890008D02*
X210997999Y-70448999D01*
X195072000Y-51816000D02*
X200152000Y-51816000D01*
X229616000Y-52070000D02*
X233426000Y-52070000D01*
X226314000Y-52070000D02*
X229108000Y-52070000D01*
X233426000Y-52070000D02*
X234188000Y-52832000D01*
X204216000Y-74930000D02*
X205740000Y-76454000D01*
X204216000Y-72898000D02*
X204216000Y-74930000D01*
X196723000Y-39210000D02*
X196723000Y-40235000D01*
X193294000Y-50038000D02*
X195072000Y-51816000D01*
X226314000Y-69342000D02*
X226568000Y-69342000D01*
X196723000Y-40235000D02*
X196548001Y-40409999D01*
X229362000Y-52324000D02*
X229362000Y-52070000D01*
X200660000Y-65786000D02*
X200660000Y-64525000D01*
X229362000Y-52324000D02*
X229616000Y-52070000D01*
X202184000Y-53848000D02*
X202184000Y-63001000D01*
X202184000Y-63001000D02*
X200660000Y-64525000D01*
X213034707Y-69413293D02*
X214376000Y-68072000D01*
X214394020Y-68072000D02*
X214639010Y-67827010D01*
X226568000Y-69342000D02*
X227575000Y-70349000D01*
X214620990Y-67827010D02*
X214376000Y-68072000D01*
X194451002Y-40498998D02*
X193294000Y-41656000D01*
X196548001Y-40409999D02*
X194652999Y-40409999D01*
X229362000Y-52832000D02*
X229362000Y-52324000D01*
X234188000Y-70358000D02*
X230387000Y-70358000D01*
X230387000Y-70358000D02*
X230378000Y-70349000D01*
X209804000Y-76454000D02*
X210556990Y-75701010D01*
X193294000Y-41656000D02*
X193294000Y-50038000D01*
X225053010Y-67827010D02*
X215128990Y-67827010D01*
X229108000Y-52070000D02*
X229362000Y-52070000D01*
X229362000Y-52832000D02*
X229362000Y-55363000D01*
X210556990Y-75701010D02*
X210556990Y-70890008D01*
X229108000Y-52070000D02*
X229362000Y-52324000D01*
X213034707Y-69524707D02*
X213034707Y-69413293D01*
X194652999Y-40409999D02*
X194564000Y-40498998D01*
X226314000Y-69342000D02*
X226314000Y-69088000D01*
X201493000Y-68257500D02*
X201493000Y-70175000D01*
X201493000Y-70175000D02*
X204216000Y-72898000D01*
X194564000Y-40498998D02*
X194451002Y-40498998D01*
X214376000Y-68072000D02*
X214394020Y-68072000D01*
X201493000Y-68257500D02*
X201493000Y-66619000D01*
X201493000Y-66619000D02*
X200660000Y-65786000D01*
X212110414Y-70448999D02*
X213034707Y-69524707D01*
X215128990Y-67827010D02*
X214639010Y-67827010D01*
X205740000Y-76454000D02*
X209804000Y-76454000D01*
X227575000Y-70349000D02*
X230378000Y-70349000D01*
X210997999Y-70448999D02*
X212110414Y-70448999D01*
%TO.N,/led_data*%
X187706000Y-78994000D02*
X186182000Y-80518000D01*
X211582000Y-28177848D02*
X227059848Y-28177848D01*
X186182000Y-80518000D02*
X178308000Y-80518000D01*
X206248000Y-29972000D02*
X206502000Y-29972000D01*
X193548000Y-29972000D02*
X206248000Y-29972000D01*
X242316000Y-28194000D02*
X243078000Y-28956000D01*
X187706000Y-33020000D02*
X187706000Y-78994000D01*
X190500000Y-30226000D02*
X190754000Y-29972000D01*
X190500000Y-30226000D02*
X187706000Y-33020000D01*
X190754000Y-29972000D02*
X193548000Y-29972000D01*
X227076000Y-28194000D02*
X242316000Y-28194000D01*
X227059848Y-28177848D02*
X227076000Y-28194000D01*
X243078000Y-28956000D02*
X243078000Y-30226000D01*
%TO.N,/sleepIn*%
X210590208Y-28902902D02*
X210083936Y-28396630D01*
X233934000Y-34544000D02*
X230378000Y-34544000D01*
X181601000Y-71120000D02*
X181601000Y-68852000D01*
X181610000Y-73530000D02*
X181610000Y-71129000D01*
X187198000Y-32891590D02*
X190842592Y-29246998D01*
X187198000Y-63955000D02*
X187198000Y-32891590D01*
X181610000Y-71129000D02*
X181601000Y-71120000D01*
X235458000Y-33020000D02*
X233934000Y-34544000D01*
X182310000Y-68843000D02*
X187198000Y-63955000D01*
X207563783Y-29246998D02*
X207936734Y-29619949D01*
X235458000Y-30226000D02*
X235458000Y-33020000D01*
X181610000Y-68843000D02*
X182310000Y-68843000D01*
X224736902Y-28902902D02*
X210590208Y-28902902D01*
X181601000Y-68852000D02*
X181610000Y-68843000D01*
X230378000Y-34544000D02*
X224736902Y-28902902D01*
X190842592Y-29246998D02*
X207563783Y-29246998D01*
%TO.N,/VinDev*%
X225676000Y-43688000D02*
X225676000Y-45345000D01*
X249645000Y-47969000D02*
X228309000Y-47969000D01*
X223529000Y-45974000D02*
X223275000Y-45720000D01*
X226305000Y-45974000D02*
X223529000Y-45974000D01*
X227452500Y-47121500D02*
X226305000Y-45974000D01*
X250698000Y-45466000D02*
X250698000Y-46916000D01*
X227461500Y-47121500D02*
X228309000Y-47969000D01*
X227452500Y-47121500D02*
X227461500Y-47121500D01*
X250698000Y-46916000D02*
X249645000Y-47969000D01*
X225676000Y-45345000D02*
X226305000Y-45974000D01*
D39*
%TO.N,/Heater0*%
X233172000Y-67123979D02*
X233172000Y-60706000D01*
X229362000Y-59436000D02*
X229870000Y-59944000D01*
X233172000Y-59690000D02*
X233172000Y-60706000D01*
X253746000Y-55880000D02*
X250952000Y-58674000D01*
X228092000Y-59690000D02*
X226314000Y-59690000D01*
X231576978Y-67123979D02*
X233172000Y-67123979D01*
X231648000Y-59944000D02*
X231067001Y-60524999D01*
X234188000Y-58674000D02*
X233172000Y-59690000D01*
X256286000Y-55880000D02*
X253746000Y-55880000D01*
X229362000Y-57413000D02*
X229362000Y-59436000D01*
X230378000Y-59944000D02*
X229870000Y-59944000D01*
X230928000Y-66475001D02*
X231576978Y-67123979D01*
X259588000Y-52578000D02*
X256286000Y-55880000D01*
X232410000Y-59944000D02*
X231648000Y-59944000D01*
X231648000Y-59944000D02*
X230378000Y-59944000D01*
X228346000Y-59944000D02*
X228092000Y-59690000D01*
X259588000Y-49784000D02*
X259588000Y-52578000D01*
X229870000Y-59944000D02*
X228346000Y-59944000D01*
X250952000Y-58674000D02*
X234188000Y-58674000D01*
X233172000Y-60706000D02*
X232410000Y-59944000D01*
D37*
%TO.N,Net-(J1-Pad1)*%
X217941000Y-62983000D02*
X218948000Y-61976000D01*
X219202000Y-61722000D02*
X219202000Y-58166000D01*
X217941000Y-64008000D02*
X217941000Y-62983000D01*
X228916717Y-56337990D02*
X228866707Y-56388000D01*
X217941000Y-66548000D02*
X217941000Y-64008000D01*
X229807283Y-56337990D02*
X228916717Y-56337990D01*
X218948000Y-61976000D02*
X219202000Y-61722000D01*
X223520000Y-56388000D02*
X221996000Y-57912000D01*
X248666000Y-54356000D02*
X233934000Y-54356000D01*
X233934000Y-54356000D02*
X231902000Y-56388000D01*
X228866707Y-56388000D02*
X223520000Y-56388000D01*
X231902000Y-56388000D02*
X229857293Y-56388000D01*
X229857293Y-56388000D02*
X229807283Y-56337990D01*
X219202000Y-58166000D02*
X218948000Y-57912000D01*
D39*
%TO.N,/Heater1*%
X233934000Y-82042000D02*
X235966000Y-84074000D01*
X263398000Y-82329996D02*
X263398000Y-60582739D01*
X226314000Y-76962000D02*
X226314000Y-77274926D01*
X235966000Y-84074000D02*
X261653996Y-84074000D01*
X261743261Y-58928000D02*
X259588000Y-58928000D01*
X227838000Y-73152000D02*
X226314000Y-74676000D01*
X231648000Y-82042000D02*
X231140000Y-81534000D01*
X231131000Y-73152000D02*
X227838000Y-73152000D01*
X226314000Y-74676000D02*
X226314000Y-76962000D01*
X231131000Y-73152000D02*
X231131000Y-74159000D01*
X231131000Y-73152000D02*
X230378000Y-72399000D01*
X231140000Y-81534000D02*
X231140000Y-80191001D01*
X263398000Y-60582739D02*
X261743261Y-58928000D01*
X233934000Y-74168000D02*
X233934000Y-80518000D01*
X232918000Y-73152000D02*
X233934000Y-74168000D01*
X233934000Y-80518000D02*
X233934000Y-82042000D01*
X261653996Y-84074000D02*
X263398000Y-82329996D01*
X231131000Y-73152000D02*
X232918000Y-73152000D01*
X233934000Y-82042000D02*
X231648000Y-82042000D01*
D37*
%TO.N,Net-(J2-Pad1)*%
X217941000Y-81534000D02*
X217941000Y-81770000D01*
X230561457Y-85598000D02*
X230677575Y-85481882D01*
X219456000Y-84328000D02*
X220726000Y-85598000D01*
X231489695Y-85598000D02*
X262128000Y-85598000D01*
X262128000Y-85598000D02*
X262636000Y-85090000D01*
X231373577Y-85481882D02*
X231489695Y-85598000D01*
X219456000Y-83049000D02*
X219456000Y-84328000D01*
X220726000Y-85598000D02*
X230561457Y-85598000D01*
X230677575Y-85481882D02*
X231373577Y-85481882D01*
X217941000Y-81770000D02*
X215891000Y-83820000D01*
X217941000Y-81534000D02*
X219456000Y-83049000D01*
%TO.N,Net-(J6-Pad2)*%
X184150000Y-73660000D02*
X183642000Y-73152000D01*
X258656000Y-64092000D02*
X262128000Y-67564000D01*
X184150000Y-81280000D02*
X189076883Y-86206883D01*
X189076883Y-86206883D02*
X231025576Y-86206883D01*
X184150000Y-79756000D02*
X184150000Y-73660000D01*
X183642000Y-73152000D02*
X183642000Y-71129000D01*
X262128000Y-67564000D02*
X262128000Y-75184000D01*
X258656000Y-63610000D02*
X258656000Y-64092000D01*
X183642000Y-71129000D02*
X183651000Y-71120000D01*
X262128000Y-75184000D02*
X261874000Y-75438000D01*
%TO.N,/low_mosfet_0*%
X215891000Y-69342000D02*
X215138000Y-69342000D01*
X229743000Y-49911000D02*
X248793000Y-49911000D01*
X215891000Y-51825000D02*
X216916000Y-50800000D01*
X215138000Y-69342000D02*
X214630000Y-69342000D01*
X215891000Y-52324000D02*
X215891000Y-51825000D01*
X248793000Y-49911000D02*
X248920000Y-50038000D01*
X241888000Y-34986000D02*
X241488000Y-34986000D01*
X241488000Y-34986000D02*
X240538000Y-34036000D01*
X240538000Y-34036000D02*
X240538000Y-30226000D01*
%TO.N,Net-(R3-Pad2)*%
X223266000Y-59182000D02*
X223774000Y-59690000D01*
X221996000Y-59182000D02*
X223266000Y-59182000D01*
X217941000Y-59427000D02*
X218186000Y-59182000D01*
X217941000Y-60452000D02*
X217941000Y-59427000D01*
%TO.N,Net-(R7-Pad2)*%
X223520000Y-77216000D02*
X223774000Y-76962000D01*
X217941000Y-77216000D02*
X223520000Y-77216000D01*
%TO.N,Net-(R9-Pad2)*%
X195843000Y-74168000D02*
X198707500Y-74168000D01*
X198707500Y-74168000D02*
X198893000Y-73982500D01*
%TO.N,/Clk*%
X188722000Y-73406000D02*
X188722000Y-34036000D01*
X188722000Y-34036000D02*
X191605043Y-31152957D01*
X222922957Y-31152957D02*
X231800976Y-40030976D01*
X240538000Y-44016000D02*
X240538000Y-45466000D01*
X235009826Y-41148000D02*
X237670000Y-41148000D01*
X233892802Y-40030976D02*
X235009826Y-41148000D01*
X189484000Y-74168000D02*
X188722000Y-73406000D01*
X191605043Y-31152957D02*
X222922957Y-31152957D01*
X231800976Y-40030976D02*
X233892802Y-40030976D01*
X193793000Y-74168000D02*
X189484000Y-74168000D01*
X237670000Y-41148000D02*
X240538000Y-44016000D01*
%TO.N,Net-(R10-Pad2)*%
X195843000Y-68072000D02*
X198707500Y-68072000D01*
X198707500Y-68072000D02*
X198893000Y-68257500D01*
%TO.N,/MOSI*%
X235458000Y-45466000D02*
X235458000Y-42868996D01*
X235458000Y-42868996D02*
X233520002Y-40930998D01*
X231322998Y-40930998D02*
X222444979Y-32052979D01*
X191980665Y-32052979D02*
X189760042Y-34273602D01*
X189760042Y-56117601D02*
X189738000Y-56139643D01*
X189738000Y-56139643D02*
X189738000Y-62738000D01*
X190500000Y-63500000D02*
X194056000Y-63500000D01*
X194056000Y-63500000D02*
X194942990Y-64386990D01*
X189738000Y-62738000D02*
X190500000Y-63500000D01*
X233520002Y-40930998D02*
X231322998Y-40930998D01*
X189760042Y-34273602D02*
X189760042Y-56117601D01*
X222444979Y-32052979D02*
X191980665Y-32052979D01*
X194942990Y-66922010D02*
X193793000Y-68072000D01*
X194942990Y-64386990D02*
X194942990Y-66922010D01*
%TO.N,Net-(R11-Pad2)*%
X199543000Y-66955000D02*
X199543000Y-68257500D01*
X195843000Y-65786000D02*
X197104000Y-65786000D01*
X199136000Y-66548000D02*
X199543000Y-66955000D01*
X197866000Y-66548000D02*
X199136000Y-66548000D01*
X197104000Y-65786000D02*
X197866000Y-66548000D01*
%TO.N,/MISO*%
X222736557Y-31602968D02*
X231614576Y-40480987D01*
X237998000Y-44016000D02*
X237998000Y-45466000D01*
X233706402Y-40480987D02*
X234823426Y-41598011D01*
X191794265Y-31602968D02*
X222736557Y-31602968D01*
X235580011Y-41598011D02*
X237998000Y-44016000D01*
X189230000Y-64262000D02*
X189230000Y-34167232D01*
X234823426Y-41598011D02*
X235580011Y-41598011D01*
X231614576Y-40480987D02*
X233706402Y-40480987D01*
X190754000Y-65786000D02*
X189230000Y-64262000D01*
X189230000Y-34167232D02*
X191794265Y-31602968D01*
X193793000Y-65786000D02*
X190754000Y-65786000D01*
%TO.N,Net-(R12-Pad2)*%
X199136000Y-75692000D02*
X199543000Y-75285000D01*
X197866000Y-75692000D02*
X199136000Y-75692000D01*
X195843000Y-76454000D02*
X197104000Y-76454000D01*
X197104000Y-76454000D02*
X197866000Y-75692000D01*
X199543000Y-75285000D02*
X199543000Y-73982500D01*
%TO.N,/\u005CCS*%
X230632000Y-38100000D02*
X232156000Y-38100000D01*
X190246000Y-76454000D02*
X188214000Y-74422000D01*
X193793000Y-76454000D02*
X190246000Y-76454000D01*
X223234946Y-30702946D02*
X230632000Y-38100000D01*
X245872000Y-33528000D02*
X245872000Y-30480000D01*
X245872000Y-30480000D02*
X245618000Y-30226000D01*
X188214000Y-74422000D02*
X188214000Y-33274000D01*
X188214000Y-33274000D02*
X190785054Y-30702946D01*
X232156000Y-38100000D02*
X245364000Y-38100000D01*
X190785054Y-30702946D02*
X223234946Y-30702946D01*
%TO.N,Net-(R13-Pad2)*%
X212852000Y-39633000D02*
X215138000Y-39633000D01*
X216309000Y-39633000D02*
X217236000Y-40560000D01*
X215138000Y-39633000D02*
X216309000Y-39633000D01*
%TO.N,Net-(R16-Pad1)*%
X229428000Y-65200000D02*
X229103860Y-65524140D01*
X229103860Y-65524140D02*
X229103860Y-66549256D01*
X226069000Y-66802000D02*
X225043990Y-65776990D01*
X230928000Y-65200000D02*
X229428000Y-65200000D01*
%TO.N,Net-(R17-Pad1)*%
X217941000Y-52324000D02*
X217941000Y-51807000D01*
X221996000Y-50800000D02*
X222504000Y-50800000D01*
X217941000Y-51807000D02*
X218948000Y-50800000D01*
X222504000Y-50800000D02*
X223774000Y-52070000D01*
%TO.N,Net-(R19-Pad1)*%
X226568000Y-84074000D02*
X226969010Y-83672990D01*
X228678000Y-78916000D02*
X231182000Y-78916000D01*
X226969010Y-83672990D02*
X226969010Y-80624990D01*
X226069000Y-84074000D02*
X226568000Y-84074000D01*
X226969010Y-80624990D02*
X228678000Y-78916000D01*
%TO.N,Net-(R20-Pad1)*%
X217941000Y-69342000D02*
X223774000Y-69342000D01*
%TO.N,Net-(R33-Pad2)*%
X241496011Y-47047989D02*
X231834399Y-47047989D01*
X231140000Y-41656000D02*
X222250000Y-32766000D01*
X190888481Y-33781574D02*
X190888481Y-44569519D01*
X222250000Y-32766000D02*
X218676000Y-32766000D01*
X212597990Y-32502990D02*
X192167065Y-32502990D01*
X218676000Y-32766000D02*
X216898000Y-34544000D01*
X192167065Y-32502990D02*
X190888481Y-33781574D01*
X183087728Y-44911728D02*
X184222937Y-44911728D01*
X231834399Y-47047989D02*
X231140000Y-46353589D01*
X214639000Y-34544000D02*
X212597990Y-32502990D01*
X231140000Y-46353589D02*
X231140000Y-41656000D01*
X214639000Y-34544000D02*
X216898000Y-34544000D01*
X243078000Y-45466000D02*
X241496011Y-47047989D01*
X181610000Y-43434000D02*
X183087728Y-44911728D01*
%TO.N,Net-(TP1-Pad1)*%
X263144000Y-27686000D02*
X263144000Y-35814000D01*
X261366000Y-37592000D02*
X257048000Y-37592000D01*
X255778000Y-38862000D02*
X255778000Y-45466000D01*
X257048000Y-37592000D02*
X255778000Y-38862000D01*
X263144000Y-35814000D02*
X261366000Y-37592000D01*
X261874000Y-26416000D02*
X263144000Y-27686000D01*
X187198000Y-26416000D02*
X261874000Y-26416000D01*
X181610000Y-32004000D02*
X187198000Y-26416000D01*
%TO.N,Net-(U1-Pad3)*%
X174667238Y-49530000D02*
X181604357Y-49530000D01*
X171704000Y-44450000D02*
X171704000Y-44704000D01*
X171704000Y-44958000D02*
X171704000Y-45212000D01*
X247119956Y-27663956D02*
X247650000Y-28194000D01*
X171704000Y-45212000D02*
X171704000Y-45466000D01*
X209316847Y-27452847D02*
X212183959Y-27452847D01*
X247396000Y-27940000D02*
X247650000Y-28194000D01*
X247650000Y-28194000D02*
X248158000Y-28702000D01*
X212183959Y-27452847D02*
X212395068Y-27663956D01*
X171704000Y-42164000D02*
X171704000Y-44450000D01*
X172974000Y-44958000D02*
X172212000Y-44958000D01*
X171704000Y-42418000D02*
X171704000Y-42164000D01*
X209310954Y-27446954D02*
X209316847Y-27452847D01*
X171958000Y-44958000D02*
X171704000Y-44704000D01*
X189971403Y-27446954D02*
X208802954Y-27446954D01*
X171704000Y-45466000D02*
X171704000Y-47498000D01*
X212395068Y-27663956D02*
X247119956Y-27663956D01*
X173736000Y-49530000D02*
X181604357Y-49530000D01*
X248158000Y-28702000D02*
X248158000Y-30226000D01*
X171958000Y-44958000D02*
X171704000Y-44958000D01*
X208802954Y-27446954D02*
X209310954Y-27446954D01*
X185397958Y-45736399D02*
X185397958Y-32020399D01*
X209231065Y-27452847D02*
X209316847Y-27452847D01*
X171704000Y-44704000D02*
X171704000Y-44958000D01*
X174244000Y-44958000D02*
X172974000Y-44958000D01*
X171958000Y-44958000D02*
X171704000Y-45212000D01*
X172212000Y-44958000D02*
X171958000Y-44958000D01*
X185397958Y-32020399D02*
X189971403Y-27446954D01*
X171704000Y-47498000D02*
X173736000Y-49530000D01*
X171704000Y-42164000D02*
X171704000Y-37601000D01*
X181604357Y-49530000D02*
X185397958Y-45736399D01*
%TO.N,Net-(U1-Pad4)*%
X249135945Y-27213945D02*
X250698000Y-28776000D01*
X184947947Y-34579947D02*
X184947947Y-34071947D01*
X184658000Y-34544000D02*
X184912000Y-34798000D01*
X184658000Y-34544000D02*
X184912000Y-34544000D01*
X179070000Y-34544000D02*
X184658000Y-34544000D01*
X181729945Y-48768000D02*
X184947947Y-45549998D01*
X250698000Y-28776000D02*
X250698000Y-30226000D01*
X175260000Y-37601000D02*
X176013000Y-37601000D01*
X184947947Y-34071947D02*
X184947947Y-34254053D01*
X184947947Y-45549998D02*
X184947947Y-34579947D01*
X184947947Y-34071947D02*
X184947947Y-31833999D01*
X174244000Y-47498000D02*
X175514000Y-48768000D01*
X212364464Y-26996943D02*
X212581466Y-27213945D01*
X212581466Y-27213945D02*
X249135945Y-27213945D01*
X176013000Y-37601000D02*
X179070000Y-34544000D01*
X184947947Y-31833999D02*
X189785003Y-26996943D01*
X189785003Y-26996943D02*
X212364464Y-26996943D01*
X184912000Y-34544000D02*
X184947947Y-34579947D01*
X184947947Y-34254053D02*
X184658000Y-34544000D01*
X175514000Y-48768000D02*
X181729945Y-48768000D01*
%TO.N,/Heater_pwm_0*%
X229945649Y-62650000D02*
X229131821Y-63463828D01*
X230928000Y-62650000D02*
X229945649Y-62650000D01*
X232918000Y-30226000D02*
X232918000Y-29210000D01*
X233427010Y-28700990D02*
X238504990Y-28700990D01*
X232918000Y-29210000D02*
X233427010Y-28700990D01*
X239123010Y-33021010D02*
X239188000Y-33086000D01*
X239123010Y-29319010D02*
X239123010Y-33021010D01*
X238504990Y-28700990D02*
X239123010Y-29319010D01*
%TO.N,/Heater_pwm_1*%
X229704000Y-76366000D02*
X229108000Y-76962000D01*
X231182000Y-76366000D02*
X229704000Y-76366000D01*
X232918000Y-41910000D02*
X233172000Y-41656000D01*
X232918000Y-45466000D02*
X232918000Y-41910000D01*
X237744000Y-34036000D02*
X239188000Y-34036000D01*
X237236000Y-34544000D02*
X237744000Y-34036000D01*
%TD*%
M02*
