%TF.GenerationSoftware,KiCad,Pcbnew,(5.1.6)-1*%
%TF.CreationDate,2021-01-23T13:54:21+00:00*%
%TF.ProjectId,ninja_iron,6e696e6a-615f-4697-926f-6e2e6b696361,rev?*%
%TF.SameCoordinates,Original*%
%TF.FileFunction,Soldermask,Top*%
%TF.FilePolarity,Negative*%
%FSLAX46Y46*%
G04 Gerber Fmt 4.6, Leading zero omitted, Abs format (unit mm)*
G04 Created by KiCad (PCBNEW (5.1.6)-1) date 2021-01-23 13:54:21*
%MOMM*%
%LPD*%
G01*
G04 APERTURE LIST*
%ADD10R,1.560000X0.650000*%
%ADD11R,1.700000X1.700000*%
%ADD12C,3.048000*%
%ADD13R,3.500000X3.500000*%
%ADD14C,0.100000*%
%ADD15R,1.500000X1.000000*%
%ADD16R,1.500000X2.400000*%
%ADD17C,1.524000*%
%ADD18R,2.500000X1.800000*%
%ADD19R,0.900000X1.200000*%
%ADD20R,1.100000X1.100000*%
%ADD21R,2.400000X2.900000*%
%ADD22R,1.200000X2.900000*%
%ADD23C,2.000000*%
%ADD24R,1.800000X2.900000*%
%ADD25R,1.600000X2.400000*%
%ADD26O,1.600000X2.400000*%
%ADD27R,2.500000X0.650000*%
%ADD28R,6.600000X6.300000*%
%ADD29R,0.650000X1.560000*%
%ADD30C,2.800000*%
%ADD31R,1.780000X2.000000*%
%ADD32R,0.600000X1.550000*%
%ADD33R,2.350000X2.350000*%
%ADD34O,3.800000X3.000000*%
G04 APERTURE END LIST*
%TO.C,R36*%
G36*
G01*
X174809550Y-34976000D02*
X175710450Y-34976000D01*
G75*
G02*
X175960000Y-35225550I0J-249550D01*
G01*
X175960000Y-35876450D01*
G75*
G02*
X175710450Y-36126000I-249550J0D01*
G01*
X174809550Y-36126000D01*
G75*
G02*
X174560000Y-35876450I0J249550D01*
G01*
X174560000Y-35225550D01*
G75*
G02*
X174809550Y-34976000I249550J0D01*
G01*
G37*
G36*
G01*
X174809550Y-37026000D02*
X175710450Y-37026000D01*
G75*
G02*
X175960000Y-37275550I0J-249550D01*
G01*
X175960000Y-37926450D01*
G75*
G02*
X175710450Y-38176000I-249550J0D01*
G01*
X174809550Y-38176000D01*
G75*
G02*
X174560000Y-37926450I0J249550D01*
G01*
X174560000Y-37275550D01*
G75*
G02*
X174809550Y-37026000I249550J0D01*
G01*
G37*
%TD*%
D10*
%TO.C,U10*%
X241888000Y-33086000D03*
X241888000Y-34986000D03*
X239188000Y-34986000D03*
X239188000Y-34036000D03*
X239188000Y-33086000D03*
%TD*%
D11*
%TO.C,J3*%
X178308000Y-80518000D03*
%TD*%
%TO.C,R10*%
G36*
G01*
X195268000Y-68522001D02*
X195268000Y-67621999D01*
G75*
G02*
X195517999Y-67372000I249999J0D01*
G01*
X196168001Y-67372000D01*
G75*
G02*
X196418000Y-67621999I0J-249999D01*
G01*
X196418000Y-68522001D01*
G75*
G02*
X196168001Y-68772000I-249999J0D01*
G01*
X195517999Y-68772000D01*
G75*
G02*
X195268000Y-68522001I0J249999D01*
G01*
G37*
G36*
G01*
X193218000Y-68522001D02*
X193218000Y-67621999D01*
G75*
G02*
X193467999Y-67372000I249999J0D01*
G01*
X194118001Y-67372000D01*
G75*
G02*
X194368000Y-67621999I0J-249999D01*
G01*
X194368000Y-68522001D01*
G75*
G02*
X194118001Y-68772000I-249999J0D01*
G01*
X193467999Y-68772000D01*
G75*
G02*
X193218000Y-68522001I0J249999D01*
G01*
G37*
%TD*%
D12*
%TO.C,iron*%
X259588000Y-49784000D03*
X255270000Y-49784000D03*
X259588000Y-58928000D03*
X255270000Y-58928000D03*
%TD*%
%TO.C,R8*%
G36*
G01*
X217366000Y-81984001D02*
X217366000Y-81083999D01*
G75*
G02*
X217615999Y-80834000I249999J0D01*
G01*
X218266001Y-80834000D01*
G75*
G02*
X218516000Y-81083999I0J-249999D01*
G01*
X218516000Y-81984001D01*
G75*
G02*
X218266001Y-82234000I-249999J0D01*
G01*
X217615999Y-82234000D01*
G75*
G02*
X217366000Y-81984001I0J249999D01*
G01*
G37*
G36*
G01*
X215316000Y-81984001D02*
X215316000Y-81083999D01*
G75*
G02*
X215565999Y-80834000I249999J0D01*
G01*
X216216001Y-80834000D01*
G75*
G02*
X216466000Y-81083999I0J-249999D01*
G01*
X216466000Y-81984001D01*
G75*
G02*
X216216001Y-82234000I-249999J0D01*
G01*
X215565999Y-82234000D01*
G75*
G02*
X215316000Y-81984001I0J249999D01*
G01*
G37*
%TD*%
%TO.C,R5*%
G36*
G01*
X229927999Y-69774000D02*
X230828001Y-69774000D01*
G75*
G02*
X231078000Y-70023999I0J-249999D01*
G01*
X231078000Y-70674001D01*
G75*
G02*
X230828001Y-70924000I-249999J0D01*
G01*
X229927999Y-70924000D01*
G75*
G02*
X229678000Y-70674001I0J249999D01*
G01*
X229678000Y-70023999D01*
G75*
G02*
X229927999Y-69774000I249999J0D01*
G01*
G37*
G36*
G01*
X229927999Y-71824000D02*
X230828001Y-71824000D01*
G75*
G02*
X231078000Y-72073999I0J-249999D01*
G01*
X231078000Y-72724001D01*
G75*
G02*
X230828001Y-72974000I-249999J0D01*
G01*
X229927999Y-72974000D01*
G75*
G02*
X229678000Y-72724001I0J249999D01*
G01*
X229678000Y-72073999D01*
G75*
G02*
X229927999Y-71824000I249999J0D01*
G01*
G37*
%TD*%
D13*
%TO.C,J4*%
X254254000Y-79852000D03*
G36*
G01*
X261754000Y-78852000D02*
X261754000Y-80852000D01*
G75*
G02*
X261004000Y-81602000I-750000J0D01*
G01*
X259504000Y-81602000D01*
G75*
G02*
X258754000Y-80852000I0J750000D01*
G01*
X258754000Y-78852000D01*
G75*
G02*
X259504000Y-78102000I750000J0D01*
G01*
X261004000Y-78102000D01*
G75*
G02*
X261754000Y-78852000I0J-750000D01*
G01*
G37*
G36*
G01*
X259004000Y-74277000D02*
X259004000Y-76027000D01*
G75*
G02*
X258129000Y-76902000I-875000J0D01*
G01*
X256379000Y-76902000D01*
G75*
G02*
X255504000Y-76027000I0J875000D01*
G01*
X255504000Y-74277000D01*
G75*
G02*
X256379000Y-73402000I875000J0D01*
G01*
X258129000Y-73402000D01*
G75*
G02*
X259004000Y-74277000I0J-875000D01*
G01*
G37*
%TD*%
D14*
%TO.C,JP2*%
G36*
X179312000Y-46470000D02*
G01*
X179312000Y-47020000D01*
X179311398Y-47020000D01*
X179311398Y-47044534D01*
X179306588Y-47093365D01*
X179297016Y-47141490D01*
X179282772Y-47188445D01*
X179263995Y-47233778D01*
X179240864Y-47277051D01*
X179213604Y-47317850D01*
X179182476Y-47355779D01*
X179147779Y-47390476D01*
X179109850Y-47421604D01*
X179069051Y-47448864D01*
X179025778Y-47471995D01*
X178980445Y-47490772D01*
X178933490Y-47505016D01*
X178885365Y-47514588D01*
X178836534Y-47519398D01*
X178812000Y-47519398D01*
X178812000Y-47520000D01*
X178312000Y-47520000D01*
X178312000Y-47519398D01*
X178287466Y-47519398D01*
X178238635Y-47514588D01*
X178190510Y-47505016D01*
X178143555Y-47490772D01*
X178098222Y-47471995D01*
X178054949Y-47448864D01*
X178014150Y-47421604D01*
X177976221Y-47390476D01*
X177941524Y-47355779D01*
X177910396Y-47317850D01*
X177883136Y-47277051D01*
X177860005Y-47233778D01*
X177841228Y-47188445D01*
X177826984Y-47141490D01*
X177817412Y-47093365D01*
X177812602Y-47044534D01*
X177812602Y-47020000D01*
X177812000Y-47020000D01*
X177812000Y-46470000D01*
X179312000Y-46470000D01*
G37*
D15*
X178562000Y-45720000D03*
D14*
G36*
X177812602Y-44420000D02*
G01*
X177812602Y-44395466D01*
X177817412Y-44346635D01*
X177826984Y-44298510D01*
X177841228Y-44251555D01*
X177860005Y-44206222D01*
X177883136Y-44162949D01*
X177910396Y-44122150D01*
X177941524Y-44084221D01*
X177976221Y-44049524D01*
X178014150Y-44018396D01*
X178054949Y-43991136D01*
X178098222Y-43968005D01*
X178143555Y-43949228D01*
X178190510Y-43934984D01*
X178238635Y-43925412D01*
X178287466Y-43920602D01*
X178312000Y-43920602D01*
X178312000Y-43920000D01*
X178812000Y-43920000D01*
X178812000Y-43920602D01*
X178836534Y-43920602D01*
X178885365Y-43925412D01*
X178933490Y-43934984D01*
X178980445Y-43949228D01*
X179025778Y-43968005D01*
X179069051Y-43991136D01*
X179109850Y-44018396D01*
X179147779Y-44049524D01*
X179182476Y-44084221D01*
X179213604Y-44122150D01*
X179240864Y-44162949D01*
X179263995Y-44206222D01*
X179282772Y-44251555D01*
X179297016Y-44298510D01*
X179306588Y-44346635D01*
X179311398Y-44395466D01*
X179311398Y-44420000D01*
X179312000Y-44420000D01*
X179312000Y-44970000D01*
X177812000Y-44970000D01*
X177812000Y-44420000D01*
X177812602Y-44420000D01*
G37*
%TD*%
%TO.C,R3*%
G36*
G01*
X217366000Y-60902001D02*
X217366000Y-60001999D01*
G75*
G02*
X217615999Y-59752000I249999J0D01*
G01*
X218266001Y-59752000D01*
G75*
G02*
X218516000Y-60001999I0J-249999D01*
G01*
X218516000Y-60902001D01*
G75*
G02*
X218266001Y-61152000I-249999J0D01*
G01*
X217615999Y-61152000D01*
G75*
G02*
X217366000Y-60902001I0J249999D01*
G01*
G37*
G36*
G01*
X215316000Y-60902001D02*
X215316000Y-60001999D01*
G75*
G02*
X215565999Y-59752000I249999J0D01*
G01*
X216216001Y-59752000D01*
G75*
G02*
X216466000Y-60001999I0J-249999D01*
G01*
X216466000Y-60902001D01*
G75*
G02*
X216216001Y-61152000I-249999J0D01*
G01*
X215565999Y-61152000D01*
G75*
G02*
X215316000Y-60902001I0J249999D01*
G01*
G37*
%TD*%
%TO.C,JP1*%
G36*
X179312000Y-41390000D02*
G01*
X179312000Y-41940000D01*
X179311398Y-41940000D01*
X179311398Y-41964534D01*
X179306588Y-42013365D01*
X179297016Y-42061490D01*
X179282772Y-42108445D01*
X179263995Y-42153778D01*
X179240864Y-42197051D01*
X179213604Y-42237850D01*
X179182476Y-42275779D01*
X179147779Y-42310476D01*
X179109850Y-42341604D01*
X179069051Y-42368864D01*
X179025778Y-42391995D01*
X178980445Y-42410772D01*
X178933490Y-42425016D01*
X178885365Y-42434588D01*
X178836534Y-42439398D01*
X178812000Y-42439398D01*
X178812000Y-42440000D01*
X178312000Y-42440000D01*
X178312000Y-42439398D01*
X178287466Y-42439398D01*
X178238635Y-42434588D01*
X178190510Y-42425016D01*
X178143555Y-42410772D01*
X178098222Y-42391995D01*
X178054949Y-42368864D01*
X178014150Y-42341604D01*
X177976221Y-42310476D01*
X177941524Y-42275779D01*
X177910396Y-42237850D01*
X177883136Y-42197051D01*
X177860005Y-42153778D01*
X177841228Y-42108445D01*
X177826984Y-42061490D01*
X177817412Y-42013365D01*
X177812602Y-41964534D01*
X177812602Y-41940000D01*
X177812000Y-41940000D01*
X177812000Y-41390000D01*
X179312000Y-41390000D01*
G37*
D15*
X178562000Y-40640000D03*
D14*
G36*
X177812602Y-39340000D02*
G01*
X177812602Y-39315466D01*
X177817412Y-39266635D01*
X177826984Y-39218510D01*
X177841228Y-39171555D01*
X177860005Y-39126222D01*
X177883136Y-39082949D01*
X177910396Y-39042150D01*
X177941524Y-39004221D01*
X177976221Y-38969524D01*
X178014150Y-38938396D01*
X178054949Y-38911136D01*
X178098222Y-38888005D01*
X178143555Y-38869228D01*
X178190510Y-38854984D01*
X178238635Y-38845412D01*
X178287466Y-38840602D01*
X178312000Y-38840602D01*
X178312000Y-38840000D01*
X178812000Y-38840000D01*
X178812000Y-38840602D01*
X178836534Y-38840602D01*
X178885365Y-38845412D01*
X178933490Y-38854984D01*
X178980445Y-38869228D01*
X179025778Y-38888005D01*
X179069051Y-38911136D01*
X179109850Y-38938396D01*
X179147779Y-38969524D01*
X179182476Y-39004221D01*
X179213604Y-39042150D01*
X179240864Y-39082949D01*
X179263995Y-39126222D01*
X179282772Y-39171555D01*
X179297016Y-39218510D01*
X179306588Y-39266635D01*
X179311398Y-39315466D01*
X179311398Y-39340000D01*
X179312000Y-39340000D01*
X179312000Y-39890000D01*
X177812000Y-39890000D01*
X177812000Y-39340000D01*
X177812602Y-39340000D01*
G37*
%TD*%
%TO.C,R11*%
G36*
G01*
X193218000Y-66236001D02*
X193218000Y-65335999D01*
G75*
G02*
X193467999Y-65086000I249999J0D01*
G01*
X194118001Y-65086000D01*
G75*
G02*
X194368000Y-65335999I0J-249999D01*
G01*
X194368000Y-66236001D01*
G75*
G02*
X194118001Y-66486000I-249999J0D01*
G01*
X193467999Y-66486000D01*
G75*
G02*
X193218000Y-66236001I0J249999D01*
G01*
G37*
G36*
G01*
X195268000Y-66236001D02*
X195268000Y-65335999D01*
G75*
G02*
X195517999Y-65086000I249999J0D01*
G01*
X196168001Y-65086000D01*
G75*
G02*
X196418000Y-65335999I0J-249999D01*
G01*
X196418000Y-66236001D01*
G75*
G02*
X196168001Y-66486000I-249999J0D01*
G01*
X195517999Y-66486000D01*
G75*
G02*
X195268000Y-66236001I0J249999D01*
G01*
G37*
%TD*%
D16*
%TO.C,L1*%
X203752000Y-42164000D03*
X209252000Y-42164000D03*
%TD*%
%TO.C,R19*%
G36*
G01*
X224594000Y-83623999D02*
X224594000Y-84524001D01*
G75*
G02*
X224344001Y-84774000I-249999J0D01*
G01*
X223693999Y-84774000D01*
G75*
G02*
X223444000Y-84524001I0J249999D01*
G01*
X223444000Y-83623999D01*
G75*
G02*
X223693999Y-83374000I249999J0D01*
G01*
X224344001Y-83374000D01*
G75*
G02*
X224594000Y-83623999I0J-249999D01*
G01*
G37*
G36*
G01*
X226644000Y-83623999D02*
X226644000Y-84524001D01*
G75*
G02*
X226394001Y-84774000I-249999J0D01*
G01*
X225743999Y-84774000D01*
G75*
G02*
X225494000Y-84524001I0J249999D01*
G01*
X225494000Y-83623999D01*
G75*
G02*
X225743999Y-83374000I249999J0D01*
G01*
X226394001Y-83374000D01*
G75*
G02*
X226644000Y-83623999I0J-249999D01*
G01*
G37*
%TD*%
%TO.C,R14*%
G36*
G01*
X213302001Y-40208000D02*
X212401999Y-40208000D01*
G75*
G02*
X212152000Y-39958001I0J249999D01*
G01*
X212152000Y-39307999D01*
G75*
G02*
X212401999Y-39058000I249999J0D01*
G01*
X213302001Y-39058000D01*
G75*
G02*
X213552000Y-39307999I0J-249999D01*
G01*
X213552000Y-39958001D01*
G75*
G02*
X213302001Y-40208000I-249999J0D01*
G01*
G37*
G36*
G01*
X213302001Y-38158000D02*
X212401999Y-38158000D01*
G75*
G02*
X212152000Y-37908001I0J249999D01*
G01*
X212152000Y-37257999D01*
G75*
G02*
X212401999Y-37008000I249999J0D01*
G01*
X213302001Y-37008000D01*
G75*
G02*
X213552000Y-37257999I0J-249999D01*
G01*
X213552000Y-37908001D01*
G75*
G02*
X213302001Y-38158000I-249999J0D01*
G01*
G37*
%TD*%
%TO.C,R15*%
G36*
G01*
X209100000Y-33077999D02*
X209100000Y-33978001D01*
G75*
G02*
X208850001Y-34228000I-249999J0D01*
G01*
X208199999Y-34228000D01*
G75*
G02*
X207950000Y-33978001I0J249999D01*
G01*
X207950000Y-33077999D01*
G75*
G02*
X208199999Y-32828000I249999J0D01*
G01*
X208850001Y-32828000D01*
G75*
G02*
X209100000Y-33077999I0J-249999D01*
G01*
G37*
G36*
G01*
X211150000Y-33077999D02*
X211150000Y-33978001D01*
G75*
G02*
X210900001Y-34228000I-249999J0D01*
G01*
X210249999Y-34228000D01*
G75*
G02*
X210000000Y-33978001I0J249999D01*
G01*
X210000000Y-33077999D01*
G75*
G02*
X210249999Y-32828000I249999J0D01*
G01*
X210900001Y-32828000D01*
G75*
G02*
X211150000Y-33077999I0J-249999D01*
G01*
G37*
%TD*%
%TO.C,R25*%
G36*
G01*
X181159999Y-55314000D02*
X182060001Y-55314000D01*
G75*
G02*
X182310000Y-55563999I0J-249999D01*
G01*
X182310000Y-56214001D01*
G75*
G02*
X182060001Y-56464000I-249999J0D01*
G01*
X181159999Y-56464000D01*
G75*
G02*
X180910000Y-56214001I0J249999D01*
G01*
X180910000Y-55563999D01*
G75*
G02*
X181159999Y-55314000I249999J0D01*
G01*
G37*
G36*
G01*
X181159999Y-53264000D02*
X182060001Y-53264000D01*
G75*
G02*
X182310000Y-53513999I0J-249999D01*
G01*
X182310000Y-54164001D01*
G75*
G02*
X182060001Y-54414000I-249999J0D01*
G01*
X181159999Y-54414000D01*
G75*
G02*
X180910000Y-54164001I0J249999D01*
G01*
X180910000Y-53513999D01*
G75*
G02*
X181159999Y-53264000I249999J0D01*
G01*
G37*
%TD*%
%TO.C,R21*%
G36*
G01*
X226644000Y-81337999D02*
X226644000Y-82238001D01*
G75*
G02*
X226394001Y-82488000I-249999J0D01*
G01*
X225743999Y-82488000D01*
G75*
G02*
X225494000Y-82238001I0J249999D01*
G01*
X225494000Y-81337999D01*
G75*
G02*
X225743999Y-81088000I249999J0D01*
G01*
X226394001Y-81088000D01*
G75*
G02*
X226644000Y-81337999I0J-249999D01*
G01*
G37*
G36*
G01*
X224594000Y-81337999D02*
X224594000Y-82238001D01*
G75*
G02*
X224344001Y-82488000I-249999J0D01*
G01*
X223693999Y-82488000D01*
G75*
G02*
X223444000Y-82238001I0J249999D01*
G01*
X223444000Y-81337999D01*
G75*
G02*
X223693999Y-81088000I249999J0D01*
G01*
X224344001Y-81088000D01*
G75*
G02*
X224594000Y-81337999I0J-249999D01*
G01*
G37*
%TD*%
%TO.C,R23*%
G36*
G01*
X172015999Y-55314000D02*
X172916001Y-55314000D01*
G75*
G02*
X173166000Y-55563999I0J-249999D01*
G01*
X173166000Y-56214001D01*
G75*
G02*
X172916001Y-56464000I-249999J0D01*
G01*
X172015999Y-56464000D01*
G75*
G02*
X171766000Y-56214001I0J249999D01*
G01*
X171766000Y-55563999D01*
G75*
G02*
X172015999Y-55314000I249999J0D01*
G01*
G37*
G36*
G01*
X172015999Y-53264000D02*
X172916001Y-53264000D01*
G75*
G02*
X173166000Y-53513999I0J-249999D01*
G01*
X173166000Y-54164001D01*
G75*
G02*
X172916001Y-54414000I-249999J0D01*
G01*
X172015999Y-54414000D01*
G75*
G02*
X171766000Y-54164001I0J249999D01*
G01*
X171766000Y-53513999D01*
G75*
G02*
X172015999Y-53264000I249999J0D01*
G01*
G37*
%TD*%
%TO.C,R28*%
G36*
G01*
X220650000Y-46170001D02*
X220650000Y-45269999D01*
G75*
G02*
X220899999Y-45020000I249999J0D01*
G01*
X221550001Y-45020000D01*
G75*
G02*
X221800000Y-45269999I0J-249999D01*
G01*
X221800000Y-46170001D01*
G75*
G02*
X221550001Y-46420000I-249999J0D01*
G01*
X220899999Y-46420000D01*
G75*
G02*
X220650000Y-46170001I0J249999D01*
G01*
G37*
G36*
G01*
X222700000Y-46170001D02*
X222700000Y-45269999D01*
G75*
G02*
X222949999Y-45020000I249999J0D01*
G01*
X223600001Y-45020000D01*
G75*
G02*
X223850000Y-45269999I0J-249999D01*
G01*
X223850000Y-46170001D01*
G75*
G02*
X223600001Y-46420000I-249999J0D01*
G01*
X222949999Y-46420000D01*
G75*
G02*
X222700000Y-46170001I0J249999D01*
G01*
G37*
%TD*%
%TO.C,R30*%
G36*
G01*
X182194000Y-57715999D02*
X182194000Y-58616001D01*
G75*
G02*
X181944001Y-58866000I-249999J0D01*
G01*
X181293999Y-58866000D01*
G75*
G02*
X181044000Y-58616001I0J249999D01*
G01*
X181044000Y-57715999D01*
G75*
G02*
X181293999Y-57466000I249999J0D01*
G01*
X181944001Y-57466000D01*
G75*
G02*
X182194000Y-57715999I0J-249999D01*
G01*
G37*
G36*
G01*
X180144000Y-57715550D02*
X180144000Y-58616450D01*
G75*
G02*
X179894450Y-58866000I-249550J0D01*
G01*
X179243550Y-58866000D01*
G75*
G02*
X178994000Y-58616450I0J249550D01*
G01*
X178994000Y-57715550D01*
G75*
G02*
X179243550Y-57466000I249550J0D01*
G01*
X179894450Y-57466000D01*
G75*
G02*
X180144000Y-57715550I0J-249550D01*
G01*
G37*
%TD*%
%TO.C,R35*%
G36*
G01*
X171253550Y-37026000D02*
X172154450Y-37026000D01*
G75*
G02*
X172404000Y-37275550I0J-249550D01*
G01*
X172404000Y-37926450D01*
G75*
G02*
X172154450Y-38176000I-249550J0D01*
G01*
X171253550Y-38176000D01*
G75*
G02*
X171004000Y-37926450I0J249550D01*
G01*
X171004000Y-37275550D01*
G75*
G02*
X171253550Y-37026000I249550J0D01*
G01*
G37*
G36*
G01*
X171253550Y-34976000D02*
X172154450Y-34976000D01*
G75*
G02*
X172404000Y-35225550I0J-249550D01*
G01*
X172404000Y-35876450D01*
G75*
G02*
X172154450Y-36126000I-249550J0D01*
G01*
X171253550Y-36126000D01*
G75*
G02*
X171004000Y-35876450I0J249550D01*
G01*
X171004000Y-35225550D01*
G75*
G02*
X171253550Y-34976000I249550J0D01*
G01*
G37*
%TD*%
%TO.C,R20*%
G36*
G01*
X218516000Y-68891999D02*
X218516000Y-69792001D01*
G75*
G02*
X218266001Y-70042000I-249999J0D01*
G01*
X217615999Y-70042000D01*
G75*
G02*
X217366000Y-69792001I0J249999D01*
G01*
X217366000Y-68891999D01*
G75*
G02*
X217615999Y-68642000I249999J0D01*
G01*
X218266001Y-68642000D01*
G75*
G02*
X218516000Y-68891999I0J-249999D01*
G01*
G37*
G36*
G01*
X216466000Y-68891999D02*
X216466000Y-69792001D01*
G75*
G02*
X216216001Y-70042000I-249999J0D01*
G01*
X215565999Y-70042000D01*
G75*
G02*
X215316000Y-69792001I0J249999D01*
G01*
X215316000Y-68891999D01*
G75*
G02*
X215565999Y-68642000I249999J0D01*
G01*
X216216001Y-68642000D01*
G75*
G02*
X216466000Y-68891999I0J-249999D01*
G01*
G37*
%TD*%
%TO.C,R27*%
G36*
G01*
X182176000Y-70669999D02*
X182176000Y-71570001D01*
G75*
G02*
X181926001Y-71820000I-249999J0D01*
G01*
X181275999Y-71820000D01*
G75*
G02*
X181026000Y-71570001I0J249999D01*
G01*
X181026000Y-70669999D01*
G75*
G02*
X181275999Y-70420000I249999J0D01*
G01*
X181926001Y-70420000D01*
G75*
G02*
X182176000Y-70669999I0J-249999D01*
G01*
G37*
G36*
G01*
X184226000Y-70669999D02*
X184226000Y-71570001D01*
G75*
G02*
X183976001Y-71820000I-249999J0D01*
G01*
X183325999Y-71820000D01*
G75*
G02*
X183076000Y-71570001I0J249999D01*
G01*
X183076000Y-70669999D01*
G75*
G02*
X183325999Y-70420000I249999J0D01*
G01*
X183976001Y-70420000D01*
G75*
G02*
X184226000Y-70669999I0J-249999D01*
G01*
G37*
%TD*%
%TO.C,R29*%
G36*
G01*
X227780000Y-46424001D02*
X227780000Y-45523999D01*
G75*
G02*
X228029999Y-45274000I249999J0D01*
G01*
X228680001Y-45274000D01*
G75*
G02*
X228930000Y-45523999I0J-249999D01*
G01*
X228930000Y-46424001D01*
G75*
G02*
X228680001Y-46674000I-249999J0D01*
G01*
X228029999Y-46674000D01*
G75*
G02*
X227780000Y-46424001I0J249999D01*
G01*
G37*
G36*
G01*
X225730000Y-46424001D02*
X225730000Y-45523999D01*
G75*
G02*
X225979999Y-45274000I249999J0D01*
G01*
X226630001Y-45274000D01*
G75*
G02*
X226880000Y-45523999I0J-249999D01*
G01*
X226880000Y-46424001D01*
G75*
G02*
X226630001Y-46674000I-249999J0D01*
G01*
X225979999Y-46674000D01*
G75*
G02*
X225730000Y-46424001I0J249999D01*
G01*
G37*
%TD*%
%TO.C,R31*%
G36*
G01*
X175572000Y-57715999D02*
X175572000Y-58616001D01*
G75*
G02*
X175322001Y-58866000I-249999J0D01*
G01*
X174671999Y-58866000D01*
G75*
G02*
X174422000Y-58616001I0J249999D01*
G01*
X174422000Y-57715999D01*
G75*
G02*
X174671999Y-57466000I249999J0D01*
G01*
X175322001Y-57466000D01*
G75*
G02*
X175572000Y-57715999I0J-249999D01*
G01*
G37*
G36*
G01*
X177622000Y-57715999D02*
X177622000Y-58616001D01*
G75*
G02*
X177372001Y-58866000I-249999J0D01*
G01*
X176721999Y-58866000D01*
G75*
G02*
X176472000Y-58616001I0J249999D01*
G01*
X176472000Y-57715999D01*
G75*
G02*
X176721999Y-57466000I249999J0D01*
G01*
X177372001Y-57466000D01*
G75*
G02*
X177622000Y-57715999I0J-249999D01*
G01*
G37*
%TD*%
%TO.C,R26*%
G36*
G01*
X181159999Y-66218000D02*
X182060001Y-66218000D01*
G75*
G02*
X182310000Y-66467999I0J-249999D01*
G01*
X182310000Y-67118001D01*
G75*
G02*
X182060001Y-67368000I-249999J0D01*
G01*
X181159999Y-67368000D01*
G75*
G02*
X180910000Y-67118001I0J249999D01*
G01*
X180910000Y-66467999D01*
G75*
G02*
X181159999Y-66218000I249999J0D01*
G01*
G37*
G36*
G01*
X181159999Y-68268000D02*
X182060001Y-68268000D01*
G75*
G02*
X182310000Y-68517999I0J-249999D01*
G01*
X182310000Y-69168001D01*
G75*
G02*
X182060001Y-69418000I-249999J0D01*
G01*
X181159999Y-69418000D01*
G75*
G02*
X180910000Y-69168001I0J249999D01*
G01*
X180910000Y-68517999D01*
G75*
G02*
X181159999Y-68268000I249999J0D01*
G01*
G37*
%TD*%
%TO.C,R16*%
G36*
G01*
X226644000Y-66351999D02*
X226644000Y-67252001D01*
G75*
G02*
X226394001Y-67502000I-249999J0D01*
G01*
X225743999Y-67502000D01*
G75*
G02*
X225494000Y-67252001I0J249999D01*
G01*
X225494000Y-66351999D01*
G75*
G02*
X225743999Y-66102000I249999J0D01*
G01*
X226394001Y-66102000D01*
G75*
G02*
X226644000Y-66351999I0J-249999D01*
G01*
G37*
G36*
G01*
X224594000Y-66351999D02*
X224594000Y-67252001D01*
G75*
G02*
X224344001Y-67502000I-249999J0D01*
G01*
X223693999Y-67502000D01*
G75*
G02*
X223444000Y-67252001I0J249999D01*
G01*
X223444000Y-66351999D01*
G75*
G02*
X223693999Y-66102000I249999J0D01*
G01*
X224344001Y-66102000D01*
G75*
G02*
X224594000Y-66351999I0J-249999D01*
G01*
G37*
%TD*%
%TO.C,R17*%
G36*
G01*
X216466000Y-51873999D02*
X216466000Y-52774001D01*
G75*
G02*
X216216001Y-53024000I-249999J0D01*
G01*
X215565999Y-53024000D01*
G75*
G02*
X215316000Y-52774001I0J249999D01*
G01*
X215316000Y-51873999D01*
G75*
G02*
X215565999Y-51624000I249999J0D01*
G01*
X216216001Y-51624000D01*
G75*
G02*
X216466000Y-51873999I0J-249999D01*
G01*
G37*
G36*
G01*
X218516000Y-51873999D02*
X218516000Y-52774001D01*
G75*
G02*
X218266001Y-53024000I-249999J0D01*
G01*
X217615999Y-53024000D01*
G75*
G02*
X217366000Y-52774001I0J249999D01*
G01*
X217366000Y-51873999D01*
G75*
G02*
X217615999Y-51624000I249999J0D01*
G01*
X218266001Y-51624000D01*
G75*
G02*
X218516000Y-51873999I0J-249999D01*
G01*
G37*
%TD*%
%TO.C,R18*%
G36*
G01*
X225476000Y-62680001D02*
X225476000Y-61779999D01*
G75*
G02*
X225725999Y-61530000I249999J0D01*
G01*
X226376001Y-61530000D01*
G75*
G02*
X226626000Y-61779999I0J-249999D01*
G01*
X226626000Y-62680001D01*
G75*
G02*
X226376001Y-62930000I-249999J0D01*
G01*
X225725999Y-62930000D01*
G75*
G02*
X225476000Y-62680001I0J249999D01*
G01*
G37*
G36*
G01*
X227526000Y-62680001D02*
X227526000Y-61779999D01*
G75*
G02*
X227775999Y-61530000I249999J0D01*
G01*
X228426001Y-61530000D01*
G75*
G02*
X228676000Y-61779999I0J-249999D01*
G01*
X228676000Y-62680001D01*
G75*
G02*
X228426001Y-62930000I-249999J0D01*
G01*
X227775999Y-62930000D01*
G75*
G02*
X227526000Y-62680001I0J249999D01*
G01*
G37*
%TD*%
%TO.C,R24*%
G36*
G01*
X176333999Y-53264000D02*
X177234001Y-53264000D01*
G75*
G02*
X177484000Y-53513999I0J-249999D01*
G01*
X177484000Y-54164001D01*
G75*
G02*
X177234001Y-54414000I-249999J0D01*
G01*
X176333999Y-54414000D01*
G75*
G02*
X176084000Y-54164001I0J249999D01*
G01*
X176084000Y-53513999D01*
G75*
G02*
X176333999Y-53264000I249999J0D01*
G01*
G37*
G36*
G01*
X176333999Y-55314000D02*
X177234001Y-55314000D01*
G75*
G02*
X177484000Y-55563999I0J-249999D01*
G01*
X177484000Y-56214001D01*
G75*
G02*
X177234001Y-56464000I-249999J0D01*
G01*
X176333999Y-56464000D01*
G75*
G02*
X176084000Y-56214001I0J249999D01*
G01*
X176084000Y-55563999D01*
G75*
G02*
X176333999Y-55314000I249999J0D01*
G01*
G37*
%TD*%
%TO.C,C21*%
G36*
G01*
X218516000Y-45523999D02*
X218516000Y-46424001D01*
G75*
G02*
X218266001Y-46674000I-249999J0D01*
G01*
X217615999Y-46674000D01*
G75*
G02*
X217366000Y-46424001I0J249999D01*
G01*
X217366000Y-45523999D01*
G75*
G02*
X217615999Y-45274000I249999J0D01*
G01*
X218266001Y-45274000D01*
G75*
G02*
X218516000Y-45523999I0J-249999D01*
G01*
G37*
G36*
G01*
X216466000Y-45523999D02*
X216466000Y-46424001D01*
G75*
G02*
X216216001Y-46674000I-249999J0D01*
G01*
X215565999Y-46674000D01*
G75*
G02*
X215316000Y-46424001I0J249999D01*
G01*
X215316000Y-45523999D01*
G75*
G02*
X215565999Y-45274000I249999J0D01*
G01*
X216216001Y-45274000D01*
G75*
G02*
X216466000Y-45523999I0J-249999D01*
G01*
G37*
%TD*%
%TO.C,C18*%
G36*
G01*
X176333999Y-61918000D02*
X177234001Y-61918000D01*
G75*
G02*
X177484000Y-62167999I0J-249999D01*
G01*
X177484000Y-62818001D01*
G75*
G02*
X177234001Y-63068000I-249999J0D01*
G01*
X176333999Y-63068000D01*
G75*
G02*
X176084000Y-62818001I0J249999D01*
G01*
X176084000Y-62167999D01*
G75*
G02*
X176333999Y-61918000I249999J0D01*
G01*
G37*
G36*
G01*
X176333999Y-59868000D02*
X177234001Y-59868000D01*
G75*
G02*
X177484000Y-60117999I0J-249999D01*
G01*
X177484000Y-60768001D01*
G75*
G02*
X177234001Y-61018000I-249999J0D01*
G01*
X176333999Y-61018000D01*
G75*
G02*
X176084000Y-60768001I0J249999D01*
G01*
X176084000Y-60117999D01*
G75*
G02*
X176333999Y-59868000I249999J0D01*
G01*
G37*
%TD*%
%TO.C,C7*%
G36*
G01*
X199078001Y-65100000D02*
X198177999Y-65100000D01*
G75*
G02*
X197928000Y-64850001I0J249999D01*
G01*
X197928000Y-64199999D01*
G75*
G02*
X198177999Y-63950000I249999J0D01*
G01*
X199078001Y-63950000D01*
G75*
G02*
X199328000Y-64199999I0J-249999D01*
G01*
X199328000Y-64850001D01*
G75*
G02*
X199078001Y-65100000I-249999J0D01*
G01*
G37*
G36*
G01*
X199078001Y-63050000D02*
X198177999Y-63050000D01*
G75*
G02*
X197928000Y-62800001I0J249999D01*
G01*
X197928000Y-62149999D01*
G75*
G02*
X198177999Y-61900000I249999J0D01*
G01*
X199078001Y-61900000D01*
G75*
G02*
X199328000Y-62149999I0J-249999D01*
G01*
X199328000Y-62800001D01*
G75*
G02*
X199078001Y-63050000I-249999J0D01*
G01*
G37*
%TD*%
%TO.C,C8*%
G36*
G01*
X220650000Y-43884001D02*
X220650000Y-42983999D01*
G75*
G02*
X220899999Y-42734000I249999J0D01*
G01*
X221550001Y-42734000D01*
G75*
G02*
X221800000Y-42983999I0J-249999D01*
G01*
X221800000Y-43884001D01*
G75*
G02*
X221550001Y-44134000I-249999J0D01*
G01*
X220899999Y-44134000D01*
G75*
G02*
X220650000Y-43884001I0J249999D01*
G01*
G37*
G36*
G01*
X222700000Y-43884001D02*
X222700000Y-42983999D01*
G75*
G02*
X222949999Y-42734000I249999J0D01*
G01*
X223600001Y-42734000D01*
G75*
G02*
X223850000Y-42983999I0J-249999D01*
G01*
X223850000Y-43884001D01*
G75*
G02*
X223600001Y-44134000I-249999J0D01*
G01*
X222949999Y-44134000D01*
G75*
G02*
X222700000Y-43884001I0J249999D01*
G01*
G37*
%TD*%
D17*
%TO.C,OLED*%
X174244000Y-47498000D03*
X174244000Y-44958000D03*
X174244000Y-42418000D03*
X174244000Y-39878000D03*
%TD*%
%TO.C,C20*%
G36*
G01*
X201110001Y-63050000D02*
X200209999Y-63050000D01*
G75*
G02*
X199960000Y-62800001I0J249999D01*
G01*
X199960000Y-62149999D01*
G75*
G02*
X200209999Y-61900000I249999J0D01*
G01*
X201110001Y-61900000D01*
G75*
G02*
X201360000Y-62149999I0J-249999D01*
G01*
X201360000Y-62800001D01*
G75*
G02*
X201110001Y-63050000I-249999J0D01*
G01*
G37*
G36*
G01*
X201110001Y-65100000D02*
X200209999Y-65100000D01*
G75*
G02*
X199960000Y-64850001I0J249999D01*
G01*
X199960000Y-64199999D01*
G75*
G02*
X200209999Y-63950000I249999J0D01*
G01*
X201110001Y-63950000D01*
G75*
G02*
X201360000Y-64199999I0J-249999D01*
G01*
X201360000Y-64850001D01*
G75*
G02*
X201110001Y-65100000I-249999J0D01*
G01*
G37*
%TD*%
D18*
%TO.C,D2*%
X204756000Y-48768000D03*
X208756000Y-48768000D03*
%TD*%
D19*
%TO.C,D9*%
X211962000Y-83312000D03*
X208662000Y-83312000D03*
%TD*%
%TO.C,C19*%
G36*
G01*
X181159999Y-59868000D02*
X182060001Y-59868000D01*
G75*
G02*
X182310000Y-60117999I0J-249999D01*
G01*
X182310000Y-60768001D01*
G75*
G02*
X182060001Y-61018000I-249999J0D01*
G01*
X181159999Y-61018000D01*
G75*
G02*
X180910000Y-60768001I0J249999D01*
G01*
X180910000Y-60117999D01*
G75*
G02*
X181159999Y-59868000I249999J0D01*
G01*
G37*
G36*
G01*
X181159999Y-61918000D02*
X182060001Y-61918000D01*
G75*
G02*
X182310000Y-62167999I0J-249999D01*
G01*
X182310000Y-62818001D01*
G75*
G02*
X182060001Y-63068000I-249999J0D01*
G01*
X181159999Y-63068000D01*
G75*
G02*
X180910000Y-62818001I0J249999D01*
G01*
X180910000Y-62167999D01*
G75*
G02*
X181159999Y-61918000I249999J0D01*
G01*
G37*
%TD*%
%TO.C,C6*%
G36*
G01*
X211131999Y-77666000D02*
X212032001Y-77666000D01*
G75*
G02*
X212282000Y-77915999I0J-249999D01*
G01*
X212282000Y-78566001D01*
G75*
G02*
X212032001Y-78816000I-249999J0D01*
G01*
X211131999Y-78816000D01*
G75*
G02*
X210882000Y-78566001I0J249999D01*
G01*
X210882000Y-77915999D01*
G75*
G02*
X211131999Y-77666000I249999J0D01*
G01*
G37*
G36*
G01*
X211131999Y-75616000D02*
X212032001Y-75616000D01*
G75*
G02*
X212282000Y-75865999I0J-249999D01*
G01*
X212282000Y-76516001D01*
G75*
G02*
X212032001Y-76766000I-249999J0D01*
G01*
X211131999Y-76766000D01*
G75*
G02*
X210882000Y-76516001I0J249999D01*
G01*
X210882000Y-75865999D01*
G75*
G02*
X211131999Y-75616000I249999J0D01*
G01*
G37*
%TD*%
%TO.C,C3*%
G36*
G01*
X210877999Y-60884000D02*
X211778001Y-60884000D01*
G75*
G02*
X212028000Y-61133999I0J-249999D01*
G01*
X212028000Y-61784001D01*
G75*
G02*
X211778001Y-62034000I-249999J0D01*
G01*
X210877999Y-62034000D01*
G75*
G02*
X210628000Y-61784001I0J249999D01*
G01*
X210628000Y-61133999D01*
G75*
G02*
X210877999Y-60884000I249999J0D01*
G01*
G37*
G36*
G01*
X210877999Y-62934000D02*
X211778001Y-62934000D01*
G75*
G02*
X212028000Y-63183999I0J-249999D01*
G01*
X212028000Y-63834001D01*
G75*
G02*
X211778001Y-64084000I-249999J0D01*
G01*
X210877999Y-64084000D01*
G75*
G02*
X210628000Y-63834001I0J249999D01*
G01*
X210628000Y-63183999D01*
G75*
G02*
X210877999Y-62934000I249999J0D01*
G01*
G37*
%TD*%
%TO.C,C9*%
G36*
G01*
X222700000Y-40836001D02*
X222700000Y-39935999D01*
G75*
G02*
X222949999Y-39686000I249999J0D01*
G01*
X223600001Y-39686000D01*
G75*
G02*
X223850000Y-39935999I0J-249999D01*
G01*
X223850000Y-40836001D01*
G75*
G02*
X223600001Y-41086000I-249999J0D01*
G01*
X222949999Y-41086000D01*
G75*
G02*
X222700000Y-40836001I0J249999D01*
G01*
G37*
G36*
G01*
X220650000Y-40836001D02*
X220650000Y-39935999D01*
G75*
G02*
X220899999Y-39686000I249999J0D01*
G01*
X221550001Y-39686000D01*
G75*
G02*
X221800000Y-39935999I0J-249999D01*
G01*
X221800000Y-40836001D01*
G75*
G02*
X221550001Y-41086000I-249999J0D01*
G01*
X220899999Y-41086000D01*
G75*
G02*
X220650000Y-40836001I0J249999D01*
G01*
G37*
%TD*%
%TO.C,C1*%
G36*
G01*
X208957000Y-59632001D02*
X208957000Y-58731999D01*
G75*
G02*
X209206999Y-58482000I249999J0D01*
G01*
X209857001Y-58482000D01*
G75*
G02*
X210107000Y-58731999I0J-249999D01*
G01*
X210107000Y-59632001D01*
G75*
G02*
X209857001Y-59882000I-249999J0D01*
G01*
X209206999Y-59882000D01*
G75*
G02*
X208957000Y-59632001I0J249999D01*
G01*
G37*
G36*
G01*
X211007000Y-59632001D02*
X211007000Y-58731999D01*
G75*
G02*
X211256999Y-58482000I249999J0D01*
G01*
X211907001Y-58482000D01*
G75*
G02*
X212157000Y-58731999I0J-249999D01*
G01*
X212157000Y-59632001D01*
G75*
G02*
X211907001Y-59882000I-249999J0D01*
G01*
X211256999Y-59882000D01*
G75*
G02*
X211007000Y-59632001I0J249999D01*
G01*
G37*
%TD*%
%TO.C,C4*%
G36*
G01*
X208966000Y-74364001D02*
X208966000Y-73463999D01*
G75*
G02*
X209215999Y-73214000I249999J0D01*
G01*
X209866001Y-73214000D01*
G75*
G02*
X210116000Y-73463999I0J-249999D01*
G01*
X210116000Y-74364001D01*
G75*
G02*
X209866001Y-74614000I-249999J0D01*
G01*
X209215999Y-74614000D01*
G75*
G02*
X208966000Y-74364001I0J249999D01*
G01*
G37*
G36*
G01*
X211016000Y-74364001D02*
X211016000Y-73463999D01*
G75*
G02*
X211265999Y-73214000I249999J0D01*
G01*
X211916001Y-73214000D01*
G75*
G02*
X212166000Y-73463999I0J-249999D01*
G01*
X212166000Y-74364001D01*
G75*
G02*
X211916001Y-74614000I-249999J0D01*
G01*
X211265999Y-74614000D01*
G75*
G02*
X211016000Y-74364001I0J249999D01*
G01*
G37*
%TD*%
%TO.C,C13*%
G36*
G01*
X194252001Y-35110000D02*
X193351999Y-35110000D01*
G75*
G02*
X193102000Y-34860001I0J249999D01*
G01*
X193102000Y-34209999D01*
G75*
G02*
X193351999Y-33960000I249999J0D01*
G01*
X194252001Y-33960000D01*
G75*
G02*
X194502000Y-34209999I0J-249999D01*
G01*
X194502000Y-34860001D01*
G75*
G02*
X194252001Y-35110000I-249999J0D01*
G01*
G37*
G36*
G01*
X194252001Y-37160000D02*
X193351999Y-37160000D01*
G75*
G02*
X193102000Y-36910001I0J249999D01*
G01*
X193102000Y-36259999D01*
G75*
G02*
X193351999Y-36010000I249999J0D01*
G01*
X194252001Y-36010000D01*
G75*
G02*
X194502000Y-36259999I0J-249999D01*
G01*
X194502000Y-36910001D01*
G75*
G02*
X194252001Y-37160000I-249999J0D01*
G01*
G37*
%TD*%
%TO.C,C14*%
G36*
G01*
X224594000Y-79051999D02*
X224594000Y-79952001D01*
G75*
G02*
X224344001Y-80202000I-249999J0D01*
G01*
X223693999Y-80202000D01*
G75*
G02*
X223444000Y-79952001I0J249999D01*
G01*
X223444000Y-79051999D01*
G75*
G02*
X223693999Y-78802000I249999J0D01*
G01*
X224344001Y-78802000D01*
G75*
G02*
X224594000Y-79051999I0J-249999D01*
G01*
G37*
G36*
G01*
X226644000Y-79051999D02*
X226644000Y-79952001D01*
G75*
G02*
X226394001Y-80202000I-249999J0D01*
G01*
X225743999Y-80202000D01*
G75*
G02*
X225494000Y-79952001I0J249999D01*
G01*
X225494000Y-79051999D01*
G75*
G02*
X225743999Y-78802000I249999J0D01*
G01*
X226394001Y-78802000D01*
G75*
G02*
X226644000Y-79051999I0J-249999D01*
G01*
G37*
%TD*%
D20*
%TO.C,D6*%
X181610000Y-73530000D03*
X181610000Y-76330000D03*
%TD*%
%TO.C,D1*%
X221110000Y-37846000D03*
X218310000Y-37846000D03*
%TD*%
%TO.C,R1*%
G36*
G01*
X229812001Y-57988000D02*
X228911999Y-57988000D01*
G75*
G02*
X228662000Y-57738001I0J249999D01*
G01*
X228662000Y-57087999D01*
G75*
G02*
X228911999Y-56838000I249999J0D01*
G01*
X229812001Y-56838000D01*
G75*
G02*
X230062000Y-57087999I0J-249999D01*
G01*
X230062000Y-57738001D01*
G75*
G02*
X229812001Y-57988000I-249999J0D01*
G01*
G37*
G36*
G01*
X229812001Y-55938000D02*
X228911999Y-55938000D01*
G75*
G02*
X228662000Y-55688001I0J249999D01*
G01*
X228662000Y-55037999D01*
G75*
G02*
X228911999Y-54788000I249999J0D01*
G01*
X229812001Y-54788000D01*
G75*
G02*
X230062000Y-55037999I0J-249999D01*
G01*
X230062000Y-55688001D01*
G75*
G02*
X229812001Y-55938000I-249999J0D01*
G01*
G37*
%TD*%
%TO.C,R4*%
G36*
G01*
X217366000Y-64458001D02*
X217366000Y-63557999D01*
G75*
G02*
X217615999Y-63308000I249999J0D01*
G01*
X218266001Y-63308000D01*
G75*
G02*
X218516000Y-63557999I0J-249999D01*
G01*
X218516000Y-64458001D01*
G75*
G02*
X218266001Y-64708000I-249999J0D01*
G01*
X217615999Y-64708000D01*
G75*
G02*
X217366000Y-64458001I0J249999D01*
G01*
G37*
G36*
G01*
X215316000Y-64458001D02*
X215316000Y-63557999D01*
G75*
G02*
X215565999Y-63308000I249999J0D01*
G01*
X216216001Y-63308000D01*
G75*
G02*
X216466000Y-63557999I0J-249999D01*
G01*
X216466000Y-64458001D01*
G75*
G02*
X216216001Y-64708000I-249999J0D01*
G01*
X215565999Y-64708000D01*
G75*
G02*
X215316000Y-64458001I0J249999D01*
G01*
G37*
%TD*%
%TO.C,R13*%
G36*
G01*
X214687999Y-39058000D02*
X215588001Y-39058000D01*
G75*
G02*
X215838000Y-39307999I0J-249999D01*
G01*
X215838000Y-39958001D01*
G75*
G02*
X215588001Y-40208000I-249999J0D01*
G01*
X214687999Y-40208000D01*
G75*
G02*
X214438000Y-39958001I0J249999D01*
G01*
X214438000Y-39307999D01*
G75*
G02*
X214687999Y-39058000I249999J0D01*
G01*
G37*
G36*
G01*
X214687999Y-37008000D02*
X215588001Y-37008000D01*
G75*
G02*
X215838000Y-37257999I0J-249999D01*
G01*
X215838000Y-37908001D01*
G75*
G02*
X215588001Y-38158000I-249999J0D01*
G01*
X214687999Y-38158000D01*
G75*
G02*
X214438000Y-37908001I0J249999D01*
G01*
X214438000Y-37257999D01*
G75*
G02*
X214687999Y-37008000I249999J0D01*
G01*
G37*
%TD*%
%TO.C,R7*%
G36*
G01*
X215316000Y-77666001D02*
X215316000Y-76765999D01*
G75*
G02*
X215565999Y-76516000I249999J0D01*
G01*
X216216001Y-76516000D01*
G75*
G02*
X216466000Y-76765999I0J-249999D01*
G01*
X216466000Y-77666001D01*
G75*
G02*
X216216001Y-77916000I-249999J0D01*
G01*
X215565999Y-77916000D01*
G75*
G02*
X215316000Y-77666001I0J249999D01*
G01*
G37*
G36*
G01*
X217366000Y-77666001D02*
X217366000Y-76765999D01*
G75*
G02*
X217615999Y-76516000I249999J0D01*
G01*
X218266001Y-76516000D01*
G75*
G02*
X218516000Y-76765999I0J-249999D01*
G01*
X218516000Y-77666001D01*
G75*
G02*
X218266001Y-77916000I-249999J0D01*
G01*
X217615999Y-77916000D01*
G75*
G02*
X217366000Y-77666001I0J249999D01*
G01*
G37*
%TD*%
D21*
%TO.C,J6*%
X249356000Y-63610000D03*
D22*
X261456000Y-63610000D03*
D23*
X257556000Y-67310000D03*
X250556000Y-67310000D03*
D24*
X258656000Y-63610000D03*
X256756000Y-71010000D03*
X259556000Y-71010000D03*
%TD*%
D19*
%TO.C,D11*%
X211708000Y-56388000D03*
X208408000Y-56388000D03*
%TD*%
%TO.C,R2*%
G36*
G01*
X217366000Y-66998001D02*
X217366000Y-66097999D01*
G75*
G02*
X217615999Y-65848000I249999J0D01*
G01*
X218266001Y-65848000D01*
G75*
G02*
X218516000Y-66097999I0J-249999D01*
G01*
X218516000Y-66998001D01*
G75*
G02*
X218266001Y-67248000I-249999J0D01*
G01*
X217615999Y-67248000D01*
G75*
G02*
X217366000Y-66998001I0J249999D01*
G01*
G37*
G36*
G01*
X215316000Y-66998001D02*
X215316000Y-66097999D01*
G75*
G02*
X215565999Y-65848000I249999J0D01*
G01*
X216216001Y-65848000D01*
G75*
G02*
X216466000Y-66097999I0J-249999D01*
G01*
X216466000Y-66998001D01*
G75*
G02*
X216216001Y-67248000I-249999J0D01*
G01*
X215565999Y-67248000D01*
G75*
G02*
X215316000Y-66998001I0J249999D01*
G01*
G37*
%TD*%
%TO.C,R6*%
G36*
G01*
X215316000Y-84270001D02*
X215316000Y-83369999D01*
G75*
G02*
X215565999Y-83120000I249999J0D01*
G01*
X216216001Y-83120000D01*
G75*
G02*
X216466000Y-83369999I0J-249999D01*
G01*
X216466000Y-84270001D01*
G75*
G02*
X216216001Y-84520000I-249999J0D01*
G01*
X215565999Y-84520000D01*
G75*
G02*
X215316000Y-84270001I0J249999D01*
G01*
G37*
G36*
G01*
X217366000Y-84270001D02*
X217366000Y-83369999D01*
G75*
G02*
X217615999Y-83120000I249999J0D01*
G01*
X218266001Y-83120000D01*
G75*
G02*
X218516000Y-83369999I0J-249999D01*
G01*
X218516000Y-84270001D01*
G75*
G02*
X218266001Y-84520000I-249999J0D01*
G01*
X217615999Y-84520000D01*
G75*
G02*
X217366000Y-84270001I0J249999D01*
G01*
G37*
%TD*%
%TO.C,R9*%
G36*
G01*
X193218000Y-74618001D02*
X193218000Y-73717999D01*
G75*
G02*
X193467999Y-73468000I249999J0D01*
G01*
X194118001Y-73468000D01*
G75*
G02*
X194368000Y-73717999I0J-249999D01*
G01*
X194368000Y-74618001D01*
G75*
G02*
X194118001Y-74868000I-249999J0D01*
G01*
X193467999Y-74868000D01*
G75*
G02*
X193218000Y-74618001I0J249999D01*
G01*
G37*
G36*
G01*
X195268000Y-74618001D02*
X195268000Y-73717999D01*
G75*
G02*
X195517999Y-73468000I249999J0D01*
G01*
X196168001Y-73468000D01*
G75*
G02*
X196418000Y-73717999I0J-249999D01*
G01*
X196418000Y-74618001D01*
G75*
G02*
X196168001Y-74868000I-249999J0D01*
G01*
X195517999Y-74868000D01*
G75*
G02*
X195268000Y-74618001I0J249999D01*
G01*
G37*
%TD*%
%TO.C,R12*%
G36*
G01*
X195268000Y-76904001D02*
X195268000Y-76003999D01*
G75*
G02*
X195517999Y-75754000I249999J0D01*
G01*
X196168001Y-75754000D01*
G75*
G02*
X196418000Y-76003999I0J-249999D01*
G01*
X196418000Y-76904001D01*
G75*
G02*
X196168001Y-77154000I-249999J0D01*
G01*
X195517999Y-77154000D01*
G75*
G02*
X195268000Y-76904001I0J249999D01*
G01*
G37*
G36*
G01*
X193218000Y-76904001D02*
X193218000Y-76003999D01*
G75*
G02*
X193467999Y-75754000I249999J0D01*
G01*
X194118001Y-75754000D01*
G75*
G02*
X194368000Y-76003999I0J-249999D01*
G01*
X194368000Y-76904001D01*
G75*
G02*
X194118001Y-77154000I-249999J0D01*
G01*
X193467999Y-77154000D01*
G75*
G02*
X193218000Y-76904001I0J249999D01*
G01*
G37*
%TD*%
D25*
%TO.C,U2*%
X260858000Y-30226000D03*
D26*
X232918000Y-45466000D03*
X258318000Y-30226000D03*
X235458000Y-45466000D03*
X255778000Y-30226000D03*
X237998000Y-45466000D03*
X253238000Y-30226000D03*
X240538000Y-45466000D03*
X250698000Y-30226000D03*
X243078000Y-45466000D03*
X248158000Y-30226000D03*
X245618000Y-45466000D03*
X245618000Y-30226000D03*
X248158000Y-45466000D03*
X243078000Y-30226000D03*
X250698000Y-45466000D03*
X240538000Y-30226000D03*
X253238000Y-45466000D03*
X237998000Y-30226000D03*
X255778000Y-45466000D03*
X235458000Y-30226000D03*
X258318000Y-45466000D03*
X232918000Y-30226000D03*
X260858000Y-45466000D03*
%TD*%
D27*
%TO.C,U6*%
X230928000Y-66050000D03*
X230928000Y-65200000D03*
X230928000Y-64350000D03*
D28*
X237998000Y-63500000D03*
D27*
X230928000Y-62650000D03*
X230928000Y-61800000D03*
X230928000Y-60950000D03*
%TD*%
%TO.C,R33*%
G36*
G01*
X217473000Y-34093999D02*
X217473000Y-34994001D01*
G75*
G02*
X217223001Y-35244000I-249999J0D01*
G01*
X216572999Y-35244000D01*
G75*
G02*
X216323000Y-34994001I0J249999D01*
G01*
X216323000Y-34093999D01*
G75*
G02*
X216572999Y-33844000I249999J0D01*
G01*
X217223001Y-33844000D01*
G75*
G02*
X217473000Y-34093999I0J-249999D01*
G01*
G37*
G36*
G01*
X219523000Y-34093999D02*
X219523000Y-34994001D01*
G75*
G02*
X219273001Y-35244000I-249999J0D01*
G01*
X218622999Y-35244000D01*
G75*
G02*
X218373000Y-34994001I0J249999D01*
G01*
X218373000Y-34093999D01*
G75*
G02*
X218622999Y-33844000I249999J0D01*
G01*
X219273001Y-33844000D01*
G75*
G02*
X219523000Y-34093999I0J-249999D01*
G01*
G37*
%TD*%
%TO.C,C17*%
G36*
G01*
X172015999Y-61918000D02*
X172916001Y-61918000D01*
G75*
G02*
X173166000Y-62167999I0J-249999D01*
G01*
X173166000Y-62818001D01*
G75*
G02*
X172916001Y-63068000I-249999J0D01*
G01*
X172015999Y-63068000D01*
G75*
G02*
X171766000Y-62818001I0J249999D01*
G01*
X171766000Y-62167999D01*
G75*
G02*
X172015999Y-61918000I249999J0D01*
G01*
G37*
G36*
G01*
X172015999Y-59868000D02*
X172916001Y-59868000D01*
G75*
G02*
X173166000Y-60117999I0J-249999D01*
G01*
X173166000Y-60768001D01*
G75*
G02*
X172916001Y-61018000I-249999J0D01*
G01*
X172015999Y-61018000D01*
G75*
G02*
X171766000Y-60768001I0J249999D01*
G01*
X171766000Y-60117999D01*
G75*
G02*
X172015999Y-59868000I249999J0D01*
G01*
G37*
%TD*%
D29*
%TO.C,U4*%
X219136000Y-40560000D03*
X218186000Y-40560000D03*
X217236000Y-40560000D03*
X217236000Y-43260000D03*
X219136000Y-43260000D03*
X218186000Y-43260000D03*
%TD*%
D30*
%TO.C,TP1*%
X181610000Y-32004000D03*
%TD*%
D31*
%TO.C,U8*%
X226314000Y-52070000D03*
X223774000Y-59690000D03*
X223774000Y-52070000D03*
X226314000Y-59690000D03*
%TD*%
D30*
%TO.C,TP2*%
X175514000Y-32258000D03*
%TD*%
%TO.C,TP3*%
X181610000Y-37592000D03*
%TD*%
D27*
%TO.C,U7*%
X231182000Y-74666000D03*
X231182000Y-75516000D03*
X231182000Y-76366000D03*
D28*
X238252000Y-77216000D03*
D27*
X231182000Y-78066000D03*
X231182000Y-78916000D03*
X231182000Y-79766000D03*
%TD*%
D32*
%TO.C,U5*%
X194183000Y-44610000D03*
X195453000Y-44610000D03*
X196723000Y-44610000D03*
X197993000Y-44610000D03*
X197993000Y-39210000D03*
X196723000Y-39210000D03*
X195453000Y-39210000D03*
X194183000Y-39210000D03*
D33*
X196088000Y-41910000D03*
%TD*%
D31*
%TO.C,U9*%
X226314000Y-76962000D03*
X223774000Y-69342000D03*
X223774000Y-76962000D03*
X226314000Y-69342000D03*
%TD*%
D19*
%TO.C,D8*%
X208408000Y-71374000D03*
X211708000Y-71374000D03*
%TD*%
%TO.C,D10*%
X208408000Y-68580000D03*
X211708000Y-68580000D03*
%TD*%
%TO.C,U3*%
G36*
G01*
X198993000Y-74720000D02*
X198793000Y-74720000D01*
G75*
G02*
X198693000Y-74620000I0J100000D01*
G01*
X198693000Y-73345000D01*
G75*
G02*
X198793000Y-73245000I100000J0D01*
G01*
X198993000Y-73245000D01*
G75*
G02*
X199093000Y-73345000I0J-100000D01*
G01*
X199093000Y-74620000D01*
G75*
G02*
X198993000Y-74720000I-100000J0D01*
G01*
G37*
G36*
G01*
X199643000Y-74720000D02*
X199443000Y-74720000D01*
G75*
G02*
X199343000Y-74620000I0J100000D01*
G01*
X199343000Y-73345000D01*
G75*
G02*
X199443000Y-73245000I100000J0D01*
G01*
X199643000Y-73245000D01*
G75*
G02*
X199743000Y-73345000I0J-100000D01*
G01*
X199743000Y-74620000D01*
G75*
G02*
X199643000Y-74720000I-100000J0D01*
G01*
G37*
G36*
G01*
X200293000Y-74720000D02*
X200093000Y-74720000D01*
G75*
G02*
X199993000Y-74620000I0J100000D01*
G01*
X199993000Y-73345000D01*
G75*
G02*
X200093000Y-73245000I100000J0D01*
G01*
X200293000Y-73245000D01*
G75*
G02*
X200393000Y-73345000I0J-100000D01*
G01*
X200393000Y-74620000D01*
G75*
G02*
X200293000Y-74720000I-100000J0D01*
G01*
G37*
G36*
G01*
X200943000Y-74720000D02*
X200743000Y-74720000D01*
G75*
G02*
X200643000Y-74620000I0J100000D01*
G01*
X200643000Y-73345000D01*
G75*
G02*
X200743000Y-73245000I100000J0D01*
G01*
X200943000Y-73245000D01*
G75*
G02*
X201043000Y-73345000I0J-100000D01*
G01*
X201043000Y-74620000D01*
G75*
G02*
X200943000Y-74720000I-100000J0D01*
G01*
G37*
G36*
G01*
X201593000Y-74720000D02*
X201393000Y-74720000D01*
G75*
G02*
X201293000Y-74620000I0J100000D01*
G01*
X201293000Y-73345000D01*
G75*
G02*
X201393000Y-73245000I100000J0D01*
G01*
X201593000Y-73245000D01*
G75*
G02*
X201693000Y-73345000I0J-100000D01*
G01*
X201693000Y-74620000D01*
G75*
G02*
X201593000Y-74720000I-100000J0D01*
G01*
G37*
G36*
G01*
X202243000Y-74720000D02*
X202043000Y-74720000D01*
G75*
G02*
X201943000Y-74620000I0J100000D01*
G01*
X201943000Y-73345000D01*
G75*
G02*
X202043000Y-73245000I100000J0D01*
G01*
X202243000Y-73245000D01*
G75*
G02*
X202343000Y-73345000I0J-100000D01*
G01*
X202343000Y-74620000D01*
G75*
G02*
X202243000Y-74720000I-100000J0D01*
G01*
G37*
G36*
G01*
X202893000Y-74720000D02*
X202693000Y-74720000D01*
G75*
G02*
X202593000Y-74620000I0J100000D01*
G01*
X202593000Y-73345000D01*
G75*
G02*
X202693000Y-73245000I100000J0D01*
G01*
X202893000Y-73245000D01*
G75*
G02*
X202993000Y-73345000I0J-100000D01*
G01*
X202993000Y-74620000D01*
G75*
G02*
X202893000Y-74720000I-100000J0D01*
G01*
G37*
G36*
G01*
X203543000Y-74720000D02*
X203343000Y-74720000D01*
G75*
G02*
X203243000Y-74620000I0J100000D01*
G01*
X203243000Y-73345000D01*
G75*
G02*
X203343000Y-73245000I100000J0D01*
G01*
X203543000Y-73245000D01*
G75*
G02*
X203643000Y-73345000I0J-100000D01*
G01*
X203643000Y-74620000D01*
G75*
G02*
X203543000Y-74720000I-100000J0D01*
G01*
G37*
G36*
G01*
X203543000Y-68995000D02*
X203343000Y-68995000D01*
G75*
G02*
X203243000Y-68895000I0J100000D01*
G01*
X203243000Y-67620000D01*
G75*
G02*
X203343000Y-67520000I100000J0D01*
G01*
X203543000Y-67520000D01*
G75*
G02*
X203643000Y-67620000I0J-100000D01*
G01*
X203643000Y-68895000D01*
G75*
G02*
X203543000Y-68995000I-100000J0D01*
G01*
G37*
G36*
G01*
X202893000Y-68995000D02*
X202693000Y-68995000D01*
G75*
G02*
X202593000Y-68895000I0J100000D01*
G01*
X202593000Y-67620000D01*
G75*
G02*
X202693000Y-67520000I100000J0D01*
G01*
X202893000Y-67520000D01*
G75*
G02*
X202993000Y-67620000I0J-100000D01*
G01*
X202993000Y-68895000D01*
G75*
G02*
X202893000Y-68995000I-100000J0D01*
G01*
G37*
G36*
G01*
X202243000Y-68995000D02*
X202043000Y-68995000D01*
G75*
G02*
X201943000Y-68895000I0J100000D01*
G01*
X201943000Y-67620000D01*
G75*
G02*
X202043000Y-67520000I100000J0D01*
G01*
X202243000Y-67520000D01*
G75*
G02*
X202343000Y-67620000I0J-100000D01*
G01*
X202343000Y-68895000D01*
G75*
G02*
X202243000Y-68995000I-100000J0D01*
G01*
G37*
G36*
G01*
X201593000Y-68995000D02*
X201393000Y-68995000D01*
G75*
G02*
X201293000Y-68895000I0J100000D01*
G01*
X201293000Y-67620000D01*
G75*
G02*
X201393000Y-67520000I100000J0D01*
G01*
X201593000Y-67520000D01*
G75*
G02*
X201693000Y-67620000I0J-100000D01*
G01*
X201693000Y-68895000D01*
G75*
G02*
X201593000Y-68995000I-100000J0D01*
G01*
G37*
G36*
G01*
X200943000Y-68995000D02*
X200743000Y-68995000D01*
G75*
G02*
X200643000Y-68895000I0J100000D01*
G01*
X200643000Y-67620000D01*
G75*
G02*
X200743000Y-67520000I100000J0D01*
G01*
X200943000Y-67520000D01*
G75*
G02*
X201043000Y-67620000I0J-100000D01*
G01*
X201043000Y-68895000D01*
G75*
G02*
X200943000Y-68995000I-100000J0D01*
G01*
G37*
G36*
G01*
X200293000Y-68995000D02*
X200093000Y-68995000D01*
G75*
G02*
X199993000Y-68895000I0J100000D01*
G01*
X199993000Y-67620000D01*
G75*
G02*
X200093000Y-67520000I100000J0D01*
G01*
X200293000Y-67520000D01*
G75*
G02*
X200393000Y-67620000I0J-100000D01*
G01*
X200393000Y-68895000D01*
G75*
G02*
X200293000Y-68995000I-100000J0D01*
G01*
G37*
G36*
G01*
X199643000Y-68995000D02*
X199443000Y-68995000D01*
G75*
G02*
X199343000Y-68895000I0J100000D01*
G01*
X199343000Y-67620000D01*
G75*
G02*
X199443000Y-67520000I100000J0D01*
G01*
X199643000Y-67520000D01*
G75*
G02*
X199743000Y-67620000I0J-100000D01*
G01*
X199743000Y-68895000D01*
G75*
G02*
X199643000Y-68995000I-100000J0D01*
G01*
G37*
G36*
G01*
X198993000Y-68995000D02*
X198793000Y-68995000D01*
G75*
G02*
X198693000Y-68895000I0J100000D01*
G01*
X198693000Y-67620000D01*
G75*
G02*
X198793000Y-67520000I100000J0D01*
G01*
X198993000Y-67520000D01*
G75*
G02*
X199093000Y-67620000I0J-100000D01*
G01*
X199093000Y-68895000D01*
G75*
G02*
X198993000Y-68995000I-100000J0D01*
G01*
G37*
%TD*%
%TO.C,R32*%
G36*
G01*
X169850000Y-58616001D02*
X169850000Y-57715999D01*
G75*
G02*
X170099999Y-57466000I249999J0D01*
G01*
X170750001Y-57466000D01*
G75*
G02*
X171000000Y-57715999I0J-249999D01*
G01*
X171000000Y-58616001D01*
G75*
G02*
X170750001Y-58866000I-249999J0D01*
G01*
X170099999Y-58866000D01*
G75*
G02*
X169850000Y-58616001I0J249999D01*
G01*
G37*
G36*
G01*
X171900000Y-58616001D02*
X171900000Y-57715999D01*
G75*
G02*
X172149999Y-57466000I249999J0D01*
G01*
X172800001Y-57466000D01*
G75*
G02*
X173050000Y-57715999I0J-249999D01*
G01*
X173050000Y-58616001D01*
G75*
G02*
X172800001Y-58866000I-249999J0D01*
G01*
X172149999Y-58866000D01*
G75*
G02*
X171900000Y-58616001I0J249999D01*
G01*
G37*
%TD*%
%TO.C,R34*%
G36*
G01*
X215214000Y-34093999D02*
X215214000Y-34994001D01*
G75*
G02*
X214964001Y-35244000I-249999J0D01*
G01*
X214313999Y-35244000D01*
G75*
G02*
X214064000Y-34994001I0J249999D01*
G01*
X214064000Y-34093999D01*
G75*
G02*
X214313999Y-33844000I249999J0D01*
G01*
X214964001Y-33844000D01*
G75*
G02*
X215214000Y-34093999I0J-249999D01*
G01*
G37*
G36*
G01*
X213164000Y-34093999D02*
X213164000Y-34994001D01*
G75*
G02*
X212914001Y-35244000I-249999J0D01*
G01*
X212263999Y-35244000D01*
G75*
G02*
X212014000Y-34994001I0J249999D01*
G01*
X212014000Y-34093999D01*
G75*
G02*
X212263999Y-33844000I249999J0D01*
G01*
X212914001Y-33844000D01*
G75*
G02*
X213164000Y-34093999I0J-249999D01*
G01*
G37*
%TD*%
D20*
%TO.C,D7*%
X228476000Y-43688000D03*
X225676000Y-43688000D03*
%TD*%
%TO.C,C10*%
G36*
G01*
X210000000Y-36772001D02*
X210000000Y-35871999D01*
G75*
G02*
X210249999Y-35622000I249999J0D01*
G01*
X210900001Y-35622000D01*
G75*
G02*
X211150000Y-35871999I0J-249999D01*
G01*
X211150000Y-36772001D01*
G75*
G02*
X210900001Y-37022000I-249999J0D01*
G01*
X210249999Y-37022000D01*
G75*
G02*
X210000000Y-36772001I0J249999D01*
G01*
G37*
G36*
G01*
X207950000Y-36772001D02*
X207950000Y-35871999D01*
G75*
G02*
X208199999Y-35622000I249999J0D01*
G01*
X208850001Y-35622000D01*
G75*
G02*
X209100000Y-35871999I0J-249999D01*
G01*
X209100000Y-36772001D01*
G75*
G02*
X208850001Y-37022000I-249999J0D01*
G01*
X208199999Y-37022000D01*
G75*
G02*
X207950000Y-36772001I0J249999D01*
G01*
G37*
%TD*%
%TO.C,C12*%
G36*
G01*
X195129999Y-46660000D02*
X196030001Y-46660000D01*
G75*
G02*
X196280000Y-46909999I0J-249999D01*
G01*
X196280000Y-47560001D01*
G75*
G02*
X196030001Y-47810000I-249999J0D01*
G01*
X195129999Y-47810000D01*
G75*
G02*
X194880000Y-47560001I0J249999D01*
G01*
X194880000Y-46909999D01*
G75*
G02*
X195129999Y-46660000I249999J0D01*
G01*
G37*
G36*
G01*
X195129999Y-48710000D02*
X196030001Y-48710000D01*
G75*
G02*
X196280000Y-48959999I0J-249999D01*
G01*
X196280000Y-49610001D01*
G75*
G02*
X196030001Y-49860000I-249999J0D01*
G01*
X195129999Y-49860000D01*
G75*
G02*
X194880000Y-49610001I0J249999D01*
G01*
X194880000Y-48959999D01*
G75*
G02*
X195129999Y-48710000I249999J0D01*
G01*
G37*
%TD*%
D30*
%TO.C,TP4*%
X181610000Y-43434000D03*
%TD*%
D34*
%TO.C,SW1*%
X173944000Y-77432000D03*
X173944000Y-66632000D03*
D23*
X175229000Y-69732000D03*
X175229000Y-74732000D03*
X172794000Y-74732000D03*
X172794000Y-72232000D03*
X172794000Y-69732000D03*
%TD*%
%TO.C,C2*%
G36*
G01*
X210116000Y-65589999D02*
X210116000Y-66490001D01*
G75*
G02*
X209866001Y-66740000I-249999J0D01*
G01*
X209215999Y-66740000D01*
G75*
G02*
X208966000Y-66490001I0J249999D01*
G01*
X208966000Y-65589999D01*
G75*
G02*
X209215999Y-65340000I249999J0D01*
G01*
X209866001Y-65340000D01*
G75*
G02*
X210116000Y-65589999I0J-249999D01*
G01*
G37*
G36*
G01*
X212166000Y-65589999D02*
X212166000Y-66490001D01*
G75*
G02*
X211916001Y-66740000I-249999J0D01*
G01*
X211265999Y-66740000D01*
G75*
G02*
X211016000Y-66490001I0J249999D01*
G01*
X211016000Y-65589999D01*
G75*
G02*
X211265999Y-65340000I249999J0D01*
G01*
X211916001Y-65340000D01*
G75*
G02*
X212166000Y-65589999I0J-249999D01*
G01*
G37*
%TD*%
%TO.C,C11*%
G36*
G01*
X224612000Y-61779999D02*
X224612000Y-62680001D01*
G75*
G02*
X224362001Y-62930000I-249999J0D01*
G01*
X223711999Y-62930000D01*
G75*
G02*
X223462000Y-62680001I0J249999D01*
G01*
X223462000Y-61779999D01*
G75*
G02*
X223711999Y-61530000I249999J0D01*
G01*
X224362001Y-61530000D01*
G75*
G02*
X224612000Y-61779999I0J-249999D01*
G01*
G37*
G36*
G01*
X222562000Y-61779999D02*
X222562000Y-62680001D01*
G75*
G02*
X222312001Y-62930000I-249999J0D01*
G01*
X221661999Y-62930000D01*
G75*
G02*
X221412000Y-62680001I0J249999D01*
G01*
X221412000Y-61779999D01*
G75*
G02*
X221661999Y-61530000I249999J0D01*
G01*
X222312001Y-61530000D01*
G75*
G02*
X222562000Y-61779999I0J-249999D01*
G01*
G37*
%TD*%
%TO.C,C5*%
G36*
G01*
X210370000Y-80067999D02*
X210370000Y-80968001D01*
G75*
G02*
X210120001Y-81218000I-249999J0D01*
G01*
X209469999Y-81218000D01*
G75*
G02*
X209220000Y-80968001I0J249999D01*
G01*
X209220000Y-80067999D01*
G75*
G02*
X209469999Y-79818000I249999J0D01*
G01*
X210120001Y-79818000D01*
G75*
G02*
X210370000Y-80067999I0J-249999D01*
G01*
G37*
G36*
G01*
X212420000Y-80067999D02*
X212420000Y-80968001D01*
G75*
G02*
X212170001Y-81218000I-249999J0D01*
G01*
X211519999Y-81218000D01*
G75*
G02*
X211270000Y-80968001I0J249999D01*
G01*
X211270000Y-80067999D01*
G75*
G02*
X211519999Y-79818000I249999J0D01*
G01*
X212170001Y-79818000D01*
G75*
G02*
X212420000Y-80067999I0J-249999D01*
G01*
G37*
%TD*%
M02*
