M48
; DRILL file {KiCad (5.1.6)-1} date 01/23/21 13:54:24
; FORMAT={-:-/ absolute / inch / decimal}
; #@! TF.CreationDate,2021-01-23T13:54:24+00:00
; #@! TF.GenerationSoftware,Kicad,Pcbnew,(5.1.6)-1
; #@! TF.FileFunction,Plated,1,2,PTH
FMAT,2
INCH
T1C0.0157
T2C0.0300
T3C0.0315
T4C0.0394
T5C0.0600
T6C0.0630
%
G90
G05
T1
X6.7382Y-2.46
X6.79Y-1.99
X6.79Y-2.06
X6.96Y-2.52
X7.16Y-1.85
X7.21Y-2.46
X7.22Y-2.08
X7.22Y-3.0
X7.25Y-3.14
X7.25Y-3.2
X7.2529Y-1.7682
X7.34Y-2.46
X7.51Y-2.46
X7.5153Y-1.7547
X7.52Y-1.82
X7.76Y-1.94
X7.86Y-2.4
X7.91Y-1.74
X7.91Y-3.01
X7.95Y-2.85
X7.96Y-1.74
X8.01Y-1.8
X8.06Y-1.74
X8.06Y-1.83
X8.13Y-1.18
X8.15Y-2.81
X8.1865Y-1.1661
X8.2498Y-2.9698
X8.25Y-2.39
X8.25Y-2.54
X8.25Y-3.11
X8.271Y-1.118
X8.29Y-1.38
X8.3Y-1.92
X8.33Y-1.1094
X8.45Y-2.73
X8.5Y-1.87
X8.53Y-1.53
X8.54Y-2.0
X8.59Y-2.33
X8.62Y-2.0
X8.62Y-2.28
X8.7328Y-2.39
X8.74Y-2.0
X8.74Y-2.28
X8.74Y-2.33
X8.76Y-2.64
X8.76Y-3.17
X8.86Y-2.5896
X8.9Y-1.66
X8.94Y-2.413
X8.9965Y-3.0735
X8.9993Y-2.5315
X9.01Y-2.96
X9.0198Y-2.62
X9.02Y-3.03
X9.0209Y-2.4986
X9.045Y-1.965
X9.0955Y-3.394
X9.18Y-1.64
X9.22Y-2.08
X9.22Y-2.77
X9.34Y-1.36
X9.6Y-1.41
X9.66Y-1.5
X9.68Y-1.32
X9.79Y-2.14
X9.8Y-1.97
X9.83Y-1.41
X9.95Y-2.5
X10.31Y-2.97
X10.34Y-3.35
T2
X6.86Y-1.57
X6.86Y-1.67
X6.86Y-1.77
X6.86Y-1.87
T3
X9.17Y-1.19
X9.17Y-1.79
X9.27Y-1.19
X9.27Y-1.79
X9.37Y-1.19
X9.37Y-1.79
X9.47Y-1.19
X9.47Y-1.79
X9.57Y-1.19
X9.57Y-1.79
X9.67Y-1.19
X9.67Y-1.79
X9.77Y-1.19
X9.77Y-1.79
X9.87Y-1.19
X9.87Y-1.79
X9.97Y-1.19
X9.97Y-1.79
X10.07Y-1.19
X10.07Y-1.79
X10.17Y-1.19
X10.17Y-1.79
X10.27Y-1.19
X10.27Y-1.79
T4
X7.02Y-3.17
X6.8029Y-2.7454
X6.8029Y-2.8438
X6.8029Y-2.9422
X6.8988Y-2.7454
X6.8988Y-2.9422
T5
X10.05Y-1.96
X10.05Y-2.32
X10.22Y-1.96
X10.22Y-2.32
T6
X6.91Y-1.27
X7.15Y-1.71
X7.15Y-1.26
X7.15Y-1.48
T4
G00X10.01Y-3.1831
M15
G01X10.01Y-3.1044
M16
G05
G00X10.1675Y-2.9587
M15
G01X10.0887Y-2.9587
M16
G05
G00X10.2462Y-3.1831
M15
G01X10.2462Y-3.1044
M16
G05
T0
M30
